# MagicaVoxel @ Ephtracy

# group
o 

# material
mtllib cloaked.mtl
usemtl palette

# normals
vn -1 0 0
vn 1 0 0
vn 0 0 1
vn 0 0 -1
vn 0 -1 0
vn 0 1 0

# texcoords
vt 0.00195312 0.5
vt 0.00585938 0.5
vt 0.0332031 0.5
vt 0.0371094 0.5
vt 0.0410156 0.5
vt 0.0449219 0.5
vt 0.537109 0.5
vt 0.861328 0.5
vt 0.869141 0.5
vt 0.873047 0.5
vt 0.958984 0.5
vt 0.962891 0.5
vt 0.986328 0.5
vt 0.990234 0.5
vt 0.994141 0.5

# verts
v -0.5 0.4 0.3
v -0.5 0.4 0.2
v -0.5 0.5 0.3
v -0.5 0.5 0.2
v -0.5 0.7 0.2
v -0.5 0.7 5.96046e-08
v -0.5 0.7 -0.3
v -0.5 0.8 0.4
v -0.5 0.8 0.3
v -0.5 0.8 0.2
v -0.5 0.8 5.96046e-08
v -0.5 0.8 -0.0999999
v -0.5 0.8 -0.3
v -0.5 0.8 -0.4
v -0.5 0.9 -0.4
v -0.5 0.9 -0.5
v -0.5 1 -0.3
v -0.5 1 -0.5
v -0.5 1.1 0.4
v -0.5 1.1 0.3
v -0.5 1.1 -0.4
v -0.5 1.1 -0.5
v -0.5 1.2 0.3
v -0.5 1.2 0.2
v -0.5 1.2 5.96046e-08
v -0.5 1.2 -0.0999999
v -0.5 1.2 -0.3
v -0.5 1.2 -0.4
v -0.5 1.3 0.2
v -0.5 1.3 5.96046e-08
v -0.5 1.3 -0.3
v -0.4 0.2 0.5
v -0.4 0.2 0.4
v -0.4 0.2 0.3
v -0.4 0.3 0.4
v -0.4 0.3 0.3
v -0.4 0.3 0.2
v -0.4 0.4 0.5
v -0.4 0.4 0.4
v -0.4 0.4 0.3
v -0.4 0.4 0.2
v -0.4 0.4 0.1
v -0.4 0.4 5.96046e-08
v -0.4 0.5 0.4
v -0.4 0.5 0.3
v -0.4 0.5 0.2
v -0.4 0.5 0.1
v -0.4 0.5 5.96046e-08
v -0.4 0.5 -0.2
v -0.4 0.6 0.3
v -0.4 0.6 0.2
v -0.4 0.6 5.96046e-08
v -0.4 0.6 -0.2
v -0.4 0.6 -0.3
v -0.4 0.7 0.4
v -0.4 0.7 0.3
v -0.4 0.7 0.2
v -0.4 0.7 5.96046e-08
v -0.4 0.7 -0.3
v -0.4 0.7 -0.4
v -0.4 0.8 0.4
v -0.4 0.8 0.3
v -0.4 0.8 0.2
v -0.4 0.8 -0.3
v -0.4 0.8 -0.4
v -0.4 0.8 -0.5
v -0.4 0.9 -0.4
v -0.4 0.9 -0.5
v -0.4 1.1 0.4
v -0.4 1.1 0.3
v -0.4 1.1 -0.4
v -0.4 1.1 -0.5
v -0.4 1.2 0.4
v -0.4 1.2 0.3
v -0.4 1.2 0.2
v -0.4 1.2 -0.3
v -0.4 1.2 -0.4
v -0.4 1.2 -0.5
v -0.4 1.3 0.3
v -0.4 1.3 0.2
v -0.4 1.3 0.1
v -0.4 1.3 5.96046e-08
v -0.4 1.3 -0.2
v -0.4 1.3 -0.3
v -0.4 1.3 -0.4
v -0.4 1.4 0.1
v -0.4 1.4 5.96046e-08
v -0.4 1.4 -0.2
v -0.3 0.1 0.2
v -0.3 0.1 -0.3
v -0.3 0.3 0.2
v -0.3 0.3 -0.5
v -0.3 0.3 -0.6
v -0.3 0.4 0.2
v -0.3 0.4 0.1
v -0.3 0.4 5.96046e-08
v -0.3 0.5 0.2
v -0.3 0.5 0.1
v -0.3 0.5 5.96046e-08
v -0.3 0.5 -0.2
v -0.3 0.5 -0.4
v -0.3 0.5 -0.5
v -0.3 0.6 0.2
v -0.3 0.6 5.96046e-08
v -0.3 0.6 -0.2
v -0.3 0.6 -0.3
v -0.3 0.6 -0.4
v -0.3 0.6 -0.5
v -0.3 0.6 -0.6
v -0.3 0.7 -0.3
v -0.3 0.7 -0.4
v -0.3 0.8 -0.4
v -0.3 0.8 -0.5
v -0.3 0.9 -0.0999999
v -0.3 0.9 -0.3
v -0.3 1.1 -0.0999999
v -0.3 1.1 -0.3
v -0.3 1.2 0.4
v -0.3 1.2 0.3
v -0.3 1.2 -0.4
v -0.3 1.2 -0.5
v -0.3 1.3 0.4
v -0.3 1.3 0.3
v -0.3 1.3 0.1
v -0.3 1.3 -0.2
v -0.3 1.3 -0.3
v -0.3 1.3 -0.4
v -0.3 1.3 -0.5
v -0.3 1.4 0.3
v -0.3 1.4 0.1
v -0.3 1.4 -0.2
v -0.3 1.4 -0.3
v -0.3 1.4 -0.4
v -0.2 0 0.1
v -0.2 0 -0.2
v -0.2 0.1 0.1
v -0.2 0.1 -0.2
v -0.2 0.2 -0.6
v -0.2 0.2 -0.7
v -0.2 0.3 -0.6
v -0.2 0.5 -0.6
v -0.2 0.5 -0.7
v -0.2 0.6 -0.5
v -0.2 0.6 -0.6
v -0.2 0.7 -0.5
v -0.2 0.7 -0.6
v -0.2 0.9 -0.5
v -0.2 0.9 -0.6
v -0.2 1 -0.5
v -0.2 1.1 -0.5
v -0.2 1.1 -0.6
v -0.2 1.3 0.4
v -0.2 1.3 0.3
v -0.2 1.3 -0.4
v -0.2 1.3 -0.5
v -0.2 1.4 0.4
v -0.2 1.4 0.3
v -0.2 1.4 0.1
v -0.2 1.4 -0.2
v -0.2 1.4 -0.4
v -0.2 1.4 -0.5
v -0.2 1.5 0.1
v -0.2 1.5 -0.2
v -0.1 0.1 -0.6
v -0.1 0.1 -0.7
v -0.1 0.2 -0.6
v -0.1 0.2 -0.7
v -0.1 0.4 -0.4
v -0.1 0.4 -0.5
v -0.1 0.5 0.3
v -0.1 0.5 0.2
v -0.1 0.5 -0.3
v -0.1 0.5 -0.4
v -0.1 0.5 -0.5
v -0.1 0.6 0.3
v -0.1 0.6 0.2
v -0.1 0.6 -0.3
v -0.1 0.6 -0.4
v -0.1 0.8 -0.5
v -0.1 0.8 -0.6
v -0.1 0.9 -0.5
v -0.1 0.9 -0.6
v -0.1 1.1 -0.5
v -0.1 1.1 -0.6
v -0.1 1.2 -0.5
v -0.1 1.2 -0.6
v -0.1 1.4 0.2
v -0.1 1.4 0.1
v -0.1 1.4 -0.2
v -0.1 1.4 -0.3
v -0.1 1.5 0.2
v -0.1 1.5 0.1
v -0.1 1.5 -0.2
v -0.1 1.5 -0.3
v 0.1 0.3 -0.5
v 0.1 0.3 -0.6
v 0.1 0.4 -0.5
v 0.1 0.4 -0.6
v 0.1 0.6 0.3
v 0.1 0.6 0.2
v 0.1 0.7 0.3
v 0.1 0.7 0.2
v 0.1 1.1 0.3
v 0.1 1.1 0.2
v 0.1 1.2 0.3
v 0.1 1.2 0.2
v 0.2 0.4 0.3
v 0.2 0.4 0.2
v 0.2 0.5 0.3
v 0.2 0.5 0.2
v 0.2 1 0.3
v 0.2 1 0.2
v 0.2 1.1 0.4
v 0.2 1.1 0.3
v 0.2 1.1 0.2
v 0.2 1.2 0.4
v 0.2 1.2 0.3
v 0.3 0.2 0.5
v 0.3 0.2 0.4
v 0.3 0.2 0.3
v 0.3 0.3 0.4
v 0.3 0.3 0.3
v 0.3 0.3 0.2
v 0.3 0.4 0.5
v 0.3 0.4 0.4
v 0.3 0.4 0.3
v 0.3 0.4 0.2
v 0.3 0.5 0.4
v 0.3 0.5 0.3
v 0.3 0.5 0.2
v 0.3 0.6 0.3
v 0.3 0.6 0.2
v 0.3 0.7 0.4
v 0.3 0.7 0.3
v 0.3 0.7 0.2
v 0.3 1 0.3
v 0.3 1 0.2
v 0.3 1.1 0.4
v 0.3 1.1 0.3
v 0.3 1.1 -0.3
v 0.3 1.1 -0.4
v 0.3 1.2 -0.3
v 0.3 1.2 -0.4
v 0.4 0.9 -0.0999999
v 0.4 0.9 -0.3
v 0.4 0.9 -0.4
v 0.4 1.1 -0.0999999
v 0.4 1.1 -0.3
v 0.4 1.1 -0.4
v -0.4 0.9 -0.0999999
v -0.4 0.9 -0.4
v -0.4 1 -0.3
v -0.4 1 -0.4
v -0.4 1.1 -0.0999999
v -0.4 1.1 -0.3
v -0.4 1.1 -0.4
v -0.3 0.2 0.5
v -0.3 0.2 0.4
v -0.3 0.2 0.3
v -0.3 0.3 0.4
v -0.3 0.3 0.3
v -0.3 0.3 0.2
v -0.3 0.4 0.5
v -0.3 0.4 0.4
v -0.3 0.4 0.3
v -0.3 0.4 0.2
v -0.3 0.5 0.4
v -0.3 0.5 0.3
v -0.3 0.5 0.2
v -0.3 0.6 0.3
v -0.3 0.6 0.2
v -0.3 0.7 0.4
v -0.3 0.7 0.3
v -0.3 0.7 0.2
v -0.3 1 0.3
v -0.3 1 0.2
v -0.3 1.1 0.4
v -0.3 1.1 0.3
v -0.3 1.1 -0.3
v -0.3 1.1 -0.4
v -0.3 1.2 -0.3
v -0.3 1.2 -0.4
v -0.2 0.4 0.3
v -0.2 0.4 0.2
v -0.2 0.5 0.3
v -0.2 0.5 0.2
v -0.2 1 0.3
v -0.2 1 0.2
v -0.2 1.1 0.4
v -0.2 1.1 0.3
v -0.2 1.1 0.2
v -0.2 1.2 0.4
v -0.2 1.2 0.3
v -0.1 0.3 -0.5
v -0.1 0.3 -0.6
v -0.1 0.4 -0.5
v -0.1 0.4 -0.6
v -0.1 0.6 0.3
v -0.1 0.6 0.2
v -0.1 0.7 0.3
v -0.1 0.7 0.2
v -0.1 1.1 0.3
v -0.1 1.1 0.2
v -0.1 1.2 0.3
v -0.1 1.2 0.2
v 0.1 0.1 -0.6
v 0.1 0.1 -0.7
v 0.1 0.2 -0.6
v 0.1 0.2 -0.7
v 0.1 0.4 -0.4
v 0.1 0.4 -0.5
v 0.1 0.5 0.3
v 0.1 0.5 0.2
v 0.1 0.5 -0.3
v 0.1 0.5 -0.4
v 0.1 0.5 -0.5
v 0.1 0.6 0.3
v 0.1 0.6 0.2
v 0.1 0.6 -0.3
v 0.1 0.6 -0.4
v 0.1 0.8 -0.5
v 0.1 0.8 -0.6
v 0.1 0.9 -0.5
v 0.1 0.9 -0.6
v 0.1 1.1 -0.5
v 0.1 1.1 -0.6
v 0.1 1.2 -0.5
v 0.1 1.2 -0.6
v 0.1 1.4 0.2
v 0.1 1.4 0.1
v 0.1 1.4 -0.2
v 0.1 1.4 -0.3
v 0.1 1.5 0.2
v 0.1 1.5 0.1
v 0.1 1.5 -0.2
v 0.1 1.5 -0.3
v 0.2 0 0.1
v 0.2 0 -0.2
v 0.2 0.1 0.1
v 0.2 0.1 -0.2
v 0.2 0.2 -0.6
v 0.2 0.2 -0.7
v 0.2 0.3 -0.6
v 0.2 0.5 -0.4
v 0.2 0.5 -0.5
v 0.2 0.5 -0.6
v 0.2 0.5 -0.7
v 0.2 0.6 -0.4
v 0.2 0.6 -0.5
v 0.2 0.6 -0.6
v 0.2 0.7 -0.5
v 0.2 0.7 -0.6
v 0.2 0.9 -0.5
v 0.2 0.9 -0.6
v 0.2 1.1 -0.5
v 0.2 1.1 -0.6
v 0.2 1.3 0.4
v 0.2 1.3 0.3
v 0.2 1.3 -0.4
v 0.2 1.3 -0.5
v 0.2 1.4 0.4
v 0.2 1.4 0.3
v 0.2 1.4 0.1
v 0.2 1.4 -0.2
v 0.2 1.4 -0.4
v 0.2 1.4 -0.5
v 0.2 1.5 0.1
v 0.2 1.5 -0.2
v 0.3 0.1 0.2
v 0.3 0.1 -0.3
v 0.3 0.3 0.2
v 0.3 0.3 -0.5
v 0.3 0.3 -0.6
v 0.3 0.4 0.2
v 0.3 0.4 0.1
v 0.3 0.4 5.96046e-08
v 0.3 0.5 0.2
v 0.3 0.5 0.1
v 0.3 0.5 5.96046e-08
v 0.3 0.5 -0.2
v 0.3 0.6 0.2
v 0.3 0.6 5.96046e-08
v 0.3 0.6 -0.2
v 0.3 0.6 -0.3
v 0.3 0.6 -0.4
v 0.3 0.6 -0.5
v 0.3 0.6 -0.6
v 0.3 0.7 -0.3
v 0.3 0.7 -0.4
v 0.3 0.8 -0.4
v 0.3 0.8 -0.5
v 0.3 0.9 -0.0999999
v 0.3 0.9 -0.3
v 0.3 1.1 -0.0999999
v 0.3 1.1 -0.3
v 0.3 1.2 0.4
v 0.3 1.2 0.3
v 0.3 1.2 -0.4
v 0.3 1.2 -0.5
v 0.3 1.3 0.4
v 0.3 1.3 0.3
v 0.3 1.3 0.2
v 0.3 1.3 0.1
v 0.3 1.3 -0.2
v 0.3 1.3 -0.3
v 0.3 1.3 -0.4
v 0.3 1.3 -0.5
v 0.3 1.4 0.3
v 0.3 1.4 0.2
v 0.3 1.4 0.1
v 0.3 1.4 -0.2
v 0.3 1.4 -0.4
v 0.4 0.2 0.5
v 0.4 0.2 0.4
v 0.4 0.2 0.3
v 0.4 0.3 0.4
v 0.4 0.3 0.3
v 0.4 0.3 0.2
v 0.4 0.4 0.5
v 0.4 0.4 0.4
v 0.4 0.4 0.3
v 0.4 0.4 0.2
v 0.4 0.4 0.1
v 0.4 0.4 5.96046e-08
v 0.4 0.5 0.4
v 0.4 0.5 0.3
v 0.4 0.5 0.2
v 0.4 0.5 0.1
v 0.4 0.5 5.96046e-08
v 0.4 0.5 -0.2
v 0.4 0.6 0.3
v 0.4 0.6 0.2
v 0.4 0.6 5.96046e-08
v 0.4 0.6 -0.2
v 0.4 0.6 -0.3
v 0.4 0.7 0.4
v 0.4 0.7 0.3
v 0.4 0.7 -0.3
v 0.4 0.7 -0.4
v 0.4 0.8 0.4
v 0.4 0.8 0.3
v 0.4 0.8 -0.3
v 0.4 0.8 -0.4
v 0.4 0.8 -0.5
v 0.4 0.9 -0.4
v 0.4 0.9 -0.5
v 0.4 1.1 0.4
v 0.4 1.1 0.3
v 0.4 1.1 -0.4
v 0.4 1.1 -0.5
v 0.4 1.2 0.4
v 0.4 1.2 0.3
v 0.4 1.2 0.2
v 0.4 1.2 -0.3
v 0.4 1.2 -0.4
v 0.4 1.2 -0.5
v 0.4 1.3 0.3
v 0.4 1.3 0.2
v 0.4 1.3 0.1
v 0.4 1.3 -0.2
v 0.4 1.3 -0.3
v 0.4 1.3 -0.4
v 0.4 1.4 0.1
v 0.4 1.4 -0.2
v 0.5 0.4 0.3
v 0.5 0.4 0.2
v 0.5 0.5 0.3
v 0.5 0.5 0.2
v 0.5 0.7 0.3
v 0.5 0.7 -0.3
v 0.5 0.8 0.4
v 0.5 0.8 0.3
v 0.5 0.8 0.1
v 0.5 0.8 -0.3
v 0.5 0.8 -0.4
v 0.5 0.9 0.1
v 0.5 0.9 -0.3
v 0.5 0.9 -0.4
v 0.5 0.9 -0.5
v 0.5 1.1 0.4
v 0.5 1.1 0.3
v 0.5 1.1 -0.4
v 0.5 1.1 -0.5
v 0.5 1.2 0.3
v 0.5 1.2 0.2
v 0.5 1.2 -0.3
v 0.5 1.2 -0.4
v 0.5 1.3 0.2
v 0.5 1.3 -0.3
v -0.4 0.2 0.5
v -0.4 0.4 0.5
v -0.3 0.2 0.5
v -0.3 0.4 0.5
v 0.3 0.2 0.5
v 0.3 0.4 0.5
v 0.4 0.2 0.5
v 0.4 0.4 0.5
v -0.5 0.8 0.4
v -0.5 1.1 0.4
v -0.4 0.4 0.4
v -0.4 0.5 0.4
v -0.4 0.7 0.4
v -0.4 0.8 0.4
v -0.4 1.1 0.4
v -0.4 1.2 0.4
v -0.3 0.4 0.4
v -0.3 0.5 0.4
v -0.3 0.7 0.4
v -0.3 1.1 0.4
v -0.3 1.2 0.4
v -0.3 1.3 0.4
v -0.2 1.1 0.4
v -0.2 1.2 0.4
v -0.2 1.3 0.4
v -0.2 1.4 0.4
v 0.2 1.1 0.4
v 0.2 1.2 0.4
v 0.2 1.3 0.4
v 0.2 1.4 0.4
v 0.3 0.4 0.4
v 0.3 0.5 0.4
v 0.3 0.7 0.4
v 0.3 1.1 0.4
v 0.3 1.2 0.4
v 0.3 1.3 0.4
v 0.4 0.4 0.4
v 0.4 0.5 0.4
v 0.4 0.7 0.4
v 0.4 0.8 0.4
v 0.4 1.1 0.4
v 0.4 1.2 0.4
v 0.5 0.8 0.4
v 0.5 1.1 0.4
v -0.5 0.4 0.3
v -0.5 0.5 0.3
v -0.5 1.1 0.3
v -0.5 1.2 0.3
v -0.4 0.4 0.3
v -0.4 0.5 0.3
v -0.4 0.6 0.3
v -0.4 0.7 0.3
v -0.4 1.1 0.3
v -0.4 1.2 0.3
v -0.4 1.3 0.3
v -0.3 0.4 0.3
v -0.3 0.5 0.3
v -0.3 0.6 0.3
v -0.3 0.7 0.3
v -0.3 1 0.3
v -0.3 1.1 0.3
v -0.3 1.2 0.3
v -0.3 1.3 0.3
v -0.3 1.4 0.3
v -0.2 0.4 0.3
v -0.2 0.5 0.3
v -0.2 1 0.3
v -0.2 1.1 0.3
v -0.2 1.2 0.3
v -0.2 1.3 0.3
v -0.2 1.4 0.3
v -0.1 0.5 0.3
v -0.1 0.6 0.3
v -0.1 0.7 0.3
v -0.1 1.1 0.3
v -0.1 1.2 0.3
v 0.1 0.5 0.3
v 0.1 0.6 0.3
v 0.1 0.7 0.3
v 0.1 1.1 0.3
v 0.1 1.2 0.3
v 0.2 0.4 0.3
v 0.2 0.5 0.3
v 0.2 1 0.3
v 0.2 1.1 0.3
v 0.2 1.2 0.3
v 0.2 1.3 0.3
v 0.2 1.4 0.3
v 0.3 0.4 0.3
v 0.3 0.5 0.3
v 0.3 0.6 0.3
v 0.3 0.7 0.3
v 0.3 1 0.3
v 0.3 1.1 0.3
v 0.3 1.2 0.3
v 0.3 1.3 0.3
v 0.3 1.4 0.3
v 0.4 0.4 0.3
v 0.4 0.5 0.3
v 0.4 0.6 0.3
v 0.4 0.7 0.3
v 0.4 0.8 0.3
v 0.4 1.1 0.3
v 0.4 1.2 0.3
v 0.4 1.3 0.3
v 0.5 0.4 0.3
v 0.5 0.5 0.3
v 0.5 0.7 0.3
v 0.5 0.8 0.3
v 0.5 1.1 0.3
v 0.5 1.2 0.3
v -0.5 0.7 0.2
v -0.5 0.8 0.2
v -0.5 1.2 0.2
v -0.5 1.3 0.2
v -0.4 0.7 0.2
v -0.4 0.8 0.2
v -0.4 1.2 0.2
v -0.4 1.3 0.2
v -0.3 0.1 0.2
v -0.3 0.3 0.2
v -0.3 0.4 0.2
v -0.3 0.5 0.2
v -0.3 0.6 0.2
v -0.3 0.7 0.2
v -0.3 1 0.2
v -0.2 0.4 0.2
v -0.2 0.5 0.2
v -0.2 0.8 0.2
v -0.2 0.9 0.2
v -0.2 1 0.2
v -0.2 1.1 0.2
v -0.1 0.1 0.2
v -0.1 0.3 0.2
v -0.1 0.5 0.2
v -0.1 0.6 0.2
v -0.1 0.7 0.2
v -0.1 0.8 0.2
v -0.1 0.9 0.2
v -0.1 1.1 0.2
v -0.1 1.2 0.2
v -0.1 1.4 0.2
v -0.1 1.5 0.2
v 0 0.3 0.2
v 0 0.5 0.2
v 0 0.6 0.2
v 0 0.7 0.2
v 0 1.4 0.2
v 0 1.5 0.2
v 0.1 0.5 0.2
v 0.1 0.6 0.2
v 0.1 0.7 0.2
v 0.1 0.8 0.2
v 0.1 0.9 0.2
v 0.1 1.1 0.2
v 0.1 1.2 0.2
v 0.1 1.4 0.2
v 0.1 1.5 0.2
v 0.2 0.4 0.2
v 0.2 0.5 0.2
v 0.2 0.8 0.2
v 0.2 0.9 0.2
v 0.2 1 0.2
v 0.2 1.1 0.2
v 0.3 0.1 0.2
v 0.3 0.3 0.2
v 0.3 0.4 0.2
v 0.3 0.5 0.2
v 0.3 0.6 0.2
v 0.3 0.7 0.2
v 0.3 1 0.2
v 0.4 1.2 0.2
v 0.4 1.3 0.2
v 0.5 1.2 0.2
v 0.5 1.3 0.2
v -0.4 1.3 0.1
v -0.4 1.4 0.1
v -0.3 1.3 0.1
v -0.3 1.4 0.1
v -0.2 0 0.1
v -0.2 0.1 0.1
v -0.2 1.4 0.1
v -0.2 1.5 0.1
v -0.1 0.1 0.1
v -0.1 1.4 0.1
v -0.1 1.5 0.1
v 0.1 1.4 0.1
v 0.1 1.5 0.1
v 0.2 0 0.1
v 0.2 0.1 0.1
v 0.2 1.4 0.1
v 0.2 1.5 0.1
v 0.3 1.3 0.1
v 0.3 1.4 0.1
v 0.4 1.3 0.1
v 0.4 1.4 0.1
v -0.4 0.5 5.96046e-08
v -0.4 0.6 5.96046e-08
v -0.3 0.5 5.96046e-08
v -0.3 0.6 5.96046e-08
v 0.3 0.5 5.96046e-08
v 0.3 0.6 5.96046e-08
v 0.4 0.5 5.96046e-08
v 0.4 0.6 5.96046e-08
v -0.4 0.9 -0.4
v -0.4 1 -0.4
v -0.4 1.1 -0.4
v -0.3 0.5 -0.4
v -0.3 0.6 -0.4
v -0.3 1.1 -0.4
v -0.3 1.2 -0.4
v -0.2 0.5 -0.4
v -0.2 0.6 -0.4
v -0.1 0.4 -0.4
v -0.1 0.5 -0.4
v -0.1 0.6 -0.4
v 0 1 -0.4
v 0 1.2 -0.4
v 0.1 0.4 -0.4
v 0.1 0.5 -0.4
v 0.1 0.6 -0.4
v 0.2 0.5 -0.4
v 0.2 0.6 -0.4
v 0.2 1.2 -0.4
v 0.3 1.1 -0.4
v 0.3 1.2 -0.4
v 0.4 0.9 -0.4
v 0.4 1.1 -0.4
v -0.3 0.3 -0.5
v -0.3 0.5 -0.5
v -0.2 0.5 -0.5
v -0.1 0.3 -0.5
v -0.1 0.4 -0.5
v -0.1 0.5 -0.5
v 0.1 0.3 -0.5
v 0.1 0.4 -0.5
v 0.1 0.5 -0.5
v 0.2 0.5 -0.5
v 0.2 0.6 -0.5
v 0.3 0.3 -0.5
v 0.3 0.6 -0.5
v -0.2 0.2 -0.6
v -0.2 0.3 -0.6
v -0.1 0.1 -0.6
v -0.1 0.2 -0.6
v -0.1 0.3 -0.6
v -0.1 0.4 -0.6
v 0.1 0.1 -0.6
v 0.1 0.2 -0.6
v 0.1 0.3 -0.6
v 0.1 0.4 -0.6
v 0.2 0.2 -0.6
v 0.2 0.3 -0.6
v -0.4 0.2 0.3
v -0.4 0.3 0.3
v -0.3 0.2 0.3
v -0.3 0.3 0.3
v 0.3 0.2 0.3
v 0.3 0.3 0.3
v 0.4 0.2 0.3
v 0.4 0.3 0.3
v -0.5 0.4 0.2
v -0.5 0.5 0.2
v -0.4 0.3 0.2
v -0.4 0.4 0.2
v -0.4 0.5 0.2
v -0.4 0.6 0.2
v -0.3 0.3 0.2
v -0.3 0.4 0.2
v -0.3 0.5 0.2
v -0.3 0.6 0.2
v 0.3 0.3 0.2
v 0.3 0.4 0.2
v 0.3 0.5 0.2
v 0.3 0.6 0.2
v 0.4 0.3 0.2
v 0.4 0.4 0.2
v 0.4 0.5 0.2
v 0.4 0.6 0.2
v 0.5 0.4 0.2
v 0.5 0.5 0.2
v -0.4 0.4 5.96046e-08
v -0.4 0.5 5.96046e-08
v -0.3 0.4 5.96046e-08
v -0.3 0.5 5.96046e-08
v 0.3 0.4 5.96046e-08
v 0.3 0.5 5.96046e-08
v 0.4 0.4 5.96046e-08
v 0.4 0.5 5.96046e-08
v -0.4 0.9 -0.0999999
v -0.4 1.1 -0.0999999
v -0.3 0.9 -0.0999999
v -0.3 1.1 -0.0999999
v 0.3 0.9 -0.0999999
v 0.3 1.1 -0.0999999
v 0.4 0.9 -0.0999999
v 0.4 1.1 -0.0999999
v -0.4 0.5 -0.2
v -0.4 0.6 -0.2
v -0.4 1.3 -0.2
v -0.4 1.4 -0.2
v -0.3 0.5 -0.2
v -0.3 0.6 -0.2
v -0.3 1.3 -0.2
v -0.3 1.4 -0.2
v -0.2 0 -0.2
v -0.2 0.1 -0.2
v -0.2 1.4 -0.2
v -0.2 1.5 -0.2
v -0.1 0.1 -0.2
v -0.1 1.4 -0.2
v -0.1 1.5 -0.2
v 0.1 1.4 -0.2
v 0.1 1.5 -0.2
v 0.2 0 -0.2
v 0.2 0.1 -0.2
v 0.2 1.4 -0.2
v 0.2 1.5 -0.2
v 0.3 0.5 -0.2
v 0.3 0.6 -0.2
v 0.3 1.3 -0.2
v 0.3 1.4 -0.2
v 0.4 0.5 -0.2
v 0.4 0.6 -0.2
v 0.4 1.3 -0.2
v 0.4 1.4 -0.2
v -0.5 0.7 -0.3
v -0.5 0.8 -0.3
v -0.5 1.2 -0.3
v -0.5 1.3 -0.3
v -0.4 0.6 -0.3
v -0.4 0.7 -0.3
v -0.4 0.8 -0.3
v -0.4 1.2 -0.3
v -0.4 1.3 -0.3
v -0.3 0.1 -0.3
v -0.3 0.6 -0.3
v -0.3 0.7 -0.3
v -0.3 0.9 -0.3
v -0.3 1.1 -0.3
v -0.3 1.2 -0.3
v -0.2 0.9 -0.3
v -0.2 1 -0.3
v -0.1 0.1 -0.3
v -0.1 0.3 -0.3
v -0.1 0.5 -0.3
v -0.1 0.6 -0.3
v -0.1 1 -0.3
v -0.1 1.2 -0.3
v -0.1 1.4 -0.3
v -0.1 1.5 -0.3
v 0 0.3 -0.3
v 0 0.5 -0.3
v 0 1.2 -0.3
v 0 1.4 -0.3
v 0 1.5 -0.3
v 0.1 0.5 -0.3
v 0.1 0.6 -0.3
v 0.1 1.4 -0.3
v 0.1 1.5 -0.3
v 0.2 1.2 -0.3
v 0.3 0.1 -0.3
v 0.3 0.6 -0.3
v 0.3 0.7 -0.3
v 0.3 0.9 -0.3
v 0.3 1.1 -0.3
v 0.3 1.2 -0.3
v 0.4 0.6 -0.3
v 0.4 0.7 -0.3
v 0.4 0.8 -0.3
v 0.4 1.2 -0.3
v 0.4 1.3 -0.3
v 0.5 0.7 -0.3
v 0.5 0.8 -0.3
v 0.5 1.2 -0.3
v 0.5 1.3 -0.3
v -0.5 0.8 -0.4
v -0.5 0.9 -0.4
v -0.5 1.1 -0.4
v -0.5 1.2 -0.4
v -0.4 0.7 -0.4
v -0.4 0.8 -0.4
v -0.4 0.9 -0.4
v -0.4 1.1 -0.4
v -0.4 1.2 -0.4
v -0.4 1.3 -0.4
v -0.3 0.7 -0.4
v -0.3 0.8 -0.4
v -0.3 1.2 -0.4
v -0.3 1.3 -0.4
v -0.3 1.4 -0.4
v -0.2 1.3 -0.4
v -0.2 1.4 -0.4
v 0.2 1.3 -0.4
v 0.2 1.4 -0.4
v 0.3 0.7 -0.4
v 0.3 0.8 -0.4
v 0.3 1.2 -0.4
v 0.3 1.3 -0.4
v 0.3 1.4 -0.4
v 0.4 0.7 -0.4
v 0.4 0.8 -0.4
v 0.4 0.9 -0.4
v 0.4 1.1 -0.4
v 0.4 1.2 -0.4
v 0.4 1.3 -0.4
v 0.5 0.8 -0.4
v 0.5 0.9 -0.4
v 0.5 1.1 -0.4
v 0.5 1.2 -0.4
v -0.5 0.9 -0.5
v -0.5 1 -0.5
v -0.5 1.1 -0.5
v -0.4 0.8 -0.5
v -0.4 0.9 -0.5
v -0.4 1.1 -0.5
v -0.4 1.2 -0.5
v -0.3 0.6 -0.5
v -0.3 0.8 -0.5
v -0.3 1.2 -0.5
v -0.3 1.3 -0.5
v -0.2 0.6 -0.5
v -0.2 0.7 -0.5
v -0.2 0.8 -0.5
v -0.2 0.9 -0.5
v -0.2 1 -0.5
v -0.2 1.1 -0.5
v -0.2 1.3 -0.5
v -0.2 1.4 -0.5
v -0.1 0.8 -0.5
v -0.1 0.9 -0.5
v -0.1 1.1 -0.5
v -0.1 1.2 -0.5
v 0 1.2 -0.5
v 0 1.4 -0.5
v 0.1 0.8 -0.5
v 0.1 0.9 -0.5
v 0.1 1.1 -0.5
v 0.1 1.2 -0.5
v 0.2 0.6 -0.5
v 0.2 0.7 -0.5
v 0.2 0.8 -0.5
v 0.2 0.9 -0.5
v 0.2 1.1 -0.5
v 0.2 1.2 -0.5
v 0.2 1.3 -0.5
v 0.2 1.4 -0.5
v 0.3 0.6 -0.5
v 0.3 0.8 -0.5
v 0.3 1.2 -0.5
v 0.3 1.3 -0.5
v 0.4 0.8 -0.5
v 0.4 0.9 -0.5
v 0.4 1.1 -0.5
v 0.4 1.2 -0.5
v 0.5 0.9 -0.5
v 0.5 1.1 -0.5
v -0.3 0.3 -0.6
v -0.3 0.6 -0.6
v -0.2 0.3 -0.6
v -0.2 0.5 -0.6
v -0.2 0.6 -0.6
v -0.2 0.7 -0.6
v -0.2 0.9 -0.6
v -0.2 1.1 -0.6
v -0.1 0.8 -0.6
v -0.1 0.9 -0.6
v -0.1 1.1 -0.6
v -0.1 1.2 -0.6
v 0.1 0.8 -0.6
v 0.1 0.9 -0.6
v 0.1 1.1 -0.6
v 0.1 1.2 -0.6
v 0.2 0.3 -0.6
v 0.2 0.5 -0.6
v 0.2 0.6 -0.6
v 0.2 0.7 -0.6
v 0.2 0.9 -0.6
v 0.2 1.1 -0.6
v 0.3 0.3 -0.6
v 0.3 0.6 -0.6
v -0.2 0.2 -0.7
v -0.2 0.5 -0.7
v -0.1 0.1 -0.7
v -0.1 0.2 -0.7
v 0.1 0.1 -0.7
v 0.1 0.2 -0.7
v 0.2 0.2 -0.7
v 0.2 0.5 -0.7
v -0.2 0 0.1
v 0.2 0 0.1
v -0.2 0 -0.2
v 0.2 0 -0.2
v -0.3 0.1 0.2
v -0.1 0.1 0.2
v 0.3 0.1 0.2
v -0.2 0.1 0.1
v -0.1 0.1 0.1
v 0.2 0.1 0.1
v -0.2 0.1 -0.2
v -0.1 0.1 -0.2
v 0.2 0.1 -0.2
v -0.3 0.1 -0.3
v -0.1 0.1 -0.3
v 0.3 0.1 -0.3
v -0.1 0.1 -0.6
v 0.1 0.1 -0.6
v -0.1 0.1 -0.7
v 0.1 0.1 -0.7
v -0.4 0.2 0.5
v -0.3 0.2 0.5
v 0.3 0.2 0.5
v 0.4 0.2 0.5
v -0.4 0.2 0.4
v -0.3 0.2 0.4
v 0.3 0.2 0.4
v 0.4 0.2 0.4
v -0.4 0.2 0.3
v -0.3 0.2 0.3
v 0.3 0.2 0.3
v 0.4 0.2 0.3
v -0.2 0.2 -0.6
v -0.1 0.2 -0.6
v 0.1 0.2 -0.6
v 0.2 0.2 -0.6
v -0.2 0.2 -0.7
v -0.1 0.2 -0.7
v 0.1 0.2 -0.7
v 0.2 0.2 -0.7
v -0.4 0.3 0.3
v -0.3 0.3 0.3
v 0.3 0.3 0.3
v 0.4 0.3 0.3
v -0.4 0.3 0.2
v -0.3 0.3 0.2
v 0.3 0.3 0.2
v 0.4 0.3 0.2
v -0.3 0.3 -0.5
v -0.1 0.3 -0.5
v 0.1 0.3 -0.5
v 0.3 0.3 -0.5
v -0.3 0.3 -0.6
v -0.2 0.3 -0.6
v -0.1 0.3 -0.6
v 0.1 0.3 -0.6
v 0.2 0.3 -0.6
v 0.3 0.3 -0.6
v -0.5 0.4 0.3
v -0.4 0.4 0.3
v -0.3 0.4 0.3
v -0.2 0.4 0.3
v 0.2 0.4 0.3
v 0.3 0.4 0.3
v 0.4 0.4 0.3
v 0.5 0.4 0.3
v -0.5 0.4 0.2
v -0.4 0.4 0.2
v -0.3 0.4 0.2
v -0.2 0.4 0.2
v 0.2 0.4 0.2
v 0.3 0.4 0.2
v 0.4 0.4 0.2
v 0.5 0.4 0.2
v -0.4 0.4 0.1
v -0.3 0.4 0.1
v 0.3 0.4 0.1
v 0.4 0.4 0.1
v -0.4 0.4 5.96046e-08
v -0.3 0.4 5.96046e-08
v 0.3 0.4 5.96046e-08
v 0.4 0.4 5.96046e-08
v -0.1 0.4 -0.4
v 0.1 0.4 -0.4
v -0.1 0.4 -0.5
v 0.1 0.4 -0.5
v -0.1 0.4 -0.6
v 0.1 0.4 -0.6
v -0.1 0.5 0.3
v 0.1 0.5 0.3
v -0.1 0.5 0.2
v 0 0.5 0.2
v 0.1 0.5 0.2
v -0.4 0.5 5.96046e-08
v -0.3 0.5 5.96046e-08
v 0.3 0.5 5.96046e-08
v 0.4 0.5 5.96046e-08
v -0.4 0.5 -0.2
v -0.3 0.5 -0.2
v 0.3 0.5 -0.2
v 0.4 0.5 -0.2
v -0.1 0.5 -0.3
v 0 0.5 -0.3
v 0.1 0.5 -0.3
v -0.3 0.5 -0.4
v -0.2 0.5 -0.4
v -0.1 0.5 -0.4
v 0.1 0.5 -0.4
v 0.2 0.5 -0.4
v -0.3 0.5 -0.5
v -0.2 0.5 -0.5
v -0.1 0.5 -0.5
v 0.1 0.5 -0.5
v 0.2 0.5 -0.5
v -0.3 0.6 0.3
v -0.1 0.6 0.3
v 0.1 0.6 0.3
v 0.3 0.6 0.3
v -0.4 0.6 0.2
v -0.3 0.6 0.2
v -0.1 0.6 0.2
v 0.1 0.6 0.2
v 0.3 0.6 0.2
v 0.4 0.6 0.2
v -0.4 0.6 5.96046e-08
v -0.3 0.6 5.96046e-08
v 0.3 0.6 5.96046e-08
v 0.4 0.6 5.96046e-08
v -0.4 0.6 -0.2
v -0.3 0.6 -0.2
v 0.3 0.6 -0.2
v 0.4 0.6 -0.2
v -0.4 0.6 -0.3
v -0.3 0.6 -0.3
v -0.1 0.6 -0.3
v 0.1 0.6 -0.3
v 0.3 0.6 -0.3
v 0.4 0.6 -0.3
v -0.3 0.6 -0.4
v -0.2 0.6 -0.4
v -0.1 0.6 -0.4
v 0.1 0.6 -0.4
v 0.2 0.6 -0.4
v 0.3 0.6 -0.4
v 0.2 0.6 -0.5
v 0.3 0.6 -0.5
v -0.4 0.7 0.4
v -0.3 0.7 0.4
v 0.3 0.7 0.4
v 0.4 0.7 0.4
v -0.4 0.7 0.3
v -0.3 0.7 0.3
v 0.3 0.7 0.3
v 0.4 0.7 0.3
v 0.5 0.7 0.3
v -0.5 0.7 0.2
v -0.4 0.7 0.2
v -0.5 0.7 5.96046e-08
v -0.4 0.7 5.96046e-08
v -0.5 0.7 -0.3
v -0.4 0.7 -0.3
v -0.3 0.7 -0.3
v 0.3 0.7 -0.3
v 0.4 0.7 -0.3
v 0.5 0.7 -0.3
v -0.4 0.7 -0.4
v -0.3 0.7 -0.4
v 0.3 0.7 -0.4
v 0.4 0.7 -0.4
v -0.5 0.8 0.4
v -0.4 0.8 0.4
v 0.4 0.8 0.4
v 0.5 0.8 0.4
v -0.5 0.8 0.3
v -0.4 0.8 0.3
v 0.4 0.8 0.3
v 0.5 0.8 0.3
v -0.5 0.8 0.2
v -0.4 0.8 0.2
v -0.5 0.8 -0.3
v -0.4 0.8 -0.3
v 0.4 0.8 -0.3
v 0.5 0.8 -0.3
v -0.5 0.8 -0.4
v -0.4 0.8 -0.4
v -0.3 0.8 -0.4
v 0.3 0.8 -0.4
v 0.4 0.8 -0.4
v 0.5 0.8 -0.4
v -0.4 0.8 -0.5
v -0.3 0.8 -0.5
v -0.1 0.8 -0.5
v 0.1 0.8 -0.5
v 0.3 0.8 -0.5
v 0.4 0.8 -0.5
v -0.1 0.8 -0.6
v 0.1 0.8 -0.6
v -0.5 0.9 -0.4
v -0.4 0.9 -0.4
v 0.4 0.9 -0.4
v 0.5 0.9 -0.4
v -0.5 0.9 -0.5
v -0.4 0.9 -0.5
v -0.2 0.9 -0.5
v -0.1 0.9 -0.5
v 0.1 0.9 -0.5
v 0.2 0.9 -0.5
v 0.4 0.9 -0.5
v 0.5 0.9 -0.5
v -0.2 0.9 -0.6
v -0.1 0.9 -0.6
v 0.1 0.9 -0.6
v 0.2 0.9 -0.6
v -0.3 1 0.3
v -0.2 1 0.3
v 0.2 1 0.3
v 0.3 1 0.3
v -0.3 1 0.2
v -0.2 1 0.2
v 0.2 1 0.2
v 0.3 1 0.2
v -0.3 1.1 0.4
v -0.2 1.1 0.4
v 0.2 1.1 0.4
v 0.3 1.1 0.4
v -0.3 1.1 0.3
v -0.2 1.1 0.3
v -0.1 1.1 0.3
v 0.1 1.1 0.3
v 0.2 1.1 0.3
v 0.3 1.1 0.3
v -0.2 1.1 0.2
v -0.1 1.1 0.2
v 0.1 1.1 0.2
v 0.2 1.1 0.2
v -0.4 1.1 -0.0999999
v -0.3 1.1 -0.0999999
v 0.3 1.1 -0.0999999
v 0.4 1.1 -0.0999999
v -0.4 1.1 -0.3
v -0.3 1.1 -0.3
v 0.3 1.1 -0.3
v 0.4 1.1 -0.3
v -0.4 1.1 -0.4
v -0.3 1.1 -0.4
v 0.3 1.1 -0.4
v 0.4 1.1 -0.4
v -0.2 1.2 0.4
v 0.2 1.2 0.4
v -0.2 1.2 0.3
v -0.1 1.2 0.3
v 0.1 1.2 0.3
v 0.2 1.2 0.3
v -0.1 1.2 0.2
v 0.1 1.2 0.2
v -0.3 1.2 -0.3
v -0.1 1.2 -0.3
v 0 1.2 -0.3
v 0.2 1.2 -0.3
v 0.3 1.2 -0.3
v -0.3 1.2 -0.4
v 0 1.2 -0.4
v 0.2 1.2 -0.4
v 0.3 1.2 -0.4
v -0.4 0.4 0.5
v -0.3 0.4 0.5
v 0.3 0.4 0.5
v 0.4 0.4 0.5
v -0.4 0.4 0.4
v -0.3 0.4 0.4
v 0.3 0.4 0.4
v 0.4 0.4 0.4
v -0.4 0.5 0.4
v -0.3 0.5 0.4
v 0.3 0.5 0.4
v 0.4 0.5 0.4
v -0.5 0.5 0.3
v -0.4 0.5 0.3
v -0.3 0.5 0.3
v -0.2 0.5 0.3
v 0.2 0.5 0.3
v 0.3 0.5 0.3
v 0.4 0.5 0.3
v 0.5 0.5 0.3
v -0.5 0.5 0.2
v -0.4 0.5 0.2
v -0.3 0.5 0.2
v -0.2 0.5 0.2
v 0.2 0.5 0.2
v 0.3 0.5 0.2
v 0.4 0.5 0.2
v 0.5 0.5 0.2
v -0.4 0.5 0.1
v -0.3 0.5 0.1
v 0.3 0.5 0.1
v 0.4 0.5 0.1
v -0.4 0.5 5.96046e-08
v -0.3 0.5 5.96046e-08
v 0.3 0.5 5.96046e-08
v 0.4 0.5 5.96046e-08
v -0.2 0.5 -0.6
v 0.2 0.5 -0.6
v -0.2 0.5 -0.7
v 0.2 0.5 -0.7
v -0.1 0.6 0.3
v 0.1 0.6 0.3
v -0.1 0.6 0.2
v 0 0.6 0.2
v 0.1 0.6 0.2
v -0.3 0.6 -0.5
v -0.2 0.6 -0.5
v 0.2 0.6 -0.5
v 0.3 0.6 -0.5
v -0.3 0.6 -0.6
v -0.2 0.6 -0.6
v 0.2 0.6 -0.6
v 0.3 0.6 -0.6
v -0.3 0.7 0.3
v -0.1 0.7 0.3
v 0.1 0.7 0.3
v 0.3 0.7 0.3
v -0.3 0.7 0.2
v -0.1 0.7 0.2
v 0.1 0.7 0.2
v 0.3 0.7 0.2
v -0.2 0.7 -0.5
v 0.2 0.7 -0.5
v -0.2 0.7 -0.6
v 0.2 0.7 -0.6
v -0.4 0.9 -0.0999999
v -0.3 0.9 -0.0999999
v 0.3 0.9 -0.0999999
v 0.4 0.9 -0.0999999
v -0.3 0.9 -0.3
v -0.2 0.9 -0.3
v 0.3 0.9 -0.3
v 0.4 0.9 -0.3
v -0.4 0.9 -0.4
v 0.4 0.9 -0.4
v -0.5 1.1 0.4
v -0.4 1.1 0.4
v 0.4 1.1 0.4
v 0.5 1.1 0.4
v -0.5 1.1 0.3
v -0.4 1.1 0.3
v 0.4 1.1 0.3
v 0.5 1.1 0.3
v -0.5 1.1 -0.4
v -0.4 1.1 -0.4
v 0.4 1.1 -0.4
v 0.5 1.1 -0.4
v -0.5 1.1 -0.5
v -0.4 1.1 -0.5
v -0.2 1.1 -0.5
v -0.1 1.1 -0.5
v 0.1 1.1 -0.5
v 0.2 1.1 -0.5
v 0.4 1.1 -0.5
v 0.5 1.1 -0.5
v -0.2 1.1 -0.6
v -0.1 1.1 -0.6
v 0.1 1.1 -0.6
v 0.2 1.1 -0.6
v -0.4 1.2 0.4
v -0.3 1.2 0.4
v 0.3 1.2 0.4
v 0.4 1.2 0.4
v -0.5 1.2 0.3
v -0.4 1.2 0.3
v -0.3 1.2 0.3
v 0.3 1.2 0.3
v 0.4 1.2 0.3
v 0.5 1.2 0.3
v -0.5 1.2 0.2
v -0.4 1.2 0.2
v 0.4 1.2 0.2
v 0.5 1.2 0.2
v -0.5 1.2 -0.3
v -0.4 1.2 -0.3
v 0.4 1.2 -0.3
v 0.5 1.2 -0.3
v -0.5 1.2 -0.4
v -0.4 1.2 -0.4
v -0.3 1.2 -0.4
v 0.3 1.2 -0.4
v 0.4 1.2 -0.4
v 0.5 1.2 -0.4
v -0.4 1.2 -0.5
v -0.3 1.2 -0.5
v -0.1 1.2 -0.5
v 0 1.2 -0.5
v 0.1 1.2 -0.5
v 0.3 1.2 -0.5
v 0.4 1.2 -0.5
v -0.1 1.2 -0.6
v 0.1 1.2 -0.6
v -0.3 1.3 0.4
v -0.2 1.3 0.4
v 0.2 1.3 0.4
v 0.3 1.3 0.4
v -0.4 1.3 0.3
v -0.3 1.3 0.3
v -0.2 1.3 0.3
v 0.2 1.3 0.3
v 0.3 1.3 0.3
v 0.4 1.3 0.3
v -0.5 1.3 0.2
v -0.4 1.3 0.2
v 0.3 1.3 0.2
v 0.4 1.3 0.2
v 0.5 1.3 0.2
v -0.4 1.3 0.1
v -0.3 1.3 0.1
v 0.3 1.3 0.1
v 0.4 1.3 0.1
v -0.5 1.3 5.96046e-08
v -0.4 1.3 5.96046e-08
v -0.4 1.3 -0.2
v -0.3 1.3 -0.2
v 0.3 1.3 -0.2
v 0.4 1.3 -0.2
v -0.5 1.3 -0.3
v -0.4 1.3 -0.3
v -0.3 1.3 -0.3
v 0.3 1.3 -0.3
v 0.4 1.3 -0.3
v 0.5 1.3 -0.3
v -0.4 1.3 -0.4
v -0.3 1.3 -0.4
v -0.2 1.3 -0.4
v 0.2 1.3 -0.4
v 0.3 1.3 -0.4
v 0.4 1.3 -0.4
v -0.3 1.3 -0.5
v -0.2 1.3 -0.5
v 0.2 1.3 -0.5
v 0.3 1.3 -0.5
v -0.2 1.4 0.4
v 0.2 1.4 0.4
v -0.3 1.4 0.3
v -0.2 1.4 0.3
v 0.2 1.4 0.3
v 0.3 1.4 0.3
v -0.1 1.4 0.2
v 0 1.4 0.2
v 0.1 1.4 0.2
v 0.3 1.4 0.2
v -0.4 1.4 0.1
v -0.3 1.4 0.1
v -0.2 1.4 0.1
v -0.1 1.4 0.1
v 0.1 1.4 0.1
v 0.2 1.4 0.1
v 0.3 1.4 0.1
v 0.4 1.4 0.1
v -0.4 1.4 5.96046e-08
v -0.3 1.4 5.96046e-08
v -0.4 1.4 -0.2
v -0.3 1.4 -0.2
v -0.2 1.4 -0.2
v -0.1 1.4 -0.2
v 0.1 1.4 -0.2
v 0.2 1.4 -0.2
v 0.3 1.4 -0.2
v 0.4 1.4 -0.2
v -0.3 1.4 -0.3
v -0.1 1.4 -0.3
v 0 1.4 -0.3
v 0.1 1.4 -0.3
v 0.2 1.4 -0.3
v -0.3 1.4 -0.4
v -0.2 1.4 -0.4
v 0.2 1.4 -0.4
v 0.3 1.4 -0.4
v -0.2 1.4 -0.5
v 0 1.4 -0.5
v 0.2 1.4 -0.5
v -0.1 1.5 0.2
v 0 1.5 0.2
v 0.1 1.5 0.2
v -0.2 1.5 0.1
v -0.1 1.5 0.1
v 0.1 1.5 0.1
v 0.2 1.5 0.1
v -0.2 1.5 -0.2
v -0.1 1.5 -0.2
v 0.1 1.5 -0.2
v 0.2 1.5 -0.2
v -0.1 1.5 -0.3
v 0 1.5 -0.3
v 0.1 1.5 -0.3

# faces
f 3/7/1 2/7/1 1/7/1
f 4/7/1 2/7/1 3/7/1
f 10/9/1 6/9/1 5/9/1
f 11/4/1 7/4/1 6/4/1
f 11/9/1 6/9/1 10/9/1
f 12/4/1 7/4/1 11/4/1
f 13/4/1 7/4/1 12/4/1
f 15/4/1 13/4/1 12/4/1
f 15/4/1 14/4/1 13/4/1
f 17/4/1 15/4/1 12/4/1
f 17/4/1 16/4/1 15/4/1
f 18/4/1 16/4/1 17/4/1
f 19/4/1 9/4/1 8/4/1
f 20/9/1 10/9/1 9/9/1
f 20/4/1 9/4/1 19/4/1
f 20/9/1 11/9/1 10/9/1
f 20/9/1 12/9/1 11/9/1
f 21/9/1 18/9/1 17/9/1
f 22/9/1 18/9/1 21/9/1
f 23/9/1 12/9/1 20/9/1
f 24/9/1 12/9/1 23/9/1
f 25/9/1 12/9/1 24/9/1
f 26/4/1 17/4/1 12/4/1
f 26/9/1 12/9/1 25/9/1
f 27/9/1 21/9/1 17/9/1
f 27/4/1 17/4/1 26/4/1
f 28/9/1 21/9/1 27/9/1
f 29/9/1 25/9/1 24/9/1
f 30/4/1 26/4/1 25/4/1
f 30/9/1 25/9/1 29/9/1
f 30/4/1 27/4/1 26/4/1
f 31/4/1 27/4/1 30/4/1
f 35/6/1 33/6/1 32/6/1
f 35/5/1 34/5/1 33/5/1
f 36/5/1 34/5/1 35/5/1
f 38/6/1 35/6/1 32/6/1
f 38/6/1 36/6/1 35/6/1
f 39/6/1 36/6/1 38/6/1
f 40/5/1 37/5/1 36/5/1
f 40/6/1 36/6/1 39/6/1
f 41/5/1 37/5/1 40/5/1
f 44/6/1 40/6/1 39/6/1
f 45/6/1 40/6/1 44/6/1
f 46/1/1 42/1/1 41/1/1
f 47/14/1 43/14/1 42/14/1
f 47/1/1 42/1/1 46/1/1
f 48/14/1 43/14/1 47/14/1
f 50/7/1 46/7/1 45/7/1
f 51/7/1 46/7/1 50/7/1
f 52/14/1 49/14/1 48/14/1
f 53/14/1 49/14/1 52/14/1
f 56/10/1 51/10/1 50/10/1
f 56/10/1 54/10/1 53/10/1
f 56/10/1 53/10/1 52/10/1
f 56/10/1 52/10/1 51/10/1
f 57/10/1 54/10/1 56/10/1
f 58/10/1 54/10/1 57/10/1
f 59/10/1 54/10/1 58/10/1
f 61/4/1 56/4/1 55/4/1
f 61/4/1 57/4/1 56/4/1
f 62/4/1 57/4/1 61/4/1
f 63/4/1 57/4/1 62/4/1
f 64/4/1 60/4/1 59/4/1
f 65/4/1 60/4/1 64/4/1
f 67/4/1 66/4/1 65/4/1
f 68/4/1 66/4/1 67/4/1
f 73/4/1 70/4/1 69/4/1
f 74/4/1 70/4/1 73/4/1
f 77/9/1 72/9/1 71/9/1
f 78/9/1 72/9/1 77/9/1
f 79/9/1 75/9/1 74/9/1
f 80/9/1 75/9/1 79/9/1
f 84/9/1 77/9/1 76/9/1
f 85/9/1 77/9/1 84/9/1
f 86/9/1 82/9/1 81/9/1
f 87/4/1 83/4/1 82/4/1
f 87/9/1 82/9/1 86/9/1
f 88/4/1 83/4/1 87/4/1
f 91/14/1 90/14/1 89/14/1
f 94/14/1 90/14/1 91/14/1
f 95/14/1 90/14/1 94/14/1
f 96/14/1 90/14/1 95/14/1
f 99/14/1 90/14/1 96/14/1
f 100/14/1 90/14/1 99/14/1
f 102/8/1 93/8/1 92/8/1
f 103/14/1 98/14/1 97/14/1
f 103/14/1 99/14/1 98/14/1
f 104/14/1 99/14/1 103/14/1
f 105/14/1 90/14/1 100/14/1
f 106/14/1 90/14/1 105/14/1
f 107/8/1 102/8/1 101/8/1
f 108/8/1 93/8/1 102/8/1
f 108/8/1 102/8/1 107/8/1
f 109/8/1 93/8/1 108/8/1
f 110/10/1 107/10/1 106/10/1
f 111/8/1 108/8/1 107/8/1
f 111/10/1 107/10/1 110/10/1
f 112/8/1 108/8/1 111/8/1
f 113/8/1 108/8/1 112/8/1
f 116/1/1 115/1/1 114/1/1
f 117/1/1 115/1/1 116/1/1
f 122/4/1 119/4/1 118/4/1
f 123/4/1 119/4/1 122/4/1
f 127/9/1 121/9/1 120/9/1
f 128/9/1 121/9/1 127/9/1
f 129/4/1 124/4/1 123/4/1
f 130/4/1 124/4/1 129/4/1
f 131/4/1 126/4/1 125/4/1
f 132/9/1 127/9/1 126/9/1
f 132/4/1 126/4/1 131/4/1
f 133/9/1 127/9/1 132/9/1
f 136/10/1 135/10/1 134/10/1
f 137/10/1 135/10/1 136/10/1
f 140/8/1 139/8/1 138/8/1
f 141/8/1 139/8/1 140/8/1
f 142/8/1 139/8/1 141/8/1
f 145/8/1 144/8/1 143/8/1
f 146/8/1 144/8/1 145/8/1
f 149/4/1 148/4/1 147/4/1
f 150/4/1 148/4/1 149/4/1
f 151/4/1 148/4/1 150/4/1
f 156/4/1 153/4/1 152/4/1
f 157/4/1 153/4/1 156/4/1
f 160/9/1 155/9/1 154/9/1
f 161/9/1 155/9/1 160/9/1
f 162/4/1 159/4/1 158/4/1
f 163/4/1 159/4/1 162/4/1
f 166/8/1 165/8/1 164/8/1
f 167/8/1 165/8/1 166/8/1
f 173/8/1 169/8/1 168/8/1
f 174/8/1 169/8/1 173/8/1
f 175/10/1 171/10/1 170/10/1
f 176/10/1 171/10/1 175/10/1
f 177/10/1 173/10/1 172/10/1
f 178/10/1 173/10/1 177/10/1
f 181/4/1 180/4/1 179/4/1
f 182/4/1 180/4/1 181/4/1
f 185/4/1 184/4/1 183/4/1
f 186/4/1 184/4/1 185/4/1
f 191/4/1 188/4/1 187/4/1
f 192/4/1 188/4/1 191/4/1
f 193/4/1 190/4/1 189/4/1
f 194/4/1 190/4/1 193/4/1
f 197/8/1 196/8/1 195/8/1
f 198/8/1 196/8/1 197/8/1
f 201/10/1 200/10/1 199/10/1
f 202/10/1 200/10/1 201/10/1
f 205/4/1 204/4/1 203/4/1
f 206/4/1 204/4/1 205/4/1
f 209/7/1 208/7/1 207/7/1
f 210/7/1 208/7/1 209/7/1
f 214/4/1 212/4/1 211/4/1
f 215/4/1 212/4/1 214/4/1
f 216/4/1 214/4/1 213/4/1
f 217/4/1 214/4/1 216/4/1
f 221/6/1 219/6/1 218/6/1
f 221/5/1 220/5/1 219/5/1
f 222/5/1 220/5/1 221/5/1
f 224/6/1 221/6/1 218/6/1
f 224/6/1 222/6/1 221/6/1
f 225/6/1 222/6/1 224/6/1
f 226/5/1 223/5/1 222/5/1
f 226/6/1 222/6/1 225/6/1
f 227/5/1 223/5/1 226/5/1
f 228/6/1 226/6/1 225/6/1
f 229/6/1 226/6/1 228/6/1
f 231/7/1 230/7/1 229/7/1
f 232/7/1 230/7/1 231/7/1
f 236/4/1 234/4/1 233/4/1
f 236/4/1 235/4/1 234/4/1
f 237/4/1 235/4/1 236/4/1
f 238/4/1 236/4/1 233/4/1
f 239/4/1 236/4/1 238/4/1
f 242/4/1 241/4/1 240/4/1
f 243/4/1 241/4/1 242/4/1
f 247/9/1 245/9/1 244/9/1
f 248/4/1 246/4/1 245/4/1
f 248/9/1 245/9/1 247/9/1
f 249/4/1 246/4/1 248/4/1
f 250/4/2 251/4/2 252/4/2
f 252/4/2 251/4/2 253/4/2
f 250/4/2 252/4/2 254/4/2
f 252/9/2 253/9/2 255/9/2
f 254/4/2 252/4/2 255/4/2
f 255/9/2 253/9/2 256/9/2
f 257/6/2 258/6/2 260/6/2
f 258/5/2 259/5/2 260/5/2
f 260/5/2 259/5/2 261/5/2
f 257/6/2 260/6/2 263/6/2
f 260/6/2 261/6/2 263/6/2
f 263/6/2 261/6/2 264/6/2
f 261/5/2 262/5/2 265/5/2
f 264/6/2 261/6/2 265/6/2
f 265/5/2 262/5/2 266/5/2
f 264/6/2 265/6/2 267/6/2
f 267/6/2 265/6/2 268/6/2
f 268/7/2 269/7/2 270/7/2
f 270/7/2 269/7/2 271/7/2
f 272/4/2 273/4/2 275/4/2
f 273/4/2 274/4/2 275/4/2
f 275/4/2 274/4/2 276/4/2
f 272/4/2 275/4/2 277/4/2
f 277/4/2 275/4/2 278/4/2
f 279/9/2 280/9/2 281/9/2
f 281/9/2 280/9/2 282/9/2
f 283/7/2 284/7/2 285/7/2
f 285/7/2 284/7/2 286/7/2
f 287/4/2 288/4/2 290/4/2
f 290/4/2 288/4/2 291/4/2
f 289/4/2 290/4/2 292/4/2
f 292/4/2 290/4/2 293/4/2
f 294/8/2 295/8/2 296/8/2
f 296/8/2 295/8/2 297/8/2
f 298/10/2 299/10/2 300/10/2
f 300/10/2 299/10/2 301/10/2
f 302/4/2 303/4/2 304/4/2
f 304/4/2 303/4/2 305/4/2
f 306/8/2 307/8/2 308/8/2
f 308/8/2 307/8/2 309/8/2
f 310/8/2 311/8/2 315/8/2
f 315/8/2 311/8/2 316/8/2
f 312/10/2 313/10/2 317/10/2
f 317/10/2 313/10/2 318/10/2
f 314/10/2 315/10/2 319/10/2
f 319/10/2 315/10/2 320/10/2
f 321/4/2 322/4/2 323/4/2
f 323/4/2 322/4/2 324/4/2
f 325/4/2 326/4/2 327/4/2
f 327/4/2 326/4/2 328/4/2
f 329/9/2 330/9/2 333/9/2
f 333/9/2 330/9/2 334/9/2
f 331/9/2 332/9/2 335/9/2
f 335/9/2 332/9/2 336/9/2
f 337/10/2 338/10/2 339/10/2
f 339/10/2 338/10/2 340/10/2
f 341/8/2 342/8/2 343/8/2
f 343/8/2 342/8/2 346/8/2
f 346/8/2 342/8/2 347/8/2
f 344/8/2 345/8/2 348/8/2
f 348/8/2 345/8/2 349/8/2
f 349/8/2 350/8/2 351/8/2
f 351/8/2 350/8/2 352/8/2
f 353/4/2 354/4/2 355/4/2
f 355/4/2 354/4/2 356/4/2
f 357/4/2 358/4/2 361/4/2
f 361/4/2 358/4/2 362/4/2
f 359/4/2 360/4/2 365/4/2
f 365/4/2 360/4/2 366/4/2
f 363/9/2 364/9/2 367/9/2
f 367/9/2 364/9/2 368/9/2
f 369/13/2 370/13/2 371/13/2
f 371/13/2 370/13/2 374/13/2
f 374/13/2 370/13/2 375/13/2
f 375/13/2 370/13/2 376/13/2
f 376/13/2 370/13/2 379/13/2
f 379/13/2 370/13/2 380/13/2
f 377/13/2 378/13/2 381/13/2
f 378/13/2 379/13/2 381/13/2
f 381/13/2 379/13/2 382/13/2
f 380/13/2 370/13/2 383/13/2
f 383/13/2 370/13/2 384/13/2
f 372/8/2 373/8/2 386/8/2
f 386/8/2 373/8/2 387/8/2
f 384/10/2 385/10/2 388/10/2
f 385/8/2 386/8/2 389/8/2
f 388/10/2 385/10/2 389/10/2
f 389/8/2 386/8/2 390/8/2
f 390/8/2 386/8/2 391/8/2
f 392/3/2 393/3/2 394/3/2
f 394/3/2 393/3/2 395/3/2
f 396/4/2 397/4/2 400/4/2
f 400/4/2 397/4/2 401/4/2
f 398/9/2 399/9/2 406/9/2
f 406/9/2 399/9/2 407/9/2
f 401/4/2 402/4/2 408/4/2
f 402/9/2 403/9/2 409/9/2
f 408/4/2 402/4/2 409/4/2
f 409/9/2 403/9/2 410/9/2
f 404/9/2 405/9/2 411/9/2
f 405/9/2 406/9/2 411/9/2
f 411/9/2 406/9/2 412/9/2
f 413/6/2 414/6/2 416/6/2
f 414/5/2 415/5/2 416/5/2
f 416/5/2 415/5/2 417/5/2
f 413/6/2 416/6/2 419/6/2
f 416/6/2 417/6/2 419/6/2
f 419/6/2 417/6/2 420/6/2
f 417/5/2 418/5/2 421/5/2
f 420/6/2 417/6/2 421/6/2
f 421/5/2 418/5/2 422/5/2
f 420/6/2 421/6/2 425/6/2
f 425/6/2 421/6/2 426/6/2
f 422/3/2 423/3/2 427/3/2
f 423/13/2 424/13/2 428/13/2
f 427/3/2 423/3/2 428/3/2
f 428/13/2 424/13/2 429/13/2
f 426/7/2 427/7/2 431/7/2
f 431/7/2 427/7/2 432/7/2
f 429/13/2 430/13/2 433/13/2
f 433/13/2 430/13/2 434/13/2
f 431/10/2 432/10/2 437/10/2
f 434/10/2 435/10/2 437/10/2
f 433/10/2 434/10/2 437/10/2
f 432/10/2 433/10/2 437/10/2
f 437/10/2 435/10/2 438/10/2
f 436/4/2 437/4/2 440/4/2
f 440/4/2 437/4/2 441/4/2
f 438/4/2 439/4/2 442/4/2
f 442/4/2 439/4/2 443/4/2
f 443/4/2 444/4/2 445/4/2
f 445/4/2 444/4/2 446/4/2
f 447/4/2 448/4/2 451/4/2
f 451/4/2 448/4/2 452/4/2
f 449/4/2 450/4/2 455/4/2
f 455/4/2 450/4/2 456/4/2
f 452/4/2 453/4/2 457/4/2
f 457/4/2 453/4/2 458/4/2
f 454/4/2 455/4/2 461/4/2
f 461/4/2 455/4/2 462/4/2
f 459/9/2 460/9/2 463/9/2
f 463/9/2 460/9/2 464/9/2
f 465/7/2 466/7/2 467/7/2
f 467/7/2 466/7/2 468/7/2
f 469/4/2 470/4/2 472/4/2
f 472/4/2 470/4/2 473/4/2
f 473/4/2 470/4/2 474/4/2
f 472/9/2 473/9/2 476/9/2
f 474/4/2 475/4/2 476/4/2
f 473/4/2 474/4/2 476/4/2
f 476/4/2 475/4/2 477/4/2
f 477/4/2 475/4/2 478/4/2
f 471/4/2 472/4/2 480/4/2
f 472/9/2 476/9/2 481/9/2
f 480/4/2 472/4/2 481/4/2
f 476/9/2 477/9/2 481/9/2
f 478/4/2 479/4/2 482/4/2
f 477/4/2 478/4/2 482/4/2
f 482/4/2 479/4/2 483/4/2
f 481/9/2 477/9/2 484/9/2
f 484/9/2 477/9/2 485/9/2
f 477/4/2 482/4/2 486/4/2
f 485/9/2 477/9/2 486/9/2
f 486/4/2 482/4/2 487/4/2
f 485/9/2 486/9/2 488/9/2
f 488/9/2 486/9/2 489/9/2
f 492/6/3 491/6/3 490/6/3
f 493/6/3 491/6/3 492/6/3
f 496/6/3 495/6/3 494/6/3
f 497/6/3 495/6/3 496/6/3
f 503/4/3 499/4/3 498/4/3
f 504/4/3 499/4/3 503/4/3
f 506/6/3 501/6/3 500/6/3
f 507/6/3 501/6/3 506/6/3
f 508/4/3 505/4/3 504/4/3
f 508/4/3 503/4/3 502/4/3
f 508/4/3 504/4/3 503/4/3
f 509/4/3 505/4/3 508/4/3
f 510/4/3 505/4/3 509/4/3
f 512/4/3 511/4/3 510/4/3
f 512/4/3 510/4/3 509/4/3
f 513/4/3 511/4/3 512/4/3
f 514/4/3 511/4/3 513/4/3
f 517/4/3 515/4/3 514/4/3
f 517/4/3 514/4/3 513/4/3
f 518/4/3 515/4/3 517/4/3
f 519/4/3 515/4/3 518/4/3
f 523/4/3 517/4/3 516/4/3
f 523/4/3 518/4/3 517/4/3
f 524/4/3 518/4/3 523/4/3
f 525/4/3 518/4/3 524/4/3
f 526/6/3 521/6/3 520/6/3
f 527/6/3 521/6/3 526/6/3
f 528/4/3 523/4/3 522/4/3
f 528/4/3 524/4/3 523/4/3
f 529/4/3 524/4/3 528/4/3
f 530/4/3 524/4/3 529/4/3
f 531/4/3 524/4/3 530/4/3
f 532/4/3 530/4/3 529/4/3
f 533/4/3 530/4/3 532/4/3
f 538/7/3 535/7/3 534/7/3
f 539/7/3 535/7/3 538/7/3
f 542/9/3 537/9/3 536/9/3
f 543/9/3 537/9/3 542/9/3
f 546/7/3 540/7/3 539/7/3
f 547/10/3 541/10/3 540/10/3
f 547/7/3 540/7/3 546/7/3
f 548/10/3 541/10/3 547/10/3
f 551/9/3 544/9/3 543/9/3
f 552/9/3 544/9/3 551/9/3
f 554/7/3 546/7/3 545/7/3
f 555/7/3 546/7/3 554/7/3
f 556/4/3 550/4/3 549/4/3
f 557/4/3 550/4/3 556/4/3
f 559/4/3 553/4/3 552/4/3
f 560/4/3 553/4/3 559/4/3
f 562/10/3 548/10/3 547/10/3
f 563/10/3 548/10/3 562/10/3
f 564/4/3 558/4/3 557/4/3
f 565/4/3 558/4/3 564/4/3
f 566/10/3 562/10/3 561/10/3
f 567/10/3 562/10/3 566/10/3
f 574/4/3 570/4/3 569/4/3
f 575/4/3 570/4/3 574/4/3
f 578/7/3 572/7/3 571/7/3
f 579/7/3 572/7/3 578/7/3
f 580/10/3 568/10/3 567/10/3
f 581/10/3 568/10/3 580/10/3
f 582/4/3 574/4/3 573/4/3
f 583/4/3 574/4/3 582/4/3
f 585/4/3 577/4/3 576/4/3
f 586/4/3 577/4/3 585/4/3
f 588/7/3 580/7/3 579/7/3
f 589/10/3 581/10/3 580/10/3
f 589/7/3 580/7/3 588/7/3
f 590/10/3 581/10/3 589/10/3
f 593/4/3 585/4/3 584/4/3
f 594/4/3 585/4/3 593/4/3
f 595/7/3 588/7/3 587/7/3
f 596/7/3 588/7/3 595/7/3
f 597/4/3 591/4/3 590/4/3
f 598/4/3 591/4/3 597/4/3
f 599/9/3 593/9/3 592/9/3
f 600/9/3 593/9/3 599/9/3
f 605/9/3 602/9/3 601/9/3
f 606/9/3 602/9/3 605/9/3
f 607/9/3 604/9/3 603/9/3
f 608/9/3 604/9/3 607/9/3
f 616/14/3 610/14/3 609/14/3
f 616/14/3 611/14/3 610/14/3
f 617/14/3 613/14/3 612/14/3
f 618/1/3 615/1/3 614/1/3
f 619/1/3 615/1/3 618/1/3
f 620/1/3 615/1/3 619/1/3
f 622/14/3 617/14/3 616/14/3
f 622/14/3 616/14/3 609/14/3
f 623/14/3 617/14/3 622/14/3
f 624/14/3 613/14/3 617/14/3
f 624/14/3 617/14/3 623/14/3
f 625/14/3 613/14/3 624/14/3
f 626/1/3 618/1/3 614/1/3
f 627/15/3 619/15/3 618/15/3
f 627/1/3 618/1/3 626/1/3
f 628/3/3 621/3/3 620/3/3
f 628/15/3 619/15/3 627/15/3
f 628/3/3 620/3/3 619/3/3
f 629/3/3 621/3/3 628/3/3
f 633/13/3 623/13/3 622/13/3
f 633/14/3 624/14/3 623/14/3
f 634/14/3 624/14/3 633/14/3
f 635/1/3 626/1/3 625/1/3
f 636/3/3 630/3/3 629/3/3
f 636/1/3 626/1/3 635/1/3
f 636/3/3 627/3/3 626/3/3
f 636/3/3 629/3/3 628/3/3
f 636/3/3 628/3/3 627/3/3
f 637/4/3 632/4/3 631/4/3
f 638/4/3 632/4/3 637/4/3
f 639/13/3 634/13/3 633/13/3
f 640/3/3 636/3/3 635/3/3
f 641/3/3 630/3/3 636/3/3
f 641/3/3 636/3/3 640/3/3
f 642/3/3 630/3/3 641/3/3
f 643/3/3 630/3/3 642/3/3
f 644/3/3 630/3/3 643/3/3
f 645/3/3 630/3/3 644/3/3
f 646/9/3 638/9/3 637/9/3
f 647/9/3 638/9/3 646/9/3
f 648/13/3 640/13/3 639/13/3
f 648/13/3 639/13/3 633/13/3
f 649/13/3 640/13/3 648/13/3
f 650/15/3 643/15/3 642/15/3
f 650/3/3 642/3/3 641/3/3
f 651/3/3 644/3/3 643/3/3
f 651/15/3 643/15/3 650/15/3
f 652/3/3 644/3/3 651/3/3
f 653/3/3 644/3/3 652/3/3
f 654/13/3 633/13/3 622/13/3
f 654/13/3 648/13/3 633/13/3
f 655/13/3 648/13/3 654/13/3
f 656/13/3 648/13/3 655/13/3
f 657/13/3 640/13/3 649/13/3
f 658/13/3 640/13/3 657/13/3
f 659/3/3 650/3/3 641/3/3
f 659/3/3 652/3/3 651/3/3
f 659/3/3 651/3/3 650/3/3
f 660/3/3 652/3/3 659/3/3
f 663/9/3 662/9/3 661/9/3
f 664/9/3 662/9/3 663/9/3
f 667/9/3 666/9/3 665/9/3
f 668/9/3 666/9/3 667/9/3
f 673/10/3 670/10/3 669/10/3
f 674/4/3 672/4/3 671/4/3
f 675/4/3 672/4/3 674/4/3
f 678/10/3 673/10/3 669/10/3
f 679/10/3 673/10/3 678/10/3
f 680/9/3 677/9/3 676/9/3
f 681/9/3 677/9/3 680/9/3
f 684/9/3 683/9/3 682/9/3
f 685/9/3 683/9/3 684/9/3
f 688/14/3 687/14/3 686/14/3
f 689/14/3 687/14/3 688/14/3
f 692/13/3 691/13/3 690/13/3
f 693/13/3 691/13/3 692/13/3
f 699/9/3 696/9/3 695/9/3
f 701/8/3 698/8/3 697/8/3
f 702/8/3 698/8/3 701/8/3
f 704/4/3 702/4/3 701/4/3
f 705/4/3 702/4/3 704/4/3
f 706/4/3 695/4/3 694/4/3
f 706/9/3 700/9/3 699/9/3
f 706/9/3 699/9/3 695/9/3
f 707/9/3 700/9/3 706/9/3
f 708/8/3 704/8/3 703/8/3
f 709/8/3 704/8/3 708/8/3
f 711/8/3 710/8/3 709/8/3
f 712/8/3 710/8/3 711/8/3
f 713/4/3 707/4/3 706/4/3
f 714/4/3 713/4/3 706/4/3
f 715/4/3 713/4/3 714/4/3
f 716/4/3 706/4/3 694/4/3
f 716/4/3 714/4/3 706/4/3
f 717/4/3 714/4/3 716/4/3
f 720/8/3 719/8/3 718/8/3
f 721/8/3 720/8/3 718/8/3
f 722/8/3 720/8/3 721/8/3
f 723/8/3 720/8/3 722/8/3
f 727/8/3 725/8/3 724/8/3
f 727/8/3 726/8/3 725/8/3
f 729/8/3 727/8/3 724/8/3
f 729/8/3 728/8/3 727/8/3
f 730/8/3 728/8/3 729/8/3
f 734/8/3 732/8/3 731/8/3
f 735/8/3 732/8/3 734/8/3
f 737/8/3 734/8/3 733/8/3
f 737/8/3 736/8/3 735/8/3
f 737/8/3 735/8/3 734/8/3
f 738/8/3 736/8/3 737/8/3
f 739/8/3 736/8/3 738/8/3
f 740/8/3 736/8/3 739/8/3
f 741/8/3 739/8/3 738/8/3
f 742/8/3 739/8/3 741/8/3
f 743/5/4 744/5/4 745/5/4
f 745/5/4 744/5/4 746/5/4
f 747/5/4 748/5/4 749/5/4
f 749/5/4 748/5/4 750/5/4
f 751/7/4 752/7/4 754/7/4
f 754/7/4 752/7/4 755/7/4
f 753/5/4 754/5/4 757/5/4
f 757/5/4 754/5/4 758/5/4
f 755/7/4 756/7/4 759/7/4
f 759/7/4 756/7/4 760/7/4
f 761/5/4 762/5/4 765/5/4
f 765/5/4 762/5/4 766/5/4
f 763/7/4 764/7/4 767/7/4
f 767/7/4 764/7/4 768/7/4
f 766/7/4 767/7/4 769/7/4
f 769/7/4 767/7/4 770/7/4
f 771/14/4 772/14/4 773/14/4
f 773/14/4 772/14/4 774/14/4
f 775/13/4 776/13/4 777/13/4
f 777/13/4 776/13/4 778/13/4
f 779/1/4 780/1/4 781/1/4
f 781/1/4 780/1/4 782/1/4
f 783/9/4 784/9/4 785/9/4
f 785/9/4 784/9/4 786/9/4
f 787/14/4 788/14/4 791/14/4
f 791/14/4 788/14/4 792/14/4
f 789/4/4 790/4/4 793/4/4
f 793/4/4 790/4/4 794/4/4
f 795/10/4 796/10/4 799/10/4
f 797/4/4 798/4/4 800/4/4
f 800/4/4 798/4/4 801/4/4
f 795/10/4 799/10/4 804/10/4
f 804/10/4 799/10/4 805/10/4
f 802/9/4 803/9/4 806/9/4
f 806/9/4 803/9/4 807/9/4
f 808/13/4 809/13/4 812/13/4
f 812/13/4 809/13/4 813/13/4
f 810/9/4 811/9/4 814/9/4
f 814/9/4 811/9/4 815/9/4
f 816/4/4 817/4/4 821/4/4
f 821/4/4 817/4/4 822/4/4
f 818/4/4 819/4/4 823/4/4
f 823/4/4 819/4/4 824/4/4
f 820/10/4 821/10/4 826/10/4
f 826/10/4 821/10/4 827/10/4
f 829/1/4 830/1/4 831/1/4
f 828/1/4 829/1/4 831/1/4
f 831/1/4 830/1/4 832/1/4
f 825/14/4 826/14/4 833/14/4
f 833/14/4 826/14/4 834/14/4
f 834/14/4 826/14/4 835/14/4
f 835/14/4 826/14/4 836/14/4
f 832/1/4 830/1/4 837/1/4
f 831/3/4 832/3/4 837/3/4
f 837/1/4 830/1/4 838/1/4
f 834/14/4 835/14/4 841/14/4
f 833/13/4 834/13/4 841/13/4
f 841/14/4 835/14/4 842/14/4
f 837/3/4 838/3/4 843/3/4
f 839/4/4 840/4/4 844/4/4
f 844/4/4 840/4/4 845/4/4
f 841/13/4 842/13/4 846/13/4
f 844/9/4 845/9/4 848/9/4
f 848/9/4 845/9/4 849/9/4
f 837/3/4 843/3/4 850/3/4
f 833/13/4 841/13/4 851/13/4
f 846/13/4 847/13/4 851/13/4
f 841/13/4 846/13/4 851/13/4
f 851/13/4 847/13/4 852/13/4
f 831/3/4 837/3/4 854/3/4
f 837/3/4 850/3/4 854/3/4
f 854/3/4 850/3/4 855/3/4
f 855/3/4 850/3/4 856/3/4
f 852/10/4 853/10/4 857/10/4
f 857/10/4 853/10/4 858/10/4
f 858/4/4 859/4/4 862/4/4
f 862/4/4 859/4/4 863/4/4
f 860/9/4 861/9/4 864/9/4
f 864/9/4 861/9/4 865/9/4
f 866/4/4 867/4/4 871/4/4
f 871/4/4 867/4/4 872/4/4
f 868/9/4 869/9/4 873/9/4
f 873/9/4 869/9/4 874/9/4
f 870/4/4 871/4/4 876/4/4
f 876/4/4 871/4/4 877/4/4
f 874/9/4 875/9/4 878/9/4
f 878/9/4 875/9/4 879/9/4
f 879/9/4 880/9/4 881/9/4
f 881/9/4 880/9/4 882/9/4
f 883/9/4 884/9/4 888/9/4
f 888/9/4 884/9/4 889/9/4
f 885/4/4 886/4/4 890/4/4
f 890/4/4 886/4/4 891/4/4
f 887/4/4 888/4/4 894/4/4
f 894/4/4 888/4/4 895/4/4
f 891/4/4 892/4/4 896/4/4
f 896/4/4 892/4/4 897/4/4
f 893/4/4 894/4/4 898/4/4
f 898/4/4 894/4/4 899/4/4
f 900/4/4 901/4/4 904/4/4
f 901/9/4 902/9/4 905/9/4
f 903/4/4 904/4/4 908/4/4
f 905/9/4 906/9/4 909/9/4
f 907/8/4 908/8/4 911/8/4
f 911/8/4 908/8/4 912/8/4
f 908/4/4 904/4/4 913/4/4
f 912/8/4 908/8/4 913/8/4
f 904/4/4 901/4/4 914/4/4
f 913/4/4 904/4/4 914/4/4
f 909/9/4 910/9/4 915/9/4
f 914/4/4 901/4/4 915/4/4
f 901/9/4 905/9/4 915/9/4
f 905/9/4 909/9/4 915/9/4
f 915/9/4 910/9/4 916/9/4
f 916/9/4 910/9/4 917/9/4
f 913/8/4 914/8/4 919/8/4
f 912/8/4 913/8/4 919/8/4
f 919/8/4 914/8/4 920/8/4
f 917/9/4 918/9/4 921/9/4
f 916/9/4 917/9/4 921/9/4
f 921/9/4 918/9/4 922/9/4
f 922/9/4 918/9/4 923/9/4
f 923/9/4 918/9/4 924/9/4
f 912/8/4 919/8/4 925/8/4
f 923/4/4 924/4/4 928/4/4
f 925/8/4 926/8/4 930/8/4
f 912/8/4 925/8/4 930/8/4
f 930/8/4 926/8/4 931/8/4
f 931/8/4 926/8/4 932/8/4
f 927/4/4 928/4/4 933/4/4
f 928/4/4 924/4/4 934/4/4
f 933/4/4 928/4/4 934/4/4
f 934/4/4 924/4/4 935/4/4
f 935/4/4 924/4/4 936/4/4
f 929/8/4 930/8/4 937/8/4
f 930/8/4 931/8/4 937/8/4
f 931/4/4 932/4/4 938/4/4
f 937/8/4 931/8/4 938/8/4
f 932/4/4 933/4/4 938/4/4
f 933/4/4 934/4/4 938/4/4
f 934/9/4 935/9/4 939/9/4
f 938/4/4 934/4/4 939/4/4
f 939/9/4 935/9/4 940/9/4
f 938/4/4 939/4/4 941/4/4
f 941/4/4 939/4/4 942/4/4
f 942/4/4 939/4/4 943/4/4
f 943/4/4 939/4/4 944/4/4
f 942/4/4 943/4/4 945/4/4
f 945/4/4 943/4/4 946/4/4
f 947/8/4 948/8/4 949/8/4
f 949/8/4 948/8/4 950/8/4
f 950/8/4 948/8/4 951/8/4
f 953/4/4 954/4/4 956/4/4
f 956/4/4 954/4/4 957/4/4
f 955/4/4 956/4/4 959/4/4
f 957/4/4 958/4/4 959/4/4
f 956/4/4 957/4/4 959/4/4
f 959/4/4 958/4/4 960/4/4
f 960/4/4 958/4/4 961/4/4
f 961/4/4 958/4/4 962/4/4
f 951/8/4 952/8/4 964/8/4
f 950/8/4 951/8/4 964/8/4
f 964/8/4 952/8/4 965/8/4
f 965/8/4 952/8/4 966/8/4
f 960/4/4 961/4/4 967/4/4
f 967/4/4 961/4/4 968/4/4
f 963/8/4 964/8/4 969/8/4
f 964/8/4 965/8/4 969/8/4
f 969/8/4 965/8/4 970/8/4
f 971/8/4 972/8/4 974/8/4
f 973/8/4 974/8/4 975/8/4
f 974/8/4 972/8/4 976/8/4
f 975/8/4 974/8/4 976/8/4
f 976/8/4 972/8/4 977/8/4
f 977/8/4 972/8/4 978/8/4
f 981/10/5 980/10/5 979/10/5
f 982/10/5 980/10/5 981/10/5
f 986/14/5 984/14/5 983/14/5
f 987/13/5 985/13/5 984/13/5
f 987/14/5 984/14/5 986/14/5
f 988/13/5 985/13/5 987/13/5
f 989/14/5 986/14/5 983/14/5
f 991/13/5 985/13/5 988/13/5
f 992/14/5 990/14/5 989/14/5
f 992/14/5 989/14/5 983/14/5
f 993/13/5 991/13/5 990/13/5
f 993/14/5 990/14/5 992/14/5
f 994/13/5 985/13/5 991/13/5
f 994/13/5 991/13/5 993/13/5
f 997/8/5 996/8/5 995/8/5
f 998/8/5 996/8/5 997/8/5
f 1003/6/5 1000/6/5 999/6/5
f 1004/6/5 1000/6/5 1003/6/5
f 1005/6/5 1002/6/5 1001/6/5
f 1006/6/5 1002/6/5 1005/6/5
f 1007/5/5 1004/5/5 1003/5/5
f 1008/5/5 1004/5/5 1007/5/5
f 1009/5/5 1006/5/5 1005/5/5
f 1010/5/5 1006/5/5 1009/5/5
f 1015/8/5 1012/8/5 1011/8/5
f 1016/8/5 1012/8/5 1015/8/5
f 1017/8/5 1014/8/5 1013/8/5
f 1018/8/5 1014/8/5 1017/8/5
f 1023/5/5 1020/5/5 1019/5/5
f 1024/5/5 1020/5/5 1023/5/5
f 1025/5/5 1022/5/5 1021/5/5
f 1026/5/5 1022/5/5 1025/5/5
f 1031/8/5 1028/8/5 1027/8/5
f 1032/8/5 1028/8/5 1031/8/5
f 1033/8/5 1028/8/5 1032/8/5
f 1034/8/5 1030/8/5 1029/8/5
f 1035/8/5 1030/8/5 1034/8/5
f 1036/8/5 1030/8/5 1035/8/5
f 1045/7/5 1038/7/5 1037/7/5
f 1046/7/5 1038/7/5 1045/7/5
f 1047/7/5 1040/7/5 1039/7/5
f 1048/7/5 1040/7/5 1047/7/5
f 1049/7/5 1042/7/5 1041/7/5
f 1050/7/5 1042/7/5 1049/7/5
f 1051/7/5 1044/7/5 1043/7/5
f 1052/7/5 1044/7/5 1051/7/5
f 1053/1/5 1047/1/5 1046/1/5
f 1054/1/5 1047/1/5 1053/1/5
f 1055/3/5 1051/3/5 1050/3/5
f 1056/3/5 1051/3/5 1055/3/5
f 1057/14/5 1054/14/5 1053/14/5
f 1058/14/5 1054/14/5 1057/14/5
f 1059/13/5 1056/13/5 1055/13/5
f 1060/13/5 1056/13/5 1059/13/5
f 1063/8/5 1062/8/5 1061/8/5
f 1064/8/5 1062/8/5 1063/8/5
f 1065/8/5 1064/8/5 1063/8/5
f 1066/8/5 1064/8/5 1065/8/5
f 1069/10/5 1068/10/5 1067/10/5
f 1070/10/5 1068/10/5 1069/10/5
f 1071/10/5 1068/10/5 1070/10/5
f 1076/14/5 1073/14/5 1072/14/5
f 1077/14/5 1073/14/5 1076/14/5
f 1078/13/5 1075/13/5 1074/13/5
f 1079/13/5 1075/13/5 1078/13/5
f 1085/10/5 1081/10/5 1080/10/5
f 1085/10/5 1082/10/5 1081/10/5
f 1086/10/5 1082/10/5 1085/10/5
f 1088/8/5 1084/8/5 1083/8/5
f 1089/4/5 1085/4/5 1084/4/5
f 1089/8/5 1084/8/5 1088/8/5
f 1090/4/5 1085/4/5 1089/4/5
f 1091/8/5 1087/8/5 1086/8/5
f 1092/8/5 1087/8/5 1091/8/5
f 1098/10/5 1094/10/5 1093/10/5
f 1099/10/5 1094/10/5 1098/10/5
f 1100/10/5 1096/10/5 1095/10/5
f 1101/10/5 1096/10/5 1100/10/5
f 1103/10/5 1098/10/5 1097/10/5
f 1104/10/5 1098/10/5 1103/10/5
f 1105/10/5 1102/10/5 1101/10/5
f 1106/10/5 1102/10/5 1105/10/5
f 1111/10/5 1108/10/5 1107/10/5
f 1112/10/5 1108/10/5 1111/10/5
f 1115/10/5 1110/10/5 1109/10/5
f 1116/10/5 1110/10/5 1115/10/5
f 1117/10/5 1113/10/5 1112/10/5
f 1118/10/5 1113/10/5 1117/10/5
f 1119/10/5 1113/10/5 1118/10/5
f 1120/10/5 1115/10/5 1114/10/5
f 1121/10/5 1115/10/5 1120/10/5
f 1122/10/5 1115/10/5 1121/10/5
f 1123/8/5 1122/8/5 1121/8/5
f 1124/8/5 1122/8/5 1123/8/5
f 1129/4/5 1126/4/5 1125/4/5
f 1130/4/5 1126/4/5 1129/4/5
f 1131/4/5 1128/4/5 1127/4/5
f 1132/4/5 1128/4/5 1131/4/5
f 1136/9/5 1135/9/5 1134/9/5
f 1137/9/5 1135/9/5 1136/9/5
f 1138/4/5 1137/4/5 1136/4/5
f 1139/4/5 1137/4/5 1138/4/5
f 1142/4/5 1133/4/5 1132/4/5
f 1143/4/5 1133/4/5 1142/4/5
f 1144/4/5 1140/4/5 1139/4/5
f 1145/4/5 1140/4/5 1144/4/5
f 1146/4/5 1142/4/5 1141/4/5
f 1147/4/5 1142/4/5 1146/4/5
f 1152/4/5 1149/4/5 1148/4/5
f 1153/4/5 1149/4/5 1152/4/5
f 1154/4/5 1151/4/5 1150/4/5
f 1155/4/5 1151/4/5 1154/4/5
f 1156/9/5 1153/9/5 1152/9/5
f 1157/9/5 1153/9/5 1156/9/5
f 1162/4/5 1159/4/5 1158/4/5
f 1163/4/5 1159/4/5 1162/4/5
f 1166/4/5 1161/4/5 1160/4/5
f 1167/4/5 1161/4/5 1166/4/5
f 1168/4/5 1164/4/5 1163/4/5
f 1169/4/5 1164/4/5 1168/4/5
f 1172/4/5 1166/4/5 1165/4/5
f 1173/4/5 1166/4/5 1172/4/5
f 1174/4/5 1171/4/5 1170/4/5
f 1175/4/5 1171/4/5 1174/4/5
f 1180/4/5 1177/4/5 1176/4/5
f 1181/4/5 1177/4/5 1180/4/5
f 1186/4/5 1179/4/5 1178/4/5
f 1187/4/5 1179/4/5 1186/4/5
f 1188/4/5 1183/4/5 1182/4/5
f 1189/4/5 1183/4/5 1188/4/5
f 1190/4/5 1185/4/5 1184/4/5
f 1191/4/5 1185/4/5 1190/4/5
f 1196/4/5 1193/4/5 1192/4/5
f 1197/4/5 1193/4/5 1196/4/5
f 1198/4/5 1195/4/5 1194/4/5
f 1199/4/5 1195/4/5 1198/4/5
f 1204/4/5 1201/4/5 1200/4/5
f 1205/4/5 1201/4/5 1204/4/5
f 1208/4/5 1203/4/5 1202/4/5
f 1209/4/5 1203/4/5 1208/4/5
f 1210/4/5 1206/4/5 1205/4/5
f 1211/4/5 1206/4/5 1210/4/5
f 1212/4/5 1208/4/5 1207/4/5
f 1213/4/5 1208/4/5 1212/4/5
f 1218/4/5 1215/4/5 1214/4/5
f 1219/4/5 1215/4/5 1218/4/5
f 1220/9/5 1217/9/5 1216/9/5
f 1221/9/5 1217/9/5 1220/9/5
f 1222/9/5 1219/9/5 1218/9/5
f 1223/9/5 1219/9/5 1222/9/5
f 1224/4/5 1221/4/5 1220/4/5
f 1225/4/5 1221/4/5 1224/4/5
f 1228/4/5 1227/4/5 1226/4/5
f 1229/4/5 1227/4/5 1228/4/5
f 1230/4/5 1227/4/5 1229/4/5
f 1231/4/5 1227/4/5 1230/4/5
f 1232/4/5 1230/4/5 1229/4/5
f 1233/4/5 1230/4/5 1232/4/5
f 1239/9/5 1236/9/5 1235/9/5
f 1239/9/5 1235/9/5 1234/9/5
f 1240/4/5 1237/4/5 1236/4/5
f 1240/9/5 1236/9/5 1239/9/5
f 1241/9/5 1238/9/5 1237/9/5
f 1241/4/5 1237/4/5 1240/4/5
f 1242/9/5 1238/9/5 1241/9/5
f 1243/6/6 1244/6/6 1247/6/6
f 1247/6/6 1244/6/6 1248/6/6
f 1245/6/6 1246/6/6 1249/6/6
f 1249/6/6 1246/6/6 1250/6/6
f 1251/6/6 1252/6/6 1256/6/6
f 1256/6/6 1252/6/6 1257/6/6
f 1253/6/6 1254/6/6 1260/6/6
f 1260/6/6 1254/6/6 1261/6/6
f 1255/7/6 1256/7/6 1263/7/6
f 1263/7/6 1256/7/6 1264/7/6
f 1257/7/6 1258/7/6 1265/7/6
f 1265/7/6 1258/7/6 1266/7/6
f 1259/7/6 1260/7/6 1267/7/6
f 1267/7/6 1260/7/6 1268/7/6
f 1261/7/6 1262/7/6 1269/7/6
f 1269/7/6 1262/7/6 1270/7/6
f 1264/1/6 1265/1/6 1271/1/6
f 1271/1/6 1265/1/6 1272/1/6
f 1268/3/6 1269/3/6 1273/3/6
f 1273/3/6 1269/3/6 1274/3/6
f 1271/14/6 1272/14/6 1275/14/6
f 1275/14/6 1272/14/6 1276/14/6
f 1273/13/6 1274/13/6 1277/13/6
f 1277/13/6 1274/13/6 1278/13/6
f 1279/8/6 1280/8/6 1281/8/6
f 1281/8/6 1280/8/6 1282/8/6
f 1283/10/6 1284/10/6 1285/10/6
f 1285/10/6 1284/10/6 1286/10/6
f 1286/10/6 1284/10/6 1287/10/6
f 1288/8/6 1289/8/6 1292/8/6
f 1292/8/6 1289/8/6 1293/8/6
f 1290/8/6 1291/8/6 1294/8/6
f 1294/8/6 1291/8/6 1295/8/6
f 1296/10/6 1297/10/6 1300/10/6
f 1300/10/6 1297/10/6 1301/10/6
f 1298/10/6 1299/10/6 1302/10/6
f 1302/10/6 1299/10/6 1303/10/6
f 1304/8/6 1305/8/6 1306/8/6
f 1306/8/6 1305/8/6 1307/8/6
f 1308/4/6 1309/4/6 1312/4/6
f 1310/4/6 1311/4/6 1314/4/6
f 1314/4/6 1311/4/6 1315/4/6
f 1312/4/6 1313/4/6 1316/4/6
f 1308/4/6 1312/4/6 1316/4/6
f 1314/4/6 1315/4/6 1316/4/6
f 1313/4/6 1314/4/6 1316/4/6
f 1316/4/6 1315/4/6 1317/4/6
f 1318/4/6 1319/4/6 1322/4/6
f 1322/4/6 1319/4/6 1323/4/6
f 1320/4/6 1321/4/6 1324/4/6
f 1324/4/6 1321/4/6 1325/4/6
f 1326/9/6 1327/9/6 1330/9/6
f 1330/9/6 1327/9/6 1331/9/6
f 1328/4/6 1329/4/6 1336/4/6
f 1336/4/6 1329/4/6 1337/4/6
f 1332/4/6 1333/4/6 1338/4/6
f 1338/4/6 1333/4/6 1339/4/6
f 1334/4/6 1335/4/6 1340/4/6
f 1340/4/6 1335/4/6 1341/4/6
f 1342/4/6 1343/4/6 1347/4/6
f 1347/4/6 1343/4/6 1348/4/6
f 1344/4/6 1345/4/6 1349/4/6
f 1349/4/6 1345/4/6 1350/4/6
f 1346/9/6 1347/9/6 1352/9/6
f 1352/9/6 1347/9/6 1353/9/6
f 1350/9/6 1351/9/6 1354/9/6
f 1354/9/6 1351/9/6 1355/9/6
f 1356/9/6 1357/9/6 1360/9/6
f 1360/9/6 1357/9/6 1361/9/6
f 1358/4/6 1359/4/6 1364/4/6
f 1364/4/6 1359/4/6 1365/4/6
f 1361/9/6 1362/9/6 1366/9/6
f 1366/9/6 1362/9/6 1367/9/6
f 1363/4/6 1364/4/6 1371/4/6
f 1371/4/6 1364/4/6 1372/4/6
f 1369/4/6 1370/4/6 1373/4/6
f 1368/4/6 1369/4/6 1373/4/6
f 1373/4/6 1370/4/6 1374/4/6
f 1375/4/6 1376/4/6 1380/4/6
f 1380/4/6 1376/4/6 1381/4/6
f 1377/4/6 1378/4/6 1382/4/6
f 1382/4/6 1378/4/6 1383/4/6
f 1379/9/6 1380/9/6 1386/9/6
f 1383/4/6 1384/4/6 1387/4/6
f 1387/4/6 1384/4/6 1388/4/6
f 1385/9/6 1386/9/6 1390/9/6
f 1386/9/6 1380/9/6 1390/9/6
f 1390/9/6 1380/9/6 1391/9/6
f 1388/9/6 1389/9/6 1392/9/6
f 1387/9/6 1388/9/6 1392/9/6
f 1392/9/6 1389/9/6 1393/9/6
f 1385/9/6 1390/9/6 1394/9/6
f 1394/9/6 1390/9/6 1395/9/6
f 1394/4/6 1395/4/6 1396/4/6
f 1393/9/6 1389/9/6 1399/9/6
f 1396/4/6 1397/4/6 1400/4/6
f 1394/4/6 1396/4/6 1400/4/6
f 1400/4/6 1397/4/6 1401/4/6
f 1401/4/6 1397/4/6 1402/4/6
f 1398/9/6 1399/9/6 1403/9/6
f 1399/9/6 1389/9/6 1404/9/6
f 1403/9/6 1399/9/6 1404/9/6
f 1404/9/6 1389/9/6 1405/9/6
f 1401/9/6 1402/9/6 1406/9/6
f 1406/9/6 1402/9/6 1407/9/6
f 1403/4/6 1404/4/6 1410/4/6
f 1410/4/6 1404/4/6 1411/4/6
f 1407/9/6 1408/9/6 1412/9/6
f 1412/9/6 1408/9/6 1413/9/6
f 1409/9/6 1410/9/6 1414/9/6
f 1414/9/6 1410/9/6 1415/9/6
f 1416/4/6 1417/4/6 1419/4/6
f 1419/4/6 1417/4/6 1420/4/6
f 1418/4/6 1419/4/6 1422/4/6
f 1420/4/6 1421/4/6 1422/4/6
f 1419/4/6 1420/4/6 1422/4/6
f 1422/4/6 1421/4/6 1423/4/6
f 1423/4/6 1421/4/6 1424/4/6
f 1424/4/6 1421/4/6 1425/4/6
f 1418/4/6 1422/4/6 1427/4/6
f 1427/4/6 1422/4/6 1428/4/6
f 1428/4/6 1422/4/6 1429/4/6
f 1424/9/6 1425/9/6 1430/9/6
f 1430/9/6 1425/9/6 1431/9/6
f 1431/9/6 1425/9/6 1432/9/6
f 1426/9/6 1427/9/6 1434/9/6
f 1427/4/6 1428/4/6 1435/4/6
f 1434/9/6 1427/9/6 1435/9/6
f 1434/4/6 1435/4/6 1436/4/6
f 1435/4/6 1428/4/6 1437/4/6
f 1436/4/6 1435/4/6 1437/4/6
f 1437/4/6 1428/4/6 1438/4/6
f 1432/9/6 1433/9/6 1441/9/6
f 1431/9/6 1432/9/6 1441/9/6
f 1441/9/6 1433/9/6 1442/9/6
f 1442/9/6 1433/9/6 1443/9/6
f 1438/4/6 1439/4/6 1444/4/6
f 1437/4/6 1438/4/6 1444/4/6
f 1444/4/6 1439/4/6 1445/4/6
f 1441/9/6 1442/9/6 1447/9/6
f 1440/9/6 1441/9/6 1447/9/6
f 1447/9/6 1442/9/6 1448/9/6
f 1445/9/6 1446/9/6 1449/9/6
f 1444/9/6 1445/9/6 1449/9/6
f 1449/9/6 1446/9/6 1450/9/6
f 1448/9/6 1442/9/6 1451/9/6
f 1447/4/6 1448/4/6 1451/4/6
f 1446/4/6 1447/4/6 1451/4/6
f 1451/9/6 1442/9/6 1452/9/6
f 1450/9/6 1446/9/6 1453/9/6
f 1446/4/6 1451/4/6 1454/4/6
f 1453/9/6 1446/9/6 1454/9/6
f 1454/4/6 1451/4/6 1455/4/6
f 1456/4/6 1457/4/6 1460/4/6
f 1457/9/6 1458/9/6 1461/9/6
f 1459/4/6 1460/4/6 1463/4/6
f 1460/4/6 1457/4/6 1464/4/6
f 1463/4/6 1460/4/6 1464/4/6
f 1461/9/6 1462/9/6 1465/9/6
f 1457/9/6 1461/9/6 1465/9/6
f 1465/9/6 1462/9/6 1466/9/6
f 1464/4/6 1457/4/6 1467/4/6
f 1457/9/6 1465/9/6 1468/9/6
f 1467/4/6 1457/4/6 1468/4/6
f 1468/9/6 1465/9/6 1469/9/6
