# MagicaVoxel @ Ephtracy

# group
o 

# material
mtllib blank.mtl
usemtl palette

# normals
vn -1 0 0
vn 1 0 0
vn 0 0 1
vn 0 0 -1
vn 0 -1 0
vn 0 1 0

# texcoords
vt 0.00195312 0.5
vt 0.00585938 0.5
vt 0.0332031 0.5
vt 0.0371094 0.5
vt 0.0488281 0.5
vt 0.0527344 0.5
vt 0.537109 0.5
vt 0.908203 0.5
vt 0.958984 0.5
vt 0.962891 0.5
vt 0.970703 0.5
vt 0.986328 0.5
vt 0.994141 0.5

# verts
v -0.5 0.6 -0.3
v -0.5 0.6 -0.4
v -0.5 0.8 -0.3
v -0.5 0.8 -0.4
v -0.5 1.2 0.2
v -0.5 1.2 -0.2
v -0.5 1.3 0.2
v -0.5 1.3 0.1
v -0.5 1.3 -0.1
v -0.5 1.3 -0.2
v -0.5 1.4 0.1
v -0.5 1.4 -0.1
v -0.4 0.2 -0.2
v -0.4 0.2 -0.3
v -0.4 0.3 -0.1
v -0.4 0.3 -0.2
v -0.4 0.3 -0.3
v -0.4 0.4 0.2
v -0.4 0.4 0.1
v -0.4 0.4 -0.1
v -0.4 0.4 -0.2
v -0.4 0.5 0.2
v -0.4 0.5 0.1
v -0.4 0.5 -0.1
v -0.4 0.5 -0.4
v -0.4 0.5 -0.5
v -0.4 0.6 0.1
v -0.4 0.6 -0.1
v -0.4 0.6 -0.4
v -0.4 0.7 -0.2
v -0.4 0.7 -0.3
v -0.4 0.7 -0.4
v -0.4 0.7 -0.5
v -0.4 0.8 -0.3
v -0.4 0.8 -0.4
v -0.4 0.9 0.3
v -0.4 0.9 0.2
v -0.4 0.9 5.96046e-08
v -0.4 0.9 -0.1
v -0.4 0.9 -0.2
v -0.4 0.9 -0.4
v -0.4 1 0.3
v -0.4 1 0.2
v -0.4 1.1 0.1
v -0.4 1.1 5.96046e-08
v -0.4 1.1 -0.1
v -0.4 1.1 -0.2
v -0.4 1.2 0.3
v -0.4 1.2 0.2
v -0.4 1.2 0.1
v -0.4 1.2 -0.2
v -0.4 1.2 -0.4
v -0.4 1.3 0.3
v -0.4 1.3 0.2
v -0.4 1.3 0.1
v -0.4 1.3 -0.1
v -0.4 1.3 -0.2
v -0.4 1.3 -0.3
v -0.4 1.3 -0.4
v -0.4 1.4 0.1
v -0.4 1.4 -0.1
v -0.4 1.4 -0.2
v -0.4 1.4 -0.3
v -0.4 1.5 0.2
v -0.4 1.5 -0.2
v -0.3 0.1 0.2
v -0.3 0.1 -0.3
v -0.3 0.2 -0.2
v -0.3 0.2 -0.3
v -0.3 0.2 -0.4
v -0.3 0.3 -0.1
v -0.3 0.3 -0.2
v -0.3 0.3 -0.3
v -0.3 0.3 -0.4
v -0.3 0.4 0.3
v -0.3 0.4 0.2
v -0.3 0.4 0.1
v -0.3 0.4 -0.1
v -0.3 0.4 -0.2
v -0.3 0.5 0.3
v -0.3 0.5 0.2
v -0.3 0.5 0.1
v -0.3 0.5 -0.1
v -0.3 0.5 -0.3
v -0.3 0.5 -0.4
v -0.3 0.6 0.1
v -0.3 0.6 -0.1
v -0.3 0.6 -0.3
v -0.3 0.6 -0.4
v -0.3 0.7 0.2
v -0.3 0.7 0.1
v -0.3 0.7 -0.2
v -0.3 0.7 -0.3
v -0.3 0.7 -0.4
v -0.3 0.7 -0.5
v -0.3 0.8 0.1
v -0.3 0.8 -0.1
v -0.3 0.8 -0.4
v -0.3 0.8 -0.5
v -0.3 0.9 0.2
v -0.3 0.9 5.96046e-08
v -0.3 0.9 -0.1
v -0.3 0.9 -0.2
v -0.3 0.9 -0.3
v -0.3 1 0.2
v -0.3 1 0.1
v -0.3 1.1 0.2
v -0.3 1.1 0.1
v -0.3 1.1 5.96046e-08
v -0.3 1.1 -0.1
v -0.3 1.1 -0.2
v -0.3 1.1 -0.3
v -0.3 1.2 0.2
v -0.3 1.2 0.1
v -0.3 1.2 -0.2
v -0.3 1.2 -0.3
v -0.3 1.2 -0.4
v -0.3 1.2 -0.5
v -0.3 1.3 0.3
v -0.3 1.3 0.2
v -0.3 1.3 -0.3
v -0.3 1.3 -0.4
v -0.3 1.3 -0.5
v -0.3 1.4 0.3
v -0.3 1.4 0.2
v -0.3 1.4 -0.2
v -0.3 1.4 -0.3
v -0.3 1.5 0.1
v -0.3 1.5 -0.2
v -0.3 1.5 -0.4
v -0.3 1.6 0.1
v -0.3 1.6 -0.2
v -0.2 0 0.4
v -0.2 0 0.3
v -0.2 0 0.1
v -0.2 0 -0.2
v -0.2 0.1 0.1
v -0.2 0.1 -0.2
v -0.2 0.3 -0.3
v -0.2 0.3 -0.4
v -0.2 0.3 -0.5
v -0.2 0.4 0.3
v -0.2 0.4 -0.3
v -0.2 0.4 -0.4
v -0.2 0.4 -0.5
v -0.2 0.5 0.4
v -0.2 0.5 0.3
v -0.2 0.5 -0.3
v -0.2 0.5 -0.4
v -0.2 0.6 0.3
v -0.2 0.6 0.2
v -0.2 0.7 0.3
v -0.2 0.7 0.2
v -0.2 1 -0.5
v -0.2 1 -0.7
v -0.2 1.1 0.3
v -0.2 1.1 0.2
v -0.2 1.1 -0.3
v -0.2 1.1 -0.5
v -0.2 1.1 -0.7
v -0.2 1.2 0.4
v -0.2 1.2 0.3
v -0.2 1.2 0.2
v -0.2 1.2 -0.3
v -0.2 1.2 -0.5
v -0.2 1.3 0.4
v -0.2 1.3 0.3
v -0.2 1.4 0.3
v -0.2 1.4 0.2
v -0.2 1.5 0.3
v -0.2 1.5 0.2
v -0.2 1.5 -0.2
v -0.2 1.5 -0.3
v -0.2 1.6 -0.2
v -0.2 1.6 -0.3
v -0.1 0.5 0.3
v -0.1 0.5 0.2
v -0.1 0.6 0.3
v -0.1 0.6 0.2
v -0.1 1 -0.3
v -0.1 1 -0.5
v -0.1 1.1 -0.3
v -0.1 1.1 -0.5
v -0.1 1.1 -0.6
v -0.1 1.2 -0.5
v -0.1 1.2 -0.6
v -0.1 1.3 0.4
v -0.1 1.3 0.3
v -0.1 1.3 -0.4
v -0.1 1.3 -0.5
v -0.1 1.3 -0.6
v -0.1 1.4 0.4
v -0.1 1.4 0.3
v -0.1 1.4 -0.4
v -0.1 1.4 -0.5
v -0.1 1.5 0.2
v -0.1 1.5 0.1
v -0.1 1.6 0.2
v -0.1 1.6 0.1
v 0 0.2 -0.3
v 0 0.2 -0.4
v 0 0.3 -0.3
v 0 0.3 -0.4
v 0 0.4 -0.4
v 0 0.4 -0.5
v 0 0.5 -0.4
v 0 0.5 -0.5
v 0 1 -0.6
v 0 1 -0.7
v 0 1.1 -0.6
v 0 1.1 -0.7
v 0 1.4 -0.4
v 0 1.4 -0.5
v 0 1.5 -0.4
v 0 1.5 -0.5
v 0.1 0 0.4
v 0.1 0 0.3
v 0.1 0.2 0.4
v 0.1 0.2 0.3
v 0.1 0.3 0.4
v 0.1 0.3 0.3
v 0.1 0.4 0.3
v 0.1 0.5 0.4
v 0.1 0.5 0.3
v 0.1 0.9 0.3
v 0.1 0.9 0.2
v 0.1 1 0.3
v 0.1 1 0.2
v 0.1 1 -0.7
v 0.1 1 -0.8
v 0.1 1.1 -0.7
v 0.1 1.1 -0.8
v 0.2 0.1 -0.3
v 0.2 0.1 -0.4
v 0.2 0.2 -0.3
v 0.2 0.2 -0.4
v 0.2 0.5 -0.3
v 0.2 0.5 -0.4
v 0.2 0.6 -0.3
v 0.2 0.6 -0.4
v -0.3 0.5 -0.4
v -0.3 0.5 -0.5
v -0.3 0.6 -0.4
v -0.3 0.6 -0.5
v -0.2 0.2 -0.3
v -0.2 0.2 -0.4
v -0.2 0.3 -0.3
v -0.2 0.3 -0.4
v -0.2 0.6 -0.4
v -0.2 0.6 -0.5
v -0.2 0.7 -0.4
v -0.2 0.8 -0.4
v -0.2 0.8 -0.5
v -0.1 0 0.4
v -0.1 0 0.3
v -0.1 0.2 0.4
v -0.1 0.2 0.3
v -0.1 0.3 0.4
v -0.1 0.3 0.3
v -0.1 0.4 0.3
v -0.1 0.5 0.4
v -0.1 0.5 0.3
v -0.1 0.6 -0.3
v -0.1 0.6 -0.4
v -0.1 0.7 -0.3
v -0.1 0.7 -0.4
v -0.1 0.9 0.3
v -0.1 0.9 0.2
v -0.1 0.9 -0.3
v -0.1 0.9 -0.4
v -0.1 1 0.3
v -0.1 1 0.2
v -0.1 1 -0.6
v -0.1 1 -0.7
v -0.1 1.1 -0.6
v -0.1 1.1 -0.7
v 0 0.3 -0.4
v 0 0.3 -0.5
v 0 0.4 -0.4
v 0 0.4 -0.5
v 0 0.5 -0.3
v 0 0.5 -0.4
v 0 0.6 -0.3
v 0 0.6 -0.4
v 0 1 -0.3
v 0 1 -0.4
v 0 1.1 -0.3
v 0 1.1 -0.4
v 0.1 0.5 0.3
v 0.1 0.5 0.2
v 0.1 0.6 0.3
v 0.1 0.6 0.2
v 0.1 1 -0.4
v 0.1 1 -0.5
v 0.1 1.1 -0.4
v 0.1 1.1 -0.5
v 0.1 1.1 -0.6
v 0.1 1.2 -0.4
v 0.1 1.2 -0.5
v 0.1 1.2 -0.6
v 0.1 1.3 0.4
v 0.1 1.3 0.3
v 0.1 1.3 -0.5
v 0.1 1.3 -0.6
v 0.1 1.4 0.4
v 0.1 1.4 0.3
v 0.1 1.4 0.2
v 0.1 1.4 -0.4
v 0.1 1.4 -0.5
v 0.1 1.5 0.3
v 0.1 1.5 0.2
v 0.1 1.5 0.1
v 0.1 1.5 -0.4
v 0.1 1.5 -0.5
v 0.1 1.6 0.2
v 0.1 1.6 0.1
v 0.2 0 0.4
v 0.2 0 0.3
v 0.2 0 0.1
v 0.2 0 -0.2
v 0.2 0.1 0.1
v 0.2 0.1 -0.2
v 0.2 0.2 -0.3
v 0.2 0.2 -0.4
v 0.2 0.4 0.3
v 0.2 0.4 -0.3
v 0.2 0.4 -0.4
v 0.2 0.4 -0.5
v 0.2 0.5 0.4
v 0.2 0.5 0.3
v 0.2 0.5 -0.3
v 0.2 0.5 -0.4
v 0.2 0.5 -0.5
v 0.2 0.6 0.3
v 0.2 0.6 0.2
v 0.2 0.7 0.3
v 0.2 0.7 0.2
v 0.2 1 -0.5
v 0.2 1 -0.8
v 0.2 1.1 0.3
v 0.2 1.1 0.2
v 0.2 1.1 -0.3
v 0.2 1.1 -0.4
v 0.2 1.1 -0.5
v 0.2 1.1 -0.8
v 0.2 1.2 0.4
v 0.2 1.2 0.3
v 0.2 1.2 0.2
v 0.2 1.2 -0.3
v 0.2 1.2 -0.4
v 0.2 1.3 0.4
v 0.2 1.3 0.3
v 0.2 1.4 -0.3
v 0.2 1.4 -0.4
v 0.2 1.5 0.1
v 0.2 1.5 5.96046e-08
v 0.2 1.5 -0.2
v 0.2 1.5 -0.3
v 0.2 1.5 -0.4
v 0.2 1.6 0.1
v 0.2 1.6 5.96046e-08
v 0.2 1.6 -0.2
v 0.2 1.6 -0.3
v 0.3 0.1 0.2
v 0.3 0.1 -0.3
v 0.3 0.1 -0.4
v 0.3 0.2 -0.3
v 0.3 0.2 -0.4
v 0.3 0.4 0.3
v 0.3 0.4 0.2
v 0.3 0.4 0.1
v 0.3 0.5 0.3
v 0.3 0.5 0.2
v 0.3 0.5 0.1
v 0.3 0.5 -0.1
v 0.3 0.5 -0.3
v 0.3 0.5 -0.4
v 0.3 0.6 0.1
v 0.3 0.6 -0.1
v 0.3 0.6 -0.3
v 0.3 0.6 -0.4
v 0.3 0.7 0.2
v 0.3 0.7 -0.3
v 0.3 0.9 0.2
v 0.3 0.9 5.96046e-08
v 0.3 0.9 -0.1
v 0.3 1 0.2
v 0.3 1.1 0.2
v 0.3 1.1 0.1
v 0.3 1.1 5.96046e-08
v 0.3 1.1 -0.1
v 0.3 1.1 -0.2
v 0.3 1.1 -0.3
v 0.3 1.2 0.2
v 0.3 1.2 0.1
v 0.3 1.2 -0.2
v 0.3 1.2 -0.3
v 0.3 1.2 -0.4
v 0.3 1.2 -0.5
v 0.3 1.3 0.3
v 0.3 1.3 0.2
v 0.3 1.4 0.3
v 0.3 1.4 0.2
v 0.3 1.4 0.1
v 0.3 1.4 -0.2
v 0.3 1.4 -0.3
v 0.3 1.4 -0.4
v 0.3 1.4 -0.5
v 0.3 1.5 0.2
v 0.3 1.5 0.1
v 0.3 1.5 5.96046e-08
v 0.3 1.5 -0.2
v 0.3 1.5 -0.3
v 0.3 1.6 5.96046e-08
v 0.3 1.6 -0.2
v 0.4 0.4 0.2
v 0.4 0.4 0.1
v 0.4 0.5 0.2
v 0.4 0.5 0.1
v 0.4 0.5 -0.1
v 0.4 0.5 -0.3
v 0.4 0.6 0.1
v 0.4 0.6 -0.1
v 0.4 0.6 -0.3
v 0.4 0.9 0.3
v 0.4 0.9 0.2
v 0.4 0.9 5.96046e-08
v 0.4 0.9 -0.1
v 0.4 1 0.3
v 0.4 1 0.2
v 0.4 1.1 0.1
v 0.4 1.1 5.96046e-08
v 0.4 1.1 -0.1
v 0.4 1.1 -0.2
v 0.4 1.2 0.3
v 0.4 1.2 0.2
v 0.4 1.2 0.1
v 0.4 1.2 -0.2
v 0.4 1.2 -0.3
v 0.4 1.2 -0.4
v 0.4 1.3 0.3
v 0.4 1.3 0.2
v 0.4 1.3 0.1
v 0.4 1.3 -0.2
v 0.4 1.3 -0.3
v 0.4 1.4 0.2
v 0.4 1.4 0.1
v 0.4 1.4 -0.2
v 0.4 1.4 -0.4
v 0.4 1.5 0.1
v 0.4 1.5 -0.2
v 0.5 1.2 0.2
v 0.5 1.2 -0.3
v 0.5 1.3 0.2
v 0.5 1.3 0.1
v 0.5 1.3 -0.2
v 0.5 1.3 -0.3
v 0.5 1.4 0.1
v 0.5 1.4 -0.2
v -0.2 0 0.4
v -0.2 0.5 0.4
v -0.2 1.2 0.4
v -0.2 1.3 0.4
v -0.1 0 0.4
v -0.1 0.2 0.4
v -0.1 0.3 0.4
v -0.1 0.5 0.4
v -0.1 1.3 0.4
v -0.1 1.4 0.4
v 0.1 0 0.4
v 0.1 0.2 0.4
v 0.1 0.3 0.4
v 0.1 0.5 0.4
v 0.1 1.3 0.4
v 0.1 1.4 0.4
v 0.2 0 0.4
v 0.2 0.5 0.4
v 0.2 1.2 0.4
v 0.2 1.3 0.4
v -0.4 0.9 0.3
v -0.4 1 0.3
v -0.4 1.2 0.3
v -0.4 1.3 0.3
v -0.3 0.4 0.3
v -0.3 0.5 0.3
v -0.3 1.3 0.3
v -0.3 1.4 0.3
v -0.2 0.4 0.3
v -0.2 0.5 0.3
v -0.2 0.6 0.3
v -0.2 0.7 0.3
v -0.2 0.9 0.3
v -0.2 1 0.3
v -0.2 1.1 0.3
v -0.2 1.2 0.3
v -0.2 1.3 0.3
v -0.2 1.4 0.3
v -0.2 1.5 0.3
v -0.1 0.4 0.3
v -0.1 0.5 0.3
v -0.1 0.6 0.3
v -0.1 0.7 0.3
v -0.1 0.9 0.3
v -0.1 1 0.3
v -0.1 1.3 0.3
v -0.1 1.4 0.3
v 0.1 0.4 0.3
v 0.1 0.5 0.3
v 0.1 0.6 0.3
v 0.1 0.7 0.3
v 0.1 0.9 0.3
v 0.1 1 0.3
v 0.1 1.3 0.3
v 0.1 1.4 0.3
v 0.1 1.5 0.3
v 0.2 0.4 0.3
v 0.2 0.5 0.3
v 0.2 0.6 0.3
v 0.2 0.7 0.3
v 0.2 0.9 0.3
v 0.2 1 0.3
v 0.2 1.1 0.3
v 0.2 1.2 0.3
v 0.2 1.3 0.3
v 0.3 0.4 0.3
v 0.3 0.5 0.3
v 0.3 1.3 0.3
v 0.3 1.4 0.3
v 0.4 0.9 0.3
v 0.4 1 0.3
v 0.4 1.2 0.3
v 0.4 1.3 0.3
v -0.5 1.2 0.2
v -0.5 1.3 0.2
v -0.4 0.4 0.2
v -0.4 0.5 0.2
v -0.4 1.2 0.2
v -0.4 1.3 0.2
v -0.4 1.5 0.2
v -0.3 0.1 0.2
v -0.3 0.4 0.2
v -0.3 0.5 0.2
v -0.3 0.7 0.2
v -0.3 0.9 0.2
v -0.3 1 0.2
v -0.3 1.1 0.2
v -0.3 1.2 0.2
v -0.3 1.3 0.2
v -0.3 1.4 0.2
v -0.2 0.1 0.2
v -0.2 0.3 0.2
v -0.2 0.6 0.2
v -0.2 0.7 0.2
v -0.2 0.8 0.2
v -0.2 0.9 0.2
v -0.2 1 0.2
v -0.2 1.1 0.2
v -0.2 1.2 0.2
v -0.2 1.4 0.2
v -0.2 1.5 0.2
v -0.1 0.3 0.2
v -0.1 0.4 0.2
v -0.1 0.5 0.2
v -0.1 0.6 0.2
v -0.1 0.7 0.2
v -0.1 0.8 0.2
v -0.1 0.9 0.2
v -0.1 1 0.2
v -0.1 1.5 0.2
v -0.1 1.6 0.2
v 0.1 0.4 0.2
v 0.1 0.5 0.2
v 0.1 0.6 0.2
v 0.1 0.7 0.2
v 0.1 0.8 0.2
v 0.1 0.9 0.2
v 0.1 1 0.2
v 0.1 1.4 0.2
v 0.1 1.5 0.2
v 0.1 1.6 0.2
v 0.2 0.6 0.2
v 0.2 0.7 0.2
v 0.2 0.8 0.2
v 0.2 0.9 0.2
v 0.2 1 0.2
v 0.2 1.1 0.2
v 0.2 1.2 0.2
v 0.3 0.1 0.2
v 0.3 0.4 0.2
v 0.3 0.5 0.2
v 0.3 0.7 0.2
v 0.3 0.9 0.2
v 0.3 1 0.2
v 0.3 1.1 0.2
v 0.3 1.2 0.2
v 0.3 1.3 0.2
v 0.3 1.4 0.2
v 0.3 1.5 0.2
v 0.4 0.4 0.2
v 0.4 0.5 0.2
v 0.4 1.2 0.2
v 0.4 1.3 0.2
v 0.4 1.4 0.2
v 0.5 1.2 0.2
v 0.5 1.3 0.2
v -0.5 1.3 0.1
v -0.5 1.4 0.1
v -0.4 0.5 0.1
v -0.4 0.6 0.1
v -0.4 1.1 0.1
v -0.4 1.2 0.1
v -0.4 1.3 0.1
v -0.4 1.4 0.1
v -0.3 0.5 0.1
v -0.3 0.6 0.1
v -0.3 1.1 0.1
v -0.3 1.2 0.1
v -0.3 1.5 0.1
v -0.3 1.6 0.1
v -0.2 0 0.1
v -0.2 0.1 0.1
v -0.1 1.5 0.1
v -0.1 1.6 0.1
v 0.1 1.5 0.1
v 0.1 1.6 0.1
v 0.2 0 0.1
v 0.2 0.1 0.1
v 0.2 1.5 0.1
v 0.2 1.6 0.1
v 0.3 0.5 0.1
v 0.3 0.6 0.1
v 0.3 1.1 0.1
v 0.3 1.2 0.1
v 0.3 1.4 0.1
v 0.3 1.5 0.1
v 0.4 0.5 0.1
v 0.4 0.6 0.1
v 0.4 1.1 0.1
v 0.4 1.2 0.1
v 0.4 1.3 0.1
v 0.4 1.4 0.1
v 0.4 1.5 0.1
v 0.5 1.3 0.1
v 0.5 1.4 0.1
v -0.4 0.9 5.96046e-08
v -0.4 1.1 5.96046e-08
v -0.3 0.9 5.96046e-08
v -0.3 1.1 5.96046e-08
v 0.2 1.5 5.96046e-08
v 0.2 1.6 5.96046e-08
v 0.3 0.9 5.96046e-08
v 0.3 1.1 5.96046e-08
v 0.3 1.5 5.96046e-08
v 0.3 1.6 5.96046e-08
v 0.4 0.9 5.96046e-08
v 0.4 1.1 5.96046e-08
v -0.4 0.3 -0.1
v -0.4 0.4 -0.1
v -0.3 0.3 -0.1
v -0.3 0.4 -0.1
v -0.4 0.2 -0.2
v -0.4 0.3 -0.2
v -0.4 0.7 -0.2
v -0.4 0.9 -0.2
v -0.3 0.2 -0.2
v -0.3 0.3 -0.2
v -0.3 0.7 -0.2
v -0.3 0.9 -0.2
v -0.5 0.6 -0.3
v -0.5 0.8 -0.3
v -0.4 0.7 -0.3
v -0.4 0.8 -0.3
v -0.3 0.6 -0.3
v -0.3 0.7 -0.3
v -0.4 0.5 -0.4
v -0.4 0.6 -0.4
v -0.3 0.5 -0.4
v -0.3 0.6 -0.4
v 0 1 -0.4
v 0 1.1 -0.4
v 0.1 1 -0.4
v 0.1 1.1 -0.4
v -0.2 1 -0.5
v -0.2 1.1 -0.5
v -0.1 1 -0.5
v -0.1 1.1 -0.5
v 0.1 1 -0.5
v 0.1 1.1 -0.5
v 0.2 1 -0.5
v 0.2 1.1 -0.5
v -0.2 0 0.3
v -0.2 0.4 0.3
v -0.1 0 0.3
v -0.1 0.2 0.3
v -0.1 0.3 0.3
v -0.1 0.4 0.3
v 0.1 0 0.3
v 0.1 0.2 0.3
v 0.1 0.3 0.3
v 0.1 0.4 0.3
v 0.2 0 0.3
v 0.2 0.4 0.3
v -0.4 0.9 0.2
v -0.4 1 0.2
v -0.3 0.9 0.2
v -0.3 1 0.2
v 0.3 0.9 0.2
v 0.3 1 0.2
v 0.4 0.9 0.2
v 0.4 1 0.2
v 0.3 0.4 0.1
v 0.3 0.5 0.1
v 0.4 0.4 0.1
v 0.4 0.5 0.1
v -0.5 1.3 -0.1
v -0.5 1.4 -0.1
v -0.4 0.4 -0.1
v -0.4 0.5 -0.1
v -0.4 0.6 -0.1
v -0.4 0.9 -0.1
v -0.4 1.1 -0.1
v -0.4 1.3 -0.1
v -0.4 1.4 -0.1
v -0.3 0.4 -0.1
v -0.3 0.5 -0.1
v -0.3 0.6 -0.1
v -0.3 0.9 -0.1
v -0.3 1.1 -0.1
v 0.3 0.9 -0.1
v 0.3 1.1 -0.1
v 0.4 0.9 -0.1
v 0.4 1.1 -0.1
v -0.5 1.2 -0.2
v -0.5 1.3 -0.2
v -0.4 0.3 -0.2
v -0.4 0.4 -0.2
v -0.4 1.1 -0.2
v -0.4 1.2 -0.2
v -0.4 1.3 -0.2
v -0.4 1.4 -0.2
v -0.4 1.5 -0.2
v -0.3 0.3 -0.2
v -0.3 0.4 -0.2
v -0.3 1.1 -0.2
v -0.3 1.2 -0.2
v -0.3 1.4 -0.2
v -0.3 1.5 -0.2
v -0.3 1.6 -0.2
v -0.2 0 -0.2
v -0.2 0.1 -0.2
v -0.2 1.5 -0.2
v -0.2 1.6 -0.2
v 0.1 0.1 -0.2
v 0.2 0 -0.2
v 0.2 0.1 -0.2
v 0.2 1.5 -0.2
v 0.2 1.6 -0.2
v 0.3 1.1 -0.2
v 0.3 1.2 -0.2
v 0.3 1.4 -0.2
v 0.3 1.5 -0.2
v 0.3 1.6 -0.2
v 0.4 1.1 -0.2
v 0.4 1.2 -0.2
v 0.4 1.3 -0.2
v 0.4 1.4 -0.2
v 0.4 1.5 -0.2
v 0.5 1.3 -0.2
v 0.5 1.4 -0.2
v -0.4 0.2 -0.3
v -0.4 0.3 -0.3
v -0.4 1.3 -0.3
v -0.4 1.4 -0.3
v -0.3 0.1 -0.3
v -0.3 0.2 -0.3
v -0.3 0.3 -0.3
v -0.3 0.5 -0.3
v -0.3 0.9 -0.3
v -0.3 1.1 -0.3
v -0.3 1.2 -0.3
v -0.3 1.3 -0.3
v -0.3 1.4 -0.3
v -0.2 0.2 -0.3
v -0.2 0.3 -0.3
v -0.2 0.4 -0.3
v -0.2 0.5 -0.3
v -0.2 0.9 -0.3
v -0.2 1 -0.3
v -0.2 1.1 -0.3
v -0.2 1.2 -0.3
v -0.2 1.5 -0.3
v -0.2 1.6 -0.3
v -0.1 0.3 -0.3
v -0.1 0.6 -0.3
v -0.1 0.7 -0.3
v -0.1 0.9 -0.3
v -0.1 1 -0.3
v -0.1 1.1 -0.3
v 0 0.2 -0.3
v 0 0.3 -0.3
v 0 0.5 -0.3
v 0 0.6 -0.3
v 0 1 -0.3
v 0 1.1 -0.3
v 0.1 0.1 -0.3
v 0.1 0.2 -0.3
v 0.1 0.5 -0.3
v 0.2 0.1 -0.3
v 0.2 0.2 -0.3
v 0.2 0.4 -0.3
v 0.2 0.5 -0.3
v 0.2 0.6 -0.3
v 0.2 1.1 -0.3
v 0.2 1.2 -0.3
v 0.2 1.4 -0.3
v 0.2 1.5 -0.3
v 0.2 1.6 -0.3
v 0.3 0.2 -0.3
v 0.3 0.5 -0.3
v 0.3 0.6 -0.3
v 0.3 0.7 -0.3
v 0.3 1.1 -0.3
v 0.3 1.2 -0.3
v 0.3 1.4 -0.3
v 0.3 1.5 -0.3
v 0.4 0.5 -0.3
v 0.4 0.6 -0.3
v 0.4 1.2 -0.3
v 0.4 1.3 -0.3
v 0.5 1.2 -0.3
v 0.5 1.3 -0.3
v -0.5 0.6 -0.4
v -0.5 0.8 -0.4
v -0.4 0.6 -0.4
v -0.4 0.7 -0.4
v -0.4 0.8 -0.4
v -0.4 0.9 -0.4
v -0.4 1.2 -0.4
v -0.4 1.3 -0.4
v -0.3 0.2 -0.4
v -0.3 0.3 -0.4
v -0.3 0.5 -0.4
v -0.3 0.6 -0.4
v -0.3 0.7 -0.4
v -0.3 0.8 -0.4
v -0.3 1.2 -0.4
v -0.3 1.3 -0.4
v -0.3 1.5 -0.4
v -0.2 0.2 -0.4
v -0.2 0.3 -0.4
v -0.2 0.4 -0.4
v -0.2 0.5 -0.4
v -0.2 0.6 -0.4
v -0.2 0.7 -0.4
v -0.2 0.8 -0.4
v -0.1 0.6 -0.4
v -0.1 0.7 -0.4
v -0.1 0.9 -0.4
v -0.1 1.3 -0.4
v -0.1 1.4 -0.4
v 0 0.2 -0.4
v 0 0.3 -0.4
v 0 0.4 -0.4
v 0 0.5 -0.4
v 0 0.6 -0.4
v 0 1.4 -0.4
v 0 1.5 -0.4
v 0.1 0.3 -0.4
v 0.1 0.4 -0.4
v 0.1 1.1 -0.4
v 0.1 1.2 -0.4
v 0.1 1.4 -0.4
v 0.1 1.5 -0.4
v 0.2 0.1 -0.4
v 0.2 0.2 -0.4
v 0.2 0.4 -0.4
v 0.2 0.5 -0.4
v 0.2 0.6 -0.4
v 0.2 1.1 -0.4
v 0.2 1.2 -0.4
v 0.2 1.4 -0.4
v 0.2 1.5 -0.4
v 0.3 0.1 -0.4
v 0.3 0.2 -0.4
v 0.3 0.5 -0.4
v 0.3 0.6 -0.4
v 0.3 1.2 -0.4
v 0.3 1.4 -0.4
v 0.4 1.2 -0.4
v 0.4 1.4 -0.4
v -0.4 0.5 -0.5
v -0.4 0.7 -0.5
v -0.3 0.5 -0.5
v -0.3 0.6 -0.5
v -0.3 0.7 -0.5
v -0.3 0.8 -0.5
v -0.3 1.2 -0.5
v -0.3 1.3 -0.5
v -0.2 0.3 -0.5
v -0.2 0.4 -0.5
v -0.2 0.6 -0.5
v -0.2 0.8 -0.5
v -0.2 1.1 -0.5
v -0.2 1.2 -0.5
v -0.1 1.1 -0.5
v -0.1 1.2 -0.5
v -0.1 1.3 -0.5
v -0.1 1.4 -0.5
v 0 0.3 -0.5
v 0 0.4 -0.5
v 0 0.5 -0.5
v 0 1.4 -0.5
v 0 1.5 -0.5
v 0.1 1.2 -0.5
v 0.1 1.3 -0.5
v 0.1 1.4 -0.5
v 0.1 1.5 -0.5
v 0.2 0.4 -0.5
v 0.2 0.5 -0.5
v 0.3 1.2 -0.5
v 0.3 1.4 -0.5
v -0.1 1 -0.6
v -0.1 1.1 -0.6
v -0.1 1.2 -0.6
v -0.1 1.3 -0.6
v 0 1 -0.6
v 0 1.1 -0.6
v 0.1 1.1 -0.6
v 0.1 1.2 -0.6
v 0.1 1.3 -0.6
v -0.2 1 -0.7
v -0.2 1.1 -0.7
v -0.1 1 -0.7
v -0.1 1.1 -0.7
v 0 1 -0.7
v 0 1.1 -0.7
v 0.1 1 -0.7
v 0.1 1.1 -0.7
v 0.1 1 -0.8
v 0.1 1.1 -0.8
v 0.2 1 -0.8
v 0.2 1.1 -0.8
v -0.2 0 0.4
v -0.1 0 0.4
v 0.1 0 0.4
v 0.2 0 0.4
v -0.2 0 0.3
v -0.1 0 0.3
v 0.1 0 0.3
v 0.2 0 0.3
v -0.2 0 0.1
v 0.2 0 0.1
v -0.2 0 -0.2
v 0.2 0 -0.2
v -0.3 0.1 0.2
v -0.2 0.1 0.2
v 0.3 0.1 0.2
v -0.2 0.1 0.1
v 0.2 0.1 0.1
v -0.2 0.1 -0.2
v 0.1 0.1 -0.2
v 0.2 0.1 -0.2
v -0.3 0.1 -0.3
v 0.1 0.1 -0.3
v 0.2 0.1 -0.3
v 0.3 0.1 -0.3
v 0.2 0.1 -0.4
v 0.3 0.1 -0.4
v -0.1 0.2 0.4
v 0.1 0.2 0.4
v -0.1 0.2 0.3
v 0.1 0.2 0.3
v -0.4 0.2 -0.2
v -0.3 0.2 -0.2
v -0.4 0.2 -0.3
v -0.3 0.2 -0.3
v -0.2 0.2 -0.3
v 0 0.2 -0.3
v 0.1 0.2 -0.3
v 0.2 0.2 -0.3
v -0.3 0.2 -0.4
v -0.2 0.2 -0.4
v 0 0.2 -0.4
v 0.2 0.2 -0.4
v -0.4 0.3 -0.1
v -0.3 0.3 -0.1
v -0.4 0.3 -0.2
v -0.3 0.3 -0.2
v -0.2 0.3 -0.3
v -0.1 0.3 -0.3
v 0 0.3 -0.3
v -0.2 0.3 -0.4
v -0.1 0.3 -0.4
v 0 0.3 -0.4
v -0.2 0.3 -0.5
v 0 0.3 -0.5
v -0.3 0.4 0.3
v -0.2 0.4 0.3
v -0.1 0.4 0.3
v 0.1 0.4 0.3
v 0.2 0.4 0.3
v 0.3 0.4 0.3
v -0.4 0.4 0.2
v -0.3 0.4 0.2
v -0.1 0.4 0.2
v 0.1 0.4 0.2
v 0.3 0.4 0.2
v 0.4 0.4 0.2
v -0.4 0.4 0.1
v -0.3 0.4 0.1
v 0.3 0.4 0.1
v 0.4 0.4 0.1
v -0.4 0.4 -0.1
v -0.3 0.4 -0.1
v 0 0.4 -0.4
v 0.1 0.4 -0.4
v 0.2 0.4 -0.4
v 0 0.4 -0.5
v 0.2 0.4 -0.5
v 0.3 0.5 0.1
v 0.4 0.5 0.1
v 0.3 0.5 -0.1
v 0.4 0.5 -0.1
v -0.3 0.5 -0.3
v -0.2 0.5 -0.3
v 0.2 0.5 -0.3
v 0.3 0.5 -0.3
v 0.4 0.5 -0.3
v -0.4 0.5 -0.4
v -0.3 0.5 -0.4
v -0.2 0.5 -0.4
v 0.2 0.5 -0.4
v 0.3 0.5 -0.4
v -0.4 0.5 -0.5
v -0.3 0.5 -0.5
v -0.2 0.6 0.3
v -0.1 0.6 0.3
v 0.1 0.6 0.3
v 0.2 0.6 0.3
v -0.2 0.6 0.2
v -0.1 0.6 0.2
v 0.1 0.6 0.2
v 0.2 0.6 0.2
v -0.5 0.6 -0.3
v -0.3 0.6 -0.3
v -0.5 0.6 -0.4
v -0.4 0.6 -0.4
v -0.3 0.6 -0.4
v -0.2 0.6 -0.4
v -0.3 0.6 -0.5
v -0.2 0.6 -0.5
v -0.4 0.7 -0.2
v -0.3 0.7 -0.2
v -0.4 0.7 -0.3
v -0.3 0.7 -0.3
v -0.4 0.9 0.3
v -0.2 0.9 0.3
v -0.1 0.9 0.3
v 0.1 0.9 0.3
v 0.2 0.9 0.3
v 0.4 0.9 0.3
v -0.4 0.9 0.2
v -0.3 0.9 0.2
v -0.2 0.9 0.2
v -0.1 0.9 0.2
v 0.1 0.9 0.2
v 0.2 0.9 0.2
v 0.3 0.9 0.2
v 0.4 0.9 0.2
v -0.4 0.9 5.96046e-08
v -0.3 0.9 5.96046e-08
v 0.3 0.9 5.96046e-08
v 0.4 0.9 5.96046e-08
v -0.4 0.9 -0.1
v -0.3 0.9 -0.1
v 0.3 0.9 -0.1
v 0.4 0.9 -0.1
v -0.1 1 -0.3
v 0 1 -0.3
v 0 1 -0.4
v 0.1 1 -0.4
v -0.2 1 -0.5
v -0.1 1 -0.5
v 0.1 1 -0.5
v 0.2 1 -0.5
v -0.1 1 -0.6
v 0 1 -0.6
v -0.2 1 -0.7
v -0.1 1 -0.7
v 0 1 -0.7
v 0.1 1 -0.7
v 0.1 1 -0.8
v 0.2 1 -0.8
v -0.2 1.1 0.3
v 0.2 1.1 0.3
v -0.2 1.1 0.2
v 0.2 1.1 0.2
v -0.4 1.1 0.1
v -0.3 1.1 0.1
v 0.3 1.1 0.1
v 0.4 1.1 0.1
v -0.4 1.1 5.96046e-08
v -0.3 1.1 5.96046e-08
v 0.3 1.1 5.96046e-08
v 0.4 1.1 5.96046e-08
v -0.4 1.1 -0.1
v -0.3 1.1 -0.1
v 0.3 1.1 -0.1
v 0.4 1.1 -0.1
v -0.4 1.1 -0.2
v -0.3 1.1 -0.2
v 0.3 1.1 -0.2
v 0.4 1.1 -0.2
v -0.2 1.1 -0.3
v -0.1 1.1 -0.3
v 0 1.1 -0.3
v 0.2 1.1 -0.3
v 0 1.1 -0.4
v 0.1 1.1 -0.4
v 0.2 1.1 -0.4
v -0.2 1.1 -0.5
v -0.1 1.1 -0.5
v -0.2 1.2 0.4
v 0.2 1.2 0.4
v -0.4 1.2 0.3
v -0.2 1.2 0.3
v 0.2 1.2 0.3
v 0.4 1.2 0.3
v -0.5 1.2 0.2
v -0.4 1.2 0.2
v -0.3 1.2 0.2
v -0.2 1.2 0.2
v 0.2 1.2 0.2
v 0.3 1.2 0.2
v 0.4 1.2 0.2
v 0.5 1.2 0.2
v -0.4 1.2 0.1
v -0.3 1.2 0.1
v 0.3 1.2 0.1
v 0.4 1.2 0.1
v -0.5 1.2 -0.2
v -0.4 1.2 -0.2
v -0.3 1.2 -0.2
v 0.3 1.2 -0.2
v 0.4 1.2 -0.2
v -0.3 1.2 -0.3
v -0.2 1.2 -0.3
v 0.2 1.2 -0.3
v 0.3 1.2 -0.3
v 0.4 1.2 -0.3
v 0.5 1.2 -0.3
v -0.4 1.2 -0.4
v -0.3 1.2 -0.4
v 0.1 1.2 -0.4
v 0.2 1.2 -0.4
v 0.3 1.2 -0.4
v 0.4 1.2 -0.4
v -0.3 1.2 -0.5
v -0.2 1.2 -0.5
v 0.1 1.2 -0.5
v 0.3 1.2 -0.5
v 0.2 0.2 -0.3
v 0.3 0.2 -0.3
v 0.2 0.2 -0.4
v 0.3 0.2 -0.4
v -0.1 0.3 0.4
v 0.1 0.3 0.4
v -0.1 0.3 0.3
v 0.1 0.3 0.3
v -0.4 0.3 -0.2
v -0.3 0.3 -0.2
v -0.4 0.3 -0.3
v -0.3 0.3 -0.3
v -0.2 0.3 -0.3
v -0.3 0.3 -0.4
v -0.2 0.3 -0.4
v -0.4 0.4 -0.1
v -0.3 0.4 -0.1
v -0.4 0.4 -0.2
v -0.3 0.4 -0.2
v -0.2 0.4 -0.4
v 0 0.4 -0.4
v -0.2 0.4 -0.5
v 0 0.4 -0.5
v -0.2 0.5 0.4
v -0.1 0.5 0.4
v 0.1 0.5 0.4
v 0.2 0.5 0.4
v -0.3 0.5 0.3
v -0.2 0.5 0.3
v -0.1 0.5 0.3
v 0.1 0.5 0.3
v 0.2 0.5 0.3
v 0.3 0.5 0.3
v -0.4 0.5 0.2
v -0.3 0.5 0.2
v -0.1 0.5 0.2
v 0.1 0.5 0.2
v 0.3 0.5 0.2
v 0.4 0.5 0.2
v -0.4 0.5 0.1
v -0.3 0.5 0.1
v 0.3 0.5 0.1
v 0.4 0.5 0.1
v 0 0.5 -0.3
v 0.1 0.5 -0.3
v 0.2 0.5 -0.3
v 0 0.5 -0.4
v 0.1 0.5 -0.4
v 0.2 0.5 -0.4
v 0 0.5 -0.5
v 0.2 0.5 -0.5
v -0.4 0.6 0.1
v -0.3 0.6 0.1
v 0.3 0.6 0.1
v 0.4 0.6 0.1
v -0.4 0.6 -0.1
v -0.3 0.6 -0.1
v 0.3 0.6 -0.1
v 0.4 0.6 -0.1
v -0.1 0.6 -0.3
v 0 0.6 -0.3
v 0.2 0.6 -0.3
v 0.3 0.6 -0.3
v 0.4 0.6 -0.3
v -0.1 0.6 -0.4
v 0 0.6 -0.4
v 0.2 0.6 -0.4
v 0.3 0.6 -0.4
v -0.2 0.7 0.3
v -0.1 0.7 0.3
v 0.1 0.7 0.3
v 0.2 0.7 0.3
v -0.2 0.7 0.2
v -0.1 0.7 0.2
v 0.1 0.7 0.2
v 0.2 0.7 0.2
v -0.4 0.7 -0.4
v -0.3 0.7 -0.4
v -0.4 0.7 -0.5
v -0.3 0.7 -0.5
v -0.5 0.8 -0.3
v -0.4 0.8 -0.3
v -0.5 0.8 -0.4
v -0.4 0.8 -0.4
v -0.3 0.8 -0.4
v -0.2 0.8 -0.4
v -0.3 0.8 -0.5
v -0.2 0.8 -0.5
v -0.4 0.9 -0.2
v -0.3 0.9 -0.2
v -0.3 0.9 -0.3
v -0.2 0.9 -0.3
v -0.1 0.9 -0.3
v -0.4 0.9 -0.4
v -0.1 0.9 -0.4
v -0.4 1 0.3
v -0.2 1 0.3
v -0.1 1 0.3
v 0.1 1 0.3
v 0.2 1 0.3
v 0.4 1 0.3
v -0.4 1 0.2
v -0.3 1 0.2
v -0.2 1 0.2
v -0.1 1 0.2
v 0.1 1 0.2
v 0.2 1 0.2
v 0.3 1 0.2
v 0.4 1 0.2
v -0.2 1.1 -0.5
v -0.1 1.1 -0.5
v 0.1 1.1 -0.5
v 0.2 1.1 -0.5
v -0.1 1.1 -0.6
v 0 1.1 -0.6
v 0.1 1.1 -0.6
v -0.2 1.1 -0.7
v -0.1 1.1 -0.7
v 0 1.1 -0.7
v 0.1 1.1 -0.7
v 0.1 1.1 -0.8
v 0.2 1.1 -0.8
v -0.2 1.3 0.4
v -0.1 1.3 0.4
v 0.1 1.3 0.4
v 0.2 1.3 0.4
v -0.4 1.3 0.3
v -0.3 1.3 0.3
v -0.2 1.3 0.3
v -0.1 1.3 0.3
v 0.1 1.3 0.3
v 0.2 1.3 0.3
v 0.3 1.3 0.3
v 0.4 1.3 0.3
v -0.5 1.3 0.2
v -0.4 1.3 0.2
v -0.3 1.3 0.2
v 0.3 1.3 0.2
v 0.4 1.3 0.2
v 0.5 1.3 0.2
v -0.5 1.3 0.1
v -0.4 1.3 0.1
v 0.4 1.3 0.1
v 0.5 1.3 0.1
v -0.5 1.3 -0.1
v -0.4 1.3 -0.1
v -0.5 1.3 -0.2
v -0.4 1.3 -0.2
v 0.4 1.3 -0.2
v 0.5 1.3 -0.2
v -0.4 1.3 -0.3
v -0.3 1.3 -0.3
v 0.4 1.3 -0.3
v 0.5 1.3 -0.3
v -0.4 1.3 -0.4
v -0.3 1.3 -0.4
v -0.1 1.3 -0.4
v -0.3 1.3 -0.5
v -0.1 1.3 -0.5
v 0.1 1.3 -0.5
v -0.1 1.3 -0.6
v 0.1 1.3 -0.6
v -0.1 1.4 0.4
v 0.1 1.4 0.4
v -0.3 1.4 0.3
v -0.2 1.4 0.3
v -0.1 1.4 0.3
v 0.1 1.4 0.3
v 0.3 1.4 0.3
v -0.3 1.4 0.2
v -0.2 1.4 0.2
v 0.1 1.4 0.2
v 0.3 1.4 0.2
v 0.4 1.4 0.2
v -0.5 1.4 0.1
v -0.4 1.4 0.1
v 0.3 1.4 0.1
v 0.4 1.4 0.1
v 0.5 1.4 0.1
v -0.5 1.4 -0.1
v -0.4 1.4 -0.1
v -0.4 1.4 -0.2
v -0.3 1.4 -0.2
v 0.3 1.4 -0.2
v 0.4 1.4 -0.2
v 0.5 1.4 -0.2
v -0.4 1.4 -0.3
v -0.3 1.4 -0.3
v 0.2 1.4 -0.3
v 0.3 1.4 -0.3
v -0.1 1.4 -0.4
v 0 1.4 -0.4
v 0.1 1.4 -0.4
v 0.2 1.4 -0.4
v 0.3 1.4 -0.4
v 0.4 1.4 -0.4
v -0.1 1.4 -0.5
v 0 1.4 -0.5
v 0.1 1.4 -0.5
v 0.3 1.4 -0.5
v -0.2 1.5 0.3
v 0.1 1.5 0.3
v -0.4 1.5 0.2
v -0.2 1.5 0.2
v -0.1 1.5 0.2
v 0.1 1.5 0.2
v 0.3 1.5 0.2
v -0.3 1.5 0.1
v -0.1 1.5 0.1
v 0.1 1.5 0.1
v 0.2 1.5 0.1
v 0.3 1.5 0.1
v 0.4 1.5 0.1
v 0.2 1.5 5.96046e-08
v 0.3 1.5 5.96046e-08
v -0.4 1.5 -0.2
v -0.3 1.5 -0.2
v -0.2 1.5 -0.2
v 0.2 1.5 -0.2
v 0.3 1.5 -0.2
v 0.4 1.5 -0.2
v -0.2 1.5 -0.3
v 0.2 1.5 -0.3
v 0.3 1.5 -0.3
v -0.3 1.5 -0.4
v 0 1.5 -0.4
v 0.1 1.5 -0.4
v 0.2 1.5 -0.4
v 0 1.5 -0.5
v 0.1 1.5 -0.5
v -0.1 1.6 0.2
v 0.1 1.6 0.2
v -0.3 1.6 0.1
v -0.1 1.6 0.1
v 0.1 1.6 0.1
v 0.2 1.6 0.1
v 0.2 1.6 5.96046e-08
v 0.3 1.6 5.96046e-08
v -0.3 1.6 -0.2
v -0.2 1.6 -0.2
v 0.2 1.6 -0.2
v 0.3 1.6 -0.2
v -0.2 1.6 -0.3
v 0.2 1.6 -0.3

# faces
f 3/11/1 2/11/1 1/11/1
f 4/11/1 2/11/1 3/11/1
f 7/9/1 6/9/1 5/9/1
f 8/9/1 6/9/1 7/9/1
f 9/9/1 6/9/1 8/9/1
f 10/9/1 6/9/1 9/9/1
f 11/9/1 9/9/1 8/9/1
f 12/9/1 9/9/1 11/9/1
f 16/7/1 14/7/1 13/7/1
f 17/7/1 14/7/1 16/7/1
f 20/7/1 16/7/1 15/7/1
f 21/7/1 16/7/1 20/7/1
f 22/6/1 19/6/1 18/6/1
f 23/7/1 20/7/1 19/7/1
f 23/6/1 19/6/1 22/6/1
f 24/7/1 20/7/1 23/7/1
f 27/6/1 24/6/1 23/6/1
f 28/6/1 24/6/1 27/6/1
f 29/11/1 26/11/1 25/11/1
f 32/11/1 26/11/1 29/11/1
f 33/11/1 26/11/1 32/11/1
f 34/11/1 31/11/1 30/11/1
f 40/11/1 34/11/1 30/11/1
f 40/11/1 35/11/1 34/11/1
f 41/11/1 35/11/1 40/11/1
f 42/10/1 37/10/1 36/10/1
f 43/10/1 37/10/1 42/10/1
f 45/1/1 39/1/1 38/1/1
f 46/1/1 39/1/1 45/1/1
f 50/8/1 45/8/1 44/8/1
f 50/8/1 46/8/1 45/8/1
f 50/8/1 47/8/1 46/8/1
f 51/8/1 47/8/1 50/8/1
f 53/9/1 49/9/1 48/9/1
f 54/9/1 49/9/1 53/9/1
f 57/9/1 52/9/1 51/9/1
f 58/9/1 52/9/1 57/9/1
f 59/9/1 52/9/1 58/9/1
f 60/9/1 55/9/1 54/9/1
f 61/9/1 58/9/1 57/9/1
f 61/9/1 57/9/1 56/9/1
f 62/9/1 58/9/1 61/9/1
f 63/9/1 58/9/1 62/9/1
f 64/9/1 60/9/1 54/9/1
f 64/9/1 61/9/1 60/9/1
f 64/9/1 62/9/1 61/9/1
f 65/9/1 62/9/1 64/9/1
f 68/6/1 67/6/1 66/6/1
f 69/6/1 67/6/1 68/6/1
f 71/6/1 68/6/1 66/6/1
f 72/6/1 68/6/1 71/6/1
f 73/7/1 70/7/1 69/7/1
f 74/7/1 70/7/1 73/7/1
f 76/6/1 71/6/1 66/6/1
f 77/6/1 71/6/1 76/6/1
f 78/6/1 71/6/1 77/6/1
f 79/6/1 73/6/1 72/6/1
f 80/1/1 76/1/1 75/1/1
f 81/1/1 76/1/1 80/1/1
f 83/6/1 79/6/1 78/6/1
f 84/6/1 73/6/1 79/6/1
f 84/6/1 79/6/1 83/6/1
f 86/6/1 82/6/1 81/6/1
f 87/6/1 84/6/1 83/6/1
f 88/13/1 85/13/1 84/13/1
f 88/6/1 84/6/1 87/6/1
f 89/13/1 85/13/1 88/13/1
f 90/6/1 87/6/1 86/6/1
f 90/6/1 86/6/1 81/6/1
f 90/6/1 88/6/1 87/6/1
f 91/6/1 88/6/1 90/6/1
f 92/6/1 88/6/1 91/6/1
f 93/6/1 88/6/1 92/6/1
f 96/3/1 92/3/1 91/3/1
f 96/1/1 91/1/1 90/1/1
f 97/3/1 92/3/1 96/3/1
f 98/11/1 95/11/1 94/11/1
f 99/11/1 95/11/1 98/11/1
f 100/1/1 96/1/1 90/1/1
f 100/1/1 97/1/1 96/1/1
f 101/1/1 97/1/1 100/1/1
f 102/3/1 92/3/1 97/3/1
f 102/1/1 97/1/1 101/1/1
f 103/3/1 92/3/1 102/3/1
f 105/1/1 101/1/1 100/1/1
f 106/1/1 101/1/1 105/1/1
f 107/3/1 106/3/1 105/3/1
f 108/1/1 101/1/1 106/1/1
f 108/3/1 106/3/1 107/3/1
f 109/1/1 101/1/1 108/1/1
f 110/1/1 104/1/1 103/1/1
f 110/1/1 103/1/1 102/1/1
f 111/1/1 104/1/1 110/1/1
f 112/1/1 104/1/1 111/1/1
f 113/8/1 108/8/1 107/8/1
f 114/8/1 108/8/1 113/8/1
f 115/8/1 112/8/1 111/8/1
f 116/8/1 112/8/1 115/8/1
f 122/9/1 118/9/1 117/9/1
f 123/9/1 118/9/1 122/9/1
f 124/9/1 120/9/1 119/9/1
f 125/9/1 120/9/1 124/9/1
f 127/9/1 122/9/1 121/9/1
f 129/9/1 127/9/1 126/9/1
f 130/9/1 122/9/1 127/9/1
f 130/9/1 127/9/1 129/9/1
f 131/9/1 129/9/1 128/9/1
f 132/9/1 129/9/1 131/9/1
f 137/7/1 136/7/1 135/7/1
f 138/7/1 136/7/1 137/7/1
f 142/7/1 134/7/1 133/7/1
f 143/7/1 141/7/1 140/7/1
f 143/7/1 140/7/1 139/7/1
f 144/7/1 141/7/1 143/7/1
f 145/7/1 141/7/1 144/7/1
f 146/7/1 142/7/1 133/7/1
f 147/7/1 142/7/1 146/7/1
f 148/13/1 144/13/1 143/13/1
f 149/13/1 144/13/1 148/13/1
f 152/10/1 151/10/1 150/10/1
f 153/10/1 151/10/1 152/10/1
f 159/8/1 155/8/1 154/8/1
f 160/8/1 155/8/1 159/8/1
f 162/8/1 157/8/1 156/8/1
f 163/8/1 157/8/1 162/8/1
f 164/8/1 159/8/1 158/8/1
f 165/8/1 159/8/1 164/8/1
f 166/9/1 162/9/1 161/9/1
f 167/9/1 162/9/1 166/9/1
f 170/9/1 169/9/1 168/9/1
f 171/9/1 169/9/1 170/9/1
f 174/9/1 173/9/1 172/9/1
f 175/9/1 173/9/1 174/9/1
f 178/10/1 177/10/1 176/10/1
f 179/10/1 177/10/1 178/10/1
f 182/8/1 181/8/1 180/8/1
f 183/8/1 181/8/1 182/8/1
f 185/8/1 184/8/1 183/8/1
f 186/8/1 184/8/1 185/8/1
f 190/9/1 186/9/1 185/9/1
f 191/9/1 186/9/1 190/9/1
f 192/9/1 188/9/1 187/9/1
f 193/9/1 188/9/1 192/9/1
f 194/9/1 190/9/1 189/9/1
f 195/9/1 190/9/1 194/9/1
f 198/9/1 197/9/1 196/9/1
f 199/9/1 197/9/1 198/9/1
f 202/12/1 201/12/1 200/12/1
f 203/12/1 201/12/1 202/12/1
f 206/7/1 205/7/1 204/7/1
f 207/7/1 205/7/1 206/7/1
f 210/8/1 209/8/1 208/8/1
f 211/8/1 209/8/1 210/8/1
f 214/9/1 213/9/1 212/9/1
f 215/9/1 213/9/1 214/9/1
f 218/7/1 217/7/1 216/7/1
f 219/7/1 217/7/1 218/7/1
f 222/7/1 221/7/1 220/7/1
f 223/7/1 222/7/1 220/7/1
f 224/7/1 222/7/1 223/7/1
f 227/9/1 226/9/1 225/9/1
f 228/9/1 226/9/1 227/9/1
f 231/8/1 230/8/1 229/8/1
f 232/8/1 230/8/1 231/8/1
f 235/12/1 234/12/1 233/12/1
f 236/12/1 234/12/1 235/12/1
f 239/7/1 238/7/1 237/7/1
f 240/7/1 238/7/1 239/7/1
f 241/11/2 242/11/2 243/11/2
f 243/11/2 242/11/2 244/11/2
f 245/7/2 246/7/2 247/7/2
f 247/7/2 246/7/2 248/7/2
f 249/11/2 250/11/2 251/11/2
f 251/11/2 250/11/2 252/11/2
f 252/11/2 250/11/2 253/11/2
f 254/7/2 255/7/2 256/7/2
f 256/7/2 255/7/2 257/7/2
f 258/7/2 259/7/2 260/7/2
f 258/7/2 260/7/2 261/7/2
f 261/7/2 260/7/2 262/7/2
f 263/13/2 264/13/2 265/13/2
f 265/13/2 264/13/2 266/13/2
f 265/11/2 266/11/2 269/11/2
f 269/11/2 266/11/2 270/11/2
f 267/9/2 268/9/2 271/9/2
f 271/9/2 268/9/2 272/9/2
f 273/8/2 274/8/2 275/8/2
f 275/8/2 274/8/2 276/8/2
f 277/7/2 278/7/2 279/7/2
f 279/7/2 278/7/2 280/7/2
f 281/13/2 282/13/2 283/13/2
f 283/13/2 282/13/2 284/13/2
f 285/8/2 286/8/2 287/8/2
f 287/8/2 286/8/2 288/8/2
f 289/10/2 290/10/2 291/10/2
f 291/10/2 290/10/2 292/10/2
f 293/8/2 294/8/2 295/8/2
f 295/8/2 294/8/2 296/8/2
f 295/8/2 296/8/2 298/8/2
f 296/8/2 297/8/2 298/8/2
f 298/8/2 297/8/2 299/8/2
f 299/8/2 297/8/2 300/8/2
f 299/9/2 300/9/2 303/9/2
f 303/9/2 300/9/2 304/9/2
f 301/9/2 302/9/2 305/9/2
f 305/9/2 302/9/2 306/9/2
f 306/9/2 307/9/2 310/9/2
f 310/9/2 307/9/2 311/9/2
f 308/9/2 309/9/2 313/9/2
f 313/9/2 309/9/2 314/9/2
f 311/9/2 312/9/2 315/9/2
f 315/9/2 312/9/2 316/9/2
f 319/7/2 320/7/2 321/7/2
f 321/7/2 320/7/2 322/7/2
f 317/7/2 318/7/2 325/7/2
f 323/12/2 324/12/2 326/12/2
f 326/12/2 324/12/2 327/12/2
f 317/7/2 325/7/2 329/7/2
f 329/7/2 325/7/2 330/7/2
f 327/7/2 328/7/2 331/7/2
f 326/7/2 327/7/2 331/7/2
f 331/7/2 328/7/2 332/7/2
f 332/7/2 328/7/2 333/7/2
f 334/10/2 335/10/2 336/10/2
f 336/10/2 335/10/2 337/10/2
f 338/8/2 339/8/2 344/8/2
f 344/8/2 339/8/2 345/8/2
f 340/8/2 341/8/2 347/8/2
f 347/8/2 341/8/2 348/8/2
f 342/8/2 343/8/2 349/8/2
f 349/8/2 343/8/2 350/8/2
f 346/9/2 347/9/2 351/9/2
f 351/9/2 347/9/2 352/9/2
f 353/9/2 354/9/2 358/9/2
f 358/9/2 354/9/2 359/9/2
f 355/9/2 356/9/2 360/9/2
f 360/9/2 356/9/2 361/9/2
f 357/9/2 358/9/2 362/9/2
f 362/9/2 358/9/2 363/9/2
f 364/5/2 365/5/2 367/5/2
f 365/12/2 366/12/2 367/12/2
f 367/12/2 366/12/2 368/12/2
f 364/5/2 367/5/2 370/5/2
f 370/5/2 367/5/2 371/5/2
f 369/3/2 370/3/2 372/3/2
f 372/3/2 370/3/2 373/3/2
f 371/5/2 367/5/2 374/5/2
f 374/5/2 367/5/2 375/5/2
f 375/5/2 367/5/2 376/5/2
f 373/5/2 374/5/2 378/5/2
f 376/7/2 377/7/2 380/7/2
f 380/7/2 377/7/2 381/7/2
f 378/5/2 379/5/2 382/5/2
f 373/5/2 378/5/2 382/5/2
f 379/5/2 380/5/2 382/5/2
f 382/5/2 380/5/2 383/5/2
f 382/3/2 383/3/2 384/3/2
f 384/3/2 383/3/2 385/3/2
f 385/3/2 383/3/2 386/3/2
f 384/3/2 385/3/2 387/3/2
f 387/3/2 385/3/2 388/3/2
f 388/3/2 385/3/2 389/3/2
f 389/3/2 385/3/2 390/3/2
f 386/3/2 383/3/2 391/3/2
f 391/3/2 383/3/2 392/3/2
f 392/3/2 383/3/2 393/3/2
f 388/8/2 389/8/2 394/8/2
f 394/8/2 389/8/2 395/8/2
f 392/8/2 393/8/2 396/8/2
f 396/8/2 393/8/2 397/8/2
f 400/9/2 401/9/2 402/9/2
f 402/9/2 401/9/2 403/9/2
f 398/9/2 399/9/2 407/9/2
f 407/9/2 399/9/2 408/9/2
f 403/9/2 404/9/2 409/9/2
f 409/9/2 404/9/2 410/9/2
f 405/9/2 406/9/2 412/9/2
f 412/9/2 406/9/2 413/9/2
f 411/9/2 412/9/2 414/9/2
f 414/9/2 412/9/2 415/9/2
f 416/5/2 417/5/2 418/5/2
f 418/5/2 417/5/2 419/5/2
f 419/5/2 420/5/2 422/5/2
f 420/7/2 421/7/2 423/7/2
f 422/5/2 420/5/2 423/5/2
f 423/7/2 421/7/2 424/7/2
f 425/10/2 426/10/2 429/10/2
f 429/10/2 426/10/2 430/10/2
f 427/3/2 428/3/2 432/3/2
f 432/3/2 428/3/2 433/3/2
f 431/8/2 432/8/2 437/8/2
f 432/8/2 433/8/2 437/8/2
f 433/8/2 434/8/2 437/8/2
f 437/8/2 434/8/2 438/8/2
f 435/9/2 436/9/2 441/9/2
f 441/9/2 436/9/2 442/9/2
f 439/9/2 440/9/2 445/9/2
f 442/9/2 443/9/2 446/9/2
f 446/9/2 443/9/2 447/9/2
f 444/9/2 445/9/2 448/9/2
f 445/9/2 440/9/2 449/9/2
f 448/9/2 445/9/2 449/9/2
f 447/9/2 448/9/2 450/9/2
f 450/9/2 448/9/2 451/9/2
f 452/9/2 453/9/2 454/9/2
f 454/9/2 453/9/2 455/9/2
f 455/9/2 453/9/2 456/9/2
f 456/9/2 453/9/2 457/9/2
f 455/9/2 456/9/2 458/9/2
f 458/9/2 456/9/2 459/9/2
f 464/7/3 461/7/3 460/7/3
f 465/7/3 461/7/3 464/7/3
f 466/7/3 461/7/3 465/7/3
f 467/7/3 461/7/3 466/7/3
f 468/9/3 463/9/3 462/9/3
f 471/7/3 466/7/3 465/7/3
f 472/7/3 466/7/3 471/7/3
f 474/9/3 469/9/3 468/9/3
f 474/9/3 468/9/3 462/9/3
f 475/9/3 469/9/3 474/9/3
f 476/7/3 473/7/3 472/7/3
f 476/7/3 472/7/3 471/7/3
f 476/7/3 471/7/3 470/7/3
f 477/7/3 473/7/3 476/7/3
f 478/9/3 474/9/3 462/9/3
f 479/9/3 474/9/3 478/9/3
f 486/9/3 483/9/3 482/9/3
f 488/1/3 485/1/3 484/1/3
f 489/1/3 485/1/3 488/1/3
f 492/10/3 481/10/3 480/10/3
f 493/10/3 481/10/3 492/10/3
f 495/9/3 487/9/3 486/9/3
f 495/9/3 486/9/3 482/9/3
f 496/9/3 487/9/3 495/9/3
f 497/9/3 487/9/3 496/9/3
f 501/10/3 491/10/3 490/10/3
f 502/10/3 491/10/3 501/10/3
f 503/9/3 493/9/3 492/9/3
f 504/9/3 493/9/3 503/9/3
f 505/9/3 498/9/3 497/9/3
f 505/9/3 497/9/3 496/9/3
f 506/9/3 498/9/3 505/9/3
f 507/7/3 500/7/3 499/7/3
f 508/10/3 501/10/3 500/10/3
f 508/7/3 500/7/3 507/7/3
f 509/9/3 502/9/3 501/9/3
f 509/10/3 501/10/3 508/10/3
f 510/9/3 502/9/3 509/9/3
f 514/9/3 498/9/3 506/9/3
f 515/9/3 498/9/3 514/9/3
f 518/10/3 510/10/3 509/10/3
f 519/10/3 510/10/3 518/10/3
f 520/9/3 512/9/3 511/9/3
f 521/9/3 512/9/3 520/9/3
f 522/8/3 495/8/3 494/8/3
f 523/8/3 495/8/3 522/8/3
f 524/9/3 514/9/3 513/9/3
f 525/3/3 517/3/3 516/3/3
f 526/3/3 517/3/3 525/3/3
f 527/9/3 524/9/3 523/9/3
f 527/9/3 514/9/3 524/9/3
f 528/9/3 514/9/3 527/9/3
f 529/10/3 521/10/3 520/10/3
f 530/10/3 521/10/3 529/10/3
f 531/9/3 527/9/3 523/9/3
f 532/9/3 527/9/3 531/9/3
f 537/9/3 534/9/3 533/9/3
f 538/9/3 534/9/3 537/9/3
f 541/6/3 536/6/3 535/6/3
f 542/6/3 536/6/3 541/6/3
f 548/9/3 539/9/3 538/9/3
f 549/9/3 539/9/3 548/9/3
f 550/6/3 541/6/3 540/6/3
f 551/6/3 541/6/3 550/6/3
f 552/6/3 543/6/3 542/6/3
f 553/1/3 544/1/3 543/1/3
f 553/6/3 543/6/3 552/6/3
f 554/1/3 544/1/3 553/1/3
f 555/1/3 544/1/3 554/1/3
f 556/3/3 546/3/3 545/3/3
f 557/8/3 547/8/3 546/8/3
f 557/3/3 546/3/3 556/3/3
f 558/8/3 547/8/3 557/8/3
f 559/9/3 539/9/3 549/9/3
f 560/9/3 539/9/3 559/9/3
f 561/6/3 541/6/3 551/6/3
f 561/5/3 551/5/3 550/5/3
f 562/6/3 541/6/3 561/6/3
f 563/6/3 552/6/3 542/6/3
f 564/6/3 552/6/3 563/6/3
f 565/1/3 554/1/3 553/1/3
f 566/13/3 555/13/3 554/13/3
f 566/1/3 554/1/3 565/1/3
f 567/13/3 555/13/3 566/13/3
f 568/3/3 557/3/3 556/3/3
f 571/5/3 562/5/3 561/5/3
f 574/3/3 568/3/3 567/3/3
f 574/3/3 567/3/3 566/3/3
f 574/3/3 566/3/3 565/3/3
f 575/3/3 568/3/3 574/3/3
f 576/3/3 568/3/3 575/3/3
f 577/3/3 557/3/3 568/3/3
f 577/3/3 568/3/3 576/3/3
f 579/9/3 570/9/3 569/9/3
f 580/9/3 570/9/3 579/9/3
f 581/5/3 573/5/3 572/5/3
f 582/3/3 575/3/3 574/3/3
f 583/13/3 576/13/3 575/13/3
f 583/3/3 575/3/3 582/3/3
f 584/13/3 576/13/3 583/13/3
f 585/3/3 557/3/3 577/3/3
f 586/3/3 557/3/3 585/3/3
f 588/5/3 571/5/3 561/5/3
f 588/5/3 561/5/3 550/5/3
f 589/5/3 571/5/3 588/5/3
f 590/5/3 582/5/3 581/5/3
f 590/5/3 581/5/3 572/5/3
f 591/3/3 584/3/3 583/3/3
f 591/3/3 583/3/3 582/3/3
f 591/5/3 582/5/3 590/5/3
f 592/3/3 584/3/3 591/3/3
f 593/3/3 586/3/3 585/3/3
f 594/8/3 587/8/3 586/8/3
f 594/3/3 586/3/3 593/3/3
f 595/8/3 587/8/3 594/8/3
f 597/9/3 579/9/3 578/9/3
f 598/9/3 579/9/3 597/9/3
f 599/5/3 590/5/3 589/5/3
f 600/5/3 590/5/3 599/5/3
f 602/9/3 597/9/3 596/9/3
f 603/9/3 597/9/3 602/9/3
f 604/9/3 602/9/3 601/9/3
f 605/9/3 602/9/3 604/9/3
f 612/9/3 607/9/3 606/9/3
f 613/9/3 607/9/3 612/9/3
f 614/6/3 609/6/3 608/6/3
f 615/6/3 609/6/3 614/6/3
f 616/8/3 611/8/3 610/8/3
f 617/8/3 611/8/3 616/8/3
f 622/9/3 619/9/3 618/9/3
f 623/9/3 619/9/3 622/9/3
f 626/7/3 621/7/3 620/7/3
f 627/7/3 621/7/3 626/7/3
f 628/9/3 625/9/3 624/9/3
f 629/9/3 625/9/3 628/9/3
f 636/5/3 631/5/3 630/5/3
f 637/5/3 631/5/3 636/5/3
f 638/8/3 633/8/3 632/8/3
f 639/8/3 633/8/3 638/8/3
f 641/9/3 635/9/3 634/9/3
f 642/9/3 635/9/3 641/9/3
f 643/9/3 641/9/3 640/9/3
f 644/9/3 641/9/3 643/9/3
f 647/1/3 646/1/3 645/1/3
f 648/1/3 646/1/3 647/1/3
f 653/9/3 650/9/3 649/9/3
f 654/9/3 650/9/3 653/9/3
f 655/3/3 652/3/3 651/3/3
f 656/3/3 652/3/3 655/3/3
f 659/7/3 658/7/3 657/7/3
f 660/7/3 658/7/3 659/7/3
f 665/7/3 662/7/3 661/7/3
f 666/7/3 662/7/3 665/7/3
f 667/11/3 664/11/3 663/11/3
f 668/11/3 664/11/3 667/11/3
f 671/11/3 670/11/3 669/11/3
f 672/11/3 670/11/3 671/11/3
f 673/11/3 671/11/3 669/11/3
f 674/11/3 671/11/3 673/11/3
f 677/11/3 676/11/3 675/11/3
f 678/11/3 676/11/3 677/11/3
f 681/8/3 680/8/3 679/8/3
f 682/8/3 680/8/3 681/8/3
f 685/8/3 684/8/3 683/8/3
f 686/8/3 684/8/3 685/8/3
f 689/8/3 688/8/3 687/8/3
f 690/8/3 688/8/3 689/8/3
f 691/7/4 692/7/4 693/7/4
f 693/7/4 692/7/4 694/7/4
f 694/7/4 692/7/4 695/7/4
f 695/7/4 692/7/4 696/7/4
f 694/7/4 695/7/4 698/7/4
f 698/7/4 695/7/4 699/7/4
f 697/7/4 698/7/4 701/7/4
f 699/7/4 700/7/4 701/7/4
f 698/7/4 699/7/4 701/7/4
f 701/7/4 700/7/4 702/7/4
f 703/10/4 704/10/4 705/10/4
f 705/10/4 704/10/4 706/10/4
f 707/10/4 708/10/4 709/10/4
f 709/10/4 708/10/4 710/10/4
f 711/5/4 712/5/4 713/5/4
f 713/5/4 712/5/4 714/5/4
f 715/9/4 716/9/4 722/9/4
f 722/9/4 716/9/4 723/9/4
f 717/7/4 718/7/4 724/7/4
f 718/6/4 719/6/4 725/6/4
f 724/7/4 718/7/4 725/7/4
f 725/6/4 719/6/4 726/6/4
f 720/1/4 721/1/4 727/1/4
f 727/1/4 721/1/4 728/1/4
f 729/3/4 730/3/4 731/3/4
f 731/3/4 730/3/4 732/3/4
f 733/9/4 734/9/4 738/9/4
f 738/9/4 734/9/4 739/9/4
f 735/7/4 736/7/4 742/7/4
f 742/7/4 736/7/4 743/7/4
f 737/8/4 738/8/4 744/8/4
f 744/8/4 738/8/4 745/8/4
f 740/9/4 741/9/4 746/9/4
f 746/9/4 741/9/4 747/9/4
f 747/9/4 748/9/4 751/9/4
f 751/9/4 748/9/4 752/9/4
f 749/7/4 750/7/4 753/7/4
f 749/7/4 753/7/4 754/7/4
f 754/7/4 753/7/4 755/7/4
f 756/9/4 757/9/4 761/9/4
f 761/9/4 757/9/4 762/9/4
f 758/8/4 759/8/4 763/8/4
f 763/8/4 759/8/4 764/8/4
f 760/9/4 761/9/4 766/9/4
f 766/9/4 761/9/4 767/9/4
f 765/9/4 766/9/4 768/9/4
f 768/9/4 766/9/4 769/9/4
f 770/7/4 771/7/4 775/7/4
f 775/7/4 771/7/4 776/7/4
f 772/9/4 773/9/4 781/9/4
f 781/9/4 773/9/4 782/9/4
f 774/6/4 775/6/4 783/6/4
f 776/6/4 777/6/4 784/6/4
f 784/6/4 777/6/4 785/6/4
f 785/6/4 777/6/4 786/6/4
f 778/1/4 779/1/4 787/1/4
f 787/1/4 779/1/4 788/1/4
f 779/8/4 780/8/4 789/8/4
f 788/1/4 779/1/4 789/1/4
f 789/8/4 780/8/4 790/8/4
f 783/6/4 784/6/4 793/6/4
f 787/3/4 788/3/4 796/3/4
f 788/1/4 789/1/4 797/1/4
f 796/3/4 788/3/4 797/3/4
f 797/1/4 789/1/4 798/1/4
f 774/6/4 783/6/4 799/6/4
f 783/6/4 793/6/4 799/6/4
f 799/6/4 793/6/4 800/6/4
f 794/5/4 795/5/4 802/5/4
f 795/3/4 796/3/4 803/3/4
f 796/3/4 797/3/4 803/3/4
f 774/6/4 799/6/4 805/6/4
f 805/6/4 799/6/4 806/6/4
f 801/5/4 802/5/4 807/5/4
f 805/5/4 806/5/4 808/5/4
f 808/5/4 806/5/4 809/5/4
f 807/5/4 802/5/4 811/5/4
f 802/5/4 795/5/4 812/5/4
f 811/5/4 802/5/4 812/5/4
f 803/3/4 804/3/4 813/3/4
f 791/9/4 792/9/4 816/9/4
f 816/9/4 792/9/4 817/9/4
f 809/5/4 810/5/4 818/5/4
f 810/5/4 811/5/4 818/5/4
f 818/5/4 811/5/4 819/5/4
f 812/5/4 795/5/4 820/5/4
f 803/3/4 813/3/4 821/3/4
f 795/3/4 803/3/4 821/3/4
f 820/5/4 795/5/4 821/5/4
f 813/8/4 814/8/4 822/8/4
f 821/3/4 813/3/4 822/3/4
f 822/8/4 814/8/4 823/8/4
f 815/9/4 816/9/4 824/9/4
f 824/9/4 816/9/4 825/9/4
f 819/7/4 820/7/4 826/7/4
f 826/7/4 820/7/4 827/7/4
f 828/9/4 829/9/4 830/9/4
f 830/9/4 829/9/4 831/9/4
f 832/11/4 833/11/4 834/11/4
f 834/11/4 833/11/4 835/11/4
f 835/11/4 833/11/4 836/11/4
f 835/11/4 836/11/4 844/11/4
f 836/11/4 837/11/4 844/11/4
f 844/11/4 837/11/4 845/11/4
f 838/9/4 839/9/4 846/9/4
f 846/9/4 839/9/4 847/9/4
f 840/7/4 841/7/4 849/7/4
f 849/7/4 841/7/4 850/7/4
f 842/13/4 843/13/4 852/13/4
f 852/13/4 843/13/4 853/13/4
f 845/11/4 837/11/4 855/11/4
f 853/13/4 854/13/4 856/13/4
f 851/13/4 852/13/4 856/13/4
f 852/13/4 853/13/4 856/13/4
f 854/11/4 855/11/4 857/11/4
f 856/13/4 854/13/4 857/13/4
f 855/11/4 837/11/4 858/11/4
f 857/11/4 855/11/4 858/11/4
f 847/9/4 848/9/4 859/9/4
f 859/9/4 848/9/4 860/9/4
f 851/13/4 856/13/4 863/13/4
f 863/13/4 856/13/4 864/13/4
f 864/13/4 856/13/4 865/13/4
f 860/9/4 848/9/4 866/9/4
f 866/9/4 848/9/4 867/9/4
f 861/12/4 862/12/4 868/12/4
f 862/13/4 863/13/4 868/13/4
f 868/13/4 863/13/4 869/13/4
f 861/12/4 868/12/4 875/12/4
f 868/12/4 869/12/4 875/12/4
f 875/12/4 869/12/4 876/12/4
f 870/8/4 871/8/4 879/8/4
f 879/8/4 871/8/4 880/8/4
f 872/9/4 873/9/4 881/9/4
f 881/9/4 873/9/4 882/9/4
f 874/12/4 875/12/4 883/12/4
f 883/12/4 875/12/4 884/12/4
f 877/7/4 878/7/4 885/7/4
f 885/7/4 878/7/4 886/7/4
f 887/9/4 888/9/4 889/9/4
f 889/9/4 888/9/4 890/9/4
f 891/11/4 892/11/4 893/11/4
f 893/11/4 892/11/4 894/11/4
f 894/11/4 892/11/4 895/11/4
f 894/11/4 895/11/4 901/11/4
f 895/11/4 896/11/4 901/11/4
f 901/11/4 896/11/4 902/11/4
f 897/9/4 898/9/4 904/9/4
f 903/8/4 904/8/4 905/8/4
f 904/9/4 898/9/4 906/9/4
f 905/8/4 904/8/4 906/8/4
f 906/9/4 898/9/4 907/9/4
f 899/7/4 900/7/4 909/7/4
f 909/7/4 900/7/4 910/7/4
f 907/9/4 908/9/4 912/9/4
f 912/9/4 913/9/4 915/9/4
f 907/9/4 912/9/4 915/9/4
f 915/9/4 913/9/4 916/9/4
f 916/9/4 913/9/4 917/9/4
f 910/7/4 911/7/4 918/7/4
f 918/7/4 911/7/4 919/7/4
f 914/9/4 915/9/4 920/9/4
f 915/9/4 916/9/4 920/9/4
f 920/9/4 916/9/4 921/9/4
f 922/8/4 923/8/4 926/8/4
f 923/8/4 924/8/4 926/8/4
f 926/8/4 924/8/4 927/8/4
f 927/8/4 924/8/4 928/8/4
f 924/9/4 925/9/4 929/9/4
f 928/8/4 924/8/4 929/8/4
f 929/9/4 925/9/4 930/9/4
f 931/8/4 932/8/4 933/8/4
f 933/8/4 932/8/4 934/8/4
f 935/8/4 936/8/4 937/8/4
f 937/8/4 936/8/4 938/8/4
f 939/8/4 940/8/4 941/8/4
f 941/8/4 940/8/4 942/8/4
f 947/7/5 944/7/5 943/7/5
f 948/7/5 944/7/5 947/7/5
f 949/7/5 946/7/5 945/7/5
f 950/7/5 946/7/5 949/7/5
f 953/7/5 952/7/5 951/7/5
f 954/7/5 952/7/5 953/7/5
f 958/6/5 956/6/5 955/6/5
f 958/5/5 957/5/5 956/5/5
f 959/5/5 957/5/5 958/5/5
f 960/6/5 958/6/5 955/6/5
f 962/5/5 957/5/5 959/5/5
f 963/6/5 961/6/5 960/6/5
f 963/6/5 960/6/5 955/6/5
f 964/5/5 962/5/5 961/5/5
f 964/6/5 961/6/5 963/6/5
f 965/5/5 957/5/5 962/5/5
f 965/5/5 962/5/5 964/5/5
f 966/5/5 957/5/5 965/5/5
f 967/12/5 966/12/5 965/12/5
f 968/12/5 966/12/5 967/12/5
f 971/7/5 970/7/5 969/7/5
f 972/7/5 970/7/5 971/7/5
f 975/7/5 974/7/5 973/7/5
f 976/7/5 974/7/5 975/7/5
f 981/7/5 977/7/5 976/7/5
f 982/7/5 977/7/5 981/7/5
f 983/12/5 979/12/5 978/12/5
f 983/12/5 980/12/5 979/12/5
f 984/12/5 980/12/5 983/12/5
f 987/7/5 986/7/5 985/7/5
f 988/7/5 986/7/5 987/7/5
f 992/7/5 990/7/5 989/7/5
f 993/4/5 991/4/5 990/4/5
f 993/7/5 990/7/5 992/7/5
f 994/4/5 991/4/5 993/4/5
f 995/7/5 993/7/5 992/7/5
f 995/7/5 994/7/5 993/7/5
f 996/7/5 994/7/5 995/7/5
f 1004/1/5 998/1/5 997/1/5
f 1004/1/5 999/1/5 998/1/5
f 1005/7/5 1000/7/5 999/7/5
f 1005/1/5 999/1/5 1004/1/5
f 1006/3/5 1002/3/5 1001/3/5
f 1006/7/5 1000/7/5 1005/7/5
f 1006/3/5 1001/3/5 1000/3/5
f 1007/3/5 1002/3/5 1006/3/5
f 1009/6/5 1004/6/5 1003/6/5
f 1010/6/5 1004/6/5 1009/6/5
f 1011/5/5 1008/5/5 1007/5/5
f 1012/5/5 1008/5/5 1011/5/5
f 1013/7/5 1010/7/5 1009/7/5
f 1014/7/5 1010/7/5 1013/7/5
f 1018/7/5 1016/7/5 1015/7/5
f 1018/7/5 1017/7/5 1016/7/5
f 1019/7/5 1017/7/5 1018/7/5
f 1022/5/5 1021/5/5 1020/5/5
f 1023/5/5 1021/5/5 1022/5/5
f 1027/7/5 1023/7/5 1022/7/5
f 1028/7/5 1023/7/5 1027/7/5
f 1030/13/5 1025/13/5 1024/13/5
f 1031/13/5 1025/13/5 1030/13/5
f 1032/7/5 1027/7/5 1026/7/5
f 1033/7/5 1027/7/5 1032/7/5
f 1034/11/5 1030/11/5 1029/11/5
f 1035/11/5 1030/11/5 1034/11/5
f 1040/10/5 1037/10/5 1036/10/5
f 1041/10/5 1037/10/5 1040/10/5
f 1042/10/5 1039/10/5 1038/10/5
f 1043/10/5 1039/10/5 1042/10/5
f 1046/11/5 1045/11/5 1044/11/5
f 1047/11/5 1045/11/5 1046/11/5
f 1048/11/5 1045/11/5 1047/11/5
f 1050/11/5 1049/11/5 1048/11/5
f 1051/11/5 1049/11/5 1050/11/5
f 1054/11/5 1053/11/5 1052/11/5
f 1055/11/5 1053/11/5 1054/11/5
f 1062/10/5 1057/10/5 1056/10/5
f 1063/10/5 1057/10/5 1062/10/5
f 1064/9/5 1058/9/5 1057/9/5
f 1064/10/5 1057/10/5 1063/10/5
f 1065/9/5 1058/9/5 1064/9/5
f 1066/9/5 1060/9/5 1059/9/5
f 1067/10/5 1061/10/5 1060/10/5
f 1067/9/5 1060/9/5 1066/9/5
f 1068/10/5 1061/10/5 1067/10/5
f 1069/10/5 1061/10/5 1068/10/5
f 1074/1/5 1071/1/5 1070/1/5
f 1075/1/5 1071/1/5 1074/1/5
f 1076/3/5 1073/3/5 1072/3/5
f 1077/3/5 1073/3/5 1076/3/5
f 1080/8/5 1079/8/5 1078/8/5
f 1083/8/5 1080/8/5 1078/8/5
f 1083/8/5 1081/8/5 1080/8/5
f 1084/8/5 1081/8/5 1083/8/5
f 1086/8/5 1083/8/5 1082/8/5
f 1086/8/5 1085/8/5 1084/8/5
f 1086/8/5 1084/8/5 1083/8/5
f 1087/8/5 1085/8/5 1086/8/5
f 1088/8/5 1086/8/5 1082/8/5
f 1089/8/5 1086/8/5 1088/8/5
f 1090/8/5 1085/8/5 1087/8/5
f 1091/8/5 1085/8/5 1090/8/5
f 1092/8/5 1085/8/5 1091/8/5
f 1093/8/5 1085/8/5 1092/8/5
f 1096/8/5 1095/8/5 1094/8/5
f 1097/8/5 1095/8/5 1096/8/5
f 1102/8/5 1099/8/5 1098/8/5
f 1103/8/5 1099/8/5 1102/8/5
f 1104/8/5 1101/8/5 1100/8/5
f 1105/8/5 1101/8/5 1104/8/5
f 1110/8/5 1107/8/5 1106/8/5
f 1111/8/5 1107/8/5 1110/8/5
f 1112/8/5 1109/8/5 1108/8/5
f 1113/8/5 1109/8/5 1112/8/5
f 1118/8/5 1117/8/5 1116/8/5
f 1119/8/5 1117/8/5 1118/8/5
f 1120/8/5 1117/8/5 1119/8/5
f 1121/8/5 1115/8/5 1114/8/5
f 1122/8/5 1115/8/5 1121/8/5
f 1126/9/5 1124/9/5 1123/9/5
f 1127/9/5 1124/9/5 1126/9/5
f 1130/9/5 1126/9/5 1125/9/5
f 1131/9/5 1126/9/5 1130/9/5
f 1132/9/5 1126/9/5 1131/9/5
f 1133/9/5 1128/9/5 1127/9/5
f 1134/9/5 1128/9/5 1133/9/5
f 1135/9/5 1128/9/5 1134/9/5
f 1137/9/5 1130/9/5 1129/9/5
f 1137/9/5 1131/9/5 1130/9/5
f 1138/9/5 1131/9/5 1137/9/5
f 1139/9/5 1136/9/5 1135/9/5
f 1139/9/5 1135/9/5 1134/9/5
f 1140/9/5 1136/9/5 1139/9/5
f 1141/9/5 1137/9/5 1129/9/5
f 1142/9/5 1137/9/5 1141/9/5
f 1145/9/5 1136/9/5 1140/9/5
f 1146/9/5 1143/9/5 1142/9/5
f 1149/9/5 1145/9/5 1144/9/5
f 1150/9/5 1136/9/5 1145/9/5
f 1150/9/5 1145/9/5 1149/9/5
f 1151/9/5 1136/9/5 1150/9/5
f 1152/9/5 1147/9/5 1146/9/5
f 1152/9/5 1146/9/5 1142/9/5
f 1153/9/5 1147/9/5 1152/9/5
f 1155/9/5 1149/9/5 1148/9/5
f 1155/9/5 1150/9/5 1149/9/5
f 1156/9/5 1150/9/5 1155/9/5
f 1157/9/5 1150/9/5 1156/9/5
f 1158/9/5 1147/9/5 1153/9/5
f 1159/9/5 1147/9/5 1158/9/5
f 1160/9/5 1156/9/5 1155/9/5
f 1160/9/5 1155/9/5 1154/9/5
f 1161/9/5 1156/9/5 1160/9/5
f 1162/12/6 1163/12/6 1164/12/6
f 1164/12/6 1163/12/6 1165/12/6
f 1166/7/6 1167/7/6 1168/7/6
f 1168/7/6 1167/7/6 1169/7/6
f 1170/7/6 1171/7/6 1172/7/6
f 1172/7/6 1171/7/6 1173/7/6
f 1173/7/6 1174/7/6 1175/7/6
f 1175/7/6 1174/7/6 1176/7/6
f 1177/7/6 1178/7/6 1179/7/6
f 1179/7/6 1178/7/6 1180/7/6
f 1181/7/6 1182/7/6 1183/7/6
f 1183/7/6 1182/7/6 1184/7/6
f 1185/7/6 1186/7/6 1190/7/6
f 1190/7/6 1186/7/6 1191/7/6
f 1187/7/6 1188/7/6 1192/7/6
f 1192/7/6 1188/7/6 1193/7/6
f 1190/1/6 1191/1/6 1196/1/6
f 1189/1/6 1190/1/6 1196/1/6
f 1196/1/6 1191/1/6 1197/1/6
f 1193/3/6 1194/3/6 1198/3/6
f 1192/3/6 1193/3/6 1198/3/6
f 1198/3/6 1194/3/6 1199/3/6
f 1195/6/6 1196/6/6 1201/6/6
f 1201/6/6 1196/6/6 1202/6/6
f 1199/5/6 1200/5/6 1203/5/6
f 1203/5/6 1200/5/6 1204/5/6
f 1205/13/6 1206/13/6 1208/13/6
f 1206/7/6 1207/7/6 1209/7/6
f 1208/13/6 1206/13/6 1209/13/6
f 1209/7/6 1207/7/6 1210/7/6
f 1208/7/6 1209/7/6 1211/7/6
f 1209/7/6 1210/7/6 1211/7/6
f 1211/7/6 1210/7/6 1212/7/6
f 1213/6/6 1214/6/6 1217/6/6
f 1217/6/6 1214/6/6 1218/6/6
f 1215/5/6 1216/5/6 1219/5/6
f 1219/5/6 1216/5/6 1220/5/6
f 1219/7/6 1220/7/6 1224/7/6
f 1224/7/6 1220/7/6 1225/7/6
f 1221/13/6 1222/13/6 1226/13/6
f 1226/13/6 1222/13/6 1227/13/6
f 1223/7/6 1224/7/6 1228/7/6
f 1228/7/6 1224/7/6 1229/7/6
f 1230/10/6 1231/10/6 1234/10/6
f 1231/9/6 1232/9/6 1235/9/6
f 1234/10/6 1231/10/6 1235/10/6
f 1232/10/6 1233/10/6 1236/10/6
f 1235/9/6 1232/9/6 1236/9/6
f 1236/10/6 1233/10/6 1237/10/6
f 1238/11/6 1239/11/6 1240/11/6
f 1240/11/6 1239/11/6 1241/11/6
f 1242/11/6 1243/11/6 1244/11/6
f 1244/11/6 1243/11/6 1245/11/6
f 1246/11/6 1247/11/6 1248/11/6
f 1248/11/6 1247/11/6 1249/11/6
f 1250/11/6 1251/11/6 1252/11/6
f 1250/11/6 1252/11/6 1255/11/6
f 1253/11/6 1254/11/6 1255/11/6
f 1252/11/6 1253/11/6 1255/11/6
f 1255/11/6 1254/11/6 1256/11/6
f 1257/10/6 1258/10/6 1263/10/6
f 1263/10/6 1258/10/6 1264/10/6
f 1258/9/6 1259/9/6 1265/9/6
f 1264/10/6 1258/10/6 1265/10/6
f 1265/9/6 1259/9/6 1266/9/6
f 1260/9/6 1261/9/6 1267/9/6
f 1261/10/6 1262/10/6 1268/10/6
f 1267/9/6 1261/9/6 1268/9/6
f 1268/10/6 1262/10/6 1269/10/6
f 1269/10/6 1262/10/6 1270/10/6
f 1271/8/6 1272/8/6 1275/8/6
f 1273/8/6 1274/8/6 1277/8/6
f 1271/8/6 1275/8/6 1278/8/6
f 1278/8/6 1275/8/6 1279/8/6
f 1276/8/6 1277/8/6 1280/8/6
f 1277/8/6 1274/8/6 1281/8/6
f 1280/8/6 1277/8/6 1281/8/6
f 1281/8/6 1274/8/6 1282/8/6
f 1282/8/6 1274/8/6 1283/8/6
f 1284/9/6 1285/9/6 1290/9/6
f 1290/9/6 1285/9/6 1291/9/6
f 1286/9/6 1287/9/6 1292/9/6
f 1292/9/6 1287/9/6 1293/9/6
f 1288/9/6 1289/9/6 1297/9/6
f 1297/9/6 1289/9/6 1298/9/6
f 1294/9/6 1295/9/6 1299/9/6
f 1299/9/6 1295/9/6 1300/9/6
f 1296/9/6 1297/9/6 1302/9/6
f 1302/9/6 1297/9/6 1303/9/6
f 1300/9/6 1301/9/6 1304/9/6
f 1304/9/6 1301/9/6 1305/9/6
f 1306/9/6 1307/9/6 1308/9/6
f 1308/9/6 1307/9/6 1309/9/6
f 1310/9/6 1311/9/6 1314/9/6
f 1314/9/6 1311/9/6 1315/9/6
f 1312/9/6 1313/9/6 1316/9/6
f 1316/9/6 1313/9/6 1317/9/6
f 1317/9/6 1318/9/6 1319/9/6
f 1319/9/6 1318/9/6 1320/9/6
f 1320/9/6 1321/9/6 1322/9/6
f 1322/9/6 1321/9/6 1323/9/6
f 1324/9/6 1325/9/6 1328/9/6
f 1328/9/6 1325/9/6 1329/9/6
f 1326/9/6 1327/9/6 1331/9/6
f 1331/9/6 1327/9/6 1332/9/6
f 1329/9/6 1330/9/6 1333/9/6
f 1333/9/6 1330/9/6 1334/9/6
f 1334/9/6 1335/9/6 1338/9/6
f 1338/9/6 1335/9/6 1339/9/6
f 1336/9/6 1337/9/6 1341/9/6
f 1341/9/6 1337/9/6 1342/9/6
f 1339/9/6 1340/9/6 1346/9/6
f 1346/9/6 1340/9/6 1347/9/6
f 1343/9/6 1344/9/6 1348/9/6
f 1348/9/6 1344/9/6 1349/9/6
f 1345/9/6 1346/9/6 1351/9/6
f 1350/9/6 1351/9/6 1355/9/6
f 1351/9/6 1346/9/6 1356/9/6
f 1355/9/6 1351/9/6 1356/9/6
f 1356/9/6 1346/9/6 1357/9/6
f 1352/9/6 1353/9/6 1358/9/6
f 1358/9/6 1353/9/6 1359/9/6
f 1354/9/6 1355/9/6 1360/9/6
f 1355/9/6 1356/9/6 1360/9/6
f 1360/9/6 1356/9/6 1361/9/6
f 1362/9/6 1363/9/6 1365/9/6
f 1365/9/6 1363/9/6 1366/9/6
f 1366/9/6 1363/9/6 1367/9/6
f 1364/9/6 1365/9/6 1369/9/6
f 1365/9/6 1366/9/6 1369/9/6
f 1369/9/6 1366/9/6 1370/9/6
f 1367/9/6 1368/9/6 1371/9/6
f 1371/9/6 1368/9/6 1372/9/6
f 1372/9/6 1368/9/6 1373/9/6
f 1373/9/6 1374/9/6 1375/9/6
f 1372/9/6 1373/9/6 1375/9/6
f 1375/9/6 1374/9/6 1376/9/6
f 1364/9/6 1369/9/6 1377/9/6
f 1377/9/6 1369/9/6 1378/9/6
f 1376/9/6 1374/9/6 1381/9/6
f 1381/9/6 1374/9/6 1382/9/6
f 1378/9/6 1379/9/6 1383/9/6
f 1380/9/6 1381/9/6 1384/9/6
f 1384/9/6 1381/9/6 1385/9/6
f 1378/9/6 1383/9/6 1386/9/6
f 1383/9/6 1384/9/6 1386/9/6
f 1386/9/6 1384/9/6 1387/9/6
f 1387/9/6 1384/9/6 1388/9/6
f 1388/9/6 1384/9/6 1389/9/6
f 1387/9/6 1388/9/6 1390/9/6
f 1390/9/6 1388/9/6 1391/9/6
f 1392/9/6 1393/9/6 1395/9/6
f 1395/9/6 1393/9/6 1396/9/6
f 1394/9/6 1395/9/6 1398/9/6
f 1396/9/6 1397/9/6 1398/9/6
f 1395/9/6 1396/9/6 1398/9/6
f 1394/9/6 1398/9/6 1400/9/6
f 1398/9/6 1399/9/6 1400/9/6
f 1400/9/6 1399/9/6 1401/9/6
f 1401/9/6 1399/9/6 1402/9/6
f 1402/9/6 1399/9/6 1403/9/6
f 1401/9/6 1402/9/6 1404/9/6
f 1404/9/6 1402/9/6 1405/9/6
