# MagicaVoxel @ Ephtracy

# group
o 

# material
mtllib shroomba.mtl
usemtl palette

# normals
vn -1 0 0
vn 1 0 0
vn 0 0 1
vn 0 0 -1
vn 0 -1 0
vn 0 1 0

# texcoords
vt 0.00195312 0.5
vt 0.00585938 0.5
vt 0.0332031 0.5
vt 0.373047 0.5
vt 0.376953 0.5
vt 0.380859 0.5
vt 0.384766 0.5
vt 0.400391 0.5
vt 0.849609 0.5
vt 0.958984 0.5
vt 0.962891 0.5
vt 0.994141 0.5

# verts
v -0.7 0.6 -0.0999999
v -0.7 0.6 -0.2
v -0.7 0.6 -0.4
v -0.7 0.6 -0.5
v -0.7 0.6 -0.6
v -0.7 0.7 5.96046e-08
v -0.7 0.7 -0.0999999
v -0.7 0.7 -0.2
v -0.7 0.7 -0.4
v -0.7 0.7 -0.5
v -0.7 0.7 -0.6
v -0.7 0.8 0.1
v -0.7 0.8 5.96046e-08
v -0.7 0.8 -0.5
v -0.7 0.8 -0.6
v -0.7 0.9 0.1
v -0.7 0.9 5.96046e-08
v -0.7 0.9 -0.0999999
v -0.7 0.9 -0.2
v -0.7 0.9 -0.4
v -0.7 0.9 -0.5
v -0.7 1 5.96046e-08
v -0.7 1 -0.0999999
v -0.6 0 0.4
v -0.6 0 0.3
v -0.6 0.1 0.4
v -0.6 0.1 0.3
v -0.6 0.7 -0.3
v -0.6 0.7 -0.4
v -0.6 0.8 -0.5
v -0.6 0.8 -0.6
v -0.6 0.9 0.1
v -0.6 0.9 5.96046e-08
v -0.6 0.9 -0.0999999
v -0.6 0.9 -0.2
v -0.6 0.9 -0.4
v -0.6 0.9 -0.5
v -0.6 0.9 -0.6
v -0.6 1 0.1
v -0.6 1 5.96046e-08
v -0.6 1 -0.0999999
v -0.6 1 -0.2
v -0.6 1 -0.3
v -0.6 1 -0.5
v -0.6 1.1 0.1
v -0.6 1.1 5.96046e-08
v -0.6 1.1 -0.0999999
v -0.6 1.1 -0.2
v -0.6 1.2 0.1
v -0.6 1.2 5.96046e-08
v -0.6 1.2 -0.0999999
v -0.6 1.2 -0.2
v -0.6 1.3 0.1
v -0.6 1.3 5.96046e-08
v -0.6 1.3 -0.0999999
v -0.6 1.3 -0.2
v -0.6 1.4 5.96046e-08
v -0.6 1.4 -0.0999999
v -0.5 0 0.5
v -0.5 0 0.4
v -0.5 0.1 0.5
v -0.5 0.1 0.4
v -0.5 0.1 0.3
v -0.5 0.2 0.5
v -0.5 0.2 0.4
v -0.5 0.2 0.3
v -0.5 0.2 0.2
v -0.5 0.3 0.5
v -0.5 0.3 0.4
v -0.5 0.3 0.3
v -0.5 0.3 0.2
v -0.5 0.4 0.4
v -0.5 0.4 0.3
v -0.5 0.4 0.2
v -0.5 0.4 0.1
v -0.5 0.5 0.3
v -0.5 0.5 0.1
v -0.5 0.5 5.96046e-08
v -0.5 0.6 0.1
v -0.5 0.6 5.96046e-08
v -0.5 0.9 -0.5
v -0.5 0.9 -0.6
v -0.5 1 0.2
v -0.5 1 0.1
v -0.5 1 -0.3
v -0.5 1 -0.5
v -0.5 1 -0.6
v -0.5 1.1 0.3
v -0.5 1.1 0.2
v -0.5 1.1 0.1
v -0.5 1.1 -0.2
v -0.5 1.1 -0.3
v -0.5 1.1 -0.4
v -0.5 1.1 -0.5
v -0.5 1.2 0.3
v -0.5 1.2 0.2
v -0.5 1.2 0.1
v -0.5 1.2 -0.2
v -0.5 1.2 -0.3
v -0.5 1.2 -0.4
v -0.5 1.2 -0.5
v -0.5 1.3 0.3
v -0.5 1.3 0.2
v -0.5 1.3 0.1
v -0.5 1.3 5.96046e-08
v -0.5 1.3 -0.0999999
v -0.5 1.3 -0.2
v -0.5 1.3 -0.3
v -0.5 1.3 -0.4
v -0.5 1.4 0.2
v -0.5 1.4 5.96046e-08
v -0.5 1.4 -0.0999999
v -0.5 1.4 -0.2
v -0.5 1.4 -0.3
v -0.4 0.3 0.5
v -0.4 0.3 0.4
v -0.4 0.3 0.2
v -0.4 0.3 0.1
v -0.4 0.4 0.5
v -0.4 0.4 0.4
v -0.4 0.4 0.2
v -0.4 0.4 0.1
v -0.4 0.4 5.96046e-08
v -0.4 0.5 0.2
v -0.4 0.5 0.1
v -0.4 0.5 5.96046e-08
v -0.4 0.5 -0.0999999
v -0.4 0.6 0.2
v -0.4 0.6 0.1
v -0.4 0.6 5.96046e-08
v -0.4 0.6 -0.0999999
v -0.4 1 0.3
v -0.4 1 0.2
v -0.4 1.1 0.4
v -0.4 1.1 0.3
v -0.4 1.1 0.2
v -0.4 1.2 0.4
v -0.4 1.2 0.3
v -0.4 1.2 -0.4
v -0.4 1.2 -0.5
v -0.4 1.3 0.4
v -0.4 1.3 0.3
v -0.4 1.3 0.2
v -0.4 1.3 -0.3
v -0.4 1.3 -0.4
v -0.4 1.4 0.3
v -0.4 1.4 0.2
v -0.4 1.4 0.1
v -0.4 1.4 5.96046e-08
v -0.4 1.4 -0.0999999
v -0.4 1.4 -0.2
v -0.4 1.4 -0.3
v -0.4 1.4 -0.5
v -0.4 1.5 0.2
v -0.4 1.5 0.1
v -0.4 1.5 5.96046e-08
v -0.4 1.5 -0.0999999
v -0.4 1.5 -0.2
v -0.4 1.5 -0.3
v -0.3 0.1 0.2
v -0.3 0.1 -0.3
v -0.3 0.3 0.2
v -0.3 0.3 0.1
v -0.3 0.3 -0.7
v -0.3 0.3 -0.8
v -0.3 0.4 0.1
v -0.3 0.4 5.96046e-08
v -0.3 0.4 -0.3
v -0.3 0.4 -0.6
v -0.3 0.4 -0.7
v -0.3 0.4 -0.8
v -0.3 0.5 5.96046e-08
v -0.3 0.5 -0.0999999
v -0.3 0.5 -0.3
v -0.3 0.5 -0.6
v -0.3 0.5 -0.7
v -0.3 0.5 -0.8
v -0.3 0.6 0.2
v -0.3 0.6 -0.0999999
v -0.3 0.7 -0.6
v -0.3 0.7 -0.7
v -0.3 0.8 -0.6
v -0.3 0.8 -0.7
v -0.3 0.9 -0.3
v -0.3 0.9 -0.5
v -0.3 0.9 -0.6
v -0.3 1 0.5
v -0.3 1 0.3
v -0.3 1 0.2
v -0.3 1 -0.5
v -0.3 1 -0.6
v -0.3 1 -0.7
v -0.3 1.1 0.5
v -0.3 1.1 0.4
v -0.3 1.1 0.3
v -0.3 1.1 0.2
v -0.3 1.1 -0.3
v -0.3 1.1 -0.5
v -0.3 1.1 -0.6
v -0.3 1.1 -0.7
v -0.3 1.2 0.5
v -0.3 1.2 0.4
v -0.3 1.2 -0.5
v -0.3 1.2 -0.6
v -0.3 1.3 0.4
v -0.3 1.3 0.3
v -0.3 1.3 -0.5
v -0.3 1.3 -0.6
v -0.3 1.4 0.4
v -0.3 1.4 0.3
v -0.3 1.4 0.2
v -0.3 1.4 -0.3
v -0.3 1.4 -0.4
v -0.3 1.5 0.3
v -0.3 1.5 0.2
v -0.3 1.5 0.1
v -0.3 1.5 5.96046e-08
v -0.3 1.5 -0.0999999
v -0.3 1.5 -0.2
v -0.3 1.5 -0.3
v -0.3 1.5 -0.4
v -0.3 1.6 0.1
v -0.3 1.6 5.96046e-08
v -0.3 1.6 -0.2
v -0.2 0 0.1
v -0.2 0 -0.2
v -0.2 0.1 0.1
v -0.2 0.1 -0.2
v -0.2 0.2 -0.7
v -0.2 0.2 -0.8
v -0.2 0.3 -0.7
v -0.2 0.3 -0.8
v -0.2 0.4 -0.8
v -0.2 0.4 -0.9
v -0.2 0.5 -0.7
v -0.2 0.5 -0.8
v -0.2 0.5 -0.9
v -0.2 0.7 -0.7
v -0.2 0.7 -0.8
v -0.2 0.8 -0.6
v -0.2 0.8 -0.7
v -0.2 0.9 -0.6
v -0.2 0.9 -0.7
v -0.2 1 -0.6
v -0.2 1 -0.7
v -0.2 1.2 0.5
v -0.2 1.2 0.4
v -0.2 1.3 0.5
v -0.2 1.3 0.4
v -0.2 1.3 -0.5
v -0.2 1.3 -0.6
v -0.2 1.4 -0.4
v -0.2 1.4 -0.5
v -0.2 1.4 -0.6
v -0.2 1.5 0.3
v -0.2 1.5 0.2
v -0.2 1.5 0.1
v -0.2 1.5 -0.2
v -0.2 1.5 -0.3
v -0.2 1.5 -0.4
v -0.2 1.5 -0.5
v -0.2 1.6 0.3
v -0.2 1.6 0.2
v -0.2 1.6 0.1
v -0.2 1.6 -0.2
v -0.2 1.6 -0.3
v -0.1 1 0.4
v -0.1 1 0.3
v -0.1 1.1 0.4
v -0.1 1.1 0.3
v -0.1 1.1 -0.6
v -0.1 1.1 -0.7
v -0.1 1.2 -0.6
v -0.1 1.2 -0.7
v -0.1 1.3 0.5
v -0.1 1.3 0.4
v -0.1 1.3 -0.6
v -0.1 1.3 -0.7
v -0.1 1.4 0.5
v -0.1 1.4 0.4
v -0.1 1.5 -0.3
v -0.1 1.5 -0.4
v -0.1 1.6 -0.3
v -0.1 1.6 -0.4
v -5.96046e-08 1.4 0.4
v -5.96046e-08 1.4 0.3
v -5.96046e-08 1.4 -0.4
v -5.96046e-08 1.4 -0.5
v -5.96046e-08 1.5 0.4
v -5.96046e-08 1.5 0.3
v -5.96046e-08 1.5 -0.4
v -5.96046e-08 1.5 -0.5
v 0.1 0.9 -0.5
v 0.1 0.9 -0.6
v 0.1 1.1 -0.5
v 0.1 1.1 -0.6
v 0.1 1.2 -0.5
v 0.1 1.2 -0.6
v 0.1 1.3 -0.5
v 0.1 1.3 -0.6
v 0.2 0.4 -0.6
v 0.2 0.4 -0.7
v 0.2 0.5 -0.7
v 0.2 0.5 -0.8
v 0.2 0.6 0.2
v 0.2 0.6 0.1
v 0.2 0.7 0.2
v 0.2 0.7 0.1
v 0.2 0.7 -0.7
v 0.2 0.7 -0.8
v 0.2 0.9 -0.6
v 0.2 0.9 -0.7
v 0.2 0.9 -0.8
v 0.2 1 -0.6
v 0.2 1 -0.7
v 0.2 1.3 0.1
v 0.2 1.3 -0.2
v 0.2 1.4 0.1
v 0.2 1.4 -0.2
v 0.3 0 0.4
v 0.3 0 0.2
v 0.3 0.1 0.4
v 0.3 0.1 0.3
v 0.3 0.1 0.2
v 0.3 0.2 0.4
v 0.3 0.2 0.3
v 0.3 0.3 0.4
v 0.3 0.3 0.3
v 0.3 0.3 0.2
v 0.3 0.4 0.4
v 0.3 0.4 0.3
v 0.3 0.4 0.2
v 0.3 0.4 -0.5
v 0.3 0.4 -0.6
v 0.3 0.5 0.3
v 0.3 0.5 0.2
v 0.3 0.6 0.3
v 0.3 0.6 0.2
v 0.3 0.6 -0.5
v 0.3 0.6 -0.6
v 0.3 0.8 0.4
v 0.3 0.8 0.3
v 0.3 1 0.4
v 0.3 1 0.3
v 0.3 1 -0.4
v 0.3 1 -0.5
v 0.3 1.1 0.4
v 0.3 1.1 0.3
v 0.3 1.1 -0.4
v 0.3 1.1 -0.5
v 0.4 0 0.5
v 0.4 0 0.4
v 0.4 0.1 0.5
v 0.4 0.1 0.4
v 0.4 0.2 0.5
v 0.4 0.2 0.4
v 0.4 0.3 0.5
v 0.4 0.3 0.4
v 0.4 0.4 0.5
v 0.4 0.4 0.4
v 0.4 0.4 0.3
v 0.4 0.5 0.5
v 0.4 0.5 0.4
v 0.4 0.5 0.3
v 0.4 0.6 -0.2
v 0.4 0.6 -0.3
v 0.4 0.7 0.4
v 0.4 0.7 0.3
v 0.4 0.7 -0.3
v 0.4 0.7 -0.4
v 0.4 0.8 0.5
v 0.4 0.8 0.4
v 0.4 0.8 0.3
v 0.4 0.8 0.2
v 0.4 0.9 0.5
v 0.4 0.9 0.4
v 0.4 0.9 0.3
v 0.4 0.9 0.2
v 0.4 1 0.3
v 0.4 1 0.2
v 0.4 1 -0.3
v 0.4 1 -0.4
v 0.4 1.1 0.3
v 0.4 1.1 0.2
v 0.4 1.1 -0.2
v 0.4 1.1 -0.3
v 0.4 1.1 -0.4
v 0.5 0.7 -0.0999999
v 0.5 0.7 -0.2
v 0.5 0.9 5.96046e-08
v 0.5 0.9 -0.0999999
v 0.5 0.9 -0.2
v 0.5 1 0.2
v 0.5 1 0.1
v 0.5 1 5.96046e-08
v 0.5 1 -0.0999999
v 0.5 1 -0.2
v 0.5 1.1 0.2
v 0.5 1.1 0.1
v 0.5 1.1 5.96046e-08
v 0.5 1.1 -0.2
v -0.6 0.6 -0.0999999
v -0.6 0.6 -0.2
v -0.6 0.6 -0.4
v -0.6 0.6 -0.5
v -0.6 0.7 5.96046e-08
v -0.6 0.7 -0.0999999
v -0.6 0.7 -0.2
v -0.6 0.7 -0.4
v -0.6 0.7 -0.5
v -0.6 0.8 5.96046e-08
v -0.6 0.8 -0.0999999
v -0.5 0.6 -0.5
v -0.5 0.6 -0.6
v -0.5 0.7 -0.0999999
v -0.5 0.7 -0.2
v -0.5 0.7 -0.3
v -0.5 0.7 -0.5
v -0.5 0.7 -0.6
v -0.5 0.8 0.1
v -0.5 0.8 5.96046e-08
v -0.5 0.8 -0.0999999
v -0.5 0.8 -0.2
v -0.5 0.8 -0.3
v -0.5 0.8 -0.5
v -0.5 0.9 0.1
v -0.5 0.9 5.96046e-08
v -0.5 0.9 -0.0999999
v -0.5 0.9 -0.2
v -0.5 1 0.1
v -0.5 1 5.96046e-08
v -0.5 1 -0.0999999
v -0.5 1 -0.2
v -0.5 1.1 -0.0999999
v -0.5 1.1 -0.2
v -0.4 0 0.5
v -0.4 0 0.4
v -0.4 0.1 0.5
v -0.4 0.1 0.4
v -0.4 0.1 0.3
v -0.4 0.2 0.4
v -0.4 0.2 0.3
v -0.4 0.2 0.2
v -0.4 0.3 0.4
v -0.4 0.3 0.3
v -0.4 0.3 0.2
v -0.4 0.7 -0.5
v -0.4 0.7 -0.6
v -0.4 0.8 -0.3
v -0.4 0.8 -0.5
v -0.4 0.9 -0.3
v -0.4 0.9 -0.5
v -0.4 1 0.2
v -0.4 1 5.96046e-08
v -0.4 1 -0.0999999
v -0.4 1 -0.5
v -0.4 1 -0.6
v -0.4 1.1 0.2
v -0.4 1.1 5.96046e-08
v -0.4 1.1 -0.0999999
v -0.3 0 0.4
v -0.3 0 0.3
v -0.3 0.1 0.5
v -0.3 0.1 0.4
v -0.3 0.1 0.3
v -0.3 0.2 0.5
v -0.3 0.2 0.4
v -0.3 0.3 0.5
v -0.3 0.3 0.4
v -0.3 0.3 0.3
v -0.3 0.3 0.2
v -0.3 0.4 0.5
v -0.3 0.4 0.4
v -0.3 0.4 0.3
v -0.3 0.4 0.2
v -0.3 0.5 0.3
v -0.3 0.5 0.2
v -0.3 0.9 -0.4
v -0.3 0.9 -0.5
v -0.3 1 0.3
v -0.3 1 0.2
v -0.3 1 -0.4
v -0.3 1 -0.5
v -0.3 1.1 0.3
v -0.3 1.1 0.2
v -0.3 1.1 -0.4
v -0.3 1.1 -0.5
v -0.2 0.4 -0.6
v -0.2 0.4 -0.7
v -0.2 0.5 -0.6
v -0.2 0.5 -0.7
v -0.2 0.6 0.2
v -0.2 0.6 0.1
v -0.2 0.6 -0.6
v -0.2 0.6 -0.7
v -0.2 0.7 0.2
v -0.2 0.7 0.1
v -0.2 0.9 -0.3
v -0.2 0.9 -0.4
v -0.2 1 0.4
v -0.2 1 0.3
v -0.2 1 -0.3
v -0.2 1 -0.4
v -0.2 1 -0.6
v -0.2 1 -0.7
v -0.2 1.1 0.4
v -0.2 1.1 0.3
v -0.2 1.1 -0.6
v -0.2 1.1 -0.7
v -0.2 1.3 0.1
v -0.2 1.3 -0.2
v -0.2 1.4 0.1
v -0.2 1.4 -0.2
v -0.1 0.2 -0.7
v -0.1 0.2 -0.8
v -0.1 0.3 -0.7
v -0.1 0.3 -0.8
v -0.1 0.4 -0.8
v -0.1 0.4 -0.9
v -0.1 0.5 -0.8
v -0.1 0.5 -0.9
v -0.1 0.6 -0.6
v -0.1 0.6 -0.7
v -0.1 0.6 -0.8
v -0.1 0.7 -0.6
v -0.1 0.7 -0.7
v -0.1 0.7 -0.8
v -0.1 0.8 -0.6
v -0.1 0.8 -0.7
v -0.1 0.9 -0.5
v -0.1 0.9 -0.6
v -0.1 0.9 -0.7
v -0.1 1 0.5
v -0.1 1 0.4
v -0.1 1 -0.3
v -0.1 1 -0.4
v -0.1 1 -0.5
v -0.1 1 -0.6
v -0.1 1 -0.7
v -0.1 1.1 0.5
v -0.1 1.1 0.4
v -0.1 1.1 -0.3
v -0.1 1.1 -0.4
v -0.1 1.3 -0.5
v -0.1 1.3 -0.6
v -0.1 1.4 -0.4
v -0.1 1.4 -0.5
v -0.1 1.4 -0.6
v -0.1 1.5 -0.4
v -0.1 1.5 -0.5
v -5.96046e-08 0.3 -0.7
v -5.96046e-08 0.3 -0.8
v -5.96046e-08 0.6 -0.7
v -5.96046e-08 0.6 -0.8
v -5.96046e-08 1 -0.5
v -5.96046e-08 1 -0.6
v -5.96046e-08 1.1 -0.5
v -5.96046e-08 1.1 -0.6
v -5.96046e-08 1.1 -0.7
v -5.96046e-08 1.2 -0.5
v -5.96046e-08 1.2 -0.6
v -5.96046e-08 1.2 -0.7
v -5.96046e-08 1.3 0.5
v -5.96046e-08 1.3 0.4
v -5.96046e-08 1.3 -0.5
v -5.96046e-08 1.3 -0.6
v -5.96046e-08 1.3 -0.7
v -5.96046e-08 1.4 0.5
v -5.96046e-08 1.4 0.4
v -5.96046e-08 1.5 0.3
v -5.96046e-08 1.5 0.2
v -5.96046e-08 1.6 0.3
v -5.96046e-08 1.6 0.2
v 0.1 1 0.4
v 0.1 1 0.3
v 0.1 1.1 0.4
v 0.1 1.1 0.3
v 0.1 1.2 0.5
v 0.1 1.2 0.4
v 0.1 1.3 0.5
v 0.1 1.3 0.4
v 0.1 1.4 -0.4
v 0.1 1.4 -0.5
v 0.1 1.5 -0.3
v 0.1 1.5 -0.4
v 0.1 1.5 -0.5
v 0.1 1.6 -0.3
v 0.1 1.6 -0.4
v 0.2 0 0.1
v 0.2 0 -0.2
v 0.2 0.1 0.1
v 0.2 0.1 -0.2
v 0.2 1.1 0.5
v 0.2 1.1 0.4
v 0.2 1.2 0.5
v 0.2 1.2 0.4
v 0.2 1.4 0.4
v 0.2 1.4 0.3
v 0.2 1.5 0.4
v 0.2 1.5 0.3
v 0.2 1.5 0.2
v 0.2 1.5 0.1
v 0.2 1.6 0.2
v 0.2 1.6 0.1
v 0.3 0.1 0.2
v 0.3 0.1 -0.3
v 0.3 0.3 0.2
v 0.3 0.3 5.96046e-08
v 0.3 0.4 5.96046e-08
v 0.3 0.4 -0.0999999
v 0.3 0.4 -0.3
v 0.3 0.5 -0.0999999
v 0.3 0.5 -0.3
v 0.3 0.6 5.96046e-08
v 0.3 0.6 -0.0999999
v 0.3 0.7 0.2
v 0.3 0.7 5.96046e-08
v 0.3 0.7 -0.7
v 0.3 0.7 -0.8
v 0.3 0.8 -0.6
v 0.3 0.8 -0.7
v 0.3 0.9 -0.5
v 0.3 0.9 -0.6
v 0.3 0.9 -0.7
v 0.3 0.9 -0.8
v 0.3 1 -0.5
v 0.3 1 -0.6
v 0.3 1 -0.7
v 0.3 1.1 0.2
v 0.3 1.1 -0.3
v 0.3 1.1 -0.5
v 0.3 1.1 -0.6
v 0.3 1.2 -0.5
v 0.3 1.3 0.4
v 0.3 1.3 0.3
v 0.3 1.3 -0.4
v 0.3 1.3 -0.5
v 0.3 1.3 -0.6
v 0.3 1.4 0.4
v 0.3 1.4 0.3
v 0.3 1.4 0.2
v 0.3 1.4 -0.3
v 0.3 1.4 -0.4
v 0.3 1.4 -0.5
v 0.3 1.5 0.3
v 0.3 1.5 0.2
v 0.3 1.5 5.96046e-08
v 0.3 1.5 -0.0999999
v 0.3 1.5 -0.2
v 0.3 1.5 -0.3
v 0.3 1.5 -0.4
v 0.3 1.6 5.96046e-08
v 0.3 1.6 -0.0999999
v 0.3 1.6 -0.2
v 0.3 1.6 -0.3
v 0.4 0 0.3
v 0.4 0 0.2
v 0.4 0.1 0.3
v 0.4 0.1 0.2
v 0.4 0.3 0.4
v 0.4 0.3 0.3
v 0.4 0.3 0.1
v 0.4 0.3 5.96046e-08
v 0.4 0.4 0.4
v 0.4 0.4 0.3
v 0.4 0.4 0.2
v 0.4 0.4 0.1
v 0.4 0.4 5.96046e-08
v 0.4 0.4 -0.0999999
v 0.4 0.4 -0.5
v 0.4 0.4 -0.7
v 0.4 0.5 0.3
v 0.4 0.5 0.2
v 0.4 0.5 5.96046e-08
v 0.4 0.5 -0.0999999
v 0.4 0.5 -0.6
v 0.4 0.5 -0.7
v 0.4 0.5 -0.8
v 0.4 0.6 0.3
v 0.4 0.6 0.2
v 0.4 0.6 0.1
v 0.4 0.6 5.96046e-08
v 0.4 0.6 -0.0999999
v 0.4 0.6 -0.5
v 0.4 0.6 -0.6
v 0.4 0.6 -0.7
v 0.4 0.7 0.2
v 0.4 0.7 0.1
v 0.4 0.7 -0.7
v 0.4 0.7 -0.8
v 0.4 0.8 -0.6
v 0.4 0.8 -0.7
v 0.4 1 -0.4
v 0.4 1 -0.5
v 0.4 1.1 0.4
v 0.4 1.1 0.3
v 0.4 1.1 -0.4
v 0.4 1.1 -0.5
v 0.4 1.2 0.4
v 0.4 1.2 0.3
v 0.4 1.2 -0.3
v 0.4 1.2 -0.4
v 0.4 1.2 -0.5
v 0.4 1.3 0.4
v 0.4 1.3 0.3
v 0.4 1.3 0.2
v 0.4 1.3 -0.3
v 0.4 1.3 -0.4
v 0.4 1.3 -0.5
v 0.4 1.4 0.3
v 0.4 1.4 0.2
v 0.4 1.4 0.1
v 0.4 1.4 -0.2
v 0.4 1.4 -0.3
v 0.4 1.4 -0.4
v 0.4 1.5 0.2
v 0.4 1.5 0.1
v 0.4 1.5 5.96046e-08
v 0.4 1.5 -0.0999999
v 0.4 1.5 -0.2
v 0.4 1.5 -0.3
v 0.4 1.6 0.1
v 0.4 1.6 5.96046e-08
v 0.4 1.6 -0.0999999
v 0.4 1.6 -0.2
v 0.5 0 0.5
v 0.5 0 0.4
v 0.5 0.1 0.5
v 0.5 0.1 0.4
v 0.5 0.1 0.3
v 0.5 0.1 0.2
v 0.5 0.2 0.5
v 0.5 0.2 0.4
v 0.5 0.2 0.3
v 0.5 0.2 0.2
v 0.5 0.3 0.5
v 0.5 0.3 0.4
v 0.5 0.3 0.3
v 0.5 0.3 0.2
v 0.5 0.3 0.1
v 0.5 0.4 0.5
v 0.5 0.4 0.4
v 0.5 0.4 0.3
v 0.5 0.4 0.2
v 0.5 0.4 0.1
v 0.5 0.4 5.96046e-08
v 0.5 0.5 0.5
v 0.5 0.5 0.4
v 0.5 0.5 0.3
v 0.5 0.5 0.1
v 0.5 0.5 5.96046e-08
v 0.5 0.6 0.2
v 0.5 0.6 0.1
v 0.5 0.6 5.96046e-08
v 0.5 0.6 -0.2
v 0.5 0.6 -0.3
v 0.5 0.7 0.4
v 0.5 0.7 0.3
v 0.5 0.7 0.1
v 0.5 0.7 5.96046e-08
v 0.5 0.7 -0.2
v 0.5 0.7 -0.3
v 0.5 0.7 -0.4
v 0.5 0.8 0.5
v 0.5 0.8 0.4
v 0.5 0.8 0.3
v 0.5 0.8 0.2
v 0.5 0.8 -0.3
v 0.5 0.9 0.5
v 0.5 0.9 0.4
v 0.5 0.9 0.3
v 0.5 0.9 0.2
v 0.5 0.9 -0.2
v 0.5 0.9 -0.3
v 0.5 0.9 -0.4
v 0.5 1 0.4
v 0.5 1 0.3
v 0.5 1 0.2
v 0.5 1 -0.2
v 0.5 1 -0.3
v 0.5 1 -0.4
v 0.5 1.1 0.4
v 0.5 1.1 0.3
v 0.5 1.1 0.2
v 0.5 1.1 0.1
v 0.5 1.1 5.96046e-08
v 0.5 1.1 -0.2
v 0.5 1.1 -0.3
v 0.5 1.1 -0.4
v 0.5 1.2 0.3
v 0.5 1.2 0.2
v 0.5 1.2 0.1
v 0.5 1.2 5.96046e-08
v 0.5 1.2 -0.3
v 0.5 1.2 -0.4
v 0.5 1.3 0.3
v 0.5 1.3 0.2
v 0.5 1.3 0.1
v 0.5 1.3 5.96046e-08
v 0.5 1.3 -0.0999999
v 0.5 1.3 -0.2
v 0.5 1.3 -0.3
v 0.5 1.4 0.2
v 0.5 1.4 0.1
v 0.5 1.4 -0.2
v 0.5 1.4 -0.3
v 0.5 1.5 0.1
v 0.5 1.5 -0.0999999
v 0.5 1.5 -0.2
v 0.6 0 0.4
v 0.6 0 0.3
v 0.6 0.1 0.4
v 0.6 0.1 0.3
v 0.6 0.7 -0.0999999
v 0.6 0.7 -0.2
v 0.6 0.7 -0.3
v 0.6 0.8 -0.2
v 0.6 0.8 -0.3
v 0.6 0.9 5.96046e-08
v 0.6 0.9 -0.0999999
v 0.6 0.9 -0.2
v 0.6 0.9 -0.3
v 0.6 0.9 -0.4
v 0.6 1 0.2
v 0.6 1 0.1
v 0.6 1 5.96046e-08
v 0.6 1 -0.0999999
v 0.6 1 -0.2
v 0.6 1 -0.3
v 0.6 1 -0.4
v 0.6 1.1 0.2
v 0.6 1.1 0.1
v 0.6 1.1 -0.0999999
v 0.6 1.1 -0.2
v 0.6 1.1 -0.3
v 0.6 1.2 0.2
v 0.6 1.2 0.1
v 0.6 1.2 5.96046e-08
v 0.6 1.2 -0.0999999
v 0.6 1.3 0.2
v 0.6 1.3 0.1
v 0.6 1.3 5.96046e-08
v 0.6 1.3 -0.0999999
v 0.6 1.3 -0.2
v -0.5 0 0.5
v -0.5 0.1 0.5
v -0.5 0.2 0.5
v -0.5 0.3 0.5
v -0.4 0 0.5
v -0.4 0.1 0.5
v -0.4 0.2 0.5
v -0.4 0.3 0.5
v -0.4 0.4 0.5
v -0.3 0.1 0.5
v -0.3 0.2 0.5
v -0.3 0.3 0.5
v -0.3 0.4 0.5
v -0.3 1 0.5
v -0.3 1.1 0.5
v -0.3 1.2 0.5
v -0.2 1.2 0.5
v -0.2 1.3 0.5
v -0.1 1 0.5
v -0.1 1.1 0.5
v -0.1 1.3 0.5
v -0.1 1.4 0.5
v -5.96046e-08 1.2 0.5
v -5.96046e-08 1.3 0.5
v -5.96046e-08 1.4 0.5
v 0.1 1.1 0.5
v 0.1 1.2 0.5
v 0.1 1.3 0.5
v 0.2 1.1 0.5
v 0.2 1.2 0.5
v 0.4 0 0.5
v 0.4 0.1 0.5
v 0.4 0.2 0.5
v 0.4 0.3 0.5
v 0.4 0.4 0.5
v 0.4 0.5 0.5
v 0.4 0.8 0.5
v 0.4 0.9 0.5
v 0.5 0 0.5
v 0.5 0.1 0.5
v 0.5 0.2 0.5
v 0.5 0.3 0.5
v 0.5 0.4 0.5
v 0.5 0.5 0.5
v 0.5 0.8 0.5
v 0.5 0.9 0.5
v -0.6 0 0.4
v -0.6 0.1 0.4
v -0.5 0 0.4
v -0.5 0.1 0.4
v -0.5 0.3 0.4
v -0.5 0.4 0.4
v -0.4 0 0.4
v -0.4 0.1 0.4
v -0.4 0.3 0.4
v -0.4 0.4 0.4
v -0.4 1.1 0.4
v -0.4 1.2 0.4
v -0.4 1.3 0.4
v -0.3 0 0.4
v -0.3 0.1 0.4
v -0.3 1.1 0.4
v -0.3 1.2 0.4
v -0.3 1.3 0.4
v -0.3 1.4 0.4
v -0.2 1.2 0.4
v -0.2 1.3 0.4
v -0.2 1.4 0.4
v -0.1 1 0.4
v -0.1 1.1 0.4
v -0.1 1.3 0.4
v -0.1 1.4 0.4
v -5.96046e-08 1.3 0.4
v -5.96046e-08 1.4 0.4
v -5.96046e-08 1.5 0.4
v 0.1 1 0.4
v 0.1 1.1 0.4
v 0.1 1.2 0.4
v 0.1 1.3 0.4
v 0.1 1.4 0.4
v 0.1 1.5 0.4
v 0.2 1.1 0.4
v 0.2 1.2 0.4
v 0.2 1.3 0.4
v 0.2 1.4 0.4
v 0.2 1.5 0.4
v 0.3 0 0.4
v 0.3 0.1 0.4
v 0.3 0.2 0.4
v 0.3 0.3 0.4
v 0.3 0.4 0.4
v 0.3 0.8 0.4
v 0.3 1 0.4
v 0.3 1.1 0.4
v 0.3 1.2 0.4
v 0.3 1.3 0.4
v 0.3 1.4 0.4
v 0.4 0 0.4
v 0.4 0.1 0.4
v 0.4 0.2 0.4
v 0.4 0.3 0.4
v 0.4 0.4 0.4
v 0.4 0.7 0.4
v 0.4 0.8 0.4
v 0.4 0.9 0.4
v 0.4 1 0.4
v 0.4 1.1 0.4
v 0.4 1.2 0.4
v 0.4 1.3 0.4
v 0.5 0 0.4
v 0.5 0.1 0.4
v 0.5 0.2 0.4
v 0.5 0.7 0.4
v 0.5 0.8 0.4
v 0.5 0.9 0.4
v 0.5 1 0.4
v 0.5 1.1 0.4
v 0.6 0 0.4
v 0.6 0.1 0.4
v -0.5 0.4 0.3
v -0.5 0.5 0.3
v -0.5 1.1 0.3
v -0.5 1.2 0.3
v -0.5 1.3 0.3
v -0.4 0.4 0.3
v -0.4 0.5 0.3
v -0.4 1 0.3
v -0.4 1.1 0.3
v -0.4 1.2 0.3
v -0.4 1.3 0.3
v -0.4 1.4 0.3
v -0.3 0.4 0.3
v -0.3 0.5 0.3
v -0.3 1 0.3
v -0.3 1.1 0.3
v -0.3 1.3 0.3
v -0.3 1.4 0.3
v -0.3 1.5 0.3
v -0.2 1.4 0.3
v -0.2 1.5 0.3
v -0.2 1.6 0.3
v -0.1 1.4 0.3
v -5.96046e-08 1.4 0.3
v -5.96046e-08 1.5 0.3
v -5.96046e-08 1.6 0.3
v 0.2 1.4 0.3
v 0.2 1.5 0.3
v 0.3 0.4 0.3
v 0.3 0.5 0.3
v 0.3 0.6 0.3
v 0.3 1.3 0.3
v 0.3 1.4 0.3
v 0.3 1.5 0.3
v 0.4 0.3 0.3
v 0.4 0.4 0.3
v 0.4 0.5 0.3
v 0.4 0.6 0.3
v 0.4 1.1 0.3
v 0.4 1.2 0.3
v 0.4 1.3 0.3
v 0.4 1.4 0.3
v 0.5 0.3 0.3
v 0.5 0.4 0.3
v 0.5 1.1 0.3
v 0.5 1.2 0.3
v 0.5 1.3 0.3
v -0.5 1 0.2
v -0.5 1.1 0.2
v -0.5 1.3 0.2
v -0.5 1.4 0.2
v -0.4 0.5 0.2
v -0.4 0.6 0.2
v -0.4 1 0.2
v -0.4 1.1 0.2
v -0.4 1.3 0.2
v -0.4 1.4 0.2
v -0.4 1.5 0.2
v -0.3 0.1 0.2
v -0.3 0.3 0.2
v -0.3 0.4 0.2
v -0.3 0.5 0.2
v -0.3 0.6 0.2
v -0.3 1 0.2
v -0.3 1.1 0.2
v -0.3 1.4 0.2
v -0.3 1.5 0.2
v -0.2 0.6 0.2
v -0.2 0.7 0.2
v -0.2 0.8 0.2
v -0.2 0.9 0.2
v -0.1 0.3 0.2
v -0.1 0.4 0.2
v -0.1 0.5 0.2
v -0.1 0.8 0.2
v -0.1 0.9 0.2
v -5.96046e-08 1.5 0.2
v -5.96046e-08 1.6 0.2
v 0.1 0.3 0.2
v 0.1 0.4 0.2
v 0.1 0.5 0.2
v 0.1 0.8 0.2
v 0.1 0.9 0.2
v 0.1 1.5 0.2
v 0.1 1.6 0.2
v 0.2 0.6 0.2
v 0.2 0.7 0.2
v 0.2 0.8 0.2
v 0.2 0.9 0.2
v 0.2 1.5 0.2
v 0.2 1.6 0.2
v 0.3 0.1 0.2
v 0.3 0.3 0.2
v 0.3 0.4 0.2
v 0.3 0.5 0.2
v 0.3 0.6 0.2
v 0.3 0.7 0.2
v 0.3 1.1 0.2
v 0.3 1.4 0.2
v 0.3 1.5 0.2
v 0.4 0.4 0.2
v 0.4 0.5 0.2
v 0.4 0.6 0.2
v 0.4 0.7 0.2
v 0.4 1.3 0.2
v 0.4 1.4 0.2
v 0.4 1.5 0.2
v 0.5 0.4 0.2
v 0.5 0.6 0.2
v 0.5 1 0.2
v 0.5 1.1 0.2
v 0.5 1.2 0.2
v 0.5 1.3 0.2
v 0.5 1.4 0.2
v 0.6 1 0.2
v 0.6 1.1 0.2
v 0.6 1.2 0.2
v 0.6 1.3 0.2
v -0.7 0.8 0.1
v -0.7 0.9 0.1
v -0.6 0.8 0.1
v -0.6 0.9 0.1
v -0.6 1 0.1
v -0.6 1.1 0.1
v -0.6 1.2 0.1
v -0.6 1.3 0.1
v -0.5 0.5 0.1
v -0.5 0.6 0.1
v -0.5 0.8 0.1
v -0.5 0.9 0.1
v -0.5 1 0.1
v -0.5 1.1 0.1
v -0.5 1.2 0.1
v -0.5 1.3 0.1
v -0.4 0.5 0.1
v -0.4 0.6 0.1
v -0.3 1.5 0.1
v -0.3 1.6 0.1
v -0.2 0 0.1
v -0.2 0.1 0.1
v -0.2 0.6 0.1
v -0.2 0.7 0.1
v -0.2 1.5 0.1
v -0.2 1.6 0.1
v -0.1 0.6 0.1
v -0.1 0.7 0.1
v 0.1 0.6 0.1
v 0.1 0.7 0.1
v 0.2 0 0.1
v 0.2 0.1 0.1
v 0.2 0.6 0.1
v 0.2 0.7 0.1
v 0.2 1.5 0.1
v 0.2 1.6 0.1
v 0.3 1.5 0.1
v 0.3 1.6 0.1
v 0.4 0.6 0.1
v 0.4 0.7 0.1
v 0.4 1.4 0.1
v 0.4 1.5 0.1
v 0.4 1.6 0.1
v 0.5 0.6 0.1
v 0.5 0.7 0.1
v 0.5 1.4 0.1
v 0.5 1.5 0.1
v -0.7 0.7 5.96046e-08
v -0.7 0.8 5.96046e-08
v -0.7 0.9 5.96046e-08
v -0.7 1 5.96046e-08
v -0.6 0.7 5.96046e-08
v -0.6 0.8 5.96046e-08
v -0.6 0.9 5.96046e-08
v -0.6 1 5.96046e-08
v -0.6 1.3 5.96046e-08
v -0.6 1.4 5.96046e-08
v -0.5 1.3 5.96046e-08
v -0.5 1.4 5.96046e-08
v 0.5 0.9 5.96046e-08
v 0.5 1 5.96046e-08
v 0.5 1.1 5.96046e-08
v 0.5 1.2 5.96046e-08
v 0.5 1.3 5.96046e-08
v 0.6 0.9 5.96046e-08
v 0.6 1 5.96046e-08
v 0.6 1.2 5.96046e-08
v 0.6 1.3 5.96046e-08
v -0.7 0.6 -0.0999999
v -0.7 0.7 -0.0999999
v -0.6 0.6 -0.0999999
v -0.6 0.7 -0.0999999
v -0.6 0.8 -0.0999999
v -0.5 0.7 -0.0999999
v -0.5 0.8 -0.0999999
v 0.3 1.5 -0.0999999
v 0.3 1.6 -0.0999999
v 0.4 1.5 -0.0999999
v 0.4 1.6 -0.0999999
v 0.5 0.7 -0.0999999
v 0.5 0.9 -0.0999999
v 0.6 0.7 -0.0999999
v 0.6 0.9 -0.0999999
v -0.2 1.3 -0.2
v -0.2 1.4 -0.2
v -0.1 1.3 -0.2
v -0.1 1.4 -0.2
v -5.96046e-08 1.3 -0.2
v 0.2 1.3 -0.2
v 0.2 1.4 -0.2
v 0.4 0.6 -0.2
v 0.4 1.1 -0.2
v 0.5 0.6 -0.2
v 0.5 0.7 -0.2
v 0.5 0.9 -0.2
v 0.5 1 -0.2
v 0.5 1.1 -0.2
v -0.6 0.7 -0.3
v -0.6 1 -0.3
v -0.5 0.7 -0.3
v -0.5 0.8 -0.3
v -0.5 1 -0.3
v -0.5 1.1 -0.3
v -0.4 0.8 -0.3
v -0.4 0.9 -0.3
v -0.4 1 -0.3
v -0.4 1.1 -0.3
v -0.3 0.9 -0.3
v -0.3 1.1 -0.3
v 0.5 0.9 -0.3
v 0.5 1 -0.3
v 0.6 0.9 -0.3
v 0.6 1 -0.3
v -0.7 0.6 -0.4
v -0.7 0.7 -0.4
v -0.7 0.9 -0.4
v -0.6 0.6 -0.4
v -0.6 0.7 -0.4
v -0.6 0.9 -0.4
v 0.3 1 -0.4
v 0.3 1.1 -0.4
v 0.4 1 -0.4
v 0.4 1.1 -0.4
v -0.6 0.6 -0.5
v -0.6 0.7 -0.5
v -0.5 0.6 -0.5
v -0.5 0.7 -0.5
v -0.5 0.8 -0.5
v -0.4 0.7 -0.5
v -0.4 0.8 -0.5
v -0.3 0.9 -0.5
v -0.3 1 -0.5
v -0.3 1.1 -0.5
v -0.2 0.9 -0.5
v -0.2 1 -0.5
v -0.1 0.9 -0.5
v -0.1 1 -0.5
v -5.96046e-08 1 -0.5
v -5.96046e-08 1.1 -0.5
v 0.1 0.9 -0.5
v 0.1 1.1 -0.5
v 0.2 1 -0.5
v 0.2 1.1 -0.5
v 0.3 0.4 -0.5
v 0.3 0.6 -0.5
v 0.3 0.9 -0.5
v 0.3 1 -0.5
v 0.3 1.1 -0.5
v 0.4 0.4 -0.5
v 0.4 0.6 -0.5
v -0.3 0.4 -0.6
v -0.3 0.5 -0.6
v -0.3 0.7 -0.6
v -0.3 0.8 -0.6
v -0.2 0.4 -0.6
v -0.2 0.5 -0.6
v -0.2 0.6 -0.6
v -0.2 0.7 -0.6
v -0.2 0.8 -0.6
v -0.2 0.9 -0.6
v -0.1 0.6 -0.6
v -0.1 0.7 -0.6
v -0.1 0.8 -0.6
v -0.1 0.9 -0.6
v 0.2 0.4 -0.6
v 0.2 0.9 -0.6
v 0.3 0.4 -0.6
v 0.3 0.6 -0.6
v 0.3 0.8 -0.6
v 0.3 0.9 -0.6
v 0.4 0.6 -0.6
v 0.4 0.8 -0.6
v -0.3 0.3 -0.7
v -0.3 0.4 -0.7
v -0.2 0.2 -0.7
v -0.2 0.3 -0.7
v -0.2 0.4 -0.7
v -0.2 0.5 -0.7
v -0.2 0.6 -0.7
v -0.1 0.2 -0.7
v -0.1 0.3 -0.7
v -0.1 0.5 -0.7
v -0.1 0.6 -0.7
v -5.96046e-08 0.3 -0.7
v -5.96046e-08 0.6 -0.7
v -0.4 0.1 0.4
v -0.4 0.2 0.4
v -0.4 0.3 0.4
v -0.3 0.1 0.4
v -0.3 0.2 0.4
v -0.3 0.3 0.4
v -0.2 1 0.4
v -0.2 1.1 0.4
v -0.1 1 0.4
v -0.1 1.1 0.4
v 0.4 0.3 0.4
v 0.4 0.4 0.4
v 0.5 0.3 0.4
v 0.5 0.4 0.4
v -0.6 0 0.3
v -0.6 0.1 0.3
v -0.5 0.1 0.3
v -0.5 0.2 0.3
v -0.4 0.1 0.3
v -0.4 0.2 0.3
v -0.3 0 0.3
v -0.3 0.1 0.3
v -0.3 1 0.3
v -0.3 1.1 0.3
v -0.2 1 0.3
v -0.2 1.1 0.3
v -0.1 1 0.3
v -0.1 1.1 0.3
v 0.1 1 0.3
v 0.1 1.1 0.3
v 0.3 0.8 0.3
v 0.3 1 0.3
v 0.3 1.1 0.3
v 0.4 0 0.3
v 0.4 0.1 0.3
v 0.4 0.4 0.3
v 0.4 0.5 0.3
v 0.4 0.7 0.3
v 0.4 0.8 0.3
v 0.4 0.9 0.3
v 0.4 1 0.3
v 0.4 1.1 0.3
v 0.5 0.1 0.3
v 0.5 0.4 0.3
v 0.5 0.5 0.3
v 0.5 0.7 0.3
v 0.5 0.8 0.3
v 0.6 0 0.3
v 0.6 0.1 0.3
v -0.5 0.2 0.2
v -0.5 0.3 0.2
v -0.5 0.4 0.2
v -0.4 0.2 0.2
v -0.4 0.3 0.2
v -0.4 0.4 0.2
v -0.4 1 0.2
v -0.4 1.1 0.2
v -0.3 1 0.2
v -0.3 1.1 0.2
v 0.3 0 0.2
v 0.3 0.1 0.2
v 0.3 0.3 0.2
v 0.4 0 0.2
v 0.4 0.1 0.2
v 0.4 0.2 0.2
v 0.4 0.8 0.2
v 0.4 0.9 0.2
v 0.4 1 0.2
v 0.4 1.1 0.2
v 0.5 0.1 0.2
v 0.5 0.2 0.2
v 0.5 0.3 0.2
v 0.5 0.8 0.2
v 0.5 0.9 0.2
v 0.5 1 0.2
v 0.5 1.1 0.2
v -0.5 0.4 0.1
v -0.5 0.5 0.1
v -0.4 0.3 0.1
v -0.4 0.4 0.1
v -0.4 0.5 0.1
v -0.3 0.3 0.1
v -0.3 0.4 0.1
v -0.2 1.3 0.1
v -0.2 1.4 0.1
v -0.1 1.3 0.1
v 0.2 1.3 0.1
v 0.2 1.4 0.1
v 0.4 0.3 0.1
v 0.4 0.4 0.1
v 0.5 0.3 0.1
v 0.5 0.4 0.1
v 0.5 1 0.1
v 0.5 1.1 0.1
v 0.5 1.2 0.1
v 0.5 1.3 0.1
v 0.6 1 0.1
v 0.6 1.1 0.1
v 0.6 1.2 0.1
v 0.6 1.3 0.1
v -0.5 0.5 5.96046e-08
v -0.5 0.6 5.96046e-08
v -0.4 0.4 5.96046e-08
v -0.4 0.5 5.96046e-08
v -0.4 0.6 5.96046e-08
v -0.3 0.4 5.96046e-08
v -0.3 0.5 5.96046e-08
v 0.3 0.3 5.96046e-08
v 0.3 0.4 5.96046e-08
v 0.3 0.6 5.96046e-08
v 0.3 0.7 5.96046e-08
v 0.3 1.5 5.96046e-08
v 0.3 1.6 5.96046e-08
v 0.4 0.3 5.96046e-08
v 0.4 0.4 5.96046e-08
v 0.4 0.5 5.96046e-08
v 0.4 0.6 5.96046e-08
v 0.4 1.5 5.96046e-08
v 0.4 1.6 5.96046e-08
v 0.5 0.4 5.96046e-08
v 0.5 0.5 5.96046e-08
v 0.5 0.6 5.96046e-08
v 0.5 0.7 5.96046e-08
v -0.7 0.9 -0.0999999
v -0.7 1 -0.0999999
v -0.6 0.9 -0.0999999
v -0.6 1 -0.0999999
v -0.6 1.3 -0.0999999
v -0.6 1.4 -0.0999999
v -0.5 1 -0.0999999
v -0.5 1.1 -0.0999999
v -0.5 1.3 -0.0999999
v -0.5 1.4 -0.0999999
v -0.4 0.5 -0.0999999
v -0.4 0.6 -0.0999999
v -0.4 1 -0.0999999
v -0.4 1.1 -0.0999999
v -0.3 0.5 -0.0999999
v -0.3 0.6 -0.0999999
v 0.3 0.4 -0.0999999
v 0.3 0.5 -0.0999999
v 0.3 0.6 -0.0999999
v 0.4 0.4 -0.0999999
v 0.4 0.5 -0.0999999
v 0.4 0.6 -0.0999999
v -0.7 0.6 -0.2
v -0.7 0.7 -0.2
v -0.7 0.9 -0.2
v -0.6 0.6 -0.2
v -0.6 0.7 -0.2
v -0.6 0.8 -0.2
v -0.6 0.9 -0.2
v -0.6 1 -0.2
v -0.6 1.1 -0.2
v -0.6 1.2 -0.2
v -0.6 1.3 -0.2
v -0.5 0.7 -0.2
v -0.5 0.8 -0.2
v -0.5 0.9 -0.2
v -0.5 1 -0.2
v -0.5 1.1 -0.2
v -0.5 1.2 -0.2
v -0.5 1.3 -0.2
v -0.3 1.5 -0.2
v -0.3 1.6 -0.2
v -0.2 0 -0.2
v -0.2 0.1 -0.2
v -0.2 1.5 -0.2
v -0.2 1.6 -0.2
v 0.2 0 -0.2
v 0.2 0.1 -0.2
v 0.3 1.5 -0.2
v 0.3 1.6 -0.2
v 0.4 1.4 -0.2
v 0.4 1.5 -0.2
v 0.4 1.6 -0.2
v 0.5 0.9 -0.2
v 0.5 1 -0.2
v 0.5 1.1 -0.2
v 0.5 1.3 -0.2
v 0.5 1.4 -0.2
v 0.5 1.5 -0.2
v 0.6 0.9 -0.2
v 0.6 1 -0.2
v 0.6 1.1 -0.2
v 0.6 1.3 -0.2
v -0.5 1.3 -0.3
v -0.5 1.4 -0.3
v -0.4 1.3 -0.3
v -0.4 1.4 -0.3
v -0.4 1.5 -0.3
v -0.3 0.1 -0.3
v -0.3 0.4 -0.3
v -0.3 0.5 -0.3
v -0.3 0.9 -0.3
v -0.3 1.4 -0.3
v -0.3 1.5 -0.3
v -0.2 0.9 -0.3
v -0.2 1 -0.3
v -0.2 1.5 -0.3
v -0.2 1.6 -0.3
v -0.1 0.3 -0.3
v -0.1 0.4 -0.3
v -0.1 0.5 -0.3
v -0.1 1 -0.3
v -0.1 1.1 -0.3
v -0.1 1.5 -0.3
v -0.1 1.6 -0.3
v 0.1 0.3 -0.3
v 0.1 0.4 -0.3
v 0.1 0.5 -0.3
v 0.1 1.5 -0.3
v 0.1 1.6 -0.3
v 0.2 1.5 -0.3
v 0.2 1.6 -0.3
v 0.3 0.1 -0.3
v 0.3 0.4 -0.3
v 0.3 0.5 -0.3
v 0.3 1.1 -0.3
v 0.3 1.4 -0.3
v 0.3 1.5 -0.3
v 0.3 1.6 -0.3
v 0.4 0.6 -0.3
v 0.4 0.7 -0.3
v 0.4 1.2 -0.3
v 0.4 1.3 -0.3
v 0.4 1.4 -0.3
v 0.4 1.5 -0.3
v 0.5 0.6 -0.3
v 0.5 0.7 -0.3
v 0.5 0.8 -0.3
v 0.5 0.9 -0.3
v 0.5 1 -0.3
v 0.5 1.1 -0.3
v 0.5 1.2 -0.3
v 0.5 1.3 -0.3
v 0.5 1.4 -0.3
v 0.6 0.7 -0.3
v 0.6 0.8 -0.3
v 0.6 0.9 -0.3
v 0.6 1 -0.3
v 0.6 1.1 -0.3
v -0.5 1.2 -0.4
v -0.5 1.3 -0.4
v -0.4 1.2 -0.4
v -0.4 1.3 -0.4
v -0.3 0.9 -0.4
v -0.3 1 -0.4
v -0.3 1.1 -0.4
v -0.3 1.4 -0.4
v -0.3 1.5 -0.4
v -0.2 0.9 -0.4
v -0.2 1 -0.4
v -0.2 1.4 -0.4
v -0.2 1.5 -0.4
v -0.1 1 -0.4
v -0.1 1.1 -0.4
v -0.1 1.4 -0.4
v -0.1 1.5 -0.4
v -0.1 1.6 -0.4
v -5.96046e-08 1.4 -0.4
v -5.96046e-08 1.5 -0.4
v 0.1 1.4 -0.4
v 0.1 1.5 -0.4
v 0.1 1.6 -0.4
v 0.2 1.4 -0.4
v 0.2 1.5 -0.4
v 0.3 1.3 -0.4
v 0.3 1.4 -0.4
v 0.3 1.5 -0.4
v 0.4 0.7 -0.4
v 0.4 1 -0.4
v 0.4 1.1 -0.4
v 0.4 1.2 -0.4
v 0.4 1.3 -0.4
v 0.4 1.4 -0.4
v 0.5 0.7 -0.4
v 0.5 0.9 -0.4
v 0.5 1 -0.4
v 0.5 1.1 -0.4
v 0.5 1.2 -0.4
v 0.6 0.9 -0.4
v 0.6 1 -0.4
v -0.7 0.8 -0.5
v -0.7 0.9 -0.5
v -0.6 0.8 -0.5
v -0.6 0.9 -0.5
v -0.6 1 -0.5
v -0.5 0.9 -0.5
v -0.5 1 -0.5
v -0.5 1.1 -0.5
v -0.5 1.2 -0.5
v -0.4 0.9 -0.5
v -0.4 1 -0.5
v -0.4 1.2 -0.5
v -0.4 1.4 -0.5
v -0.3 0.9 -0.5
v -0.3 1 -0.5
v -0.3 1.1 -0.5
v -0.3 1.2 -0.5
v -0.3 1.3 -0.5
v -0.2 1.3 -0.5
v -0.2 1.4 -0.5
v -0.2 1.5 -0.5
v -0.1 1.3 -0.5
v -0.1 1.4 -0.5
v -0.1 1.5 -0.5
v -5.96046e-08 1.2 -0.5
v -5.96046e-08 1.3 -0.5
v -5.96046e-08 1.4 -0.5
v -5.96046e-08 1.5 -0.5
v 0.1 1.2 -0.5
v 0.1 1.3 -0.5
v 0.1 1.4 -0.5
v 0.1 1.5 -0.5
v 0.2 1.3 -0.5
v 0.2 1.4 -0.5
v 0.3 1 -0.5
v 0.3 1.1 -0.5
v 0.3 1.2 -0.5
v 0.3 1.3 -0.5
v 0.3 1.4 -0.5
v 0.4 1 -0.5
v 0.4 1.1 -0.5
v 0.4 1.2 -0.5
v 0.4 1.3 -0.5
v -0.7 0.6 -0.6
v -0.7 0.7 -0.6
v -0.7 0.8 -0.6
v -0.6 0.6 -0.6
v -0.6 0.7 -0.6
v -0.6 0.8 -0.6
v -0.6 0.9 -0.6
v -0.5 0.6 -0.6
v -0.5 0.7 -0.6
v -0.5 0.8 -0.6
v -0.5 0.9 -0.6
v -0.5 1 -0.6
v -0.4 0.7 -0.6
v -0.4 1 -0.6
v -0.3 0.9 -0.6
v -0.3 1 -0.6
v -0.3 1.1 -0.6
v -0.3 1.2 -0.6
v -0.3 1.3 -0.6
v -0.2 0.9 -0.6
v -0.2 1 -0.6
v -0.2 1.1 -0.6
v -0.2 1.2 -0.6
v -0.2 1.3 -0.6
v -0.2 1.4 -0.6
v -0.1 1 -0.6
v -0.1 1.1 -0.6
v -0.1 1.2 -0.6
v -0.1 1.3 -0.6
v -0.1 1.4 -0.6
v -5.96046e-08 1 -0.6
v -5.96046e-08 1.1 -0.6
v -5.96046e-08 1.2 -0.6
v 0.1 0.9 -0.6
v 0.1 1.1 -0.6
v 0.1 1.2 -0.6
v 0.1 1.3 -0.6
v 0.2 0.9 -0.6
v 0.2 1 -0.6
v 0.2 1.1 -0.6
v 0.2 1.2 -0.6
v 0.2 1.3 -0.6
v 0.3 1 -0.6
v 0.3 1.1 -0.6
v 0.3 1.3 -0.6
v -0.3 0.5 -0.7
v -0.3 0.7 -0.7
v -0.3 0.8 -0.7
v -0.3 1 -0.7
v -0.3 1.1 -0.7
v -0.2 0.5 -0.7
v -0.2 0.7 -0.7
v -0.2 0.8 -0.7
v -0.2 0.9 -0.7
v -0.2 1 -0.7
v -0.2 1.1 -0.7
v -0.1 0.7 -0.7
v -0.1 0.8 -0.7
v -0.1 0.9 -0.7
v -0.1 1 -0.7
v -0.1 1.1 -0.7
v -0.1 1.2 -0.7
v -0.1 1.3 -0.7
v -5.96046e-08 1.1 -0.7
v -5.96046e-08 1.2 -0.7
v -5.96046e-08 1.3 -0.7
v 0.2 0.4 -0.7
v 0.2 0.5 -0.7
v 0.2 0.9 -0.7
v 0.2 1 -0.7
v 0.3 0.5 -0.7
v 0.3 0.7 -0.7
v 0.3 0.8 -0.7
v 0.3 0.9 -0.7
v 0.3 1 -0.7
v 0.4 0.4 -0.7
v 0.4 0.5 -0.7
v 0.4 0.7 -0.7
v 0.4 0.8 -0.7
v -0.3 0.3 -0.8
v -0.3 0.4 -0.8
v -0.3 0.5 -0.8
v -0.2 0.2 -0.8
v -0.2 0.3 -0.8
v -0.2 0.4 -0.8
v -0.2 0.5 -0.8
v -0.2 0.7 -0.8
v -0.1 0.2 -0.8
v -0.1 0.3 -0.8
v -0.1 0.4 -0.8
v -0.1 0.5 -0.8
v -0.1 0.6 -0.8
v -0.1 0.7 -0.8
v -5.96046e-08 0.3 -0.8
v -5.96046e-08 0.6 -0.8
v 0.2 0.5 -0.8
v 0.2 0.7 -0.8
v 0.2 0.9 -0.8
v 0.3 0.5 -0.8
v 0.3 0.7 -0.8
v 0.3 0.9 -0.8
v 0.4 0.5 -0.8
v 0.4 0.7 -0.8
v -0.2 0.4 -0.9
v -0.2 0.5 -0.9
v -0.1 0.4 -0.9
v -0.1 0.5 -0.9
v -0.5 0 0.5
v -0.4 0 0.5
v 0.4 0 0.5
v 0.5 0 0.5
v -0.6 0 0.4
v -0.5 0 0.4
v -0.4 0 0.4
v -0.3 0 0.4
v 0.3 0 0.4
v 0.4 0 0.4
v 0.5 0 0.4
v 0.6 0 0.4
v -0.6 0 0.3
v -0.3 0 0.3
v 0.4 0 0.3
v 0.6 0 0.3
v 0.3 0 0.2
v 0.4 0 0.2
v -0.2 0 0.1
v 0.2 0 0.1
v -0.2 0 -0.2
v 0.2 0 -0.2
v -0.4 0.1 0.5
v -0.3 0.1 0.5
v -0.4 0.1 0.4
v -0.3 0.1 0.4
v 0.4 0.1 0.3
v 0.5 0.1 0.3
v -0.3 0.1 0.2
v 0.3 0.1 0.2
v 0.4 0.1 0.2
v 0.5 0.1 0.2
v -0.2 0.1 0.1
v 0.2 0.1 0.1
v -0.2 0.1 -0.2
v 0.2 0.1 -0.2
v -0.3 0.1 -0.3
v 0.3 0.1 -0.3
v 0.4 0.2 0.5
v 0.5 0.2 0.5
v 0.4 0.2 0.4
v 0.5 0.2 0.4
v -0.5 0.2 0.3
v -0.4 0.2 0.3
v -0.5 0.2 0.2
v -0.4 0.2 0.2
v -0.2 0.2 -0.7
v -0.1 0.2 -0.7
v -0.2 0.2 -0.8
v -0.1 0.2 -0.8
v -0.4 0.3 0.4
v -0.3 0.3 0.4
v -0.4 0.3 0.3
v -0.3 0.3 0.3
v -0.4 0.3 0.2
v -0.3 0.3 0.2
v 0.3 0.3 0.2
v 0.5 0.3 0.2
v -0.4 0.3 0.1
v -0.3 0.3 0.1
v 0.4 0.3 0.1
v 0.5 0.3 0.1
v 0.3 0.3 5.96046e-08
v 0.4 0.3 5.96046e-08
v -0.3 0.3 -0.7
v -0.2 0.3 -0.7
v -0.1 0.3 -0.7
v -5.96046e-08 0.3 -0.7
v -0.3 0.3 -0.8
v -0.2 0.3 -0.8
v -0.1 0.3 -0.8
v -5.96046e-08 0.3 -0.8
v 0.4 0.4 0.4
v 0.5 0.4 0.4
v 0.4 0.4 0.3
v 0.5 0.4 0.3
v -0.5 0.4 0.2
v -0.4 0.4 0.2
v -0.5 0.4 0.1
v -0.4 0.4 0.1
v -0.3 0.4 0.1
v 0.4 0.4 0.1
v 0.5 0.4 0.1
v -0.4 0.4 5.96046e-08
v -0.3 0.4 5.96046e-08
v 0.3 0.4 5.96046e-08
v 0.4 0.4 5.96046e-08
v 0.5 0.4 5.96046e-08
v 0.3 0.4 -0.0999999
v 0.4 0.4 -0.0999999
v 0.3 0.4 -0.5
v 0.4 0.4 -0.5
v -0.3 0.4 -0.6
v -0.2 0.4 -0.6
v 0.2 0.4 -0.6
v 0.3 0.4 -0.6
v -0.3 0.4 -0.7
v -0.2 0.4 -0.7
v 0.2 0.4 -0.7
v 0.4 0.4 -0.7
v -0.2 0.4 -0.8
v -0.1 0.4 -0.8
v -0.2 0.4 -0.9
v -0.1 0.4 -0.9
v -0.5 0.5 0.1
v -0.4 0.5 0.1
v -0.5 0.5 5.96046e-08
v -0.4 0.5 5.96046e-08
v -0.3 0.5 5.96046e-08
v -0.4 0.5 -0.0999999
v -0.3 0.5 -0.0999999
v 0.2 0.5 -0.7
v 0.3 0.5 -0.7
v 0.4 0.5 -0.7
v 0.2 0.5 -0.8
v 0.3 0.5 -0.8
v 0.4 0.5 -0.8
v -0.7 0.6 -0.0999999
v -0.6 0.6 -0.0999999
v -0.7 0.6 -0.2
v -0.6 0.6 -0.2
v 0.4 0.6 -0.2
v 0.5 0.6 -0.2
v 0.4 0.6 -0.3
v 0.5 0.6 -0.3
v -0.7 0.6 -0.4
v -0.6 0.6 -0.4
v -0.7 0.6 -0.5
v -0.6 0.6 -0.5
v -0.5 0.6 -0.5
v -0.7 0.6 -0.6
v -0.6 0.6 -0.6
v -0.5 0.6 -0.6
v -0.2 0.6 -0.6
v -0.1 0.6 -0.6
v -0.2 0.6 -0.7
v -0.1 0.6 -0.7
v 0.4 0.7 0.4
v 0.5 0.7 0.4
v 0.4 0.7 0.3
v 0.5 0.7 0.3
v -0.2 0.7 0.2
v 0.2 0.7 0.2
v -0.2 0.7 0.1
v -0.1 0.7 0.1
v 0.1 0.7 0.1
v 0.2 0.7 0.1
v -0.7 0.7 5.96046e-08
v -0.6 0.7 5.96046e-08
v -0.7 0.7 -0.0999999
v -0.6 0.7 -0.0999999
v -0.5 0.7 -0.0999999
v 0.5 0.7 -0.0999999
v 0.6 0.7 -0.0999999
v -0.6 0.7 -0.2
v -0.5 0.7 -0.2
v 0.5 0.7 -0.2
v 0.6 0.7 -0.2
v -0.6 0.7 -0.3
v -0.5 0.7 -0.3
v 0.4 0.7 -0.3
v 0.5 0.7 -0.3
v 0.6 0.7 -0.3
v -0.6 0.7 -0.4
v 0.4 0.7 -0.4
v 0.5 0.7 -0.4
v -0.6 0.7 -0.5
v -0.5 0.7 -0.5
v -0.4 0.7 -0.5
v -0.5 0.7 -0.6
v -0.4 0.7 -0.6
v 0.4 0.8 0.5
v 0.5 0.8 0.5
v 0.3 0.8 0.4
v 0.4 0.8 0.4
v 0.5 0.8 0.4
v 0.3 0.8 0.3
v 0.4 0.8 0.3
v 0.5 0.8 0.3
v 0.4 0.8 0.2
v 0.5 0.8 0.2
v -0.7 0.8 0.1
v -0.6 0.8 0.1
v -0.5 0.8 0.1
v -0.7 0.8 5.96046e-08
v -0.6 0.8 5.96046e-08
v -0.5 0.8 5.96046e-08
v -0.6 0.8 -0.0999999
v -0.5 0.8 -0.0999999
v -0.5 0.8 -0.3
v -0.4 0.8 -0.3
v -0.5 0.8 -0.5
v -0.4 0.8 -0.5
v 0.5 0.9 5.96046e-08
v 0.6 0.9 5.96046e-08
v 0.5 0.9 -0.0999999
v 0.6 0.9 -0.0999999
v -0.4 0.9 -0.3
v -0.3 0.9 -0.3
v -0.2 0.9 -0.3
v 0.5 0.9 -0.3
v 0.6 0.9 -0.3
v -0.3 0.9 -0.4
v -0.2 0.9 -0.4
v 0.5 0.9 -0.4
v 0.6 0.9 -0.4
v -0.4 0.9 -0.5
v -0.3 0.9 -0.5
v -0.2 0.9 -0.5
v -0.1 0.9 -0.5
v 0.1 0.9 -0.5
v 0.3 0.9 -0.5
v -0.3 0.9 -0.6
v -0.2 0.9 -0.6
v -0.1 0.9 -0.6
v 0.1 0.9 -0.6
v 0.2 0.9 -0.6
v 0.3 0.9 -0.6
v -0.3 1 0.5
v -0.1 1 0.5
v -0.2 1 0.4
v -0.1 1 0.4
v 0.1 1 0.4
v -0.4 1 0.3
v -0.3 1 0.3
v -0.2 1 0.3
v -0.1 1 0.3
v 0.1 1 0.3
v -0.5 1 0.2
v -0.4 1 0.2
v -0.3 1 0.2
v 0.5 1 0.2
v 0.6 1 0.2
v -0.5 1 0.1
v 0.5 1 0.1
v 0.6 1 0.1
v -0.5 1 5.96046e-08
v -0.4 1 5.96046e-08
v -0.5 1 -0.0999999
v -0.4 1 -0.0999999
v 0.5 1 -0.2
v 0.6 1 -0.2
v -0.2 1 -0.3
v -0.1 1 -0.3
v 0.5 1 -0.3
v 0.6 1 -0.3
v -0.2 1 -0.4
v -0.1 1 -0.4
v 0.3 1 -0.4
v 0.4 1 -0.4
v -0.1 1 -0.5
v -5.96046e-08 1 -0.5
v 0.3 1 -0.5
v 0.4 1 -0.5
v -0.3 1 -0.6
v -0.2 1 -0.6
v -0.1 1 -0.6
v -5.96046e-08 1 -0.6
v -0.3 1 -0.7
v -0.2 1 -0.7
v -0.1 1.1 0.5
v 0.1 1.1 0.5
v 0.2 1.1 0.5
v -0.4 1.1 0.4
v -0.3 1.1 0.4
v -0.2 1.1 0.4
v -0.1 1.1 0.4
v 0.1 1.1 0.4
v 0.2 1.1 0.4
v 0.3 1.1 0.4
v -0.5 1.1 0.3
v -0.4 1.1 0.3
v -0.3 1.1 0.3
v -0.2 1.1 0.3
v -0.1 1.1 0.3
v 0.1 1.1 0.3
v 0.2 1.1 0.3
v 0.3 1.1 0.3
v 0.4 1.1 0.3
v -0.5 1.1 0.2
v -0.4 1.1 0.2
v -0.3 1.1 0.2
v 0.3 1.1 0.2
v 0.4 1.1 0.2
v 0.5 1.1 0.2
v 0.4 1.1 0.1
v 0.5 1.1 0.1
v -0.4 1.1 5.96046e-08
v 0.4 1.1 5.96046e-08
v 0.5 1.1 5.96046e-08
v -0.5 1.1 -0.0999999
v -0.4 1.1 -0.0999999
v -0.5 1.1 -0.2
v -0.4 1.1 -0.2
v 0.4 1.1 -0.2
v 0.5 1.1 -0.2
v -0.5 1.1 -0.3
v -0.4 1.1 -0.3
v -0.3 1.1 -0.3
v -0.1 1.1 -0.3
v 0.3 1.1 -0.3
v 0.4 1.1 -0.3
v -0.3 1.1 -0.4
v -0.1 1.1 -0.4
v 0.2 1.1 -0.4
v 0.3 1.1 -0.4
v 0.4 1.1 -0.4
v -0.3 1.1 -0.5
v -5.96046e-08 1.1 -0.5
v 0.1 1.1 -0.5
v 0.2 1.1 -0.5
v 0.3 1.1 -0.5
v -0.1 1.1 -0.6
v -5.96046e-08 1.1 -0.6
v 0.1 1.1 -0.6
v -0.1 1.1 -0.7
v -5.96046e-08 1.1 -0.7
v -0.2 1.4 0.1
v 0.2 1.4 0.1
v -0.2 1.4 -0.2
v -0.1 1.4 -0.2
v 0.2 1.4 -0.2
v 0.4 0.1 0.5
v 0.5 0.1 0.5
v -0.6 0.1 0.4
v -0.5 0.1 0.4
v -0.4 0.1 0.4
v -0.3 0.1 0.4
v 0.4 0.1 0.4
v 0.5 0.1 0.4
v 0.6 0.1 0.4
v -0.6 0.1 0.3
v -0.5 0.1 0.3
v -0.4 0.1 0.3
v -0.3 0.1 0.3
v 0.5 0.1 0.3
v 0.6 0.1 0.3
v -0.5 0.3 0.5
v -0.4 0.3 0.5
v -0.5 0.3 0.4
v -0.4 0.3 0.4
v 0.4 0.3 0.4
v 0.5 0.3 0.4
v 0.4 0.3 0.3
v 0.5 0.3 0.3
v -0.4 0.4 0.5
v -0.3 0.4 0.5
v -0.5 0.4 0.4
v -0.4 0.4 0.4
v -0.3 0.4 0.4
v 0.3 0.4 0.4
v 0.4 0.4 0.4
v -0.5 0.4 0.3
v -0.4 0.4 0.3
v -0.3 0.4 0.3
v 0.3 0.4 0.3
v 0.4 0.4 0.3
v 0.5 0.4 0.3
v 0.4 0.4 0.2
v 0.5 0.4 0.2
v 0.4 0.5 0.5
v 0.5 0.5 0.5
v 0.4 0.5 0.4
v 0.5 0.5 0.4
v -0.5 0.5 0.3
v -0.4 0.5 0.3
v -0.3 0.5 0.3
v 0.4 0.5 0.3
v 0.5 0.5 0.3
v -0.4 0.5 0.2
v -0.3 0.5 0.2
v -0.5 0.5 0.1
v -0.4 0.5 0.1
v -0.3 0.5 -0.7
v -0.2 0.5 -0.7
v -0.3 0.5 -0.8
v -0.2 0.5 -0.8
v -0.1 0.5 -0.8
v -0.2 0.5 -0.9
v -0.1 0.5 -0.9
v 0.3 0.6 0.3
v 0.4 0.6 0.3
v -0.4 0.6 0.2
v -0.3 0.6 0.2
v -0.2 0.6 0.2
v 0.2 0.6 0.2
v 0.3 0.6 0.2
v 0.4 0.6 0.2
v 0.5 0.6 0.2
v -0.5 0.6 0.1
v -0.4 0.6 0.1
v -0.2 0.6 0.1
v -0.1 0.6 0.1
v 0.1 0.6 0.1
v 0.2 0.6 0.1
v 0.4 0.6 0.1
v 0.5 0.6 0.1
v -0.5 0.6 5.96046e-08
v -0.4 0.6 5.96046e-08
v 0.3 0.6 5.96046e-08
v 0.4 0.6 5.96046e-08
v -0.4 0.6 -0.0999999
v -0.3 0.6 -0.0999999
v 0.3 0.6 -0.0999999
v 0.4 0.6 -0.0999999
v 0.3 0.6 -0.5
v 0.4 0.6 -0.5
v 0.3 0.6 -0.6
v 0.4 0.6 -0.6
v -0.1 0.6 -0.7
v -5.96046e-08 0.6 -0.7
v -0.1 0.6 -0.8
v -5.96046e-08 0.6 -0.8
v 0.3 0.7 0.2
v 0.4 0.7 0.2
v 0.4 0.7 0.1
v 0.5 0.7 0.1
v 0.3 0.7 5.96046e-08
v 0.5 0.7 5.96046e-08
v -0.2 0.7 -0.7
v -0.1 0.7 -0.7
v 0.3 0.7 -0.7
v 0.4 0.7 -0.7
v -0.2 0.7 -0.8
v -0.1 0.7 -0.8
v 0.3 0.7 -0.8
v 0.4 0.7 -0.8
v -0.7 0.8 -0.5
v -0.6 0.8 -0.5
v -0.7 0.8 -0.6
v -0.6 0.8 -0.6
v -0.3 0.8 -0.6
v -0.2 0.8 -0.6
v 0.3 0.8 -0.6
v 0.4 0.8 -0.6
v -0.3 0.8 -0.7
v -0.2 0.8 -0.7
v 0.3 0.8 -0.7
v 0.4 0.8 -0.7
v 0.4 0.9 0.5
v 0.5 0.9 0.5
v 0.4 0.9 0.4
v 0.5 0.9 0.4
v -0.7 0.9 0.1
v -0.6 0.9 0.1
v -0.7 0.9 5.96046e-08
v -0.6 0.9 5.96046e-08
v -0.7 0.9 -0.0999999
v -0.6 0.9 -0.0999999
v -0.7 0.9 -0.2
v -0.6 0.9 -0.2
v 0.5 0.9 -0.2
v 0.6 0.9 -0.2
v 0.5 0.9 -0.3
v 0.6 0.9 -0.3
v -0.7 0.9 -0.4
v -0.6 0.9 -0.4
v -0.7 0.9 -0.5
v -0.6 0.9 -0.5
v -0.5 0.9 -0.5
v -0.6 0.9 -0.6
v -0.5 0.9 -0.6
v 0.2 0.9 -0.7
v 0.3 0.9 -0.7
v 0.2 0.9 -0.8
v 0.3 0.9 -0.8
v -0.7 1 5.96046e-08
v -0.6 1 5.96046e-08
v -0.7 1 -0.0999999
v -0.6 1 -0.0999999
v -0.6 1 -0.3
v -0.5 1 -0.3
v 0.5 1 -0.3
v 0.6 1 -0.3
v 0.5 1 -0.4
v 0.6 1 -0.4
v -0.6 1 -0.5
v -0.5 1 -0.5
v -0.4 1 -0.5
v -0.5 1 -0.6
v -0.4 1 -0.6
v -0.2 1 -0.6
v -0.1 1 -0.6
v 0.2 1 -0.6
v 0.3 1 -0.6
v -0.2 1 -0.7
v -0.1 1 -0.7
v 0.2 1 -0.7
v 0.3 1 -0.7
v 0.4 1.1 0.4
v 0.5 1.1 0.4
v 0.4 1.1 0.3
v 0.5 1.1 0.3
v 0.5 1.1 -0.2
v 0.6 1.1 -0.2
v 0.5 1.1 -0.3
v 0.6 1.1 -0.3
v -0.3 1.1 -0.6
v -0.2 1.1 -0.6
v -0.3 1.1 -0.7
v -0.2 1.1 -0.7
v -0.3 1.2 0.5
v -0.2 1.2 0.5
v 0.1 1.2 0.5
v 0.2 1.2 0.5
v -0.3 1.2 0.4
v -0.2 1.2 0.4
v 0.1 1.2 0.4
v 0.2 1.2 0.4
v 0.4 1.2 -0.3
v 0.5 1.2 -0.3
v -0.5 1.2 -0.4
v -0.4 1.2 -0.4
v 0.4 1.2 -0.4
v 0.5 1.2 -0.4
v -0.5 1.2 -0.5
v -0.4 1.2 -0.5
v -5.96046e-08 1.2 -0.5
v 0.1 1.2 -0.5
v -5.96046e-08 1.2 -0.6
v 0.1 1.2 -0.6
v -0.2 1.3 0.5
v -0.1 1.3 0.5
v -5.96046e-08 1.3 0.5
v 0.1 1.3 0.5
v -0.4 1.3 0.4
v -0.3 1.3 0.4
v -0.2 1.3 0.4
v -0.1 1.3 0.4
v -5.96046e-08 1.3 0.4
v 0.1 1.3 0.4
v 0.3 1.3 0.4
v 0.4 1.3 0.4
v -0.5 1.3 0.3
v -0.4 1.3 0.3
v -0.3 1.3 0.3
v 0.3 1.3 0.3
v 0.4 1.3 0.3
v 0.5 1.3 0.3
v -0.5 1.3 0.2
v -0.4 1.3 0.2
v 0.4 1.3 0.2
v 0.5 1.3 0.2
v 0.6 1.3 0.2
v -0.6 1.3 0.1
v -0.5 1.3 0.1
v -0.2 1.3 0.1
v -0.1 1.3 0.1
v 0.2 1.3 0.1
v 0.5 1.3 0.1
v 0.6 1.3 0.1
v -0.6 1.3 5.96046e-08
v -0.5 1.3 5.96046e-08
v 0.5 1.3 5.96046e-08
v 0.6 1.3 5.96046e-08
v -0.6 1.3 -0.0999999
v -0.5 1.3 -0.0999999
v -0.1 1.3 -0.0999999
v -5.96046e-08 1.3 -0.0999999
v 0.5 1.3 -0.0999999
v 0.6 1.3 -0.0999999
v -0.6 1.3 -0.2
v -0.5 1.3 -0.2
v -0.2 1.3 -0.2
v -0.1 1.3 -0.2
v -5.96046e-08 1.3 -0.2
v 0.2 1.3 -0.2
v 0.5 1.3 -0.2
v 0.6 1.3 -0.2
v -0.5 1.3 -0.3
v -0.4 1.3 -0.3
v -0.5 1.3 -0.4
v -0.4 1.3 -0.4
v 0.3 1.3 -0.4
v 0.4 1.3 -0.4
v -0.3 1.3 -0.5
v -0.2 1.3 -0.5
v -0.1 1.3 -0.5
v -5.96046e-08 1.3 -0.5
v 0.1 1.3 -0.5
v 0.2 1.3 -0.5
v 0.3 1.3 -0.5
v 0.4 1.3 -0.5
v -0.3 1.3 -0.6
v -0.2 1.3 -0.6
v -0.1 1.3 -0.6
v -5.96046e-08 1.3 -0.6
v 0.1 1.3 -0.6
v 0.2 1.3 -0.6
v 0.3 1.3 -0.6
v -0.1 1.3 -0.7
v -5.96046e-08 1.3 -0.7
v -0.1 1.4 0.5
v -5.96046e-08 1.4 0.5
v -0.3 1.4 0.4
v -0.2 1.4 0.4
v -0.1 1.4 0.4
v -5.96046e-08 1.4 0.4
v 0.2 1.4 0.4
v 0.3 1.4 0.4
v -0.4 1.4 0.3
v -0.3 1.4 0.3
v -0.2 1.4 0.3
v -0.1 1.4 0.3
v -5.96046e-08 1.4 0.3
v 0.2 1.4 0.3
v 0.3 1.4 0.3
v 0.4 1.4 0.3
v -0.5 1.4 0.2
v -0.4 1.4 0.2
v -0.3 1.4 0.2
v 0.3 1.4 0.2
v 0.4 1.4 0.2
v 0.5 1.4 0.2
v -0.4 1.4 0.1
v 0.4 1.4 0.1
v 0.5 1.4 0.1
v -0.6 1.4 5.96046e-08
v -0.5 1.4 5.96046e-08
v -0.4 1.4 5.96046e-08
v -0.6 1.4 -0.0999999
v -0.5 1.4 -0.0999999
v -0.4 1.4 -0.0999999
v -0.5 1.4 -0.2
v -0.4 1.4 -0.2
v 0.4 1.4 -0.2
v 0.5 1.4 -0.2
v -0.5 1.4 -0.3
v -0.4 1.4 -0.3
v -0.3 1.4 -0.3
v 0.3 1.4 -0.3
v 0.4 1.4 -0.3
v 0.5 1.4 -0.3
v -0.3 1.4 -0.4
v -0.2 1.4 -0.4
v -0.1 1.4 -0.4
v -5.96046e-08 1.4 -0.4
v 0.1 1.4 -0.4
v 0.2 1.4 -0.4
v 0.3 1.4 -0.4
v 0.4 1.4 -0.4
v -0.4 1.4 -0.5
v -0.2 1.4 -0.5
v -0.1 1.4 -0.5
v -5.96046e-08 1.4 -0.5
v 0.1 1.4 -0.5
v 0.2 1.4 -0.5
v 0.3 1.4 -0.5
v -0.2 1.4 -0.6
v -0.1 1.4 -0.6
v -5.96046e-08 1.5 0.4
v 0.1 1.5 0.4
v 0.2 1.5 0.4
v -0.3 1.5 0.3
v -0.2 1.5 0.3
v -5.96046e-08 1.5 0.3
v 0.2 1.5 0.3
v 0.3 1.5 0.3
v -0.4 1.5 0.2
v -0.3 1.5 0.2
v -0.2 1.5 0.2
v -5.96046e-08 1.5 0.2
v 0.1 1.5 0.2
v 0.2 1.5 0.2
v 0.3 1.5 0.2
v 0.4 1.5 0.2
v -0.4 1.5 0.1
v -0.3 1.5 0.1
v -0.2 1.5 0.1
v 0.2 1.5 0.1
v 0.3 1.5 0.1
v 0.4 1.5 0.1
v 0.5 1.5 0.1
v -0.4 1.5 5.96046e-08
v -0.3 1.5 5.96046e-08
v 0.3 1.5 5.96046e-08
v 0.4 1.5 5.96046e-08
v -0.4 1.5 -0.0999999
v -0.3 1.5 -0.0999999
v 0.3 1.5 -0.0999999
v 0.4 1.5 -0.0999999
v 0.5 1.5 -0.0999999
v -0.4 1.5 -0.2
v -0.3 1.5 -0.2
v -0.2 1.5 -0.2
v 0.3 1.5 -0.2
v 0.4 1.5 -0.2
v 0.5 1.5 -0.2
v -0.4 1.5 -0.3
v -0.3 1.5 -0.3
v -0.2 1.5 -0.3
v -0.1 1.5 -0.3
v 0.1 1.5 -0.3
v 0.2 1.5 -0.3
v 0.3 1.5 -0.3
v 0.4 1.5 -0.3
v -0.3 1.5 -0.4
v -0.2 1.5 -0.4
v -0.1 1.5 -0.4
v -5.96046e-08 1.5 -0.4
v 0.1 1.5 -0.4
v 0.2 1.5 -0.4
v 0.3 1.5 -0.4
v -0.2 1.5 -0.5
v -0.1 1.5 -0.5
v -5.96046e-08 1.5 -0.5
v 0.1 1.5 -0.5
v -0.2 1.6 0.3
v -5.96046e-08 1.6 0.3
v -0.2 1.6 0.2
v -5.96046e-08 1.6 0.2
v 0.1 1.6 0.2
v 0.2 1.6 0.2
v -0.3 1.6 0.1
v -0.2 1.6 0.1
v -5.96046e-08 1.6 0.1
v 0.1 1.6 0.1
v 0.2 1.6 0.1
v 0.3 1.6 0.1
v 0.4 1.6 0.1
v -0.3 1.6 5.96046e-08
v -0.2 1.6 5.96046e-08
v -5.96046e-08 1.6 5.96046e-08
v 0.1 1.6 5.96046e-08
v 0.3 1.6 5.96046e-08
v 0.4 1.6 5.96046e-08
v -0.2 1.6 -0.0999999
v -0.1 1.6 -0.0999999
v -5.96046e-08 1.6 -0.0999999
v 0.3 1.6 -0.0999999
v 0.4 1.6 -0.0999999
v -0.3 1.6 -0.2
v -0.2 1.6 -0.2
v -5.96046e-08 1.6 -0.2
v 0.1 1.6 -0.2
v 0.2 1.6 -0.2
v 0.3 1.6 -0.2
v 0.4 1.6 -0.2
v -0.2 1.6 -0.3
v -0.1 1.6 -0.3
v 0.1 1.6 -0.3
v 0.2 1.6 -0.3
v 0.3 1.6 -0.3
v -0.1 1.6 -0.4
v 0.1 1.6 -0.4

# faces
f 7/7/1 2/7/1 1/7/1
f 8/7/1 2/7/1 7/7/1
f 9/5/1 4/5/1 3/5/1
f 10/6/1 5/6/1 4/6/1
f 10/5/1 4/5/1 9/5/1
f 11/6/1 5/6/1 10/6/1
f 13/7/1 7/7/1 6/7/1
f 14/7/1 10/7/1 9/7/1
f 14/7/1 11/7/1 10/7/1
f 15/7/1 11/7/1 14/7/1
f 16/5/1 13/5/1 12/5/1
f 17/7/1 7/7/1 13/7/1
f 17/5/1 13/5/1 16/5/1
f 18/6/1 8/6/1 7/6/1
f 18/7/1 7/7/1 17/7/1
f 19/6/1 8/6/1 18/6/1
f 20/7/1 14/7/1 9/7/1
f 21/7/1 14/7/1 20/7/1
f 22/7/1 18/7/1 17/7/1
f 23/7/1 18/7/1 22/7/1
f 26/10/1 25/10/1 24/10/1
f 27/10/1 25/10/1 26/10/1
f 36/5/1 29/5/1 28/5/1
f 37/7/1 31/7/1 30/7/1
f 38/7/1 31/7/1 37/7/1
f 39/5/1 33/5/1 32/5/1
f 40/5/1 33/5/1 39/5/1
f 41/6/1 35/6/1 34/6/1
f 42/6/1 35/6/1 41/6/1
f 43/5/1 36/5/1 28/5/1
f 43/5/1 37/5/1 36/5/1
f 44/5/1 37/5/1 43/5/1
f 45/10/1 40/10/1 39/10/1
f 45/10/1 42/10/1 41/10/1
f 45/10/1 41/10/1 40/10/1
f 46/10/1 42/10/1 45/10/1
f 47/10/1 42/10/1 46/10/1
f 48/10/1 42/10/1 47/10/1
f 49/5/1 46/5/1 45/5/1
f 50/10/1 47/10/1 46/10/1
f 50/5/1 46/5/1 49/5/1
f 51/7/1 48/7/1 47/7/1
f 51/10/1 47/10/1 50/10/1
f 52/7/1 48/7/1 51/7/1
f 53/6/1 50/6/1 49/6/1
f 54/5/1 51/5/1 50/5/1
f 54/6/1 50/6/1 53/6/1
f 55/10/1 52/10/1 51/10/1
f 55/5/1 51/5/1 54/5/1
f 56/10/1 52/10/1 55/10/1
f 57/6/1 55/6/1 54/6/1
f 58/6/1 55/6/1 57/6/1
f 61/10/1 60/10/1 59/10/1
f 62/10/1 60/10/1 61/10/1
f 64/6/1 62/6/1 61/6/1
f 65/5/1 63/5/1 62/5/1
f 65/6/1 62/6/1 64/6/1
f 66/5/1 63/5/1 65/5/1
f 68/7/1 65/7/1 64/7/1
f 69/5/1 66/5/1 65/5/1
f 69/7/1 65/7/1 68/7/1
f 70/10/1 67/10/1 66/10/1
f 70/5/1 66/5/1 69/5/1
f 71/10/1 67/10/1 70/10/1
f 72/6/1 70/6/1 69/6/1
f 73/5/1 71/5/1 70/5/1
f 73/6/1 70/6/1 72/6/1
f 74/5/1 71/5/1 73/5/1
f 76/6/1 74/6/1 73/6/1
f 76/6/1 75/6/1 74/6/1
f 77/6/1 75/6/1 76/6/1
f 79/7/1 78/7/1 77/7/1
f 80/7/1 78/7/1 79/7/1
f 86/6/1 82/6/1 81/6/1
f 87/6/1 82/6/1 86/6/1
f 89/10/1 84/10/1 83/10/1
f 90/10/1 84/10/1 89/10/1
f 92/10/1 86/10/1 85/10/1
f 93/10/1 86/10/1 92/10/1
f 94/10/1 86/10/1 93/10/1
f 95/7/1 89/7/1 88/7/1
f 96/10/1 90/10/1 89/10/1
f 96/7/1 89/7/1 95/7/1
f 97/10/1 90/10/1 96/10/1
f 98/10/1 92/10/1 91/10/1
f 99/7/1 93/7/1 92/7/1
f 99/10/1 92/10/1 98/10/1
f 100/5/1 94/5/1 93/5/1
f 100/7/1 93/7/1 99/7/1
f 101/5/1 94/5/1 100/5/1
f 102/5/1 96/5/1 95/5/1
f 103/10/1 97/10/1 96/10/1
f 103/5/1 96/5/1 102/5/1
f 104/10/1 97/10/1 103/10/1
f 107/7/1 99/7/1 98/7/1
f 107/7/1 100/7/1 99/7/1
f 108/7/1 100/7/1 107/7/1
f 109/7/1 100/7/1 108/7/1
f 110/10/1 105/10/1 104/10/1
f 110/10/1 104/10/1 103/10/1
f 111/10/1 105/10/1 110/10/1
f 112/5/1 107/5/1 106/5/1
f 113/7/1 108/7/1 107/7/1
f 113/5/1 107/5/1 112/5/1
f 114/7/1 108/7/1 113/7/1
f 119/6/1 116/6/1 115/6/1
f 120/6/1 116/6/1 119/6/1
f 121/5/1 118/5/1 117/5/1
f 122/5/1 118/5/1 121/5/1
f 125/5/1 123/5/1 122/5/1
f 126/5/1 123/5/1 125/5/1
f 128/5/1 125/5/1 124/5/1
f 129/5/1 125/5/1 128/5/1
f 130/5/1 127/5/1 126/5/1
f 131/5/1 127/5/1 130/5/1
f 135/10/1 133/10/1 132/10/1
f 136/10/1 133/10/1 135/10/1
f 137/5/1 135/5/1 134/5/1
f 138/5/1 135/5/1 137/5/1
f 141/7/1 138/7/1 137/7/1
f 142/7/1 138/7/1 141/7/1
f 145/7/1 140/7/1 139/7/1
f 146/7/1 143/7/1 142/7/1
f 147/7/1 143/7/1 146/7/1
f 152/7/1 145/7/1 144/7/1
f 153/7/1 140/7/1 145/7/1
f 153/7/1 145/7/1 152/7/1
f 154/7/1 148/7/1 147/7/1
f 155/5/1 149/5/1 148/5/1
f 155/7/1 148/7/1 154/7/1
f 156/6/1 150/6/1 149/6/1
f 156/5/1 149/5/1 155/5/1
f 157/5/1 151/5/1 150/5/1
f 157/6/1 150/6/1 156/6/1
f 158/10/1 152/10/1 151/10/1
f 158/5/1 151/5/1 157/5/1
f 159/10/1 152/10/1 158/10/1
f 162/4/1 161/4/1 160/4/1
f 163/4/1 161/4/1 162/4/1
f 166/4/1 161/4/1 163/4/1
f 167/4/1 161/4/1 166/4/1
f 168/4/1 161/4/1 167/4/1
f 170/5/1 165/5/1 164/5/1
f 171/5/1 165/5/1 170/5/1
f 172/12/1 168/12/1 167/12/1
f 173/12/1 168/12/1 172/12/1
f 174/12/1 168/12/1 173/12/1
f 175/5/1 170/5/1 169/5/1
f 176/7/1 171/7/1 170/7/1
f 176/5/1 170/5/1 175/5/1
f 177/7/1 171/7/1 176/7/1
f 179/2/1 174/2/1 173/2/1
f 180/7/1 176/7/1 175/7/1
f 181/7/1 176/7/1 180/7/1
f 182/5/1 181/5/1 180/5/1
f 183/5/1 181/5/1 182/5/1
f 184/2/1 179/2/1 178/2/1
f 184/2/1 174/2/1 179/2/1
f 189/2/1 184/2/1 178/2/1
f 190/6/1 186/6/1 185/6/1
f 191/6/1 186/6/1 190/6/1
f 193/10/1 188/10/1 187/10/1
f 194/10/1 188/10/1 193/10/1
f 195/10/1 188/10/1 194/10/1
f 196/2/1 184/2/1 189/2/1
f 197/2/1 184/2/1 196/2/1
f 198/10/1 192/10/1 191/10/1
f 198/10/1 191/10/1 190/10/1
f 199/10/1 192/10/1 198/10/1
f 200/10/1 192/10/1 199/10/1
f 201/5/1 194/5/1 193/5/1
f 202/5/1 194/5/1 201/5/1
f 203/5/1 199/5/1 198/5/1
f 204/5/1 199/5/1 203/5/1
f 207/10/1 204/10/1 203/10/1
f 208/10/1 204/10/1 207/10/1
f 209/7/1 206/7/1 205/7/1
f 210/7/1 206/7/1 209/7/1
f 214/7/1 211/7/1 210/7/1
f 215/7/1 211/7/1 214/7/1
f 220/7/1 213/7/1 212/7/1
f 221/7/1 213/7/1 220/7/1
f 222/10/1 217/10/1 216/10/1
f 223/5/1 219/5/1 218/5/1
f 223/10/1 217/10/1 222/10/1
f 223/5/1 218/5/1 217/5/1
f 224/5/1 219/5/1 223/5/1
f 227/12/1 226/12/1 225/12/1
f 228/12/1 226/12/1 227/12/1
f 231/5/1 230/5/1 229/5/1
f 232/5/1 230/5/1 231/5/1
f 236/6/1 234/6/1 233/6/1
f 237/6/1 234/6/1 236/6/1
f 238/6/1 236/6/1 235/6/1
f 239/6/1 236/6/1 238/6/1
f 242/6/1 241/6/1 240/6/1
f 243/6/1 241/6/1 242/6/1
f 244/7/1 243/7/1 242/7/1
f 245/7/1 243/7/1 244/7/1
f 248/5/1 247/5/1 246/5/1
f 249/5/1 247/5/1 248/5/1
f 253/5/1 251/5/1 250/5/1
f 254/5/1 251/5/1 253/5/1
f 260/10/1 253/10/1 252/10/1
f 261/10/1 253/10/1 260/10/1
f 262/6/1 256/6/1 255/6/1
f 263/10/1 257/10/1 256/10/1
f 263/6/1 256/6/1 262/6/1
f 264/10/1 257/10/1 263/10/1
f 265/5/1 259/5/1 258/5/1
f 266/5/1 259/5/1 265/5/1
f 269/10/1 268/10/1 267/10/1
f 270/10/1 268/10/1 269/10/1
f 273/5/1 272/5/1 271/5/1
f 274/5/1 272/5/1 273/5/1
f 277/6/1 274/6/1 273/6/1
f 278/6/1 274/6/1 277/6/1
f 279/5/1 276/5/1 275/5/1
f 280/5/1 276/5/1 279/5/1
f 283/5/1 282/5/1 281/5/1
f 284/5/1 282/5/1 283/5/1
f 289/5/1 286/5/1 285/5/1
f 290/5/1 286/5/1 289/5/1
f 291/5/1 288/5/1 287/5/1
f 292/5/1 288/5/1 291/5/1
f 295/5/1 294/5/1 293/5/1
f 296/5/1 294/5/1 295/5/1
f 299/7/1 298/7/1 297/7/1
f 300/7/1 298/7/1 299/7/1
f 303/5/1 302/5/1 301/5/1
f 307/2/1 306/2/1 305/2/1
f 308/2/1 306/2/1 307/2/1
f 309/5/1 303/5/1 301/5/1
f 309/5/1 304/5/1 303/5/1
f 310/5/1 304/5/1 309/5/1
f 311/5/1 309/5/1 301/5/1
f 312/6/1 310/6/1 309/6/1
f 312/5/1 309/5/1 311/5/1
f 313/6/1 310/6/1 312/6/1
f 314/6/1 312/6/1 311/6/1
f 315/6/1 312/6/1 314/6/1
f 318/5/1 317/5/1 316/5/1
f 319/5/1 317/5/1 318/5/1
f 322/10/1 321/10/1 320/10/1
f 323/10/1 321/10/1 322/10/1
f 324/10/1 321/10/1 323/10/1
f 325/6/1 323/6/1 322/6/1
f 326/5/1 324/5/1 323/5/1
f 326/6/1 323/6/1 325/6/1
f 327/7/1 326/7/1 325/7/1
f 328/5/1 324/5/1 326/5/1
f 328/7/1 326/7/1 327/7/1
f 329/5/1 324/5/1 328/5/1
f 330/6/1 328/6/1 327/6/1
f 331/5/1 329/5/1 328/5/1
f 331/6/1 328/6/1 330/6/1
f 332/5/1 329/5/1 331/5/1
f 335/7/1 332/7/1 331/7/1
f 336/7/1 332/7/1 335/7/1
f 337/6/1 336/6/1 335/6/1
f 338/6/1 336/6/1 337/6/1
f 339/5/1 334/5/1 333/5/1
f 340/5/1 334/5/1 339/5/1
f 343/5/1 342/5/1 341/5/1
f 344/5/1 342/5/1 343/5/1
f 347/10/1 344/10/1 343/10/1
f 348/10/1 344/10/1 347/10/1
f 349/10/1 346/10/1 345/10/1
f 350/10/1 346/10/1 349/10/1
f 353/10/1 352/10/1 351/10/1
f 354/10/1 352/10/1 353/10/1
f 357/6/1 356/6/1 355/6/1
f 358/6/1 356/6/1 357/6/1
f 359/5/1 358/5/1 357/5/1
f 360/5/1 358/5/1 359/5/1
f 362/7/1 360/7/1 359/7/1
f 363/5/1 361/5/1 360/5/1
f 363/7/1 360/7/1 362/7/1
f 364/5/1 361/5/1 363/5/1
f 369/5/1 366/5/1 365/5/1
f 372/7/1 368/7/1 367/7/1
f 373/7/1 368/7/1 372/7/1
f 375/5/1 372/5/1 371/5/1
f 376/5/1 372/5/1 375/5/1
f 377/5/1 374/5/1 373/5/1
f 378/5/1 374/5/1 377/5/1
f 379/7/1 378/7/1 377/7/1
f 380/7/1 378/7/1 379/7/1
f 381/5/1 370/5/1 369/5/1
f 381/5/1 369/5/1 365/5/1
f 382/5/1 370/5/1 381/5/1
f 383/5/1 380/5/1 379/5/1
f 384/5/1 380/5/1 383/5/1
f 385/5/1 381/5/1 365/5/1
f 386/10/1 382/10/1 381/10/1
f 386/5/1 381/5/1 385/5/1
f 387/10/1 382/10/1 386/10/1
f 391/6/1 389/6/1 388/6/1
f 392/6/1 389/6/1 391/6/1
f 395/5/1 391/5/1 390/5/1
f 396/7/1 392/7/1 391/7/1
f 396/5/1 391/5/1 395/5/1
f 397/7/1 392/7/1 396/7/1
f 398/5/1 394/5/1 393/5/1
f 399/5/1 394/5/1 398/5/1
f 400/10/1 396/10/1 395/10/1
f 400/10/1 397/10/1 396/10/1
f 401/10/1 397/10/1 400/10/1
f 402/7/2 403/7/2 407/7/2
f 407/7/2 403/7/2 408/7/2
f 404/5/2 405/5/2 409/5/2
f 409/5/2 405/5/2 410/5/2
f 406/7/2 407/7/2 411/7/2
f 411/7/2 407/7/2 412/7/2
f 413/5/2 414/5/2 418/5/2
f 418/5/2 414/5/2 419/5/2
f 415/6/2 416/6/2 422/6/2
f 422/6/2 416/6/2 423/6/2
f 417/5/2 418/5/2 424/5/2
f 424/5/2 418/5/2 425/5/2
f 420/6/2 421/6/2 426/6/2
f 422/5/2 423/5/2 427/5/2
f 426/6/2 421/6/2 427/6/2
f 421/5/2 422/5/2 427/5/2
f 427/5/2 423/5/2 428/5/2
f 428/5/2 423/5/2 429/5/2
f 426/5/2 427/5/2 430/5/2
f 427/5/2 428/5/2 430/5/2
f 430/5/2 428/5/2 431/5/2
f 428/6/2 429/6/2 432/6/2
f 431/5/2 428/5/2 432/5/2
f 432/6/2 429/6/2 433/6/2
f 432/10/2 433/10/2 434/10/2
f 434/10/2 433/10/2 435/10/2
f 436/10/2 437/10/2 438/10/2
f 438/10/2 437/10/2 439/10/2
f 439/5/2 440/5/2 441/5/2
f 441/5/2 440/5/2 442/5/2
f 441/5/2 442/5/2 444/5/2
f 442/10/2 443/10/2 445/10/2
f 444/5/2 442/5/2 445/5/2
f 445/10/2 443/10/2 446/10/2
f 447/6/2 448/6/2 450/6/2
f 449/5/2 450/5/2 451/5/2
f 450/6/2 448/6/2 452/6/2
f 451/5/2 450/5/2 452/5/2
f 452/6/2 448/6/2 456/6/2
f 456/6/2 448/6/2 457/6/2
f 453/10/2 454/10/2 458/10/2
f 454/5/2 455/5/2 459/5/2
f 458/10/2 454/10/2 459/10/2
f 459/5/2 455/5/2 460/5/2
f 461/10/2 462/10/2 464/10/2
f 464/10/2 462/10/2 465/10/2
f 463/10/2 464/10/2 466/10/2
f 466/10/2 464/10/2 467/10/2
f 466/5/2 467/5/2 468/5/2
f 468/5/2 467/5/2 469/5/2
f 468/6/2 469/6/2 472/6/2
f 469/5/2 470/5/2 473/5/2
f 472/6/2 469/6/2 473/6/2
f 470/10/2 471/10/2 474/10/2
f 473/5/2 470/5/2 474/5/2
f 474/10/2 471/10/2 475/10/2
f 474/7/2 475/7/2 476/7/2
f 476/7/2 475/7/2 477/7/2
f 478/5/2 479/5/2 482/5/2
f 482/5/2 479/5/2 483/5/2
f 480/10/2 481/10/2 484/10/2
f 484/10/2 481/10/2 485/10/2
f 482/10/2 483/10/2 486/10/2
f 486/10/2 483/10/2 487/10/2
f 488/5/2 489/5/2 490/5/2
f 490/5/2 489/5/2 491/5/2
f 490/7/2 491/7/2 494/7/2
f 494/7/2 491/7/2 495/7/2
f 492/2/2 493/2/2 496/2/2
f 496/2/2 493/2/2 497/2/2
f 498/5/2 499/5/2 502/5/2
f 502/5/2 499/5/2 503/5/2
f 500/10/2 501/10/2 506/10/2
f 506/10/2 501/10/2 507/10/2
f 504/10/2 505/10/2 508/10/2
f 508/10/2 505/10/2 509/10/2
f 510/5/2 511/5/2 512/5/2
f 512/5/2 511/5/2 513/5/2
f 514/5/2 515/5/2 516/5/2
f 516/5/2 515/5/2 517/5/2
f 518/6/2 519/6/2 520/6/2
f 520/6/2 519/6/2 521/6/2
f 522/5/2 523/5/2 525/5/2
f 523/6/2 524/6/2 526/6/2
f 525/5/2 523/5/2 526/5/2
f 526/6/2 524/6/2 527/6/2
f 525/7/2 526/7/2 528/7/2
f 528/7/2 526/7/2 529/7/2
f 528/6/2 529/6/2 531/6/2
f 531/6/2 529/6/2 532/6/2
f 530/5/2 531/5/2 537/5/2
f 531/7/2 532/7/2 538/7/2
f 537/5/2 531/5/2 538/5/2
f 538/7/2 532/7/2 539/7/2
f 533/10/2 534/10/2 540/10/2
f 540/10/2 534/10/2 541/10/2
f 535/5/2 536/5/2 542/5/2
f 542/5/2 536/5/2 543/5/2
f 544/5/2 545/5/2 547/5/2
f 547/5/2 545/5/2 548/5/2
f 546/10/2 547/10/2 549/10/2
f 549/10/2 547/10/2 550/10/2
f 551/5/2 552/5/2 553/5/2
f 553/5/2 552/5/2 554/5/2
f 555/10/2 556/10/2 557/10/2
f 557/10/2 556/10/2 558/10/2
f 558/5/2 559/5/2 561/5/2
f 561/5/2 559/5/2 562/5/2
f 560/5/2 561/5/2 565/5/2
f 561/6/2 562/6/2 566/6/2
f 565/5/2 561/5/2 566/5/2
f 566/6/2 562/6/2 567/6/2
f 563/5/2 564/5/2 568/5/2
f 568/5/2 564/5/2 569/5/2
f 570/6/2 571/6/2 572/6/2
f 572/6/2 571/6/2 573/6/2
f 574/10/2 575/10/2 576/10/2
f 576/10/2 575/10/2 577/10/2
f 578/5/2 579/5/2 580/5/2
f 580/5/2 579/5/2 581/5/2
f 582/5/2 583/5/2 585/5/2
f 585/5/2 583/5/2 586/5/2
f 584/5/2 585/5/2 587/5/2
f 587/5/2 585/5/2 588/5/2
f 589/12/2 590/12/2 591/12/2
f 591/12/2 590/12/2 592/12/2
f 593/10/2 594/10/2 595/10/2
f 595/10/2 594/10/2 596/10/2
f 597/6/2 598/6/2 599/6/2
f 599/6/2 598/6/2 600/6/2
f 601/6/2 602/6/2 603/6/2
f 603/6/2 602/6/2 604/6/2
f 605/4/2 606/4/2 607/4/2
f 607/4/2 606/4/2 608/4/2
f 608/4/2 606/4/2 609/4/2
f 609/4/2 606/4/2 610/4/2
f 610/4/2 606/4/2 611/4/2
f 610/12/2 611/12/2 612/12/2
f 612/12/2 611/12/2 613/12/2
f 612/2/2 613/2/2 615/2/2
f 614/2/2 615/2/2 617/2/2
f 618/6/2 619/6/2 621/6/2
f 620/5/2 621/5/2 623/5/2
f 621/6/2 619/6/2 624/6/2
f 623/5/2 621/5/2 624/5/2
f 624/6/2 619/6/2 625/6/2
f 622/5/2 623/5/2 626/5/2
f 623/6/2 624/6/2 627/6/2
f 626/5/2 623/5/2 627/5/2
f 627/6/2 624/6/2 628/6/2
f 616/2/2 617/2/2 629/2/2
f 617/2/2 615/2/2 630/2/2
f 629/2/2 617/2/2 630/2/2
f 615/2/2 613/2/2 630/2/2
f 626/10/2 627/10/2 631/10/2
f 631/10/2 627/10/2 632/10/2
f 631/6/2 632/6/2 633/6/2
f 633/6/2 632/6/2 637/6/2
f 637/6/2 632/6/2 638/6/2
f 634/5/2 635/5/2 639/5/2
f 639/5/2 635/5/2 640/5/2
f 636/10/2 637/10/2 643/10/2
f 643/10/2 637/10/2 644/10/2
f 640/10/2 641/10/2 645/10/2
f 645/10/2 641/10/2 646/10/2
f 642/5/2 643/5/2 650/5/2
f 650/5/2 643/5/2 651/5/2
f 647/10/2 648/10/2 652/10/2
f 652/10/2 648/10/2 653/10/2
f 649/10/2 650/10/2 654/10/2
f 654/10/2 650/10/2 655/10/2
f 656/10/2 657/10/2 658/10/2
f 658/10/2 657/10/2 659/10/2
f 660/6/2 661/6/2 664/6/2
f 664/6/2 661/6/2 665/6/2
f 662/5/2 663/5/2 667/5/2
f 667/5/2 663/5/2 668/5/2
f 665/7/2 666/7/2 672/7/2
f 672/7/2 666/7/2 673/7/2
f 668/6/2 669/6/2 674/6/2
f 674/6/2 669/6/2 675/6/2
f 670/5/2 671/5/2 676/5/2
f 676/5/2 671/5/2 677/5/2
f 672/6/2 673/6/2 679/6/2
f 679/6/2 673/6/2 680/6/2
f 674/5/2 675/5/2 682/5/2
f 682/5/2 675/5/2 683/5/2
f 670/5/2 676/5/2 684/5/2
f 676/7/2 677/7/2 685/7/2
f 684/5/2 676/5/2 685/5/2
f 677/6/2 678/6/2 686/6/2
f 685/7/2 677/7/2 686/7/2
f 680/5/2 681/5/2 687/5/2
f 687/5/2 681/5/2 688/5/2
f 686/6/2 678/6/2 689/6/2
f 685/5/2 686/5/2 689/5/2
f 689/6/2 678/6/2 690/6/2
f 685/5/2 689/5/2 691/5/2
f 691/5/2 689/5/2 692/5/2
f 693/10/2 694/10/2 697/10/2
f 697/10/2 694/10/2 698/10/2
f 695/10/2 696/10/2 699/10/2
f 699/10/2 696/10/2 700/10/2
f 697/7/2 698/7/2 702/7/2
f 702/7/2 698/7/2 703/7/2
f 699/7/2 700/7/2 704/7/2
f 704/7/2 700/7/2 705/7/2
f 701/10/2 702/10/2 707/10/2
f 702/5/2 703/5/2 708/5/2
f 707/10/2 702/10/2 708/10/2
f 708/5/2 703/5/2 709/5/2
f 705/10/2 706/10/2 710/10/2
f 710/10/2 706/10/2 711/10/2
f 707/5/2 708/5/2 714/5/2
f 714/5/2 708/5/2 715/5/2
f 711/6/2 712/6/2 716/6/2
f 716/6/2 712/6/2 717/6/2
f 713/7/2 714/7/2 720/7/2
f 720/7/2 714/7/2 721/7/2
f 717/5/2 718/5/2 722/5/2
f 722/5/2 718/5/2 723/5/2
f 719/7/2 720/7/2 724/7/2
f 724/7/2 720/7/2 725/7/2
f 726/10/2 727/10/2 728/10/2
f 728/10/2 727/10/2 729/10/2
f 729/5/2 730/5/2 733/5/2
f 730/10/2 731/10/2 734/10/2
f 733/5/2 730/5/2 734/5/2
f 734/10/2 731/10/2 735/10/2
f 732/6/2 733/6/2 736/6/2
f 733/7/2 734/7/2 737/7/2
f 736/6/2 733/6/2 737/6/2
f 734/5/2 735/5/2 738/5/2
f 737/7/2 734/7/2 738/7/2
f 738/5/2 735/5/2 739/5/2
f 736/5/2 737/5/2 741/5/2
f 741/5/2 737/5/2 742/5/2
f 738/6/2 739/6/2 743/6/2
f 739/5/2 740/5/2 744/5/2
f 743/6/2 739/6/2 744/6/2
f 744/5/2 740/5/2 745/5/2
f 741/7/2 742/7/2 747/7/2
f 742/5/2 743/5/2 748/5/2
f 747/7/2 742/7/2 748/7/2
f 748/5/2 743/5/2 749/5/2
f 745/5/2 746/5/2 750/5/2
f 744/7/2 745/7/2 750/7/2
f 750/5/2 746/5/2 751/5/2
f 744/7/2 750/7/2 752/7/2
f 750/6/2 751/6/2 753/6/2
f 752/7/2 750/7/2 753/7/2
f 753/6/2 751/6/2 754/6/2
f 753/5/2 754/5/2 759/5/2
f 759/5/2 754/5/2 760/5/2
f 755/5/2 756/5/2 761/5/2
f 761/5/2 756/5/2 762/5/2
f 757/7/2 758/7/2 765/7/2
f 765/7/2 758/7/2 766/7/2
f 762/5/2 763/5/2 768/5/2
f 764/5/2 765/5/2 769/5/2
f 765/7/2 766/7/2 770/7/2
f 769/5/2 765/5/2 770/5/2
f 766/5/2 767/5/2 771/5/2
f 770/7/2 766/7/2 771/7/2
f 771/5/2 767/5/2 772/5/2
f 768/5/2 763/5/2 774/5/2
f 774/5/2 763/5/2 775/5/2
f 770/6/2 771/6/2 776/6/2
f 771/7/2 772/7/2 777/7/2
f 776/6/2 771/6/2 777/6/2
f 777/7/2 772/7/2 778/7/2
f 773/5/2 774/5/2 779/5/2
f 779/5/2 774/5/2 780/5/2
f 776/7/2 777/7/2 782/7/2
f 777/5/2 778/5/2 783/5/2
f 782/7/2 777/7/2 783/7/2
f 783/5/2 778/5/2 784/5/2
f 780/10/2 781/10/2 788/10/2
f 788/10/2 781/10/2 789/10/2
f 783/10/2 784/10/2 790/10/2
f 790/10/2 784/10/2 791/10/2
f 785/10/2 786/10/2 792/10/2
f 792/10/2 786/10/2 793/10/2
f 788/5/2 789/5/2 794/5/2
f 787/5/2 788/5/2 794/5/2
f 794/5/2 789/5/2 795/5/2
f 790/5/2 791/5/2 796/5/2
f 796/5/2 791/5/2 797/5/2
f 792/5/2 793/5/2 798/5/2
f 798/5/2 793/5/2 799/5/2
f 787/5/2 794/5/2 801/5/2
f 801/5/2 794/5/2 802/5/2
f 799/5/2 800/5/2 803/5/2
f 797/5/2 798/5/2 803/5/2
f 798/5/2 799/5/2 803/5/2
f 803/5/2 800/5/2 804/5/2
f 801/10/2 802/10/2 805/10/2
f 800/7/2 801/7/2 805/7/2
f 805/10/2 802/10/2 806/10/2
f 804/5/2 800/5/2 807/5/2
f 800/7/2 805/7/2 808/7/2
f 807/5/2 800/5/2 808/5/2
f 808/7/2 805/7/2 809/7/2
f 810/10/2 811/10/2 812/10/2
f 812/10/2 811/10/2 813/10/2
f 814/6/2 815/6/2 817/6/2
f 815/7/2 816/7/2 817/7/2
f 817/7/2 816/7/2 818/7/2
f 814/6/2 817/6/2 820/6/2
f 817/5/2 818/5/2 821/5/2
f 820/6/2 817/6/2 821/6/2
f 821/5/2 818/5/2 822/5/2
f 819/5/2 820/5/2 826/5/2
f 820/7/2 821/7/2 827/7/2
f 826/5/2 820/5/2 827/5/2
f 827/7/2 821/7/2 828/7/2
f 822/5/2 823/5/2 829/5/2
f 829/5/2 823/5/2 830/5/2
f 824/5/2 825/5/2 831/5/2
f 831/5/2 825/5/2 832/5/2
f 827/10/2 828/10/2 833/10/2
f 826/10/2 827/10/2 833/10/2
f 828/10/2 829/10/2 833/10/2
f 833/10/2 829/10/2 834/10/2
f 834/10/2 829/10/2 835/10/2
f 831/10/2 832/10/2 836/10/2
f 836/10/2 832/10/2 837/10/2
f 826/10/2 833/10/2 838/10/2
f 833/7/2 834/7/2 839/7/2
f 838/10/2 833/10/2 839/10/2
f 836/5/2 837/5/2 840/5/2
f 840/5/2 837/5/2 841/5/2
f 838/5/2 839/5/2 842/5/2
f 839/7/2 834/7/2 843/7/2
f 842/5/2 839/5/2 843/5/2
f 843/7/2 834/7/2 844/7/2
f 849/10/3 846/10/3 845/10/3
f 850/6/3 847/6/3 846/6/3
f 850/10/3 846/10/3 849/10/3
f 851/7/3 848/7/3 847/7/3
f 851/6/3 847/6/3 850/6/3
f 852/7/3 848/7/3 851/7/3
f 854/10/3 851/10/3 850/10/3
f 855/5/3 852/5/3 851/5/3
f 855/10/3 851/10/3 854/10/3
f 856/6/3 853/6/3 852/6/3
f 856/5/3 852/5/3 855/5/3
f 857/6/3 853/6/3 856/6/3
f 861/5/3 860/5/3 859/5/3
f 863/10/3 859/10/3 858/10/3
f 864/5/3 862/5/3 861/5/3
f 864/10/3 859/10/3 863/10/3
f 864/5/3 861/5/3 859/5/3
f 865/5/3 862/5/3 864/5/3
f 867/7/3 865/7/3 864/7/3
f 868/5/3 866/5/3 865/5/3
f 868/7/3 865/7/3 867/7/3
f 869/5/3 866/5/3 868/5/3
f 870/7/3 867/7/3 864/7/3
f 871/5/3 868/5/3 867/5/3
f 871/7/3 867/7/3 870/7/3
f 872/5/3 868/5/3 871/5/3
f 873/10/3 871/10/3 870/10/3
f 874/10/3 871/10/3 873/10/3
f 883/10/3 876/10/3 875/10/3
f 884/10/3 876/10/3 883/10/3
f 885/6/3 878/6/3 877/6/3
f 886/5/3 879/5/3 878/5/3
f 886/6/3 878/6/3 885/6/3
f 887/7/3 880/7/3 879/7/3
f 887/5/3 879/5/3 886/5/3
f 888/7/3 880/7/3 887/7/3
f 889/5/3 882/5/3 881/5/3
f 890/5/3 882/5/3 889/5/3
f 893/10/3 892/10/3 891/10/3
f 894/10/3 892/10/3 893/10/3
f 899/6/3 896/6/3 895/6/3
f 900/6/3 896/6/3 899/6/3
f 904/10/3 898/10/3 897/10/3
f 905/10/3 898/10/3 904/10/3
f 906/5/3 902/5/3 901/5/3
f 907/7/3 903/7/3 902/7/3
f 907/5/3 902/5/3 906/5/3
f 908/7/3 903/7/3 907/7/3
f 910/7/3 909/7/3 908/7/3
f 910/7/3 908/7/3 907/7/3
f 911/7/3 909/7/3 910/7/3
f 912/7/3 909/7/3 911/7/3
f 915/10/3 912/10/3 911/10/3
f 916/10/3 912/10/3 915/10/3
f 920/10/3 914/10/3 913/10/3
f 921/10/3 914/10/3 920/10/3
f 923/7/3 918/7/3 917/7/3
f 924/5/3 919/5/3 918/5/3
f 924/7/3 918/7/3 923/7/3
f 925/5/3 919/5/3 924/5/3
f 927/7/3 923/7/3 922/7/3
f 928/6/3 925/6/3 924/6/3
f 928/6/3 924/6/3 923/6/3
f 928/7/3 923/7/3 927/7/3
f 929/6/3 925/6/3 928/6/3
f 930/6/3 925/6/3 929/6/3
f 938/10/3 927/10/3 926/10/3
f 939/5/3 928/5/3 927/5/3
f 939/5/3 929/5/3 928/5/3
f 939/10/3 927/10/3 938/10/3
f 940/5/3 929/5/3 939/5/3
f 941/5/3 929/5/3 940/5/3
f 942/10/3 932/10/3 931/10/3
f 943/6/3 933/6/3 932/6/3
f 943/10/3 932/10/3 942/10/3
f 944/7/3 934/7/3 933/7/3
f 944/6/3 933/6/3 943/6/3
f 945/6/3 935/6/3 934/6/3
f 945/7/3 934/7/3 944/7/3
f 946/6/3 935/6/3 945/6/3
f 948/5/3 937/5/3 936/5/3
f 949/5/3 937/5/3 948/5/3
f 950/10/3 938/10/3 937/10/3
f 950/5/3 937/5/3 949/5/3
f 950/10/3 939/10/3 938/10/3
f 951/10/3 939/10/3 950/10/3
f 952/7/3 940/7/3 939/7/3
f 952/10/3 939/10/3 951/10/3
f 953/7/3 940/7/3 952/7/3
f 955/5/3 944/5/3 943/5/3
f 956/5/3 944/5/3 955/5/3
f 957/7/3 948/7/3 947/7/3
f 958/7/3 948/7/3 957/7/3
f 959/6/3 950/6/3 949/6/3
f 960/7/3 951/7/3 950/7/3
f 960/6/3 950/6/3 959/6/3
f 961/7/3 951/7/3 960/7/3
f 962/10/3 955/10/3 954/10/3
f 963/10/3 955/10/3 962/10/3
f 969/6/3 965/6/3 964/6/3
f 970/6/3 965/6/3 969/6/3
f 972/7/3 967/7/3 966/7/3
f 973/5/3 968/5/3 967/5/3
f 973/7/3 967/7/3 972/7/3
f 974/5/3 968/5/3 973/5/3
f 976/7/3 970/7/3 969/7/3
f 977/7/3 970/7/3 976/7/3
f 978/10/3 972/10/3 971/10/3
f 979/10/3 972/10/3 978/10/3
f 980/7/3 975/7/3 974/7/3
f 981/7/3 975/7/3 980/7/3
f 983/7/3 982/7/3 981/7/3
f 984/7/3 982/7/3 983/7/3
f 986/10/3 984/10/3 983/10/3
f 987/10/3 984/10/3 986/10/3
f 988/6/3 985/6/3 984/6/3
f 988/10/3 984/10/3 987/10/3
f 989/6/3 985/6/3 988/6/3
f 996/10/3 991/10/3 990/10/3
f 997/10/3 991/10/3 996/10/3
f 999/7/3 993/7/3 992/7/3
f 1000/6/3 994/6/3 993/6/3
f 1000/7/3 993/7/3 999/7/3
f 1001/6/3 994/6/3 1000/6/3
f 1004/10/3 996/10/3 995/10/3
f 1005/10/3 996/10/3 1004/10/3
f 1006/6/3 999/6/3 998/6/3
f 1007/6/3 999/6/3 1006/6/3
f 1008/10/3 1003/10/3 1002/10/3
f 1009/5/3 1004/5/3 1003/5/3
f 1009/10/3 1003/10/3 1008/10/3
f 1010/5/3 1004/5/3 1009/5/3
f 1017/10/3 1012/10/3 1011/10/3
f 1018/10/3 1012/10/3 1017/10/3
f 1019/10/3 1014/10/3 1013/10/3
f 1020/10/3 1014/10/3 1019/10/3
f 1025/5/3 1016/5/3 1015/5/3
f 1026/5/3 1016/5/3 1025/5/3
f 1029/7/3 1021/7/3 1020/7/3
f 1030/7/3 1021/7/3 1029/7/3
f 1031/2/3 1028/2/3 1027/2/3
f 1031/2/3 1025/2/3 1024/2/3
f 1031/2/3 1026/2/3 1025/2/3
f 1031/2/3 1027/2/3 1026/2/3
f 1032/2/3 1028/2/3 1031/2/3
f 1033/2/3 1028/2/3 1032/2/3
f 1034/2/3 1028/2/3 1033/2/3
f 1035/12/3 1024/12/3 1023/12/3
f 1035/4/3 1023/4/3 1022/4/3
f 1036/2/3 1031/2/3 1024/2/3
f 1036/12/3 1024/12/3 1035/12/3
f 1037/2/3 1031/2/3 1036/2/3
f 1038/12/3 1034/12/3 1033/12/3
f 1038/2/3 1033/2/3 1032/2/3
f 1039/2/3 1028/2/3 1034/2/3
f 1039/12/3 1034/12/3 1038/12/3
f 1042/4/3 1035/4/3 1022/4/3
f 1042/4/3 1036/4/3 1035/4/3
f 1043/12/3 1037/12/3 1036/12/3
f 1043/4/3 1036/4/3 1042/4/3
f 1044/2/3 1031/2/3 1037/2/3
f 1044/12/3 1037/12/3 1043/12/3
f 1045/2/3 1038/2/3 1032/2/3
f 1045/2/3 1039/2/3 1038/2/3
f 1046/2/3 1028/2/3 1039/2/3
f 1046/2/3 1039/2/3 1045/2/3
f 1047/10/3 1041/10/3 1040/10/3
f 1048/10/3 1041/10/3 1047/10/3
f 1049/2/3 1031/2/3 1044/2/3
f 1049/2/3 1044/2/3 1043/2/3
f 1050/2/3 1045/2/3 1032/2/3
f 1051/12/3 1046/12/3 1045/12/3
f 1051/2/3 1045/2/3 1050/2/3
f 1052/2/3 1028/2/3 1046/2/3
f 1052/12/3 1046/12/3 1051/12/3
f 1053/6/3 1048/6/3 1047/6/3
f 1054/6/3 1048/6/3 1053/6/3
f 1055/4/3 1042/4/3 1022/4/3
f 1056/12/3 1043/12/3 1042/12/3
f 1056/4/3 1042/4/3 1055/4/3
f 1057/2/3 1049/2/3 1043/2/3
f 1057/12/3 1043/12/3 1056/12/3
f 1057/2/3 1051/2/3 1050/2/3
f 1057/2/3 1050/2/3 1049/2/3
f 1057/2/3 1052/2/3 1051/2/3
f 1058/2/3 1052/2/3 1057/2/3
f 1059/2/3 1052/2/3 1058/2/3
f 1060/2/3 1052/2/3 1059/2/3
f 1061/2/3 1028/2/3 1052/2/3
f 1061/2/3 1052/2/3 1060/2/3
f 1066/5/3 1060/5/3 1059/5/3
f 1067/5/3 1060/5/3 1066/5/3
f 1069/6/3 1063/6/3 1062/6/3
f 1070/6/3 1063/6/3 1069/6/3
f 1071/7/3 1065/7/3 1064/7/3
f 1071/7/3 1066/7/3 1065/7/3
f 1072/7/3 1066/7/3 1071/7/3
f 1076/5/3 1069/5/3 1068/5/3
f 1077/5/3 1069/5/3 1076/5/3
f 1078/5/3 1074/5/3 1073/5/3
f 1079/10/3 1075/10/3 1074/10/3
f 1079/5/3 1074/5/3 1078/5/3
f 1080/5/3 1076/5/3 1075/5/3
f 1080/10/3 1075/10/3 1079/10/3
f 1081/5/3 1076/5/3 1080/5/3
f 1084/5/3 1083/5/3 1082/5/3
f 1085/5/3 1083/5/3 1084/5/3
f 1092/6/3 1085/6/3 1084/6/3
f 1093/5/3 1086/5/3 1085/5/3
f 1093/6/3 1085/6/3 1092/6/3
f 1094/10/3 1087/10/3 1086/10/3
f 1094/5/3 1086/5/3 1093/5/3
f 1095/5/3 1088/5/3 1087/5/3
f 1095/10/3 1087/10/3 1094/10/3
f 1096/6/3 1089/6/3 1088/6/3
f 1096/5/3 1088/5/3 1095/5/3
f 1097/6/3 1089/6/3 1096/6/3
f 1098/7/3 1091/7/3 1090/7/3
f 1099/7/3 1091/7/3 1098/7/3
f 1106/10/3 1101/10/3 1100/10/3
f 1107/10/3 1101/10/3 1106/10/3
f 1108/10/3 1105/10/3 1104/10/3
f 1109/10/3 1105/10/3 1108/10/3
f 1110/9/3 1109/9/3 1108/9/3
f 1111/9/3 1109/9/3 1110/9/3
f 1112/12/3 1103/12/3 1102/12/3
f 1113/12/3 1103/12/3 1112/12/3
f 1114/10/3 1111/10/3 1110/10/3
f 1115/10/3 1111/10/3 1114/10/3
f 1118/10/3 1117/10/3 1116/10/3
f 1119/10/3 1117/10/3 1118/10/3
f 1123/5/3 1119/5/3 1118/5/3
f 1124/5/3 1119/5/3 1123/5/3
f 1125/5/3 1121/5/3 1120/5/3
f 1126/5/3 1121/5/3 1125/5/3
f 1127/5/3 1123/5/3 1122/5/3
f 1128/5/3 1123/5/3 1127/5/3
f 1133/7/3 1130/7/3 1129/7/3
f 1134/7/3 1130/7/3 1133/7/3
f 1135/7/3 1132/7/3 1131/7/3
f 1136/7/3 1132/7/3 1135/7/3
f 1139/6/3 1138/6/3 1137/6/3
f 1140/6/3 1138/6/3 1139/6/3
f 1146/5/3 1142/5/3 1141/5/3
f 1147/10/3 1143/10/3 1142/10/3
f 1147/5/3 1142/5/3 1146/5/3
f 1147/10/3 1144/10/3 1143/10/3
f 1148/5/3 1145/5/3 1144/5/3
f 1148/10/3 1144/10/3 1147/10/3
f 1149/5/3 1145/5/3 1148/5/3
f 1152/7/3 1151/7/3 1150/7/3
f 1153/7/3 1151/7/3 1152/7/3
f 1155/6/3 1154/6/3 1153/6/3
f 1156/6/3 1154/6/3 1155/6/3
f 1159/7/3 1158/7/3 1157/7/3
f 1160/7/3 1158/7/3 1159/7/3
f 1163/6/3 1162/6/3 1161/6/3
f 1164/6/3 1162/6/3 1163/6/3
f 1167/10/3 1166/10/3 1165/10/3
f 1168/10/3 1166/10/3 1167/10/3
f 1169/5/3 1168/5/3 1167/5/3
f 1170/5/3 1168/5/3 1169/5/3
f 1171/5/3 1168/5/3 1170/5/3
f 1174/5/3 1173/5/3 1172/5/3
f 1175/5/3 1173/5/3 1174/5/3
f 1176/5/3 1173/5/3 1175/5/3
f 1177/5/3 1173/5/3 1176/5/3
f 1178/5/3 1173/5/3 1177/5/3
f 1181/5/3 1180/5/3 1179/5/3
f 1182/5/3 1180/5/3 1181/5/3
f 1183/5/3 1180/5/3 1182/5/3
f 1185/5/3 1183/5/3 1182/5/3
f 1186/5/3 1183/5/3 1185/5/3
f 1187/10/3 1184/10/3 1183/10/3
f 1187/5/3 1183/5/3 1186/5/3
f 1188/10/3 1184/10/3 1187/10/3
f 1189/5/3 1187/5/3 1186/5/3
f 1189/5/3 1188/5/3 1187/5/3
f 1190/5/3 1188/5/3 1189/5/3
f 1193/5/3 1192/5/3 1191/5/3
f 1194/5/3 1192/5/3 1193/5/3
f 1198/5/3 1196/5/3 1195/5/3
f 1199/7/3 1197/7/3 1196/7/3
f 1199/5/3 1196/5/3 1198/5/3
f 1200/7/3 1197/7/3 1199/7/3
f 1203/10/3 1202/10/3 1201/10/3
f 1204/10/3 1202/10/3 1203/10/3
f 1207/5/3 1206/5/3 1205/5/3
f 1208/5/3 1206/5/3 1207/5/3
f 1210/6/3 1209/6/3 1208/6/3
f 1211/6/3 1209/6/3 1210/6/3
f 1215/6/3 1213/6/3 1212/6/3
f 1216/10/3 1214/10/3 1213/10/3
f 1216/6/3 1213/6/3 1215/6/3
f 1217/5/3 1216/5/3 1215/5/3
f 1218/10/3 1214/10/3 1216/10/3
f 1218/5/3 1216/5/3 1217/5/3
f 1219/10/3 1214/10/3 1218/10/3
f 1220/10/3 1214/10/3 1219/10/3
f 1223/5/3 1222/5/3 1221/5/3
f 1224/5/3 1222/5/3 1223/5/3
f 1227/5/3 1223/5/3 1221/5/3
f 1228/10/3 1224/10/3 1223/10/3
f 1228/5/3 1223/5/3 1227/5/3
f 1229/10/3 1224/10/3 1228/10/3
f 1230/5/3 1226/5/3 1225/5/3
f 1231/5/3 1226/5/3 1230/5/3
f 1236/5/3 1233/5/3 1232/5/3
f 1237/7/3 1234/7/3 1233/7/3
f 1237/5/3 1233/5/3 1236/5/3
f 1238/7/3 1234/7/3 1237/7/3
f 1239/5/3 1235/5/3 1234/5/3
f 1239/7/3 1234/7/3 1238/7/3
f 1240/5/3 1235/5/3 1239/5/3
f 1242/5/3 1239/5/3 1238/5/3
f 1243/7/3 1240/7/3 1239/7/3
f 1243/5/3 1239/5/3 1242/5/3
f 1244/6/3 1241/6/3 1240/6/3
f 1244/7/3 1240/7/3 1243/7/3
f 1245/6/3 1241/6/3 1244/6/3
f 1248/5/3 1247/5/3 1246/5/3
f 1249/5/3 1247/5/3 1248/5/3
f 1250/5/3 1247/5/3 1249/5/3
f 1251/5/3 1247/5/3 1250/5/3
f 1252/5/3 1250/5/3 1249/5/3
f 1253/5/3 1250/5/3 1252/5/3
f 1257/5/3 1255/5/3 1254/5/3
f 1258/5/3 1255/5/3 1257/5/3
f 1261/5/3 1257/5/3 1256/5/3
f 1261/5/3 1258/5/3 1257/5/3
f 1261/5/3 1259/5/3 1258/5/3
f 1262/5/3 1259/5/3 1261/5/3
f 1263/6/3 1260/6/3 1259/6/3
f 1263/5/3 1259/5/3 1262/5/3
f 1264/6/3 1260/6/3 1263/6/3
f 1265/5/3 1263/5/3 1262/5/3
f 1265/5/3 1264/5/3 1263/5/3
f 1266/5/3 1264/5/3 1265/5/3
f 1267/10/4 1268/10/4 1270/10/4
f 1268/5/4 1269/5/4 1271/5/4
f 1270/10/4 1268/10/4 1271/10/4
f 1271/5/4 1269/5/4 1272/5/4
f 1273/10/4 1274/10/4 1275/10/4
f 1275/10/4 1274/10/4 1276/10/4
f 1277/5/4 1278/5/4 1279/5/4
f 1279/5/4 1278/5/4 1280/5/4
f 1281/10/4 1282/10/4 1283/10/4
f 1281/10/4 1283/10/4 1285/10/4
f 1283/5/4 1284/5/4 1285/5/4
f 1285/5/4 1284/5/4 1286/5/4
f 1281/10/4 1285/10/4 1287/10/4
f 1287/10/4 1285/10/4 1288/10/4
f 1289/10/4 1290/10/4 1291/10/4
f 1291/10/4 1290/10/4 1292/10/4
f 1293/10/4 1294/10/4 1295/10/4
f 1295/10/4 1294/10/4 1296/10/4
f 1297/5/4 1298/5/4 1305/5/4
f 1305/5/4 1298/5/4 1306/5/4
f 1298/10/4 1299/10/4 1307/10/4
f 1306/5/4 1298/5/4 1307/5/4
f 1307/10/4 1299/10/4 1308/10/4
f 1300/10/4 1301/10/4 1309/10/4
f 1302/5/4 1303/5/4 1310/5/4
f 1310/5/4 1303/5/4 1311/5/4
f 1304/7/4 1305/7/4 1312/7/4
f 1312/7/4 1305/7/4 1313/7/4
f 1300/10/4 1309/10/4 1314/10/4
f 1314/10/4 1309/10/4 1315/10/4
f 1316/10/4 1317/10/4 1319/10/4
f 1317/5/4 1318/5/4 1320/5/4
f 1319/10/4 1317/10/4 1320/10/4
f 1320/5/4 1318/5/4 1321/5/4
f 1322/10/4 1323/10/4 1324/10/4
f 1324/10/4 1323/10/4 1325/10/4
f 1326/10/4 1327/10/4 1329/10/4
f 1327/5/4 1328/5/4 1330/5/4
f 1329/10/4 1327/10/4 1330/10/4
f 1330/5/4 1328/5/4 1331/5/4
f 1330/10/4 1331/10/4 1336/10/4
f 1331/5/4 1328/5/4 1337/5/4
f 1336/10/4 1331/10/4 1337/10/4
f 1337/5/4 1328/5/4 1338/5/4
f 1332/5/4 1333/5/4 1339/5/4
f 1333/7/4 1334/7/4 1340/7/4
f 1339/5/4 1333/5/4 1340/5/4
f 1334/5/4 1335/5/4 1341/5/4
f 1340/7/4 1334/7/4 1341/7/4
f 1341/5/4 1335/5/4 1342/5/4
f 1343/6/4 1344/6/4 1346/6/4
f 1346/6/4 1344/6/4 1347/6/4
f 1345/5/4 1346/5/4 1348/5/4
f 1348/5/4 1346/5/4 1349/5/4
f 1350/5/4 1351/5/4 1352/5/4
f 1352/5/4 1351/5/4 1353/5/4
f 1353/5/4 1351/5/4 1354/5/4
f 1355/5/4 1356/5/4 1357/5/4
f 1357/5/4 1356/5/4 1358/5/4
f 1359/5/4 1360/5/4 1363/5/4
f 1360/10/4 1361/10/4 1364/10/4
f 1363/5/4 1360/5/4 1364/5/4
f 1361/5/4 1362/5/4 1365/5/4
f 1364/10/4 1361/10/4 1365/10/4
f 1365/5/4 1362/5/4 1366/5/4
f 1367/7/4 1368/7/4 1370/7/4
f 1370/7/4 1368/7/4 1371/7/4
f 1369/5/4 1370/5/4 1372/5/4
f 1372/5/4 1370/5/4 1373/5/4
f 1374/5/4 1375/5/4 1380/5/4
f 1380/5/4 1375/5/4 1381/5/4
f 1376/5/4 1377/5/4 1383/5/4
f 1378/5/4 1379/5/4 1384/5/4
f 1384/5/4 1379/5/4 1385/5/4
f 1381/5/4 1382/5/4 1386/5/4
f 1382/6/4 1383/6/4 1387/6/4
f 1386/5/4 1382/5/4 1387/5/4
f 1383/5/4 1377/5/4 1388/5/4
f 1387/6/4 1383/6/4 1388/6/4
f 1388/5/4 1377/5/4 1389/5/4
f 1390/7/4 1391/7/4 1392/7/4
f 1392/7/4 1391/7/4 1393/7/4
f 1394/6/4 1395/6/4 1398/6/4
f 1398/6/4 1395/6/4 1399/6/4
f 1396/5/4 1397/5/4 1402/5/4
f 1402/5/4 1397/5/4 1403/5/4
f 1400/5/4 1401/5/4 1404/5/4
f 1404/5/4 1401/5/4 1405/5/4
f 1406/6/4 1407/6/4 1409/6/4
f 1407/5/4 1408/5/4 1410/5/4
f 1409/6/4 1407/6/4 1410/6/4
f 1410/5/4 1408/5/4 1411/5/4
f 1412/7/4 1413/7/4 1415/7/4
f 1413/6/4 1414/6/4 1416/6/4
f 1415/7/4 1413/7/4 1416/7/4
f 1416/6/4 1414/6/4 1417/6/4
f 1417/6/4 1414/6/4 1418/6/4
f 1416/6/4 1417/6/4 1423/6/4
f 1417/5/4 1418/5/4 1424/5/4
f 1423/6/4 1417/6/4 1424/6/4
f 1418/6/4 1419/6/4 1425/6/4
f 1424/5/4 1418/5/4 1425/5/4
f 1419/10/4 1420/10/4 1426/10/4
f 1425/6/4 1419/6/4 1426/6/4
f 1420/7/4 1421/7/4 1427/7/4
f 1426/10/4 1420/10/4 1427/10/4
f 1421/10/4 1422/10/4 1428/10/4
f 1427/7/4 1421/7/4 1428/7/4
f 1428/10/4 1422/10/4 1429/10/4
f 1430/5/4 1431/5/4 1434/5/4
f 1434/5/4 1431/5/4 1435/5/4
f 1432/12/4 1433/12/4 1436/12/4
f 1436/12/4 1433/12/4 1437/12/4
f 1438/7/4 1439/7/4 1441/7/4
f 1441/7/4 1439/7/4 1442/7/4
f 1440/7/4 1441/7/4 1447/7/4
f 1447/7/4 1441/7/4 1448/7/4
f 1443/7/4 1444/7/4 1449/7/4
f 1449/7/4 1444/7/4 1450/7/4
f 1445/7/4 1446/7/4 1451/7/4
f 1451/7/4 1446/7/4 1452/7/4
f 1453/7/4 1454/7/4 1455/7/4
f 1455/7/4 1454/7/4 1456/7/4
f 1456/10/4 1457/10/4 1462/10/4
f 1462/10/4 1457/10/4 1463/10/4
f 1460/2/4 1461/2/4 1464/2/4
f 1458/4/4 1459/4/4 1468/4/4
f 1459/12/4 1460/12/4 1469/12/4
f 1468/4/4 1459/4/4 1469/4/4
f 1464/2/4 1465/2/4 1470/2/4
f 1469/12/4 1460/12/4 1470/12/4
f 1460/2/4 1464/2/4 1470/2/4
f 1470/2/4 1465/2/4 1471/2/4
f 1466/5/4 1467/5/4 1473/5/4
f 1473/5/4 1467/5/4 1474/5/4
f 1468/12/4 1469/12/4 1475/12/4
f 1458/4/4 1468/4/4 1475/4/4
f 1471/2/4 1472/2/4 1476/2/4
f 1475/12/4 1469/12/4 1476/12/4
f 1469/2/4 1470/2/4 1476/2/4
f 1470/2/4 1471/2/4 1476/2/4
f 1476/2/4 1472/2/4 1477/2/4
f 1478/5/4 1479/5/4 1480/5/4
f 1480/5/4 1479/5/4 1481/5/4
f 1458/4/4 1475/4/4 1482/4/4
f 1475/4/4 1476/4/4 1482/4/4
f 1476/12/4 1477/12/4 1483/12/4
f 1482/4/4 1476/4/4 1483/4/4
f 1477/2/4 1472/2/4 1484/2/4
f 1483/12/4 1477/12/4 1484/12/4
f 1484/2/4 1472/2/4 1485/2/4
f 1480/10/4 1481/10/4 1487/10/4
f 1487/10/4 1481/10/4 1488/10/4
f 1486/7/4 1487/7/4 1493/7/4
f 1493/7/4 1487/7/4 1494/7/4
f 1489/5/4 1490/5/4 1495/5/4
f 1495/5/4 1490/5/4 1496/5/4
f 1491/5/4 1492/5/4 1501/5/4
f 1492/10/4 1493/10/4 1502/10/4
f 1501/5/4 1492/5/4 1502/5/4
f 1502/10/4 1493/10/4 1503/10/4
f 1496/7/4 1497/7/4 1504/7/4
f 1497/5/4 1498/5/4 1505/5/4
f 1504/7/4 1497/7/4 1505/7/4
f 1505/5/4 1498/5/4 1506/5/4
f 1499/10/4 1500/10/4 1507/10/4
f 1507/10/4 1500/10/4 1508/10/4
f 1509/7/4 1510/7/4 1511/7/4
f 1511/7/4 1510/7/4 1512/7/4
f 1514/5/4 1515/5/4 1518/5/4
f 1513/5/4 1514/5/4 1518/5/4
f 1518/5/4 1515/5/4 1519/5/4
f 1516/7/4 1517/7/4 1520/7/4
f 1520/7/4 1517/7/4 1521/7/4
f 1519/5/4 1515/5/4 1522/5/4
f 1522/5/4 1515/5/4 1523/5/4
f 1524/7/4 1525/7/4 1527/7/4
f 1525/5/4 1526/5/4 1528/5/4
f 1527/7/4 1525/7/4 1528/7/4
f 1528/5/4 1526/5/4 1530/5/4
f 1530/5/4 1526/5/4 1531/5/4
f 1529/10/4 1530/10/4 1532/10/4
f 1532/10/4 1530/10/4 1533/10/4
f 1532/5/4 1533/5/4 1535/5/4
f 1535/5/4 1533/5/4 1536/5/4
f 1534/5/4 1535/5/4 1541/5/4
f 1541/5/4 1535/5/4 1542/5/4
f 1537/5/4 1538/5/4 1543/5/4
f 1543/5/4 1538/5/4 1544/5/4
f 1538/10/4 1539/10/4 1545/10/4
f 1544/5/4 1538/5/4 1545/5/4
f 1539/5/4 1540/5/4 1546/5/4
f 1545/10/4 1539/10/4 1546/10/4
f 1546/5/4 1540/5/4 1547/5/4
f 1544/5/4 1545/5/4 1548/5/4
f 1548/5/4 1545/5/4 1549/5/4
f 1550/7/4 1551/7/4 1552/7/4
f 1552/7/4 1551/7/4 1553/7/4
f 1553/5/4 1554/5/4 1555/5/4
f 1555/5/4 1554/5/4 1556/5/4
f 1556/10/4 1557/10/4 1560/10/4
f 1557/5/4 1558/5/4 1561/5/4
f 1559/5/4 1560/5/4 1563/5/4
f 1560/10/4 1557/10/4 1564/10/4
f 1563/5/4 1560/5/4 1564/5/4
f 1557/5/4 1561/5/4 1565/5/4
f 1564/10/4 1557/10/4 1565/10/4
f 1561/7/4 1562/7/4 1566/7/4
f 1565/5/4 1561/5/4 1566/5/4
f 1566/7/4 1562/7/4 1567/7/4
f 1567/7/4 1562/7/4 1568/7/4
f 1568/7/4 1562/7/4 1569/7/4
f 1569/10/4 1570/10/4 1572/10/4
f 1572/10/4 1570/10/4 1573/10/4
f 1571/10/4 1572/10/4 1575/10/4
f 1575/10/4 1572/10/4 1576/10/4
f 1574/5/4 1575/5/4 1578/5/4
f 1576/5/4 1577/5/4 1578/5/4
f 1575/5/4 1576/5/4 1578/5/4
f 1578/5/4 1577/5/4 1579/5/4
f 1579/5/4 1577/5/4 1580/5/4
f 1580/5/4 1577/5/4 1581/5/4
f 1579/5/4 1580/5/4 1582/5/4
f 1582/5/4 1580/5/4 1583/5/4
f 1582/10/4 1583/10/4 1587/10/4
f 1587/10/4 1583/10/4 1588/10/4
f 1584/10/4 1585/10/4 1589/10/4
f 1585/7/4 1586/7/4 1590/7/4
f 1589/10/4 1585/10/4 1590/10/4
f 1586/5/4 1587/5/4 1591/5/4
f 1590/7/4 1586/7/4 1591/7/4
f 1591/5/4 1587/5/4 1592/5/4
f 1593/6/4 1594/6/4 1596/6/4
f 1594/7/4 1595/7/4 1597/7/4
f 1596/6/4 1594/6/4 1597/6/4
f 1597/7/4 1595/7/4 1598/7/4
f 1596/5/4 1597/5/4 1600/5/4
f 1597/6/4 1598/6/4 1601/6/4
f 1600/5/4 1597/5/4 1601/5/4
f 1598/7/4 1599/7/4 1602/7/4
f 1601/6/4 1598/6/4 1602/6/4
f 1602/7/4 1599/7/4 1603/7/4
f 1603/6/4 1604/6/4 1605/6/4
f 1602/6/4 1603/6/4 1605/6/4
f 1601/6/4 1602/6/4 1605/6/4
f 1605/6/4 1604/6/4 1606/6/4
f 1607/6/4 1608/6/4 1612/6/4
f 1612/6/4 1608/6/4 1613/6/4
f 1609/5/4 1610/5/4 1614/5/4
f 1610/10/4 1611/10/4 1615/10/4
f 1614/5/4 1610/5/4 1615/5/4
f 1615/10/4 1611/10/4 1616/10/4
f 1613/10/4 1614/10/4 1618/10/4
f 1614/10/4 1615/10/4 1618/10/4
f 1618/10/4 1615/10/4 1619/10/4
f 1616/5/4 1617/5/4 1620/5/4
f 1619/10/4 1615/10/4 1620/10/4
f 1615/5/4 1616/5/4 1620/5/4
f 1620/5/4 1617/5/4 1621/5/4
f 1621/5/4 1617/5/4 1622/5/4
f 1618/10/4 1619/10/4 1623/10/4
f 1623/10/4 1619/10/4 1624/10/4
f 1624/10/4 1625/10/4 1627/10/4
f 1627/10/4 1625/10/4 1628/10/4
f 1626/5/4 1627/5/4 1630/5/4
f 1630/5/4 1627/5/4 1631/5/4
f 1627/6/4 1628/6/4 1632/6/4
f 1631/5/4 1627/5/4 1632/5/4
f 1628/7/4 1629/7/4 1633/7/4
f 1632/6/4 1628/6/4 1633/6/4
f 1633/7/4 1629/7/4 1634/7/4
f 1631/10/4 1632/10/4 1635/10/4
f 1633/6/4 1634/6/4 1636/6/4
f 1635/10/4 1632/10/4 1636/10/4
f 1632/6/4 1633/6/4 1636/6/4
f 1636/6/4 1634/6/4 1637/6/4
f 1638/7/4 1639/7/4 1643/7/4
f 1639/5/4 1640/5/4 1644/5/4
f 1643/7/4 1639/7/4 1644/7/4
f 1644/5/4 1640/5/4 1645/5/4
f 1641/10/4 1642/10/4 1647/10/4
f 1647/10/4 1642/10/4 1648/10/4
f 1644/7/4 1645/7/4 1649/7/4
f 1645/6/4 1646/6/4 1650/6/4
f 1649/7/4 1645/7/4 1650/7/4
f 1646/7/4 1647/7/4 1651/7/4
f 1650/6/4 1646/6/4 1651/6/4
f 1651/7/4 1647/7/4 1652/7/4
f 1653/5/4 1654/5/4 1656/5/4
f 1654/6/4 1655/6/4 1657/6/4
f 1656/5/4 1654/5/4 1657/5/4
f 1657/6/4 1655/6/4 1658/6/4
f 1659/5/4 1660/5/4 1663/5/4
f 1661/6/4 1662/6/4 1666/6/4
f 1666/6/4 1662/6/4 1667/6/4
f 1659/5/4 1663/5/4 1668/5/4
f 1668/5/4 1663/5/4 1669/5/4
f 1664/5/4 1665/5/4 1670/5/4
f 1670/5/4 1665/5/4 1671/5/4
f 1672/5/4 1673/5/4 1676/5/4
f 1673/7/4 1674/7/4 1677/7/4
f 1676/5/4 1673/5/4 1677/5/4
f 1677/7/4 1674/7/4 1678/7/4
f 1675/5/4 1676/5/4 1680/5/4
f 1676/5/4 1677/5/4 1680/5/4
f 1680/5/4 1677/5/4 1681/5/4
f 1681/5/4 1677/5/4 1682/5/4
f 1678/6/4 1679/6/4 1683/6/4
f 1683/6/4 1679/6/4 1684/6/4
f 1684/6/4 1679/6/4 1685/6/4
f 1681/5/4 1682/5/4 1686/5/4
f 1683/5/4 1684/5/4 1686/5/4
f 1682/5/4 1683/5/4 1686/5/4
f 1686/5/4 1684/5/4 1687/5/4
f 1688/5/4 1689/5/4 1691/5/4
f 1689/6/4 1690/6/4 1692/6/4
f 1691/5/4 1689/5/4 1692/5/4
f 1692/6/4 1690/6/4 1693/6/4
f 1691/6/4 1692/6/4 1694/6/4
f 1694/6/4 1692/6/4 1695/6/4
f 1696/6/4 1697/6/4 1698/6/4
f 1698/6/4 1697/6/4 1699/6/4
f 1705/10/5 1701/10/5 1700/10/5
f 1706/10/5 1701/10/5 1705/10/5
f 1709/10/5 1703/10/5 1702/10/5
f 1710/10/5 1703/10/5 1709/10/5
f 1712/10/5 1707/10/5 1706/10/5
f 1712/10/5 1705/10/5 1704/10/5
f 1712/10/5 1706/10/5 1705/10/5
f 1713/10/5 1707/10/5 1712/10/5
f 1714/10/5 1711/10/5 1710/10/5
f 1714/10/5 1710/10/5 1709/10/5
f 1714/10/5 1709/10/5 1708/10/5
f 1715/10/5 1711/10/5 1714/10/5
f 1716/10/5 1714/10/5 1708/10/5
f 1717/10/5 1714/10/5 1716/10/5
f 1720/12/5 1719/12/5 1718/12/5
f 1721/12/5 1719/12/5 1720/12/5
f 1724/10/5 1723/10/5 1722/10/5
f 1725/10/5 1723/10/5 1724/10/5
f 1730/10/5 1727/10/5 1726/10/5
f 1731/10/5 1727/10/5 1730/10/5
f 1732/4/5 1729/4/5 1728/4/5
f 1733/4/5 1729/4/5 1732/4/5
f 1734/4/5 1732/4/5 1728/4/5
f 1735/4/5 1729/4/5 1733/4/5
f 1736/4/5 1734/4/5 1728/4/5
f 1736/4/5 1735/4/5 1734/4/5
f 1737/4/5 1729/4/5 1735/4/5
f 1737/4/5 1735/4/5 1736/4/5
f 1740/6/5 1739/6/5 1738/6/5
f 1741/6/5 1739/6/5 1740/6/5
f 1744/10/5 1743/10/5 1742/10/5
f 1745/10/5 1743/10/5 1744/10/5
f 1748/5/5 1747/5/5 1746/5/5
f 1749/5/5 1747/5/5 1748/5/5
f 1752/5/5 1751/5/5 1750/5/5
f 1753/5/5 1751/5/5 1752/5/5
f 1754/10/5 1753/10/5 1752/10/5
f 1755/10/5 1753/10/5 1754/10/5
f 1758/5/5 1755/5/5 1754/5/5
f 1759/5/5 1755/5/5 1758/5/5
f 1760/5/5 1757/5/5 1756/5/5
f 1761/5/5 1757/5/5 1760/5/5
f 1762/5/5 1760/5/5 1756/5/5
f 1763/5/5 1760/5/5 1762/5/5
f 1768/5/5 1765/5/5 1764/5/5
f 1769/5/5 1765/5/5 1768/5/5
f 1770/5/5 1767/5/5 1766/5/5
f 1771/5/5 1767/5/5 1770/5/5
f 1774/5/5 1773/5/5 1772/5/5
f 1775/5/5 1773/5/5 1774/5/5
f 1778/6/5 1777/6/5 1776/6/5
f 1779/6/5 1777/6/5 1778/6/5
f 1783/5/5 1780/5/5 1779/5/5
f 1784/5/5 1780/5/5 1783/5/5
f 1786/5/5 1782/5/5 1781/5/5
f 1787/5/5 1782/5/5 1786/5/5
f 1788/6/5 1786/6/5 1785/6/5
f 1789/6/5 1786/6/5 1788/6/5
f 1795/5/5 1791/5/5 1790/5/5
f 1796/5/5 1793/5/5 1792/5/5
f 1797/5/5 1793/5/5 1796/5/5
f 1798/5/5 1795/5/5 1794/5/5
f 1799/5/5 1791/5/5 1795/5/5
f 1799/5/5 1795/5/5 1798/5/5
f 1802/6/5 1801/6/5 1800/6/5
f 1803/6/5 1801/6/5 1802/6/5
f 1806/7/5 1805/7/5 1804/7/5
f 1807/7/5 1805/7/5 1806/7/5
f 1809/5/5 1808/5/5 1807/5/5
f 1810/5/5 1808/5/5 1809/5/5
f 1814/5/5 1812/5/5 1811/5/5
f 1815/6/5 1813/6/5 1812/6/5
f 1815/5/5 1812/5/5 1814/5/5
f 1816/6/5 1813/6/5 1815/6/5
f 1819/7/5 1818/7/5 1817/7/5
f 1820/7/5 1818/7/5 1819/7/5
f 1823/5/5 1822/5/5 1821/5/5
f 1824/5/5 1822/5/5 1823/5/5
f 1827/5/5 1826/5/5 1825/5/5
f 1828/5/5 1826/5/5 1827/5/5
f 1830/6/5 1828/6/5 1827/6/5
f 1831/5/5 1829/5/5 1828/5/5
f 1831/6/5 1828/6/5 1830/6/5
f 1832/5/5 1829/5/5 1831/5/5
f 1835/5/5 1834/5/5 1833/5/5
f 1836/5/5 1834/5/5 1835/5/5
f 1839/7/5 1838/7/5 1837/7/5
f 1840/7/5 1838/7/5 1839/7/5
f 1843/2/5 1842/2/5 1841/2/5
f 1844/2/5 1842/2/5 1843/2/5
f 1845/2/5 1842/2/5 1844/2/5
f 1846/2/5 1842/2/5 1845/2/5
f 1849/7/5 1848/7/5 1847/7/5
f 1850/7/5 1848/7/5 1849/7/5
f 1854/6/5 1851/6/5 1850/6/5
f 1855/6/5 1851/6/5 1854/6/5
f 1856/6/5 1853/6/5 1852/6/5
f 1857/6/5 1853/6/5 1856/6/5
f 1861/7/5 1857/7/5 1856/7/5
f 1862/7/5 1857/7/5 1861/7/5
f 1863/5/5 1859/5/5 1858/5/5
f 1864/5/5 1861/5/5 1860/5/5
f 1865/5/5 1861/5/5 1864/5/5
f 1866/5/5 1859/5/5 1863/5/5
f 1867/5/5 1859/5/5 1866/5/5
f 1869/6/5 1868/6/5 1867/6/5
f 1870/6/5 1868/6/5 1869/6/5
f 1874/5/5 1872/5/5 1871/5/5
f 1875/5/5 1872/5/5 1874/5/5
f 1876/5/5 1874/5/5 1873/5/5
f 1877/5/5 1874/5/5 1876/5/5
f 1879/5/5 1878/5/5 1877/5/5
f 1880/5/5 1878/5/5 1879/5/5
f 1884/5/5 1882/5/5 1881/5/5
f 1885/6/5 1883/6/5 1882/6/5
f 1885/5/5 1882/5/5 1884/5/5
f 1886/6/5 1883/6/5 1885/6/5
f 1887/5/5 1886/5/5 1885/5/5
f 1888/5/5 1886/5/5 1887/5/5
f 1891/5/5 1890/5/5 1889/5/5
f 1892/5/5 1890/5/5 1891/5/5
f 1895/5/5 1894/5/5 1893/5/5
f 1896/5/5 1894/5/5 1895/5/5
f 1902/5/5 1898/5/5 1897/5/5
f 1902/5/5 1899/5/5 1898/5/5
f 1903/5/5 1899/5/5 1902/5/5
f 1904/5/5 1901/5/5 1900/5/5
f 1905/5/5 1901/5/5 1904/5/5
f 1906/5/5 1902/5/5 1897/5/5
f 1907/5/5 1902/5/5 1906/5/5
f 1912/6/5 1908/6/5 1907/6/5
f 1913/5/5 1909/5/5 1908/5/5
f 1913/6/5 1908/6/5 1912/6/5
f 1914/5/5 1909/5/5 1913/5/5
f 1915/5/5 1911/5/5 1910/5/5
f 1916/5/5 1911/5/5 1915/5/5
f 1917/5/5 1911/5/5 1916/5/5
f 1920/10/5 1919/10/5 1918/10/5
f 1921/10/5 1919/10/5 1920/10/5
f 1924/10/5 1920/10/5 1918/10/5
f 1925/10/5 1920/10/5 1924/10/5
f 1926/10/5 1922/10/5 1921/10/5
f 1927/10/5 1922/10/5 1926/10/5
f 1929/10/5 1924/10/5 1923/10/5
f 1930/10/5 1924/10/5 1929/10/5
f 1933/10/5 1929/10/5 1928/10/5
f 1934/5/5 1932/5/5 1931/5/5
f 1935/5/5 1932/5/5 1934/5/5
f 1936/10/5 1929/10/5 1933/10/5
f 1937/10/5 1929/10/5 1936/10/5
f 1938/5/5 1937/5/5 1936/5/5
f 1939/5/5 1937/5/5 1938/5/5
f 1944/10/5 1941/10/5 1940/10/5
f 1945/10/5 1941/10/5 1944/10/5
f 1946/5/5 1943/5/5 1942/5/5
f 1947/5/5 1943/5/5 1946/5/5
f 1952/10/5 1949/10/5 1948/10/5
f 1953/10/5 1949/10/5 1952/10/5
f 1956/10/5 1951/10/5 1950/10/5
f 1957/10/5 1951/10/5 1956/10/5
f 1958/10/5 1955/10/5 1954/10/5
f 1959/10/5 1955/10/5 1958/10/5
f 1966/7/5 1961/7/5 1960/7/5
f 1967/10/5 1962/10/5 1961/10/5
f 1967/7/5 1961/7/5 1966/7/5
f 1968/10/5 1962/10/5 1967/10/5
f 1971/5/5 1964/5/5 1963/5/5
f 1972/5/5 1964/5/5 1971/5/5
f 1973/5/5 1966/5/5 1965/5/5
f 1974/5/5 1966/5/5 1973/5/5
f 1975/7/5 1968/7/5 1967/7/5
f 1976/10/5 1969/10/5 1968/10/5
f 1976/7/5 1968/7/5 1975/7/5
f 1977/10/5 1969/10/5 1976/10/5
f 1979/7/5 1971/7/5 1970/7/5
f 1980/7/5 1971/7/5 1979/7/5
f 1981/8/5 1974/8/5 1973/8/5
f 1981/8/5 1975/8/5 1974/8/5
f 1981/8/5 1977/8/5 1976/8/5
f 1981/8/5 1976/8/5 1975/8/5
f 1981/8/5 1973/8/5 1972/8/5
f 1982/5/5 1978/5/5 1977/5/5
f 1982/8/5 1977/8/5 1981/8/5
f 1983/5/5 1978/5/5 1982/5/5
f 1985/5/5 1984/5/5 1983/5/5
f 1985/8/5 1983/8/5 1982/8/5
f 1986/5/5 1984/5/5 1985/5/5
f 1987/8/5 1981/8/5 1980/8/5
f 1988/8/5 1985/8/5 1982/8/5
f 1988/10/5 1986/10/5 1985/10/5
f 1989/10/5 1986/10/5 1988/10/5
f 1991/8/5 1981/8/5 1987/8/5
f 1992/5/5 1991/5/5 1990/5/5
f 1993/8/5 1981/8/5 1991/8/5
f 1993/5/5 1991/5/5 1992/5/5
f 1994/8/5 1988/8/5 1982/8/5
f 1994/5/5 1989/5/5 1988/5/5
f 1995/5/5 1989/5/5 1994/5/5
f 1996/10/5 1993/10/5 1992/10/5
f 1997/8/5 1981/8/5 1993/8/5
f 1997/10/5 1993/10/5 1996/10/5
f 1998/8/5 1981/8/5 1997/8/5
f 2000/8/5 1994/8/5 1982/8/5
f 2001/8/5 1994/8/5 2000/8/5
f 2003/8/5 2000/8/5 1999/8/5
f 2004/8/5 2000/8/5 2003/8/5
f 2005/5/5 2001/5/5 2000/5/5
f 2005/8/5 2000/8/5 2004/8/5
f 2006/5/5 2001/5/5 2005/5/5
f 2007/5/5 2004/5/5 2003/5/5
f 2007/5/5 2003/5/5 2002/5/5
f 2008/5/5 2004/5/5 2007/5/5
f 2009/5/5 2004/5/5 2008/5/5
f 2010/10/5 2005/10/5 2004/10/5
f 2010/5/5 2004/5/5 2009/5/5
f 2011/10/5 2005/10/5 2010/10/5
f 2013/10/5 2009/10/5 2008/10/5
f 2014/10/5 2009/10/5 2013/10/5
f 2015/5/5 2013/5/5 2012/5/5
f 2016/5/5 2013/5/5 2015/5/5
f 2019/5/5 2018/5/5 2017/5/5
f 2020/5/5 2018/5/5 2019/5/5
f 2021/5/5 2018/5/5 2020/5/5
f 2022/10/6 2023/10/6 2028/10/6
f 2028/10/6 2023/10/6 2029/10/6
f 2024/10/6 2025/10/6 2031/10/6
f 2031/10/6 2025/10/6 2032/10/6
f 2026/10/6 2027/10/6 2033/10/6
f 2033/10/6 2027/10/6 2034/10/6
f 2029/10/6 2030/10/6 2035/10/6
f 2035/10/6 2030/10/6 2036/10/6
f 2037/7/6 2038/7/6 2039/7/6
f 2039/7/6 2038/7/6 2040/7/6
f 2041/7/6 2042/7/6 2043/7/6
f 2043/7/6 2042/7/6 2044/7/6
f 2045/6/6 2046/6/6 2048/6/6
f 2048/6/6 2046/6/6 2049/6/6
f 2047/6/6 2048/6/6 2052/6/6
f 2048/5/6 2049/5/6 2053/5/6
f 2052/6/6 2048/6/6 2053/6/6
f 2053/5/6 2049/5/6 2054/5/6
f 2050/6/6 2051/6/6 2055/6/6
f 2055/6/6 2051/6/6 2056/6/6
f 2056/6/6 2057/6/6 2058/6/6
f 2058/6/6 2057/6/6 2059/6/6
f 2060/7/6 2061/7/6 2062/7/6
f 2062/7/6 2061/7/6 2063/7/6
f 2062/5/6 2063/5/6 2067/5/6
f 2067/5/6 2063/5/6 2068/5/6
f 2065/7/6 2066/7/6 2069/7/6
f 2064/6/6 2065/6/6 2069/6/6
f 2069/7/6 2066/7/6 2070/7/6
f 2064/6/6 2069/6/6 2071/6/6
f 2071/6/6 2069/6/6 2072/6/6
f 2073/7/6 2074/7/6 2075/7/6
f 2075/7/6 2074/7/6 2076/7/6
f 2076/6/6 2077/6/6 2078/6/6
f 2078/6/6 2077/6/6 2079/6/6
f 2080/6/6 2081/6/6 2086/6/6
f 2086/6/6 2081/6/6 2087/6/6
f 2082/5/6 2083/5/6 2090/5/6
f 2084/2/6 2085/2/6 2091/2/6
f 2091/2/6 2085/2/6 2092/2/6
f 2092/2/6 2085/2/6 2093/2/6
f 2093/2/6 2085/2/6 2094/2/6
f 2087/7/6 2088/7/6 2095/7/6
f 2095/7/6 2088/7/6 2096/7/6
f 2089/7/6 2090/7/6 2097/7/6
f 2090/5/6 2083/5/6 2098/5/6
f 2097/7/6 2090/7/6 2098/7/6
f 2098/5/6 2083/5/6 2101/5/6
f 2101/5/6 2083/5/6 2102/5/6
f 2099/5/6 2100/5/6 2103/5/6
f 2103/5/6 2100/5/6 2104/5/6
f 2105/5/6 2106/5/6 2107/5/6
f 2107/5/6 2106/5/6 2108/5/6
f 2109/5/6 2110/5/6 2111/5/6
f 2111/5/6 2110/5/6 2112/5/6
f 2113/5/6 2114/5/6 2115/5/6
f 2113/5/6 2115/5/6 2117/5/6
f 2115/5/6 2116/5/6 2117/5/6
f 2117/5/6 2116/5/6 2118/5/6
f 2119/6/6 2120/6/6 2123/6/6
f 2123/6/6 2120/6/6 2124/6/6
f 2121/6/6 2122/6/6 2125/6/6
f 2125/6/6 2122/6/6 2126/6/6
f 2127/7/6 2128/7/6 2129/7/6
f 2129/7/6 2128/7/6 2130/7/6
f 2131/5/6 2132/5/6 2135/5/6
f 2135/5/6 2132/5/6 2136/5/6
f 2133/5/6 2134/5/6 2137/5/6
f 2137/5/6 2134/5/6 2138/5/6
f 2139/5/6 2140/5/6 2141/5/6
f 2141/5/6 2140/5/6 2142/5/6
f 2143/5/6 2144/5/6 2145/5/6
f 2145/5/6 2144/5/6 2146/5/6
f 2147/6/6 2148/6/6 2149/6/6
f 2149/6/6 2148/6/6 2150/6/6
f 2151/5/6 2152/5/6 2153/5/6
f 2153/5/6 2152/5/6 2154/5/6
f 2155/7/6 2156/7/6 2157/7/6
f 2157/7/6 2156/7/6 2158/7/6
f 2158/7/6 2159/7/6 2160/7/6
f 2160/7/6 2159/7/6 2161/7/6
f 2162/6/6 2163/6/6 2164/6/6
f 2164/6/6 2163/6/6 2165/6/6
f 2166/7/6 2167/7/6 2168/7/6
f 2168/7/6 2167/7/6 2169/7/6
f 2172/5/6 2173/5/6 2174/5/6
f 2174/5/6 2173/5/6 2175/5/6
f 2170/5/6 2171/5/6 2176/5/6
f 2176/5/6 2171/5/6 2177/5/6
f 2177/6/6 2178/6/6 2179/6/6
f 2179/6/6 2178/6/6 2180/6/6
f 2181/7/6 2182/7/6 2185/7/6
f 2185/7/6 2182/7/6 2186/7/6
f 2183/6/6 2184/6/6 2187/6/6
f 2187/6/6 2184/6/6 2188/6/6
f 2189/7/6 2190/7/6 2191/7/6
f 2191/7/6 2190/7/6 2192/7/6
f 2193/10/6 2194/10/6 2195/10/6
f 2195/10/6 2194/10/6 2196/10/6
f 2197/10/6 2198/10/6 2199/10/6
f 2199/10/6 2198/10/6 2200/10/6
f 2201/5/6 2202/5/6 2205/5/6
f 2205/5/6 2202/5/6 2206/5/6
f 2203/10/6 2204/10/6 2207/10/6
f 2207/10/6 2204/10/6 2208/10/6
f 2209/5/6 2210/5/6 2213/5/6
f 2213/5/6 2210/5/6 2214/5/6
f 2211/5/6 2212/5/6 2215/5/6
f 2215/5/6 2212/5/6 2216/5/6
f 2217/10/6 2218/10/6 2219/10/6
f 2219/10/6 2218/10/6 2220/10/6
f 2221/5/6 2222/5/6 2227/5/6
f 2227/5/6 2222/5/6 2228/5/6
f 2223/5/6 2224/5/6 2229/5/6
f 2229/5/6 2224/5/6 2230/5/6
f 2225/7/6 2226/7/6 2234/7/6
f 2234/7/6 2226/7/6 2235/7/6
f 2231/7/6 2232/7/6 2236/7/6
f 2236/7/6 2232/7/6 2237/7/6
f 2233/5/6 2234/5/6 2239/5/6
f 2239/5/6 2234/5/6 2240/5/6
f 2237/5/6 2238/5/6 2241/5/6
f 2241/5/6 2238/5/6 2242/5/6
f 2242/5/6 2243/5/6 2249/5/6
f 2249/5/6 2243/5/6 2250/5/6
f 2244/6/6 2245/6/6 2251/6/6
f 2251/6/6 2245/6/6 2252/6/6
f 2247/3/6 2248/3/6 2257/3/6
f 2246/1/6 2247/1/6 2257/1/6
f 2257/3/6 2248/3/6 2258/3/6
f 2253/5/6 2254/5/6 2259/5/6
f 2259/5/6 2254/5/6 2260/5/6
f 2255/10/6 2256/10/6 2261/10/6
f 2261/10/6 2256/10/6 2262/10/6
f 2246/1/6 2257/1/6 2263/1/6
f 2257/1/6 2258/1/6 2263/1/6
f 2263/1/6 2258/1/6 2264/1/6
f 2258/3/6 2248/3/6 2265/3/6
f 2264/1/6 2258/1/6 2265/1/6
f 2265/3/6 2248/3/6 2266/3/6
f 2259/7/6 2260/7/6 2267/7/6
f 2267/7/6 2260/7/6 2268/7/6
f 2269/7/6 2270/7/6 2271/7/6
f 2271/7/6 2270/7/6 2272/7/6
f 2273/5/6 2274/5/6 2281/5/6
f 2281/5/6 2274/5/6 2282/5/6
f 2275/10/6 2276/10/6 2283/10/6
f 2283/10/6 2276/10/6 2284/10/6
f 2277/5/6 2278/5/6 2285/5/6
f 2285/5/6 2278/5/6 2286/5/6
f 2279/7/6 2280/7/6 2287/7/6
f 2280/6/6 2281/6/6 2288/6/6
f 2287/7/6 2280/7/6 2288/7/6
f 2288/6/6 2281/6/6 2289/6/6
f 2285/6/6 2286/6/6 2290/6/6
f 2290/6/6 2286/6/6 2291/6/6
f 2292/5/6 2293/5/6 2296/5/6
f 2296/5/6 2293/5/6 2297/5/6
f 2294/7/6 2295/7/6 2301/7/6
f 2295/10/6 2296/10/6 2302/10/6
f 2301/7/6 2295/7/6 2302/7/6
f 2296/5/6 2297/5/6 2303/5/6
f 2302/10/6 2296/10/6 2303/10/6
f 2303/5/6 2297/5/6 2304/5/6
f 2298/5/6 2299/5/6 2305/5/6
f 2305/5/6 2299/5/6 2306/5/6
f 2300/7/6 2301/7/6 2309/7/6
f 2309/7/6 2301/7/6 2310/7/6
f 2306/10/6 2307/10/6 2311/10/6
f 2311/10/6 2307/10/6 2312/10/6
f 2308/10/6 2309/10/6 2314/10/6
f 2312/5/6 2313/5/6 2315/5/6
f 2315/5/6 2313/5/6 2316/5/6
f 2308/10/6 2314/10/6 2318/10/6
f 2318/10/6 2314/10/6 2319/10/6
f 2317/6/6 2318/6/6 2320/6/6
f 2318/5/6 2319/5/6 2321/5/6
f 2320/6/6 2318/6/6 2321/6/6
f 2321/5/6 2319/5/6 2322/5/6
f 2321/5/6 2322/5/6 2323/5/6
f 2323/5/6 2322/5/6 2324/5/6
f 2323/7/6 2324/7/6 2327/7/6
f 2327/7/6 2324/7/6 2328/7/6
f 2325/10/6 2326/10/6 2331/10/6
f 2331/10/6 2326/10/6 2332/10/6
f 2328/7/6 2329/7/6 2333/7/6
f 2330/5/6 2331/5/6 2339/5/6
f 2339/5/6 2331/5/6 2340/5/6
f 2328/7/6 2333/7/6 2341/7/6
f 2333/7/6 2334/7/6 2341/7/6
f 2341/7/6 2334/7/6 2342/7/6
f 2335/10/6 2336/10/6 2343/10/6
f 2343/10/6 2336/10/6 2344/10/6
f 2337/5/6 2338/5/6 2345/5/6
f 2338/10/6 2339/10/6 2346/10/6
f 2345/5/6 2338/5/6 2346/5/6
f 2346/10/6 2339/10/6 2347/10/6
f 2342/5/6 2343/5/6 2348/5/6
f 2348/5/6 2343/5/6 2349/5/6
f 2350/5/6 2351/5/6 2355/5/6
f 2351/6/6 2352/6/6 2356/6/6
f 2353/7/6 2354/7/6 2359/7/6
f 2359/7/6 2354/7/6 2360/7/6
f 2355/5/6 2351/5/6 2361/5/6
f 2351/6/6 2356/6/6 2362/6/6
f 2361/5/6 2351/5/6 2362/5/6
f 2356/10/6 2357/10/6 2363/10/6
f 2362/6/6 2356/6/6 2363/6/6
f 2363/10/6 2357/10/6 2364/10/6
f 2359/7/6 2360/7/6 2366/7/6
f 2358/7/6 2359/7/6 2366/7/6
f 2366/7/6 2360/7/6 2367/7/6
f 2367/7/6 2360/7/6 2368/7/6
f 2363/10/6 2364/10/6 2369/10/6
f 2364/6/6 2365/6/6 2370/6/6
f 2369/10/6 2364/10/6 2370/10/6
f 2370/6/6 2365/6/6 2371/6/6
f 2366/5/6 2367/5/6 2373/5/6
f 2373/5/6 2367/5/6 2374/5/6
f 2371/5/6 2372/5/6 2376/5/6
f 2373/6/6 2374/6/6 2377/6/6
f 2377/6/6 2374/6/6 2378/6/6
f 2375/5/6 2376/5/6 2379/5/6
f 2376/5/6 2372/5/6 2380/5/6
f 2379/5/6 2376/5/6 2380/5/6
f 2380/5/6 2372/5/6 2381/5/6
f 2377/5/6 2378/5/6 2382/5/6
f 2382/5/6 2378/5/6 2383/5/6
f 2380/7/6 2381/7/6 2386/7/6
f 2386/7/6 2381/7/6 2387/7/6
f 2383/10/6 2384/10/6 2388/10/6
f 2382/10/6 2383/10/6 2388/10/6
f 2388/10/6 2384/10/6 2389/10/6
f 2389/10/6 2384/10/6 2390/10/6
f 2385/7/6 2386/7/6 2394/7/6
f 2394/7/6 2386/7/6 2395/7/6
f 2389/7/6 2390/7/6 2396/7/6
f 2390/7/6 2391/7/6 2396/7/6
f 2396/7/6 2391/7/6 2397/7/6
f 2397/7/6 2391/7/6 2398/7/6
f 2392/10/6 2393/10/6 2400/10/6
f 2393/5/6 2394/5/6 2401/5/6
f 2400/10/6 2393/10/6 2401/10/6
f 2401/5/6 2394/5/6 2402/5/6
f 2397/10/6 2398/10/6 2403/10/6
f 2403/10/6 2398/10/6 2404/10/6
f 2399/5/6 2400/5/6 2405/5/6
f 2405/5/6 2400/5/6 2406/5/6
f 2407/6/6 2408/6/6 2409/6/6
f 2409/6/6 2408/6/6 2410/6/6
f 2409/10/6 2410/10/6 2414/10/6
f 2410/10/6 2411/10/6 2414/10/6
f 2414/10/6 2411/10/6 2415/10/6
f 2411/6/6 2412/6/6 2416/6/6
f 2415/10/6 2411/10/6 2416/10/6
f 2416/6/6 2412/6/6 2417/6/6
f 2414/10/6 2415/10/6 2420/10/6
f 2413/10/6 2414/10/6 2420/10/6
f 2420/10/6 2415/10/6 2421/10/6
f 2415/5/6 2416/5/6 2422/5/6
f 2421/10/6 2415/10/6 2422/10/6
f 2416/6/6 2417/6/6 2423/6/6
f 2422/5/6 2416/5/6 2423/5/6
f 2418/5/6 2419/5/6 2424/5/6
f 2417/10/6 2418/10/6 2424/10/6
f 2424/5/6 2419/5/6 2425/5/6
f 2422/10/6 2423/10/6 2426/10/6
f 2420/5/6 2421/5/6 2426/5/6
f 2421/10/6 2422/10/6 2426/10/6
f 2426/10/6 2423/10/6 2427/10/6
f 2427/10/6 2423/10/6 2428/10/6
f 2417/10/6 2424/10/6 2429/10/6
f 2420/5/6 2426/5/6 2431/5/6
f 2426/5/6 2427/5/6 2431/5/6
f 2431/5/6 2427/5/6 2432/5/6
f 2428/10/6 2423/10/6 2433/10/6
f 2427/6/6 2428/6/6 2433/6/6
f 2423/6/6 2417/6/6 2434/6/6
f 2433/10/6 2423/10/6 2434/10/6
f 2417/10/6 2429/10/6 2435/10/6
f 2434/6/6 2417/6/6 2435/6/6
f 2429/7/6 2430/7/6 2436/7/6
f 2435/10/6 2429/10/6 2436/10/6
f 2436/7/6 2430/7/6 2437/7/6
f 2432/5/6 2427/5/6 2438/5/6
f 2427/6/6 2433/6/6 2439/6/6
f 2438/5/6 2427/5/6 2439/5/6
f 2433/6/6 2434/6/6 2439/6/6
f 2434/5/6 2435/5/6 2440/5/6
f 2439/6/6 2434/6/6 2440/6/6
f 2435/10/6 2436/10/6 2441/10/6
f 2440/5/6 2435/5/6 2441/5/6
f 2441/10/6 2436/10/6 2442/10/6
f 2439/5/6 2440/5/6 2443/5/6
f 2443/5/6 2440/5/6 2444/5/6
