# MagicaVoxel @ Ephtracy

# group
o 

# material
mtllib odium.mtl
usemtl palette

# normals
vn -1 0 0
vn 1 0 0
vn 0 0 1
vn 0 0 -1
vn 0 -1 0
vn 0 1 0

# texcoords
vt 0.00195312 0.5
vt 0.00585938 0.5
vt 0.0332031 0.5
vt 0.0371094 0.5
vt 0.0410156 0.5
vt 0.537109 0.5
vt 0.958984 0.5
vt 0.962891 0.5
vt 0.978516 0.5
vt 0.982422 0.5
vt 0.986328 0.5
vt 0.994141 0.5

# verts
v -0.4 0.4 -0.1
v -0.4 0.4 -0.2
v -0.4 0.4 -0.3
v -0.4 0.5 0.2
v -0.4 0.5 0.1
v -0.4 0.5 -0.1
v -0.4 0.5 -0.2
v -0.4 0.5 -0.3
v -0.4 0.6 0.2
v -0.4 0.6 0.1
v -0.4 0.6 -0.1
v -0.4 0.9 0
v -0.4 0.9 -0.1
v -0.4 0.9 -0.3
v -0.4 0.9 -0.4
v -0.4 1 -0.2
v -0.4 1 -0.3
v -0.4 1.1 0
v -0.4 1.1 -0.1
v -0.4 1.1 -0.2
v -0.4 1.1 -0.4
v -0.3 0.1 0.3
v -0.3 0.1 0.2
v -0.3 0.1 -0.3
v -0.3 0.2 0.3
v -0.3 0.2 0.2
v -0.3 0.4 -0.1
v -0.3 0.4 -0.2
v -0.3 0.4 -0.3
v -0.3 0.5 0.3
v -0.3 0.5 0.2
v -0.3 0.5 0.1
v -0.3 0.5 -0.1
v -0.3 0.5 -0.2
v -0.3 0.5 -0.3
v -0.3 0.6 0.3
v -0.3 0.6 0.2
v -0.3 0.6 0.1
v -0.3 0.6 -0.1
v -0.3 0.6 -0.2
v -0.3 0.6 -0.3
v -0.3 0.7 0.2
v -0.3 0.7 -0.2
v -0.3 0.7 -0.3
v -0.3 0.9 0
v -0.3 0.9 -0.1
v -0.3 0.9 -0.3
v -0.3 1 -0.2
v -0.3 1 -0.3
v -0.3 1.1 0
v -0.3 1.1 -0.1
v -0.3 1.1 -0.2
v -0.3 1.1 -0.3
v -0.3 1.2 0.2
v -0.3 1.2 -0.3
v -0.2 0 0.1
v -0.2 0 -0.2
v -0.2 0.1 0.1
v -0.2 0.1 -0.2
v -0.2 0.2 0.3
v -0.2 0.2 0.2
v -0.2 0.4 0.4
v -0.2 0.4 0.3
v -0.2 0.4 0.2
v -0.2 0.5 0.4
v -0.2 0.5 0.3
v -0.2 0.5 0.2
v -0.2 0.5 -0.3
v -0.2 0.5 -0.4
v -0.2 0.6 -0.3
v -0.2 0.6 -0.4
v -0.2 0.7 -0.3
v -0.2 0.7 -0.4
v -0.2 1.2 0.1
v -0.2 1.2 -0.2
v -0.2 1.3 0.1
v -0.2 1.3 -0.2
v -0.1 0.4 -0.3
v -0.1 0.4 -0.4
v -0.1 0.5 -0.3
v -0.1 0.5 -0.4
v -0.1 0.7 -0.3
v -0.1 0.7 -0.4
v -0.1 0.8 -0.3
v -0.1 0.8 -0.4
v 0 0.3 0.4
v 0 0.3 0.3
v 0 0.4 0.4
v 0 0.4 0.3
v 0 0.5 0.3
v 0 0.5 0.2
v 0 0.6 0.3
v 0 0.6 0.2
v 0.1 0 -0.3
v 0.1 0 -0.4
v 0.1 0.1 -0.3
v 0.1 0.1 -0.4
v 0.1 0.3 -0.3
v 0.1 0.3 -0.4
v 0.1 0.4 -0.3
v 0.1 0.4 -0.4
v 0.1 0.6 0.3
v 0.1 0.6 0.2
v 0.1 0.7 0.3
v 0.1 0.7 0.2
v 0.1 0.9 -0.3
v 0.1 0.9 -0.4
v 0.1 1 -0.3
v 0.1 1 -0.4
v 0.2 0.2 0.3
v 0.2 0.2 0.2
v 0.2 0.3 0.3
v 0.2 0.3 0.2
v 0.2 1 -0.3
v 0.2 1 -0.4
v 0.2 1.1 -0.3
v 0.2 1.1 -0.4
v -0.2 0.1 0.3
v -0.2 0.1 0.2
v -0.2 0.2 0.3
v -0.2 0.2 0.2
v -0.2 0.5 0.3
v -0.2 0.5 0.2
v -0.2 0.6 0.3
v -0.2 0.6 0.2
v -0.2 1 -0.3
v -0.2 1 -0.4
v -0.2 1.1 -0.3
v -0.2 1.1 -0.4
v -0.1 0.9 -0.3
v -0.1 0.9 -0.4
v -0.1 1 -0.3
v -0.1 1 -0.4
v 0 0.2 0.3
v 0 0.2 0.2
v 0 0.3 0.3
v 0 0.3 0.2
v 0 0.4 0.4
v 0 0.4 0.3
v 0 0.5 0.4
v 0 0.5 0.3
v 0.1 0.7 -0.3
v 0.1 0.7 -0.4
v 0.1 0.8 -0.3
v 0.1 0.8 -0.4
v 0.2 0 0.1
v 0.2 0 -0.2
v 0.2 0 -0.3
v 0.2 0 -0.4
v 0.2 0.1 0.1
v 0.2 0.1 -0.2
v 0.2 0.1 -0.3
v 0.2 0.1 -0.4
v 0.2 0.3 0.4
v 0.2 0.3 0.3
v 0.2 0.3 0.2
v 0.2 0.3 -0.3
v 0.2 0.3 -0.4
v 0.2 0.4 0.4
v 0.2 0.4 0.3
v 0.2 0.4 0.2
v 0.2 0.4 -0.3
v 0.2 0.4 -0.4
v 0.2 0.5 0.3
v 0.2 0.5 0.2
v 0.2 0.5 -0.3
v 0.2 0.5 -0.4
v 0.2 0.7 -0.3
v 0.2 0.7 -0.4
v 0.2 1.2 0.1
v 0.2 1.2 -0.2
v 0.2 1.3 0.1
v 0.2 1.3 -0.2
v 0.3 0.1 0.2
v 0.3 0.1 -0.3
v 0.3 0.2 0.3
v 0.3 0.2 0.2
v 0.3 0.2 0.1
v 0.3 0.3 0.3
v 0.3 0.3 0.2
v 0.3 0.3 0.1
v 0.3 0.3 0
v 0.3 0.4 0.1
v 0.3 0.4 0
v 0.3 0.4 -0.2
v 0.3 0.4 -0.3
v 0.3 0.4 -0.4
v 0.3 0.5 0.3
v 0.3 0.5 0.2
v 0.3 0.5 0
v 0.3 0.5 -0.2
v 0.3 0.5 -0.3
v 0.3 0.5 -0.4
v 0.3 0.6 0.3
v 0.3 0.6 0.2
v 0.3 0.6 0
v 0.3 0.6 -0.2
v 0.3 0.7 0.3
v 0.3 0.7 0.2
v 0.3 0.7 -0.2
v 0.3 0.7 -0.3
v 0.3 0.8 0
v 0.3 0.8 -0.2
v 0.3 0.9 0.2
v 0.3 0.9 0
v 0.3 0.9 -0.1
v 0.3 0.9 -0.3
v 0.3 1 -0.2
v 0.3 1 -0.3
v 0.3 1.1 0
v 0.3 1.1 -0.1
v 0.3 1.1 -0.2
v 0.3 1.1 -0.3
v 0.3 1.2 0.2
v 0.3 1.2 -0.3
v 0.4 0.2 0.2
v 0.4 0.2 0.1
v 0.4 0.3 0.2
v 0.4 0.3 0.1
v 0.4 0.3 0
v 0.4 0.4 0.1
v 0.4 0.4 0
v 0.4 0.4 -0.2
v 0.4 0.4 -0.3
v 0.4 0.5 0
v 0.4 0.5 -0.2
v 0.4 0.5 -0.3
v 0.4 0.6 0
v 0.4 0.6 -0.2
v 0.4 0.9 0
v 0.4 0.9 -0.1
v 0.4 0.9 -0.3
v 0.4 0.9 -0.4
v 0.4 1 -0.2
v 0.4 1 -0.3
v 0.4 1.1 0
v 0.4 1.1 -0.1
v 0.4 1.1 -0.2
v 0.4 1.1 -0.4
v -0.2 0.4 0.4
v -0.2 0.5 0.4
v 0 0.3 0.4
v 0 0.4 0.4
v 0 0.5 0.4
v 0.2 0.3 0.4
v 0.2 0.4 0.4
v -0.3 0.1 0.3
v -0.3 0.2 0.3
v -0.3 0.5 0.3
v -0.3 0.6 0.3
v -0.2 0.1 0.3
v -0.2 0.2 0.3
v -0.2 0.4 0.3
v -0.2 0.5 0.3
v -0.2 0.6 0.3
v -0.1 0.3 0.3
v -0.1 0.4 0.3
v 0 0.2 0.3
v 0 0.3 0.3
v 0 0.4 0.3
v 0 0.5 0.3
v 0 0.6 0.3
v 0.1 0.5 0.3
v 0.1 0.6 0.3
v 0.1 0.7 0.3
v 0.2 0.2 0.3
v 0.2 0.3 0.3
v 0.2 0.4 0.3
v 0.2 0.5 0.3
v 0.3 0.2 0.3
v 0.3 0.3 0.3
v 0.3 0.5 0.3
v 0.3 0.6 0.3
v 0.3 0.7 0.3
v -0.4 0.5 0.2
v -0.4 0.6 0.2
v -0.3 0.2 0.2
v -0.3 0.5 0.2
v -0.3 0.6 0.2
v -0.3 0.7 0.2
v -0.3 1.2 0.2
v -0.2 0.1 0.2
v -0.2 0.2 0.2
v -0.2 0.4 0.2
v -0.2 0.5 0.2
v -0.2 0.6 0.2
v -0.1 0.5 0.2
v -0.1 0.6 0.2
v -0.1 0.7 0.2
v 0 0.2 0.2
v 0 0.3 0.2
v 0 0.5 0.2
v 0 0.6 0.2
v 0.1 0.1 0.2
v 0.1 0.3 0.2
v 0.1 0.6 0.2
v 0.1 0.7 0.2
v 0.1 1 0.2
v 0.1 1.2 0.2
v 0.2 0.2 0.2
v 0.2 0.3 0.2
v 0.2 0.4 0.2
v 0.2 0.5 0.2
v 0.2 0.9 0.2
v 0.2 1 0.2
v 0.3 0.1 0.2
v 0.3 0.2 0.2
v 0.3 0.3 0.2
v 0.3 0.5 0.2
v 0.3 0.7 0.2
v 0.3 0.9 0.2
v 0.3 1.2 0.2
v 0.4 0.2 0.2
v 0.4 0.3 0.2
v -0.2 0 0.1
v -0.2 0.1 0.1
v -0.2 1.2 0.1
v -0.2 1.3 0.1
v 0 1.2 0.1
v 0 1.3 0.1
v 0.1 0.1 0.1
v 0.1 1.2 0.1
v 0.2 0 0.1
v 0.2 0.1 0.1
v 0.2 1.2 0.1
v 0.2 1.3 0.1
v 0.3 0.3 0.1
v 0.3 0.4 0.1
v 0.4 0.3 0.1
v 0.4 0.4 0.1
v -0.4 0.9 0
v -0.4 1.1 0
v -0.3 0.9 0
v -0.3 1.1 0
v 0.3 0.4 0
v 0.3 0.5 0
v 0.3 0.6 0
v 0.3 0.9 0
v 0.3 1.1 0
v 0.4 0.4 0
v 0.4 0.5 0
v 0.4 0.6 0
v 0.4 0.9 0
v 0.4 1.1 0
v -0.4 0.4 -0.1
v -0.4 0.5 -0.1
v -0.3 0.4 -0.1
v -0.3 0.5 -0.1
v -0.4 1 -0.2
v -0.4 1.1 -0.2
v -0.3 1 -0.2
v -0.3 1.1 -0.2
v 0.3 1 -0.2
v 0.3 1.1 -0.2
v 0.4 1 -0.2
v 0.4 1.1 -0.2
v -0.4 0.9 -0.3
v -0.4 1 -0.3
v -0.3 0.9 -0.3
v -0.3 1 -0.3
v 0.1 0 -0.3
v 0.1 0.1 -0.3
v 0.2 0 -0.3
v 0.2 0.1 -0.3
v 0.3 0.9 -0.3
v 0.3 1 -0.3
v 0.4 0.9 -0.3
v 0.4 1 -0.3
v 0.3 0.2 0.1
v 0.3 0.3 0.1
v 0.4 0.2 0.1
v 0.4 0.3 0.1
v 0.3 0.3 0
v 0.3 0.4 0
v 0.4 0.3 0
v 0.4 0.4 0
v -0.4 0.5 -0.1
v -0.4 0.6 -0.1
v -0.4 0.9 -0.1
v -0.4 1.1 -0.1
v -0.3 0.5 -0.1
v -0.3 0.6 -0.1
v -0.3 0.9 -0.1
v -0.3 1.1 -0.1
v 0.3 0.9 -0.1
v 0.3 1.1 -0.1
v 0.4 0.9 -0.1
v 0.4 1.1 -0.1
v -0.2 0 -0.2
v -0.2 0.1 -0.2
v -0.2 1.2 -0.2
v -0.2 1.3 -0.2
v -0.1 1.2 -0.2
v 0 0.1 -0.2
v 0.1 1.2 -0.2
v 0.1 1.3 -0.2
v 0.2 0 -0.2
v 0.2 0.1 -0.2
v 0.2 1.2 -0.2
v 0.2 1.3 -0.2
v 0.3 0.5 -0.2
v 0.3 0.6 -0.2
v 0.4 0.5 -0.2
v 0.4 0.6 -0.2
v -0.4 0.4 -0.3
v -0.4 0.5 -0.3
v -0.3 0.1 -0.3
v -0.3 0.4 -0.3
v -0.3 0.5 -0.3
v -0.3 0.6 -0.3
v -0.3 0.7 -0.3
v -0.3 0.9 -0.3
v -0.3 1.1 -0.3
v -0.3 1.2 -0.3
v -0.2 0.5 -0.3
v -0.2 0.6 -0.3
v -0.2 0.7 -0.3
v -0.2 0.8 -0.3
v -0.2 0.9 -0.3
v -0.2 1 -0.3
v -0.2 1.1 -0.3
v -0.2 1.2 -0.3
v -0.1 0.3 -0.3
v -0.1 0.4 -0.3
v -0.1 0.5 -0.3
v -0.1 0.7 -0.3
v -0.1 0.8 -0.3
v -0.1 0.9 -0.3
v -0.1 1 -0.3
v -0.1 1.1 -0.3
v -0.1 1.2 -0.3
v 0 0.1 -0.3
v 0 0.3 -0.3
v 0.1 0.1 -0.3
v 0.1 0.3 -0.3
v 0.1 0.4 -0.3
v 0.1 0.7 -0.3
v 0.1 0.8 -0.3
v 0.1 0.9 -0.3
v 0.1 1 -0.3
v 0.2 0.1 -0.3
v 0.2 0.3 -0.3
v 0.2 0.4 -0.3
v 0.2 0.5 -0.3
v 0.2 0.7 -0.3
v 0.2 0.8 -0.3
v 0.2 0.9 -0.3
v 0.2 1 -0.3
v 0.2 1.1 -0.3
v 0.2 1.2 -0.3
v 0.3 0.1 -0.3
v 0.3 0.4 -0.3
v 0.3 0.5 -0.3
v 0.3 0.7 -0.3
v 0.3 0.9 -0.3
v 0.3 1.1 -0.3
v 0.3 1.2 -0.3
v 0.4 0.4 -0.3
v 0.4 0.5 -0.3
v -0.4 0.9 -0.4
v -0.4 1.1 -0.4
v -0.3 1 -0.4
v -0.3 1.1 -0.4
v -0.2 0.5 -0.4
v -0.2 0.6 -0.4
v -0.2 0.7 -0.4
v -0.2 0.9 -0.4
v -0.2 1 -0.4
v -0.2 1.1 -0.4
v -0.1 0.4 -0.4
v -0.1 0.5 -0.4
v -0.1 0.6 -0.4
v -0.1 0.7 -0.4
v -0.1 0.8 -0.4
v -0.1 0.9 -0.4
v -0.1 1 -0.4
v 0.1 0 -0.4
v 0.1 0.1 -0.4
v 0.1 0.3 -0.4
v 0.1 0.4 -0.4
v 0.1 0.5 -0.4
v 0.1 0.7 -0.4
v 0.1 0.8 -0.4
v 0.1 0.9 -0.4
v 0.1 1 -0.4
v 0.2 0 -0.4
v 0.2 0.1 -0.4
v 0.2 0.3 -0.4
v 0.2 0.4 -0.4
v 0.2 0.5 -0.4
v 0.2 0.7 -0.4
v 0.2 0.9 -0.4
v 0.2 1 -0.4
v 0.2 1.1 -0.4
v 0.3 0.4 -0.4
v 0.3 0.5 -0.4
v 0.3 1 -0.4
v 0.3 1.1 -0.4
v 0.4 0.9 -0.4
v 0.4 1.1 -0.4
v -0.2 0 0.1
v 0.2 0 0.1
v -0.2 0 -0.2
v 0.2 0 -0.2
v 0.1 0 -0.3
v 0.2 0 -0.3
v 0.1 0 -0.4
v 0.2 0 -0.4
v -0.3 0.1 0.3
v -0.2 0.1 0.3
v -0.3 0.1 0.2
v -0.2 0.1 0.2
v 0.1 0.1 0.2
v 0.3 0.1 0.2
v -0.2 0.1 0.1
v 0.1 0.1 0.1
v 0.2 0.1 0.1
v -0.2 0.1 -0.2
v 0 0.1 -0.2
v 0.2 0.1 -0.2
v -0.3 0.1 -0.3
v 0 0.1 -0.3
v 0.1 0.1 -0.3
v 0.2 0.1 -0.3
v 0.3 0.1 -0.3
v -0.2 0.2 0.3
v 0 0.2 0.3
v 0.2 0.2 0.3
v 0.3 0.2 0.3
v -0.2 0.2 0.2
v 0 0.2 0.2
v 0.2 0.2 0.2
v 0.3 0.2 0.2
v 0.4 0.2 0.2
v 0.3 0.2 0.1
v 0.4 0.2 0.1
v 0 0.3 0.4
v 0.2 0.3 0.4
v 0 0.3 0.3
v 0.1 0.3 0.3
v 0.2 0.3 0.3
v 0 0.3 0.2
v 0.1 0.3 0.2
v 0.2 0.3 0.2
v 0.3 0.3 0.1
v 0.4 0.3 0.1
v 0.3 0.3 0
v 0.4 0.3 0
v -0.2 0.4 0.4
v 0 0.4 0.4
v -0.2 0.4 0.3
v -0.1 0.4 0.3
v 0 0.4 0.3
v 0.3 0.4 0
v 0.4 0.4 0
v -0.4 0.4 -0.1
v -0.3 0.4 -0.1
v -0.4 0.4 -0.2
v -0.3 0.4 -0.2
v 0.3 0.4 -0.2
v 0.4 0.4 -0.2
v -0.4 0.4 -0.3
v -0.3 0.4 -0.3
v -0.1 0.4 -0.3
v 0.1 0.4 -0.3
v 0.2 0.4 -0.3
v 0.3 0.4 -0.3
v 0.4 0.4 -0.3
v -0.1 0.4 -0.4
v 0.1 0.4 -0.4
v 0.2 0.4 -0.4
v 0.3 0.4 -0.4
v -0.3 0.5 0.3
v -0.2 0.5 0.3
v 0.2 0.5 0.3
v 0.3 0.5 0.3
v -0.4 0.5 0.2
v -0.3 0.5 0.2
v -0.2 0.5 0.2
v 0.2 0.5 0.2
v 0.3 0.5 0.2
v -0.4 0.5 0.1
v -0.3 0.5 0.1
v -0.4 0.5 -0.1
v -0.3 0.5 -0.1
v -0.2 0.5 -0.3
v -0.1 0.5 -0.3
v -0.2 0.5 -0.4
v -0.1 0.5 -0.4
v -0.4 0.9 0
v -0.3 0.9 0
v 0.3 0.9 0
v 0.4 0.9 0
v -0.4 0.9 -0.1
v -0.3 0.9 -0.1
v 0.3 0.9 -0.1
v 0.4 0.9 -0.1
v -0.4 0.9 -0.3
v -0.3 0.9 -0.3
v -0.2 0.9 -0.3
v -0.1 0.9 -0.3
v 0.1 0.9 -0.3
v 0.2 0.9 -0.3
v 0.3 0.9 -0.3
v 0.4 0.9 -0.3
v -0.4 0.9 -0.4
v -0.2 0.9 -0.4
v -0.1 0.9 -0.4
v 0.1 0.9 -0.4
v 0.2 0.9 -0.4
v 0.4 0.9 -0.4
v -0.4 1 -0.2
v -0.3 1 -0.2
v 0.3 1 -0.2
v 0.4 1 -0.2
v -0.4 1 -0.3
v -0.3 1 -0.3
v 0.3 1 -0.3
v 0.4 1 -0.3
v -0.3 0.2 0.3
v -0.2 0.2 0.3
v -0.3 0.2 0.2
v -0.2 0.2 0.2
v 0.2 0.3 0.3
v 0.3 0.3 0.3
v 0.2 0.3 0.2
v 0.3 0.3 0.2
v 0.4 0.3 0.2
v 0.3 0.3 0.1
v 0.4 0.3 0.1
v 0 0.4 0.4
v 0.2 0.4 0.4
v 0 0.4 0.3
v 0.2 0.4 0.3
v 0.3 0.4 0.1
v 0.4 0.4 0.1
v 0.3 0.4 0
v 0.4 0.4 0
v -0.2 0.5 0.4
v 0 0.5 0.4
v -0.2 0.5 0.3
v -0.1 0.5 0.3
v 0 0.5 0.3
v -0.2 0.5 0.2
v -0.1 0.5 0.2
v 0 0.5 0.2
v -0.4 0.5 -0.1
v -0.3 0.5 -0.1
v -0.4 0.5 -0.2
v -0.3 0.5 -0.2
v 0.3 0.5 -0.2
v 0.4 0.5 -0.2
v -0.4 0.5 -0.3
v -0.3 0.5 -0.3
v 0.2 0.5 -0.3
v 0.3 0.5 -0.3
v 0.4 0.5 -0.3
v 0.2 0.5 -0.4
v 0.3 0.5 -0.4
v -0.3 0.6 0.3
v -0.2 0.6 0.3
v 0 0.6 0.3
v 0.1 0.6 0.3
v -0.4 0.6 0.2
v -0.3 0.6 0.2
v -0.2 0.6 0.2
v 0 0.6 0.2
v 0.1 0.6 0.2
v -0.4 0.6 0.1
v -0.3 0.6 0.1
v 0.3 0.6 0
v 0.4 0.6 0
v -0.4 0.6 -0.1
v -0.3 0.6 -0.1
v 0.3 0.6 -0.2
v 0.4 0.6 -0.2
v 0.1 0.7 0.3
v 0.3 0.7 0.3
v 0.1 0.7 0.2
v 0.3 0.7 0.2
v -0.2 0.7 -0.3
v -0.1 0.7 -0.3
v 0.1 0.7 -0.3
v 0.2 0.7 -0.3
v -0.2 0.7 -0.4
v -0.1 0.7 -0.4
v 0.1 0.7 -0.4
v 0.2 0.7 -0.4
v -0.1 0.8 -0.3
v 0.1 0.8 -0.3
v -0.1 0.8 -0.4
v 0.1 0.8 -0.4
v -0.2 1 -0.3
v -0.1 1 -0.3
v 0.1 1 -0.3
v 0.2 1 -0.3
v -0.2 1 -0.4
v -0.1 1 -0.4
v 0.1 1 -0.4
v 0.2 1 -0.4
v -0.4 1.1 0
v -0.3 1.1 0
v 0.3 1.1 0
v 0.4 1.1 0
v -0.4 1.1 -0.1
v -0.3 1.1 -0.1
v 0.3 1.1 -0.1
v 0.4 1.1 -0.1
v -0.4 1.1 -0.2
v -0.3 1.1 -0.2
v 0.3 1.1 -0.2
v 0.4 1.1 -0.2
v -0.3 1.1 -0.3
v -0.2 1.1 -0.3
v 0.2 1.1 -0.3
v 0.3 1.1 -0.3
v -0.4 1.1 -0.4
v -0.3 1.1 -0.4
v -0.2 1.1 -0.4
v 0.2 1.1 -0.4
v 0.3 1.1 -0.4
v 0.4 1.1 -0.4
v -0.3 1.2 0.2
v 0.1 1.2 0.2
v 0.3 1.2 0.2
v -0.2 1.2 0.1
v 0 1.2 0.1
v 0.1 1.2 0.1
v 0.2 1.2 0.1
v -0.2 1.2 -0.2
v -0.1 1.2 -0.2
v 0.1 1.2 -0.2
v 0.2 1.2 -0.2
v -0.3 1.2 -0.3
v -0.2 1.2 -0.3
v -0.1 1.2 -0.3
v 0.2 1.2 -0.3
v 0.3 1.2 -0.3
v -0.2 1.3 0.1
v 0 1.3 0.1
v 0.2 1.3 0.1
v 0 1.3 0
v 0.1 1.3 0
v -0.2 1.3 -0.2
v 0.1 1.3 -0.2
v 0.2 1.3 -0.2

# faces
f 6/8/1 2/8/1 1/8/1
f 7/3/1 3/3/1 2/3/1
f 7/8/1 2/8/1 6/8/1
f 8/3/1 3/3/1 7/3/1
f 9/6/1 5/6/1 4/6/1
f 10/8/1 6/8/1 5/8/1
f 10/6/1 5/6/1 9/6/1
f 11/8/1 6/8/1 10/8/1
f 17/10/1 15/10/1 14/10/1
f 18/3/1 13/3/1 12/3/1
f 19/3/1 13/3/1 18/3/1
f 20/10/1 17/10/1 16/10/1
f 21/10/1 15/10/1 17/10/1
f 21/10/1 17/10/1 20/10/1
f 25/11/1 23/11/1 22/11/1
f 26/8/1 24/8/1 23/8/1
f 26/11/1 23/11/1 25/11/1
f 27/8/1 24/8/1 26/8/1
f 28/8/1 24/8/1 27/8/1
f 29/8/1 24/8/1 28/8/1
f 31/8/1 27/8/1 26/8/1
f 32/8/1 27/8/1 31/8/1
f 33/8/1 27/8/1 32/8/1
f 36/6/1 31/6/1 30/6/1
f 37/6/1 31/6/1 36/6/1
f 39/8/1 35/8/1 34/8/1
f 39/8/1 34/8/1 33/8/1
f 40/8/1 35/8/1 39/8/1
f 41/8/1 35/8/1 40/8/1
f 42/8/1 38/8/1 37/8/1
f 42/8/1 39/8/1 38/8/1
f 42/8/1 40/8/1 39/8/1
f 43/7/1 41/7/1 40/7/1
f 43/8/1 40/8/1 42/8/1
f 44/7/1 41/7/1 43/7/1
f 45/3/1 43/3/1 42/3/1
f 45/3/1 44/3/1 43/3/1
f 46/3/1 44/3/1 45/3/1
f 47/3/1 44/3/1 46/3/1
f 48/3/1 47/3/1 46/3/1
f 49/3/1 47/3/1 48/3/1
f 50/3/1 45/3/1 42/3/1
f 51/3/1 48/3/1 46/3/1
f 52/3/1 48/3/1 51/3/1
f 54/3/1 50/3/1 42/3/1
f 54/3/1 53/3/1 52/3/1
f 54/3/1 52/3/1 51/3/1
f 54/3/1 51/3/1 50/3/1
f 55/3/1 53/3/1 54/3/1
f 58/6/1 57/6/1 56/6/1
f 59/6/1 57/6/1 58/6/1
f 63/11/1 61/11/1 60/11/1
f 64/11/1 61/11/1 63/11/1
f 65/6/1 63/6/1 62/6/1
f 65/6/1 64/6/1 63/6/1
f 66/6/1 64/6/1 65/6/1
f 67/6/1 64/6/1 66/6/1
f 70/10/1 69/10/1 68/10/1
f 71/10/1 69/10/1 70/10/1
f 72/9/1 71/9/1 70/9/1
f 73/9/1 71/9/1 72/9/1
f 76/3/1 75/3/1 74/3/1
f 77/3/1 75/3/1 76/3/1
f 80/10/1 79/10/1 78/10/1
f 81/10/1 79/10/1 80/10/1
f 84/9/1 83/9/1 82/9/1
f 85/9/1 83/9/1 84/9/1
f 88/6/1 87/6/1 86/6/1
f 89/6/1 87/6/1 88/6/1
f 92/5/1 91/5/1 90/5/1
f 93/5/1 91/5/1 92/5/1
f 96/4/1 95/4/1 94/4/1
f 97/4/1 95/4/1 96/4/1
f 98/5/1 97/5/1 96/5/1
f 99/5/1 97/5/1 98/5/1
f 100/4/1 99/4/1 98/4/1
f 101/4/1 99/4/1 100/4/1
f 104/5/1 103/5/1 102/5/1
f 105/5/1 103/5/1 104/5/1
f 108/9/1 107/9/1 106/9/1
f 109/9/1 107/9/1 108/9/1
f 112/6/1 111/6/1 110/6/1
f 113/6/1 111/6/1 112/6/1
f 116/9/1 115/9/1 114/9/1
f 117/9/1 115/9/1 116/9/1
f 118/11/2 119/11/2 120/11/2
f 120/11/2 119/11/2 121/11/2
f 122/6/2 123/6/2 124/6/2
f 124/6/2 123/6/2 125/6/2
f 126/9/2 127/9/2 128/9/2
f 128/9/2 127/9/2 129/9/2
f 130/9/2 131/9/2 132/9/2
f 132/9/2 131/9/2 133/9/2
f 134/11/2 135/11/2 136/11/2
f 136/11/2 135/11/2 137/11/2
f 138/6/2 139/6/2 140/6/2
f 140/6/2 139/6/2 141/6/2
f 142/9/2 143/9/2 144/9/2
f 144/9/2 143/9/2 145/9/2
f 146/6/2 147/6/2 150/6/2
f 150/6/2 147/6/2 151/6/2
f 148/4/2 149/4/2 152/4/2
f 152/4/2 149/4/2 153/4/2
f 152/5/2 153/5/2 157/5/2
f 157/5/2 153/5/2 158/5/2
f 155/6/2 156/6/2 159/6/2
f 154/6/2 155/6/2 159/6/2
f 159/6/2 156/6/2 160/6/2
f 160/6/2 156/6/2 161/6/2
f 157/4/2 158/4/2 162/4/2
f 162/4/2 158/4/2 163/4/2
f 160/4/2 161/4/2 164/4/2
f 164/4/2 161/4/2 165/4/2
f 166/9/2 167/9/2 168/9/2
f 168/9/2 167/9/2 169/9/2
f 170/1/2 171/1/2 172/1/2
f 172/1/2 171/1/2 173/1/2
f 174/7/2 175/7/2 177/7/2
f 177/7/2 175/7/2 178/7/2
f 176/6/2 177/6/2 179/6/2
f 179/6/2 177/6/2 180/6/2
f 178/7/2 175/7/2 181/7/2
f 181/7/2 175/7/2 182/7/2
f 180/7/2 181/7/2 183/7/2
f 182/7/2 175/7/2 184/7/2
f 184/7/2 175/7/2 185/7/2
f 185/7/2 175/7/2 186/7/2
f 180/7/2 183/7/2 189/7/2
f 183/7/2 184/7/2 189/7/2
f 189/7/2 184/7/2 190/7/2
f 186/1/2 187/1/2 192/1/2
f 192/1/2 187/1/2 193/1/2
f 188/4/2 189/4/2 194/4/2
f 189/7/2 190/7/2 195/7/2
f 194/4/2 189/4/2 195/4/2
f 195/7/2 190/7/2 196/7/2
f 191/7/2 192/7/2 197/7/2
f 194/5/2 195/5/2 198/5/2
f 195/7/2 196/7/2 199/7/2
f 198/5/2 195/5/2 199/5/2
f 196/7/2 197/7/2 199/7/2
f 197/7/2 192/7/2 200/7/2
f 199/7/2 197/7/2 200/7/2
f 200/7/2 192/7/2 201/7/2
f 199/3/2 200/3/2 202/3/2
f 200/1/2 201/1/2 203/1/2
f 202/3/2 200/3/2 203/3/2
f 199/3/2 202/3/2 204/3/2
f 202/1/2 203/1/2 205/1/2
f 204/3/2 202/3/2 205/3/2
f 205/1/2 203/1/2 206/1/2
f 203/1/2 201/1/2 207/1/2
f 206/1/2 203/1/2 207/1/2
f 206/1/2 207/1/2 208/1/2
f 208/1/2 207/1/2 209/1/2
f 204/1/2 205/1/2 210/1/2
f 206/1/2 208/1/2 211/1/2
f 211/1/2 208/1/2 212/1/2
f 204/1/2 210/1/2 214/1/2
f 212/1/2 213/1/2 214/1/2
f 211/1/2 212/1/2 214/1/2
f 210/1/2 211/1/2 214/1/2
f 214/1/2 213/1/2 215/1/2
f 216/6/2 217/6/2 218/6/2
f 218/6/2 217/6/2 219/6/2
f 219/6/2 220/6/2 221/6/2
f 221/6/2 220/6/2 222/6/2
f 222/6/2 223/6/2 225/6/2
f 223/7/2 224/7/2 226/7/2
f 225/6/2 223/6/2 226/6/2
f 226/7/2 224/7/2 227/7/2
f 225/7/2 226/7/2 228/7/2
f 228/7/2 226/7/2 229/7/2
f 232/10/2 233/10/2 235/10/2
f 230/1/2 231/1/2 236/1/2
f 236/1/2 231/1/2 237/1/2
f 234/10/2 235/10/2 238/10/2
f 235/10/2 233/10/2 239/10/2
f 238/10/2 235/10/2 239/10/2
f 243/6/3 241/6/3 240/6/3
f 244/6/3 241/6/3 243/6/3
f 245/6/3 243/6/3 242/6/3
f 246/6/3 243/6/3 245/6/3
f 251/11/3 248/11/3 247/11/3
f 252/11/3 248/11/3 251/11/3
f 254/6/3 250/6/3 249/6/3
f 255/6/3 250/6/3 254/6/3
f 256/11/3 253/11/3 252/11/3
f 257/11/3 253/11/3 256/11/3
f 258/11/3 256/11/3 252/11/3
f 259/5/3 257/5/3 256/5/3
f 259/11/3 256/11/3 258/11/3
f 260/5/3 257/5/3 259/5/3
f 263/5/3 262/5/3 261/5/3
f 263/4/3 261/4/3 260/4/3
f 264/5/3 262/5/3 263/5/3
f 268/4/3 264/4/3 263/4/3
f 268/4/3 263/4/3 260/4/3
f 269/4/3 264/4/3 268/4/3
f 270/6/3 267/6/3 266/6/3
f 271/6/3 267/6/3 270/6/3
f 272/4/3 264/4/3 269/4/3
f 273/5/3 265/5/3 264/5/3
f 273/4/3 264/4/3 272/4/3
f 274/5/3 265/5/3 273/5/3
f 278/6/3 276/6/3 275/6/3
f 279/6/3 276/6/3 278/6/3
f 283/8/3 278/8/3 277/8/3
f 284/8/3 278/8/3 283/8/3
f 285/8/3 278/8/3 284/8/3
f 286/8/3 280/8/3 279/8/3
f 287/8/3 286/8/3 285/8/3
f 288/8/3 280/8/3 286/8/3
f 288/8/3 286/8/3 287/8/3
f 289/3/3 281/3/3 280/3/3
f 289/8/3 280/8/3 288/8/3
f 290/8/3 283/8/3 282/8/3
f 292/8/3 288/8/3 287/8/3
f 293/7/3 289/7/3 288/7/3
f 293/8/3 288/8/3 292/8/3
f 294/8/3 291/8/3 290/8/3
f 294/8/3 290/8/3 282/8/3
f 295/8/3 291/8/3 294/8/3
f 296/7/3 289/7/3 293/7/3
f 297/3/3 281/3/3 289/3/3
f 297/7/3 289/7/3 296/7/3
f 298/3/3 281/3/3 297/3/3
f 299/3/3 281/3/3 298/3/3
f 300/7/3 295/7/3 294/7/3
f 301/7/3 295/7/3 300/7/3
f 304/3/3 298/3/3 297/3/3
f 305/1/3 299/1/3 298/1/3
f 305/3/3 298/3/3 304/3/3
f 306/7/3 300/7/3 294/7/3
f 307/7/3 300/7/3 306/7/3
f 308/7/3 303/7/3 302/7/3
f 308/7/3 302/7/3 301/7/3
f 309/7/3 303/7/3 308/7/3
f 310/3/3 304/3/3 297/3/3
f 311/1/3 305/1/3 304/1/3
f 311/3/3 304/3/3 310/3/3
f 312/1/3 299/1/3 305/1/3
f 312/1/3 305/1/3 311/1/3
f 313/6/3 308/6/3 307/6/3
f 314/6/3 308/6/3 313/6/3
f 319/3/3 318/3/3 317/3/3
f 320/3/3 318/3/3 319/3/3
f 321/6/3 316/6/3 315/6/3
f 322/1/3 320/1/3 319/1/3
f 323/6/3 321/6/3 315/6/3
f 324/6/3 321/6/3 323/6/3
f 325/1/3 320/1/3 322/1/3
f 326/1/3 320/1/3 325/1/3
f 329/6/3 328/6/3 327/6/3
f 330/6/3 328/6/3 329/6/3
f 333/3/3 332/3/3 331/3/3
f 334/3/3 332/3/3 333/3/3
f 340/6/3 336/6/3 335/6/3
f 341/7/3 337/7/3 336/7/3
f 341/6/3 336/6/3 340/6/3
f 342/7/3 337/7/3 341/7/3
f 343/1/3 339/1/3 338/1/3
f 344/1/3 339/1/3 343/1/3
f 347/8/3 346/8/3 345/8/3
f 348/8/3 346/8/3 347/8/3
f 351/10/3 350/10/3 349/10/3
f 352/10/3 350/10/3 351/10/3
f 355/10/3 354/10/3 353/10/3
f 356/10/3 354/10/3 355/10/3
f 359/10/3 358/10/3 357/10/3
f 360/10/3 358/10/3 359/10/3
f 363/4/3 362/4/3 361/4/3
f 364/4/3 362/4/3 363/4/3
f 367/10/3 366/10/3 365/10/3
f 368/10/3 366/10/3 367/10/3
f 369/6/4 370/6/4 371/6/4
f 371/6/4 370/6/4 372/6/4
f 373/6/4 374/6/4 375/6/4
f 375/6/4 374/6/4 376/6/4
f 377/8/4 378/8/4 381/8/4
f 381/8/4 378/8/4 382/8/4
f 379/3/4 380/3/4 383/3/4
f 383/3/4 380/3/4 384/3/4
f 385/1/4 386/1/4 387/1/4
f 387/1/4 386/1/4 388/1/4
f 391/3/4 392/3/4 393/3/4
f 389/6/4 390/6/4 394/6/4
f 393/3/4 392/3/4 395/3/4
f 395/3/4 392/3/4 396/3/4
f 389/6/4 394/6/4 397/6/4
f 397/6/4 394/6/4 398/6/4
f 395/1/4 396/1/4 399/1/4
f 399/1/4 396/1/4 400/1/4
f 401/7/4 402/7/4 403/7/4
f 403/7/4 402/7/4 404/7/4
f 405/3/4 406/3/4 408/3/4
f 408/3/4 406/3/4 409/3/4
f 407/8/4 408/8/4 415/8/4
f 408/8/4 409/8/4 415/8/4
f 409/8/4 410/8/4 415/8/4
f 410/7/4 411/7/4 416/7/4
f 415/8/4 410/8/4 416/8/4
f 411/3/4 412/3/4 417/3/4
f 416/7/4 411/7/4 417/7/4
f 417/3/4 412/3/4 418/3/4
f 418/3/4 412/3/4 419/3/4
f 413/3/4 414/3/4 421/3/4
f 421/3/4 414/3/4 422/3/4
f 407/8/4 415/8/4 423/8/4
f 423/8/4 415/8/4 424/8/4
f 424/8/4 415/8/4 425/8/4
f 417/3/4 418/3/4 426/3/4
f 418/12/4 419/12/4 427/12/4
f 426/3/4 418/3/4 427/3/4
f 427/12/4 419/12/4 428/12/4
f 420/3/4 421/3/4 429/3/4
f 421/2/4 422/2/4 430/2/4
f 429/3/4 421/3/4 430/3/4
f 430/2/4 422/2/4 431/2/4
f 407/8/4 423/8/4 432/8/4
f 423/7/4 424/7/4 433/7/4
f 432/8/4 423/8/4 433/8/4
f 432/7/4 433/7/4 434/7/4
f 433/7/4 424/7/4 435/7/4
f 434/7/4 433/7/4 435/7/4
f 435/7/4 424/7/4 436/7/4
f 428/3/4 429/3/4 438/3/4
f 427/3/4 428/3/4 438/3/4
f 430/3/4 431/3/4 438/3/4
f 429/3/4 430/3/4 438/3/4
f 438/3/4 431/3/4 439/3/4
f 439/3/4 431/3/4 440/3/4
f 437/1/4 438/1/4 445/1/4
f 438/12/4 439/12/4 446/12/4
f 445/1/4 438/1/4 446/1/4
f 446/12/4 439/12/4 447/12/4
f 440/3/4 431/3/4 448/3/4
f 448/3/4 431/3/4 449/3/4
f 449/3/4 431/3/4 450/3/4
f 442/7/4 443/7/4 451/7/4
f 441/7/4 442/7/4 451/7/4
f 451/7/4 443/7/4 452/7/4
f 444/7/4 445/7/4 453/7/4
f 446/1/4 447/1/4 454/1/4
f 445/1/4 446/1/4 454/1/4
f 453/7/4 445/7/4 454/7/4
f 454/1/4 447/1/4 455/1/4
f 449/1/4 450/1/4 456/1/4
f 456/1/4 450/1/4 457/1/4
f 452/7/4 453/7/4 458/7/4
f 458/7/4 453/7/4 459/7/4
f 460/10/4 461/10/4 462/10/4
f 462/10/4 461/10/4 463/10/4
f 460/10/4 462/10/4 467/10/4
f 462/9/4 463/9/4 468/9/4
f 467/10/4 462/10/4 468/10/4
f 468/9/4 463/9/4 469/9/4
f 464/10/4 465/10/4 471/10/4
f 465/9/4 466/9/4 472/9/4
f 471/10/4 465/10/4 472/10/4
f 472/9/4 466/9/4 473/9/4
f 467/9/4 468/9/4 475/9/4
f 475/9/4 468/9/4 476/9/4
f 470/10/4 471/10/4 480/10/4
f 473/9/4 474/9/4 481/9/4
f 471/9/4 472/9/4 481/9/4
f 480/10/4 471/10/4 481/10/4
f 472/9/4 473/9/4 481/9/4
f 481/9/4 474/9/4 482/9/4
f 482/9/4 474/9/4 483/9/4
f 477/4/4 478/4/4 486/4/4
f 478/5/4 479/5/4 487/5/4
f 486/4/4 478/4/4 487/4/4
f 479/4/4 480/4/4 488/4/4
f 487/5/4 479/5/4 488/5/4
f 480/1/4 481/1/4 489/1/4
f 488/4/4 480/4/4 489/4/4
f 481/9/4 482/9/4 490/9/4
f 489/1/4 481/1/4 490/1/4
f 490/9/4 482/9/4 491/9/4
f 484/9/4 485/9/4 492/9/4
f 492/9/4 485/9/4 493/9/4
f 489/1/4 490/1/4 495/1/4
f 495/1/4 490/1/4 496/1/4
f 493/9/4 494/9/4 497/9/4
f 492/10/4 493/10/4 497/10/4
f 497/9/4 494/9/4 498/9/4
f 492/10/4 497/10/4 499/10/4
f 497/10/4 498/10/4 499/10/4
f 499/10/4 498/10/4 500/10/4
f 503/6/5 502/6/5 501/6/5
f 504/6/5 502/6/5 503/6/5
f 507/4/5 506/4/5 505/4/5
f 508/4/5 506/4/5 507/4/5
f 511/11/5 510/11/5 509/11/5
f 512/11/5 510/11/5 511/11/5
f 515/8/5 512/8/5 511/8/5
f 515/8/5 513/8/5 512/8/5
f 516/7/5 514/7/5 513/7/5
f 516/8/5 513/8/5 515/8/5
f 517/7/5 514/7/5 516/7/5
f 518/8/5 515/8/5 511/8/5
f 520/7/5 514/7/5 517/7/5
f 521/8/5 519/8/5 518/8/5
f 521/8/5 518/8/5 511/8/5
f 522/7/5 520/7/5 519/7/5
f 522/8/5 519/8/5 521/8/5
f 523/7/5 520/7/5 522/7/5
f 524/7/5 514/7/5 520/7/5
f 524/7/5 520/7/5 523/7/5
f 525/7/5 514/7/5 524/7/5
f 530/11/5 527/11/5 526/11/5
f 531/11/5 527/11/5 530/11/5
f 532/6/5 529/6/5 528/6/5
f 533/6/5 529/6/5 532/6/5
f 535/6/5 534/6/5 533/6/5
f 536/6/5 534/6/5 535/6/5
f 539/6/5 538/6/5 537/6/5
f 540/6/5 538/6/5 539/6/5
f 541/6/5 538/6/5 540/6/5
f 542/4/5 540/4/5 539/4/5
f 543/6/5 541/6/5 540/6/5
f 543/4/5 540/4/5 542/4/5
f 544/6/5 541/6/5 543/6/5
f 547/6/5 546/6/5 545/6/5
f 548/6/5 546/6/5 547/6/5
f 551/6/5 550/6/5 549/6/5
f 552/6/5 550/6/5 551/6/5
f 553/6/5 550/6/5 552/6/5
f 558/8/5 557/8/5 556/8/5
f 559/8/5 557/8/5 558/8/5
f 560/6/5 555/6/5 554/6/5
f 561/6/5 555/6/5 560/6/5
f 562/3/5 559/3/5 558/3/5
f 563/3/5 559/3/5 562/3/5
f 567/7/5 561/7/5 560/7/5
f 568/7/5 561/7/5 567/7/5
f 569/10/5 565/10/5 564/10/5
f 570/10/5 565/10/5 569/10/5
f 571/1/5 567/1/5 566/1/5
f 572/1/5 567/1/5 571/1/5
f 578/6/5 574/6/5 573/6/5
f 579/6/5 574/6/5 578/6/5
f 580/4/5 576/4/5 575/4/5
f 581/4/5 576/4/5 580/4/5
f 582/6/5 578/6/5 577/6/5
f 583/6/5 578/6/5 582/6/5
f 584/8/5 583/8/5 582/8/5
f 585/8/5 583/8/5 584/8/5
f 588/10/5 587/10/5 586/10/5
f 589/10/5 587/10/5 588/10/5
f 594/3/5 591/3/5 590/3/5
f 595/3/5 591/3/5 594/3/5
f 596/1/5 593/1/5 592/1/5
f 597/1/5 593/1/5 596/1/5
f 606/10/5 599/10/5 598/10/5
f 606/10/5 600/10/5 599/10/5
f 607/9/5 601/9/5 600/9/5
f 607/10/5 600/10/5 606/10/5
f 608/9/5 601/9/5 607/9/5
f 609/9/5 603/9/5 602/9/5
f 610/10/5 605/10/5 604/10/5
f 610/9/5 603/9/5 609/9/5
f 610/10/5 604/10/5 603/10/5
f 611/10/5 605/10/5 610/10/5
f 616/10/5 613/10/5 612/10/5
f 617/10/5 613/10/5 616/10/5
f 618/10/5 615/10/5 614/10/5
f 619/10/5 615/10/5 618/10/5
f 620/11/6 621/11/6 622/11/6
f 622/11/6 621/11/6 623/11/6
f 624/6/6 625/6/6 626/6/6
f 626/6/6 625/6/6 627/6/6
f 627/6/6 628/6/6 629/6/6
f 629/6/6 628/6/6 630/6/6
f 631/6/6 632/6/6 633/6/6
f 633/6/6 632/6/6 634/6/6
f 635/6/6 636/6/6 637/6/6
f 637/6/6 636/6/6 638/6/6
f 639/6/6 640/6/6 641/6/6
f 641/6/6 640/6/6 642/6/6
f 642/6/6 640/6/6 643/6/6
f 641/6/6 642/6/6 644/6/6
f 642/5/6 643/5/6 645/5/6
f 644/6/6 642/6/6 645/6/6
f 645/5/6 643/5/6 646/5/6
f 647/8/6 648/8/6 649/8/6
f 649/8/6 648/8/6 650/8/6
f 649/3/6 650/3/6 653/3/6
f 653/3/6 650/3/6 654/3/6
f 651/7/6 652/7/6 656/7/6
f 656/7/6 652/7/6 657/7/6
f 655/1/6 656/1/6 658/1/6
f 658/1/6 656/1/6 659/1/6
f 660/6/6 661/6/6 665/6/6
f 665/6/6 661/6/6 666/6/6
f 662/5/6 663/5/6 667/5/6
f 667/5/6 663/5/6 668/5/6
f 664/6/6 665/6/6 669/6/6
f 669/6/6 665/6/6 670/6/6
f 669/8/6 670/8/6 673/8/6
f 673/8/6 670/8/6 674/8/6
f 671/7/6 672/7/6 675/7/6
f 675/7/6 672/7/6 676/7/6
f 677/5/6 678/5/6 679/5/6
f 679/5/6 678/5/6 680/5/6
f 681/9/6 682/9/6 685/9/6
f 685/9/6 682/9/6 686/9/6
f 683/9/6 684/9/6 687/9/6
f 687/9/6 684/9/6 688/9/6
f 689/9/6 690/9/6 691/9/6
f 691/9/6 690/9/6 692/9/6
f 693/9/6 694/9/6 697/9/6
f 697/9/6 694/9/6 698/9/6
f 695/9/6 696/9/6 699/9/6
f 699/9/6 696/9/6 700/9/6
f 701/3/6 702/3/6 705/3/6
f 705/3/6 702/3/6 706/3/6
f 703/1/6 704/1/6 707/1/6
f 707/1/6 704/1/6 708/1/6
f 709/10/6 710/10/6 713/10/6
f 711/10/6 712/10/6 716/10/6
f 709/10/6 713/10/6 717/10/6
f 713/9/6 714/9/6 718/9/6
f 717/10/6 713/10/6 718/10/6
f 718/9/6 714/9/6 719/9/6
f 715/9/6 716/9/6 720/9/6
f 716/10/6 712/10/6 721/10/6
f 720/9/6 716/9/6 721/9/6
f 721/10/6 712/10/6 722/10/6
f 723/3/6 724/3/6 726/3/6
f 726/3/6 724/3/6 727/3/6
f 724/1/6 725/1/6 728/1/6
f 727/3/6 724/3/6 728/3/6
f 728/1/6 725/1/6 729/1/6
f 723/3/6 726/3/6 730/3/6
f 729/1/6 725/1/6 733/1/6
f 723/3/6 730/3/6 734/3/6
f 730/2/6 731/2/6 735/2/6
f 734/3/6 730/3/6 735/3/6
f 731/3/6 732/3/6 736/3/6
f 735/2/6 731/2/6 736/2/6
f 732/3/6 733/3/6 736/3/6
f 733/1/6 725/1/6 737/1/6
f 736/3/6 733/3/6 737/3/6
f 737/1/6 725/1/6 738/1/6
f 739/3/6 740/3/6 742/3/6
f 740/1/6 741/1/6 742/1/6
f 742/1/6 741/1/6 743/1/6
f 739/3/6 742/3/6 744/3/6
f 742/3/6 743/3/6 744/3/6
f 743/1/6 741/1/6 745/1/6
f 744/3/6 743/3/6 745/3/6
f 745/1/6 741/1/6 746/1/6
